<?xml version="1.0" encoding="iso-8859-1"?>
<!-- Generator: Adobe Illustrator 16.0.0, SVG Export Plug-In . SVG Version: 6.00 Build 0)  -->
<!DOCTYPE svg PUBLIC "-//W3C//DTD SVG 1.1//EN" "http://www.w3.org/Graphics/SVG/1.1/DTD/svg11.dtd">
<svg version="1.1" id="Layer_1" xmlns="http://www.w3.org/2000/svg" xmlns:xlink="http://www.w3.org/1999/xlink" x="0px" y="0px"
	 width="400px" height="370px" viewBox="0 0 400 370" style="enable-background:new 0 0 400 370;" xml:space="preserve">
<circle id="XMLID_4415_" style="fill:#5E6E94;" cx="190.286" cy="185" r="169.229"/>
<g id="XMLID_4394_">
	<g id="XMLID_4395_">
		<path id="XMLID_4400_" style="fill:#007396;" d="M219.636,320.945H60.31c-2.613,0-5.465-5.027-5.465-7.641l0.714-254.969
			c0-2.613,2.138-4.75,4.75-4.75h159.326c2.612,0,4.751,2.138,4.751,4.75v257.86C224.387,318.808,222.248,320.945,219.636,320.945z"
			/>
		<path id="XMLID_4399_" style="fill:#00A5E4;" d="M222.762,318.056H56.468c-0.893,0-1.624-0.731-1.624-1.624V52.318
			c0-0.893,0.73-1.623,1.624-1.623h166.293c0.895,0,1.625,0.73,1.625,1.623v264.113
			C224.387,317.324,223.656,318.056,222.762,318.056z"/>
		<path id="XMLID_4398_" style="fill:#B3E5F4;" d="M211.04,295.19H69.323c-0.879,0-1.599-0.72-1.599-1.6V71.133
			c0-0.879,0.72-1.599,1.599-1.599H211.04c0.879,0,1.599,0.72,1.599,1.599v222.458C212.639,294.471,211.919,295.19,211.04,295.19z"
			/>
		<path id="XMLID_4397_" style="fill:#C45F43;" d="M154.136,310.06h-27.908c-1.796,0-3.266-1.47-3.266-3.266l0,0
			c0-1.796,1.469-3.267,3.266-3.267h27.908c1.796,0,3.266,1.471,3.266,3.267l0,0C157.401,308.59,155.932,310.06,154.136,310.06z"/>
		<path id="XMLID_4396_" style="fill:#B3E5F4;" d="M154.136,308.702h-27.908c-1.796,0-3.266-1.47-3.266-3.266l0,0
			c0-1.797,1.469-3.267,3.266-3.267h27.908c1.796,0,3.266,1.47,3.266,3.267l0,0C157.401,307.232,155.932,308.702,154.136,308.702z"
			/>
	</g>
</g>
<g id="XMLID_4318_">
	<path id="XMLID_4324_" style="fill:#EF9CDA;" d="M145.955,181.625c6.684-4.386,11.783-10.523,15.598-16.681
		c0.746-1.205,0.795-2.698,0.139-3.954c-4.612-8.815-7.557-18.442-8.49-28.65c-4.589-50.23,41.257-95.479,102.402-101.065
		s114.432,30.604,119.021,80.834c4.59,50.231-41.257,95.479-102.402,101.066c-31.131,2.845-60.207-5.158-81.874-20.313
		c-0.944-0.66-2.117-0.866-3.234-0.591c-17.669,4.354-32.533-0.156-40.669-3.775C143.602,187.231,143.353,183.333,145.955,181.625z"
		/>
	<g id="XMLID_4319_">
		<circle id="XMLID_4323_" style="fill:#FCE6F7;" cx="265.615" cy="83.131" r="13.596"/>
		<g id="XMLID_4320_">
			<path id="XMLID_4321_" style="fill:#FCE6F7;" d="M286.972,150.089c1.718,0.76,2.578,1.495,2.578,2.207
				c0,1.709-2.782,5.081-8.346,10.112c-7.483,6.836-14.424,10.255-20.818,10.255c-4.669,0-7.003-2.3-7.003-6.899
				c0-1.944,0.96-7.919,2.879-17.925l3.741-19.346l0.959-4.908l0.767-3.912c0.32-1.66,0.48-3.059,0.48-4.197
				c0-2.37-0.892-3.556-2.674-3.556c-4.965,0-10.313,4.059-16.042,12.177c-1.21-0.807-1.813-1.614-1.813-2.421
				c0-2.895,3.598-6.789,10.793-11.679c7.194-4.889,12.935-7.334,17.22-7.334c4.796,0,7.195,2.465,7.195,7.396
				c0,0.949-0.258,2.893-0.769,5.833l-0.863,4.766c-0.063,0.38-0.416,2.3-1.055,5.762l-3.934,20.344l-0.959,4.552
				c-0.833,4.505-1.248,7.517-1.248,9.032c0,2.04,0.796,3.06,2.389,3.06C275.797,163.406,281.305,158.967,286.972,150.089z"/>
		</g>
	</g>
</g>
</svg>
