<?xml version="1.0" encoding="iso-8859-1"?>
<!-- Generator: Adobe Illustrator 16.0.0, SVG Export Plug-In . SVG Version: 6.00 Build 0)  -->
<!DOCTYPE svg PUBLIC "-//W3C//DTD SVG 1.1//EN" "http://www.w3.org/Graphics/SVG/1.1/DTD/svg11.dtd">
<svg version="1.1" id="Layer_1" xmlns="http://www.w3.org/2000/svg" xmlns:xlink="http://www.w3.org/1999/xlink" x="0px" y="0px"
	 width="320px" height="280px" viewBox="0 0 320 280" style="enable-background:new 0 0 320 280;" xml:space="preserve">
<path style="fill:#FF428E;" d="M269.375,19.209C202.65-8.955,159.683,61.457,159.683,61.457S115.9-8.455,49.504,20.481
	c-66.408,28.933-57.995,133.257-1.077,174.168c37.417,26.905,112.463,77.222,112.463,77.222s74.462-51.179,111.559-78.504
	C328.9,151.795,336.107,47.388,269.375,19.209z"/>
<g>
	<path style="fill:#3CA1FF;" d="M125.867,125.899l-35.37-0.005c-2.892-0.005-5.224,2.338-5.224,5.229l-0.007,65.521
		c0,2.911,2.338,5.239,5.234,5.234h35.357c2.89,0.005,5.224-2.318,5.224-5.229l0.004-65.532
		C131.082,128.237,128.752,125.899,125.867,125.899z"/>
	<path style="fill:#FFFFFF;" d="M236.813,129.51l-0.002-8.492c-0.007-3.665-2.975-6.663-6.66-6.648h-7.175l-42.535-0.005
		c11.283-16.611,5.399-29.999,2.186-35.893c-2.104-3.855-6.403-8.854-12.179-8.854l-0.376-0.005
		c-5.383-0.004-12.005,4.041-12.607,9.387c-0.441,3.992,3.139,12.698,1.064,19.835c-1.323,4.604-5.454,8.555-7.926,10.316
		c-2.481,1.762-14.241,9.421-14.23,14.02l-0.004,7.2c-0.133,1.589,0,2.559,0,2.559l-0.007,59.843c0,4.862,3.948,8.819,8.82,8.819
		l67.287,0.009v-0.082l7.177,0.004c3.668-0.004,7.155-0.146,9.509-5.634c2.359-5.484,2.65-9.515,2.65-9.515
		c-0.004-3.673-7.839-6.639-11.514-6.642c3.675,0.003,9.651-2.971,11.514-6.663c1.869-3.703,2.847-8.472,2.847-8.472
		c0.007-3.679-4.681-6.648-8.342-6.658c3.661,0.01,10.495-2.979,10.502-6.647v-8.492c-0.011-3.659-5.843-6.647-9.496-6.642
		C230.968,136.151,236.811,133.183,236.813,129.51z"/>
	<circle style="fill:#FFFFFF;" cx="115.503" cy="185.076" r="6.315"/>
</g>
</svg>
