<?xml version="1.0" encoding="iso-8859-1"?>
<!-- Generator: Adobe Illustrator 16.0.0, SVG Export Plug-In . SVG Version: 6.00 Build 0)  -->
<!DOCTYPE svg PUBLIC "-//W3C//DTD SVG 1.1//EN" "http://www.w3.org/Graphics/SVG/1.1/DTD/svg11.dtd">
<svg version="1.1" id="Layer_1" xmlns="http://www.w3.org/2000/svg" xmlns:xlink="http://www.w3.org/1999/xlink" x="0px" y="0px"
	 width="320px" height="280px" viewBox="0 0 320 280" style="enable-background:new 0 0 320 280;" xml:space="preserve">
<g>
	<g>
		<polygon style="fill:#FFFFFF;" points="255.096,266.193 43.782,246.427 63.987,22.755 275.301,42.523 		"/>
		<polygon style="fill:#F1F1F1;" points="255.025,265.309 44.441,245.609 64.564,22.83 275.146,42.529 		"/>
		<polygon style="fill:#E2E2E2;" points="254.955,264.422 45.101,244.791 65.14,22.903 274.993,42.535 		"/>
		<polygon style="fill:#D4D4D4;" points="254.884,263.535 45.76,243.973 65.716,22.978 274.839,42.541 		"/>
		<polygon style="fill:#C5C5C5;" points="254.814,262.648 46.419,243.154 66.292,23.052 274.686,42.547 		"/>
		<polygon style="fill:#B7B7B7;" points="254.743,261.764 47.078,242.337 66.868,23.127 274.531,42.553 		"/>
		<polygon style="fill:#A8A8A8;" points="254.673,260.877 47.738,241.52 67.444,23.201 274.378,42.559 		"/>
	</g>
	<g>
		<g>
			<polygon style="fill:#A8A8A8;" points="254.438,260.654 47.504,241.3 67.444,23.201 274.378,42.559 			"/>
			
				<linearGradient id="SVGID_1_" gradientUnits="userSpaceOnUse" x1="312.9912" y1="164.9824" x2="504.2435" y2="-245.1822" gradientTransform="matrix(0.9993 0.0155 0.0155 -0.9993 -239.7263 110.6143)">
				<stop  offset="0" style="stop-color:#B7B7B7"/>
				<stop  offset="1" style="stop-color:#B2B2B1"/>
			</linearGradient>
			<polygon style="fill:url(#SVGID_1_);" points="254.584,260.245 47.65,240.889 67.577,22.937 274.51,42.294 			"/>
			
				<linearGradient id="SVGID_2_" gradientUnits="userSpaceOnUse" x1="317.8223" y1="166.498" x2="508.2872" y2="-241.9777" gradientTransform="matrix(0.9986 0.031 0.031 -0.9986 -243.4536 106.2275)">
				<stop  offset="0" style="stop-color:#C5C5C5"/>
				<stop  offset="1" style="stop-color:#BBBBBB"/>
			</linearGradient>
			<polygon style="fill:url(#SVGID_2_);" points="254.73,259.834 47.795,240.479 67.708,22.671 274.643,42.029 			"/>
			
				<linearGradient id="SVGID_3_" gradientUnits="userSpaceOnUse" x1="322.6592" y1="168.0498" x2="512.2424" y2="-238.535" gradientTransform="matrix(0.9978 0.0465 0.0465 -0.9978 -247.1808 101.8142)">
				<stop  offset="0" style="stop-color:#D4D4D4"/>
				<stop  offset="1" style="stop-color:#C5C5C4"/>
			</linearGradient>
			<polygon style="fill:url(#SVGID_3_);" points="254.875,259.424 47.941,240.066 67.841,22.405 274.773,41.764 			"/>
			
				<linearGradient id="SVGID_4_" gradientUnits="userSpaceOnUse" x1="327.459" y1="169.6895" x2="516.0675" y2="-234.805" gradientTransform="matrix(0.9971 0.0621 0.0621 -0.9971 -250.9362 97.429)">
				<stop  offset="0" style="stop-color:#E2E2E2"/>
				<stop  offset="1" style="stop-color:#CECECD"/>
			</linearGradient>
			<polygon style="fill:url(#SVGID_4_);" points="255.021,259.014 48.087,239.656 67.973,22.141 274.906,41.499 			"/>
			
				<linearGradient id="SVGID_5_" gradientUnits="userSpaceOnUse" x1="332.1855" y1="171.3389" x2="519.7288" y2="-230.8711" gradientTransform="matrix(0.9964 0.0776 0.0776 -0.9964 -254.6615 93.0432)">
				<stop  offset="0" style="stop-color:#F1F1F1"/>
				<stop  offset="1" style="stop-color:#D8D8D7"/>
			</linearGradient>
			<polygon style="fill:url(#SVGID_5_);" points="255.168,258.604 48.233,239.246 68.105,21.875 275.039,41.234 			"/>
			
				<linearGradient id="SVGID_6_" gradientUnits="userSpaceOnUse" x1="336.8604" y1="173.0254" x2="523.2487" y2="-226.7076" gradientTransform="matrix(0.9957 0.0931 0.0931 -0.9957 -258.3897 88.6575)">
				<stop  offset="0" style="stop-color:#FFFFFF"/>
				<stop  offset="1" style="stop-color:#E1E1E0"/>
			</linearGradient>
			<polygon style="fill:url(#SVGID_6_);" points="255.313,258.193 48.378,238.835 68.237,21.61 275.171,40.969 			"/>
		</g>
		
			<linearGradient id="SVGID_7_" gradientUnits="userSpaceOnUse" x1="448.0605" y1="-28.9727" x2="289.3713" y2="74.5939" gradientTransform="matrix(0.9957 0.0931 0.0931 -0.9957 -258.3897 88.6575)">
			<stop  offset="0" style="stop-color:#000000"/>
			<stop  offset="0.3817" style="stop-color:#1D1D1C"/>
			<stop  offset="0.7564" style="stop-color:#323230"/>
			<stop  offset="1" style="stop-color:#3A3A38"/>
		</linearGradient>
		<polygon style="fill:url(#SVGID_7_);" points="242.665,241.52 62.982,224.709 80.309,39.482 259.994,56.291 		"/>
	</g>
</g>
<g style="opacity:0.7;">
	
		<ellipse transform="matrix(0.0096 -1 1 0.0096 118.5552 215.0254)" style="fill:#F8F8F7;" cx="167.824" cy="47.665" rx="2.755" ry="3.651"/>
	
		<ellipse transform="matrix(0.0097 -1 1 0.0097 118.7874 214.9385)" style="fill:#F4F4F3;" cx="167.906" cy="47.499" rx="2.68" ry="3.576"/>
	
		<ellipse transform="matrix(0.0096 -1 1 0.0096 119.0569 214.8542)" style="fill:#EFEFEE;" cx="167.988" cy="47.327" rx="2.604" ry="3.502"/>
	
		<ellipse transform="matrix(0.0097 -1 1 0.0097 119.2966 214.7609)" style="fill:#EBEBEA;" cx="168.07" cy="47.154" rx="2.529" ry="3.428"/>
	
		<ellipse transform="matrix(0.0096 -1 1 0.0096 119.5788 214.6707)" style="fill:#E6E6E5;" cx="168.155" cy="46.972" rx="2.453" ry="3.355"/>
	
		<ellipse transform="matrix(0.0097 -1 1 0.0097 119.8098 214.581)" style="fill:#E2E2E1;" cx="168.236" cy="46.805" rx="2.378" ry="3.279"/>
	
		<ellipse transform="matrix(0.0098 -1 1 0.0098 120.0416 214.491)" style="fill:#DDDDDD;" cx="168.317" cy="46.636" rx="2.303" ry="3.205"/>
	
		<ellipse transform="matrix(0.0096 -1 1 0.0096 120.3135 214.4079)" style="fill:#D9D9D8;" cx="168.399" cy="46.464" rx="2.228" ry="3.131"/>
	
		<ellipse transform="matrix(0.0098 -1 1 0.0098 120.5478 214.315)" style="fill:#D4D4D4;" cx="168.482" cy="46.293" rx="2.152" ry="3.058"/>
	
		<ellipse transform="matrix(0.0096 -1 1 0.0096 120.821 214.232)" style="fill:#D0D0D0;" cx="168.564" cy="46.12" rx="2.077" ry="2.983"/>
	
		<ellipse transform="matrix(0.0095 -1 1 0.0095 121.113 214.1392)" style="fill:#CBCBCB;" cx="168.65" cy="45.934" rx="2.001" ry="2.909"/>
	
		<ellipse transform="matrix(0.0096 -1 1 0.0096 121.3506 214.0443)" style="fill:#C7C7C7;" cx="168.733" cy="45.76" rx="1.926" ry="2.835"/>
	
		<ellipse transform="matrix(0.0098 -1 1 0.0098 121.5789 213.9513)" style="fill:#C2C2C2;" cx="168.815" cy="45.59" rx="1.85" ry="2.761"/>
	
		<ellipse transform="matrix(0.0096 -1 1 0.0096 121.8559 213.8692)" style="fill:#BEBEBE;" cx="168.897" cy="45.417" rx="1.775" ry="2.687"/>
	
		<ellipse transform="matrix(0.0098 -1 1 0.0098 122.0857 213.7742)" style="fill:#BAB9BA;" cx="168.979" cy="45.245" rx="1.699" ry="2.612"/>
	
		<ellipse transform="matrix(0.0096 -1 1 0.0096 122.3653 213.6931)" style="fill:#B5B5B5;" cx="169.062" cy="45.073" rx="1.625" ry="2.539"/>
	
		<ellipse transform="matrix(0.0098 -1 1 0.0098 122.5933 213.5974)" style="fill:#B1B0B1;" cx="169.144" cy="44.9" rx="1.549" ry="2.464"/>
	
		<ellipse transform="matrix(0.0096 -1 1 0.0096 122.8731 213.5169)" style="fill:#ACACAC;" cx="169.226" cy="44.729" rx="1.473" ry="2.39"/>
	
		<ellipse transform="matrix(0.0098 -1 1 0.0098 123.0989 213.4212)" style="fill:#A8A7A8;" cx="169.309" cy="44.556" rx="1.398" ry="2.317"/>
	
		<ellipse transform="matrix(0.0096 -1 1 0.0096 123.3828 213.3415)" style="fill:#A3A3A4;" cx="169.391" cy="44.385" rx="1.323" ry="2.242"/>
	
		<ellipse transform="matrix(0.0098 -1 1 0.0098 123.6048 213.2455)" style="fill:#9F9E9F;" cx="169.473" cy="44.213" rx="1.248" ry="2.168"/>
	
		<ellipse transform="matrix(0.0096 -1 1 0.0096 123.8939 213.1662)" style="fill:#9A9A9B;" cx="169.556" cy="44.04" rx="1.172" ry="2.094"/>
	
		<ellipse transform="matrix(0.0098 -1 1 0.0098 124.1102 213.0684)" style="fill:#969597;" cx="169.638" cy="43.868" rx="1.097" ry="2.021"/>
	
		<ellipse transform="matrix(0.0096 -1 1 0.0096 124.4032 212.9913)" style="fill:#919192;" cx="169.721" cy="43.696" rx="1.021" ry="1.945"/>
	
		<ellipse transform="matrix(0.0093 -1 1 0.0093 124.701 212.9152)" style="fill:#8D8C8E;" cx="169.802" cy="43.525" rx="0.946" ry="1.872"/>
	
		<ellipse transform="matrix(0.0095 -1 1 0.0095 124.9204 212.8122)" style="fill:#888889;" cx="169.886" cy="43.347" rx="0.87" ry="1.797"/>
	
		<ellipse transform="matrix(0.0092 -1 1 0.0092 125.2288 212.7385)" style="fill:#848385;" cx="169.968" cy="43.175" rx="0.795" ry="1.723"/>
</g>
<circle style="fill:#B20004;" cx="168.5" cy="47.167" r="10"/>
</svg>
