<?xml version="1.0" encoding="iso-8859-1"?>
<!-- Generator: Adobe Illustrator 16.0.0, SVG Export Plug-In . SVG Version: 6.00 Build 0)  -->
<!DOCTYPE svg PUBLIC "-//W3C//DTD SVG 1.1//EN" "http://www.w3.org/Graphics/SVG/1.1/DTD/svg11.dtd">
<svg version="1.1" id="Layer_1" xmlns="http://www.w3.org/2000/svg" xmlns:xlink="http://www.w3.org/1999/xlink" x="0px" y="0px"
	 width="320px" height="280px" viewBox="0 0 320 280" style="enable-background:new 0 0 320 280;" xml:space="preserve">
<g id="XMLID_209_">
	
		<linearGradient id="XMLID_54_" gradientUnits="userSpaceOnUse" x1="208.0547" y1="236.958" x2="18.0875" y2="42.1337" gradientTransform="matrix(0.9934 0.1148 -0.0979 0.8474 24.1865 -0.2236)">
		<stop  offset="0.0161" style="stop-color:#FFFFFF;stop-opacity:0"/>
		<stop  offset="0.3107" style="stop-color:#C2CFD9;stop-opacity:0.2994"/>
		<stop  offset="0.6357" style="stop-color:#859FB2;stop-opacity:0.6298"/>
		<stop  offset="0.8748" style="stop-color:#5F809A;stop-opacity:0.8728"/>
		<stop  offset="1" style="stop-color:#507591"/>
	</linearGradient>
	<polygon id="XMLID_2788_" style="fill:url(#XMLID_54_);" points="157.128,175.877 28.027,160.956 42.537,35.417 171.637,50.338 	
		"/>
	
		<rect id="XMLID_2741_" x="28.749" y="33.671" transform="matrix(0.9934 0.1148 -0.1148 0.9934 11.7395 -10.1201)" style="fill:#FFFFFF;" width="129.96" height="126.375"/>
	<path id="XMLID_2743_" style="fill:#F4C940;" d="M143.035,160.867L31.123,147.934c-0.867-0.101-1.488-0.884-1.388-1.75
		l12.776-110.54c0.1-0.866,0.883-1.487,1.75-1.387l111.912,12.935c0.867,0.1,1.488,0.883,1.387,1.75l-12.775,110.54
		C144.684,160.346,143.901,160.968,143.035,160.867z"/>
	<path id="XMLID_2427_" style="fill:#7ADDD8;" d="M143.035,160.867L31.123,147.934c-0.867-0.101-1.488-0.884-1.388-1.75
		l12.776-110.54c0.1-0.866,0.883-1.487,1.75-1.387l111.912,12.935c0.867,0.1,1.488,0.883,1.387,1.75l-12.775,110.54
		C144.684,160.346,143.901,160.968,143.035,160.867z"/>
	<g id="XMLID_59_">
		<defs>
			<path id="XMLID_300_" d="M142.828,160.979L30.945,147.792c-0.866-0.103-1.486-0.887-1.384-1.753L42.587,35.528
				c0.102-0.866,0.887-1.485,1.752-1.383l111.882,13.187c0.866,0.102,1.486,0.887,1.384,1.753l-13.026,110.51
				C144.479,160.462,143.693,161.08,142.828,160.979z"/>
		</defs>
		<clipPath id="XMLID_62_">
			<use xlink:href="#XMLID_300_"  style="overflow:visible;"/>
		</clipPath>
		<g id="XMLID_211_" style="clip-path:url(#XMLID_62_);">
			<path id="XMLID_201_" style="fill:#465363;" d="M148.305,132.34c0.012,0.017,0.018,0.041,0.031,0.058
				c0.019,0.025,0.031,0.057,0.05,0.09c0.006,0.009,0.013,0.017,0.011,0.032c0.019,0.034,0.038,0.067,0.049,0.099
				c-0.188-0.345-0.375-0.683-0.571-1.021l-0.795,6.73c-0.979-0.512-1.712-1.392-2.05-2.445c-0.693,0.144-1.408,0.286-2.151,0.408
				l-0.007,0c-2.011,0.333-4.188,0.585-6.544,0.73c-1.166,0.07-2.375,0.12-3.626,0.134c-2.197,0.034-4.52-0.023-6.968-0.181
				c-0.007-0.001-0.007-0.001-0.007-0.001s0,0-0.007-0.001c-2.441-0.157-4.742-0.395-6.91-0.703
				c-3.729-0.53-7.049-1.264-9.976-2.147c-0.731-0.221-1.431-0.453-2.114-0.691c-0.438,0.942-1.206,1.69-2.152,2.094
				c-0.582,0.242-1.217,0.363-1.894,0.317c-0.661-0.043-1.267-0.233-1.802-0.545c-0.151-0.08-0.286-0.174-0.418-0.274
				c-1.096-0.81-1.765-2.15-1.669-3.61c0.005-0.099,0.016-0.19,0.028-0.28c-0.478,0.147-0.985,0.215-1.518,0.188
				c-0.731-0.044-1.406-0.281-1.981-0.651c-0.178-0.114-0.339-0.233-0.49-0.375c-0.457-0.394-0.825-0.892-1.07-1.443
				c-0.017-0.048-0.043-0.089-0.052-0.137c-0.083-0.202-0.15-0.401-0.2-0.615c-0.09-0.387-0.125-0.79-0.096-1.208
				c0.002-0.076,0.011-0.152,0.021-0.227c0.037-0.363,0.135-0.719,0.267-1.04c0.046-0.125,0.099-0.241,0.159-0.356
				c0.051-0.101,0.101-0.194,0.158-0.287c-0.039-0.058-0.077-0.124-0.101-0.181c-0.109-0.175-0.194-0.346-0.273-0.517
				c-0.104-0.212-0.194-0.415-0.262-0.615c-1.066-2.96,0.835-5.193,3.59-8.745c0.246-0.315,0.492-0.637,0.756-0.972
				c0.863-1.143,1.795-2.422,2.736-3.893c0.059-0.1,0.125-0.199,0.19-0.298c0.105-0.171,0.211-0.342,0.318-0.521l0-0.007
				c0.172-0.278,0.336-0.557,0.502-0.842c0.519-0.902,0.993-1.824,1.431-2.766c0.179-0.385,0.356-0.769,0.52-1.163
				c1.254-2.949,2.135-5.982,2.789-8.776c0.079-0.335,0.151-0.664,0.221-0.984c0.141-0.641,0.272-1.276,0.394-1.883
				c0.681-3.457,1.031-6.28,1.391-7.707c0.045-0.424,0.111-0.837,0.178-1.25c0.044-0.232,0.088-0.464,0.139-0.688
				c2.092-9.958,11.244-17.141,21.699-16.467c10.95,0.704,19.373,9.749,19.485,20.54l0.007,0.001
				c0.299,2.543,0.049,9.449,1.429,16.625l-3.263,27.656C148.036,131.793,148.17,132.063,148.305,132.34L148.305,132.34z"/>
			<path id="XMLID_165_" style="fill:#EF7F7F;" d="M106.229,156.079l2.014-12.727l-4.251-0.267l-4.723-0.301
				c0.104-1.589,0.344-3.146,0.712-4.641c0.051-0.216,0.107-0.431,0.171-0.638c0.056-0.201,0.111-0.4,0.174-0.6
				c0.094-0.325,0.203-0.641,0.311-0.958c0.073-0.22,0.145-0.434,0.234-0.653c0.023-0.066,0.046-0.132,0.07-0.198
				c0.067-0.175,0.143-0.35,0.21-0.526c0.122-0.299,0.251-0.605,0.388-0.902c0.104-0.225,0.208-0.449,0.32-0.666
				c0.012-0.037,0.031-0.073,0.052-0.109c0.123-0.252,0.246-0.498,0.375-0.735c0.34-0.64,0.708-1.261,1.104-1.863
				c0.018-0.021,0.027-0.035,0.038-0.057c0.028-0.043,0.056-0.085,0.085-0.127c0.076-0.121,0.16-0.241,0.244-0.361
				c0.05-0.085,0.104-0.163,0.168-0.24c0.103-0.155,0.214-0.311,0.325-0.458c0.176-0.247,0.359-0.484,0.549-0.721
				c0.574-0.734,1.197-1.438,1.855-2.108c0.167-0.171,0.342-0.341,0.516-0.511c0.167-0.171,0.347-0.333,0.537-0.501
				c0.019-0.02,0.035-0.033,0.06-0.045c0.044-0.048,0.096-0.096,0.148-0.143c0.069-0.068,0.139-0.136,0.215-0.195
				c0.025-0.02,0.051-0.04,0.076-0.06c0.027-0.027,0.052-0.047,0.078-0.067c0.018-0.021,0.036-0.041,0.06-0.054
				c0.069-0.068,0.146-0.127,0.223-0.187c0.112-0.102,0.231-0.194,0.349-0.287c0.059-0.046,0.119-0.092,0.178-0.138
				c0.136-0.114,0.273-0.219,0.408-0.325c1.294-0.981,2.683-1.852,4.152-2.583c0.181-0.092,0.359-0.178,0.546-0.262
				c1.563-0.741,3.206-1.319,4.92-1.736c0.261-0.06,0.521-0.119,0.789-0.178l0.007,0l0.007,0.002
				c0.677-0.147,1.374-0.26,2.075-0.349c1.596-0.201,3.243-0.257,4.916-0.15c1.673,0.107,3.296,0.37,4.864,0.771
				c0.69,0.178,1.371,0.385,2.031,0.62c0.061,0.015,0.111,0.037,0.163,0.051c0.191,0.062,0.39,0.132,0.579,0.217
				c0.198,0.07,0.388,0.148,0.578,0.225c0.379,0.154,0.75,0.323,1.12,0.491c0.188,0.092,0.37,0.176,0.557,0.269
				c0.181,0.091,0.361,0.182,0.541,0.274c0.182,0.083,0.36,0.182,0.54,0.289c0.18,0.099,0.35,0.204,0.529,0.303
				c1.042,0.62,2.046,1.304,2.997,2.05c0.369,0.299,0.737,0.605,1.096,0.925c0.352,0.312,0.695,0.638,1.029,0.97l0.006,0.008
				c0.035,0.035,0.077,0.071,0.11,0.106c0.452,0.439,0.876,0.906,1.285,1.386c0.088,0.087,0.168,0.189,0.256,0.285
				c0.028,0.026,0.047,0.051,0.067,0.085c0.041,0.043,0.08,0.094,0.118,0.152c0.068,0.07,0.128,0.146,0.194,0.231
				c0.04,0.051,0.08,0.102,0.119,0.152c0.188,0.223,0.365,0.459,0.527,0.694c0.13,0.185,0.269,0.371,0.398,0.556
				c0.398,0.563,0.764,1.137,1.105,1.723c0.05,0.09,0.107,0.182,0.158,0.272l-0.001,0.007c0.038,0.066,0.076,0.132,0.121,0.199
				c0.019,0.041,0.037,0.081,0.063,0.115c0.081,0.155,0.162,0.303,0.243,0.459c0.012,0.017,0.018,0.041,0.031,0.058
				c0.019,0.025,0.031,0.057,0.05,0.09c0.006,0.009,0.013,0.017,0.011,0.032c0.019,0.034,0.038,0.067,0.049,0.099
				c-0.188-0.345-0.375-0.683-0.571-1.021l-0.795,6.73l-0.61,5.236l-0.267,2.221l-3.916-0.255l0.449,15.438l-1.428-0.169
				l-10.04-1.183l-13.848-1.63l-6.013-0.714l-4.027-0.468l-1.246-0.146L106.229,156.079L106.229,156.079z"/>
			<polygon id="XMLID_257_" style="fill:#8C8C8C;" points="119.923,118.952 119.915,118.959 119.923,118.958 			"/>
			<path id="XMLID_563_" style="fill:#935DC6;" d="M102.366,156.206l-7.155-0.84l2.462-8.931l0.798-2.906l1.474-5.351l0.035-0.035
				c0.051-0.216,0.107-0.431,0.171-0.638c0.056-0.201,0.111-0.4,0.174-0.6c0.095-0.325,0.203-0.641,0.311-0.958
				c0.074-0.22,0.145-0.434,0.234-0.653c0.023-0.066,0.046-0.132,0.07-0.198c0.067-0.175,0.143-0.35,0.21-0.526
				c0.122-0.299,0.251-0.605,0.388-0.902c0.104-0.225,0.208-0.449,0.32-0.666c0.012-0.037,0.031-0.073,0.052-0.109
				c0.123-0.252,0.246-0.498,0.375-0.735c0.34-0.64,0.708-1.261,1.104-1.863c0.018-0.021,0.027-0.035,0.038-0.057
				c0.028-0.043,0.057-0.085,0.085-0.127c0.076-0.121,0.16-0.241,0.244-0.36c0.05-0.086,0.104-0.164,0.168-0.241
				c0.103-0.155,0.214-0.311,0.325-0.458c0.176-0.247,0.359-0.484,0.548-0.721c0.574-0.734,1.198-1.438,1.855-2.108
				c0.167-0.171,0.342-0.341,0.516-0.511c0.167-0.171,0.347-0.333,0.537-0.501c0.131-0.129,0.277-0.256,0.423-0.384
				c0.051-0.04,0.095-0.088,0.154-0.127c0.018-0.021,0.036-0.041,0.06-0.054c0.069-0.068,0.146-0.127,0.223-0.187
				c0.112-0.102,0.231-0.194,0.349-0.287c0.059-0.046,0.119-0.092,0.178-0.138c0.136-0.114,0.273-0.219,0.408-0.325
				c1.294-0.981,2.683-1.852,4.152-2.583c0.18-0.092,0.359-0.178,0.546-0.262c1.563-0.741,3.206-1.319,4.92-1.736
				c0.261-0.06,0.521-0.119,0.789-0.178l0.007,0l0,0.008l-1.108,17.307l-1.387,21.719l-6.013-0.714l-4.027-0.468l-1.246-0.146
				L102.366,156.206z"/>
			
				<line id="XMLID_254_" style="fill:none;stroke:#8C8C8C;stroke-width:0;stroke-linecap:round;stroke-linejoin:round;" x1="119.915" y1="118.959" x2="119.923" y2="118.958"/>
			<path id="XMLID_164_" style="fill:#DADBDB;" d="M147.875,131.597l-0.795,6.73l-0.61,5.236l-3.926-2.088l0.335-5.186l0.663-10.373
				c0.035,0.035,0.077,0.071,0.11,0.106c0.449,0.455,0.876,0.913,1.285,1.386c0.155,0.172,0.302,0.351,0.441,0.522
				c0.146,0.179,0.286,0.357,0.425,0.535c0.086,0.11,0.172,0.22,0.25,0.33c0.061,0.069,0.113,0.144,0.166,0.212
				c0.13,0.185,0.269,0.371,0.398,0.556c0.391,0.562,0.757,1.136,1.105,1.723c0.05,0.09,0.107,0.182,0.158,0.272l-0.001,0.007
				c0.038,0.066,0.076,0.132,0.121,0.199c0.019,0.041,0.037,0.081,0.063,0.115c0.081,0.155,0.162,0.303,0.243,0.459
				c0.012,0.017,0.018,0.041,0.031,0.058c0.019,0.025,0.031,0.057,0.05,0.09c0.006,0.009,0.013,0.017,0.011,0.032
				c0.019,0.034,0.038,0.067,0.049,0.099C148.259,132.273,148.071,131.936,147.875,131.597L147.875,131.597z"/>
			<path id="XMLID_244_" style="fill:#F7C2AA;" d="M126.43,126.043L126.43,126.043c2.702,0.173,5.032-1.877,5.204-4.578l0.437-6.832
				l-9.783-0.625l-0.437,6.831C121.679,123.541,123.729,125.871,126.43,126.043z"/>
			<path id="XMLID_237_" style="fill:#E89F82;" d="M131.954,116.479c-1.57,0.419-3.232,0.598-4.942,0.488l0,0
				c-1.711-0.109-3.336-0.499-4.841-1.113l0.118-1.845l9.783,0.625L131.954,116.479z"/>
			<g id="XMLID_234_">
				<circle id="XMLID_236_" style="fill:#E89F82;" cx="143.61" cy="98.18" r="3.634"/>
				<circle id="XMLID_235_" style="fill:#E89F82;" cx="112.94" cy="96.219" r="3.634"/>
			</g>
			<path id="XMLID_233_" style="fill:#F7C2AA;" d="M127.099,115.588L127.099,115.588c8.473,0.541,15.782-5.888,16.324-14.362
				l0.695-10.881c0.542-8.474-5.887-15.782-14.361-16.324l0,0c-8.474-0.542-15.782,5.888-16.324,14.362l-0.696,10.881
				C112.195,107.738,118.625,115.046,127.099,115.588z"/>
			<path id="XMLID_232_" style="fill:#E89F82;" d="M128.563,103.977l-1.438-0.092c-1.093-0.07-1.926-1.016-1.855-2.109
				c0.018-0.286,0.266-0.502,0.55-0.484c0.286,0.018,0.502,0.265,0.485,0.55c-0.034,0.522,0.364,0.975,0.887,1.009l1.437,0.092
				c0.522,0.033,0.975-0.365,1.008-0.887c0.019-0.286,0.265-0.503,0.551-0.484c0.285,0.018,0.502,0.265,0.484,0.55
				C130.602,103.214,129.656,104.047,128.563,103.977z"/>
			<path id="XMLID_231_" style="fill:#EF8080;" d="M127.403,110.828c-2.382-0.152-4.178-1.395-4.086-2.828
				c0.019-0.286,0.265-0.502,0.551-0.484c0.285,0.019,0.501,0.265,0.484,0.551c-0.046,0.72,1.223,1.607,3.117,1.728
				c1.895,0.121,3.266-0.597,3.313-1.317c0.018-0.285,0.264-0.502,0.55-0.484c0.286,0.019,0.502,0.265,0.484,0.55
				C131.725,109.977,129.786,110.981,127.403,110.828z"/>
			<path id="XMLID_230_" style="fill:none;stroke:#743B19;stroke-width:2.2182;stroke-linecap:round;stroke-miterlimit:10;" d="
				M127.694,106.288"/>
			<path id="XMLID_229_" style="fill:#465363;" d="M132.988,94.559c-0.332-0.021-0.647-0.202-0.828-0.509
				c-0.29-0.494-0.126-1.128,0.368-1.419c3.561-2.094,6.812-0.548,8.033,0.563c0.423,0.384,0.454,1.04,0.07,1.463
				c-0.385,0.423-1.037,0.455-1.46,0.074c-0.109-0.096-2.486-2.139-5.592-0.313C133.393,94.526,133.188,94.571,132.988,94.559z"/>
			<path id="XMLID_228_" style="fill:#465363;" d="M117.29,93.555c-0.331-0.021-0.647-0.201-0.828-0.51
				c-0.291-0.493-0.126-1.128,0.368-1.418c3.561-2.095,6.811-0.548,8.031,0.562c0.424,0.385,0.456,1.041,0.07,1.464
				c-0.384,0.423-1.037,0.455-1.46,0.074c-0.109-0.096-2.485-2.139-5.591-0.313C117.695,93.522,117.489,93.567,117.29,93.555z"/>
			<path id="XMLID_227_" style="fill:#3C1D11;" d="M139.011,96.303c-0.13-0.255-0.441-0.357-0.697-0.228l-1.292,0.654
				c-0.23-0.233-0.539-0.39-0.891-0.412c-0.761-0.049-1.419,0.53-1.468,1.291c-0.048,0.76,0.53,1.418,1.291,1.467
				c0.761,0.048,1.419-0.53,1.468-1.291c0.001-0.032-0.003-0.063-0.003-0.094l1.363-0.69
				C139.038,96.87,139.14,96.559,139.011,96.303z"/>
			<path id="XMLID_226_" style="fill:#3C1D11;" d="M117.741,94.943c0.162-0.237,0.483-0.298,0.72-0.137l1.198,0.813
				c0.258-0.202,0.584-0.318,0.937-0.295c0.76,0.049,1.339,0.707,1.29,1.467c-0.048,0.76-0.707,1.34-1.467,1.291
				s-1.34-0.707-1.291-1.467c0.002-0.032,0.011-0.062,0.016-0.093l-1.264-0.858C117.642,95.502,117.58,95.18,117.741,94.943z"/>
			<path id="XMLID_225_" style="fill:#F0BEA4;" d="M148.008,131.781"/>
			<path id="XMLID_223_" style="fill:#8C8C8C;" d="M109.5,123.714"/>
			<path id="XMLID_505_" style="fill:#7343AA;" d="M102.366,156.206l-7.155-0.84l-3.256-0.38c0.995-2.958,2.084-5.942,3.266-8.855
				c0.387-0.963,0.781-1.91,1.188-2.856c1.264-2.901,2.606-5.694,4.042-8.252c0.413-0.731,0.83-1.446,1.253-2.137
				c0.548-0.898,1.115-1.763,1.685-2.589c0.018-0.021,0.027-0.035,0.038-0.057c1.386-1.967,2.832-3.681,4.338-5.073
				c0.166-0.164,0.338-0.318,0.517-0.465c0.018-0.021,0.036-0.041,0.06-0.054c0.069-0.068,0.146-0.127,0.223-0.187
				c0.112-0.102,0.231-0.194,0.349-0.287c0.059-0.046,0.119-0.092,0.178-0.138c0.136-0.106,0.271-0.212,0.407-0.31l-0.667,10.395
				l-0.428,6.684c0,0.008,0.007,0.009,0.007,0.009l-0.169,2.539l-0.82,12.874l-0.042,0.578l-1.246-0.146L102.366,156.206z"/>
			<path id="XMLID_161_" style="fill:#935DC6;" d="M142.736,160.968l-1.428-0.169l-10.04-1.183l1.433-22.463l1.108-17.308
				l0.001-0.007c0.008,0,0.008,0,0.008,0c0.052,0.014,0.103,0.036,0.153,0.058c0.191,0.062,0.39,0.132,0.579,0.217
				c0.198,0.07,0.388,0.148,0.578,0.225c0.379,0.154,0.75,0.323,1.12,0.491c0.188,0.092,0.37,0.176,0.557,0.269
				c0.181,0.091,0.361,0.182,0.541,0.274c0.182,0.083,0.36,0.182,0.54,0.289c0.18,0.099,0.35,0.204,0.529,0.303
				c1.052,0.606,2.055,1.297,2.997,2.05c0.369,0.299,0.737,0.605,1.096,0.925c0.352,0.312,0.695,0.638,1.029,0.97l0-0.007
				c0.152,0.141,0.309,0.298,0.459,0.447c0.127,0.139,0.264,0.278,0.4,0.417c0.162,0.174,0.317,0.354,0.471,0.534
				c0.066,0.077,0.141,0.163,0.213,0.249c0.041,0.051,0.081,0.095,0.113,0.145c1.011,1.183,1.917,2.468,2.691,3.835
				c0.151,0.264,0.286,0.534,0.421,0.811c0.012,0.017,0.018,0.041,0.031,0.058c0.019,0.025,0.031,0.057,0.05,0.09
				c0.006,0.009,0.013,0.017,0.011,0.032c0.019,0.034,0.038,0.067,0.049,0.099c-0.188-0.345-0.375-0.683-0.571-1.021l-0.795,6.73
				l-0.61,5.236l-0.267,2.221l-1.625,13.81c-0.1,0.869-0.882,1.484-1.751,1.385L142.736,160.968L142.736,160.968z"/>
			<path id="XMLID_487_" style="fill:#7343AA;" d="M146.203,145.784l-1.625,13.81c-0.1,0.869-0.882,1.484-1.751,1.385l-0.09-0.011
				l-1.428-0.169l1.236-19.323l0.328-5.187l0.665-10.38l0-0.007c0.152,0.141,0.309,0.298,0.459,0.447
				c0.127,0.139,0.264,0.278,0.4,0.417c0.163,0.174,0.317,0.354,0.471,0.534c0.066,0.077,0.141,0.163,0.213,0.249
				c0.061,0.076,0.12,0.145,0.18,0.229c0.107,0.12,0.206,0.248,0.312,0.383c0.08,0.102,0.16,0.196,0.231,0.304
				c0.086,0.11,0.172,0.22,0.25,0.33c0.636,0.868,1.241,1.802,1.822,2.801l-0.795,6.73l-0.609,5.236L146.203,145.784z"/>
			<path id="XMLID_218_" style="fill:#465363;" d="M136.666,75.239c0,0,0.425,9.063-12.219,13.297c0,0,1.66-2.26,1.748-3.639
				c0,0-3.73,4.758-13.023,7.695c0,0-0.344-3.473,0.223-7.821C113.96,80.422,121.408,68.205,136.666,75.239z"/>
			<path id="XMLID_217_" style="fill:#465363;" d="M134.621,77.894c0,0,0.993,3.105,5.554,11.187
				c4.561,8.081,1.994,16.975-1.66,19.396c0,0,4.766-1.536,6.728-9.696C148.582,84.887,137.003,64.759,134.621,77.894z"/>
			<g id="XMLID_212_">
				<path id="XMLID_214_" style="fill:#EF8080;" d="M138.872,102.896l5.689,0.364l0,0c0.087-1.365-0.948-2.542-2.313-2.629
					l-0.747-0.048C140.136,100.497,138.958,101.533,138.872,102.896L138.872,102.896z"/>
				<path id="XMLID_213_" style="fill:#EF8080;" d="M111.35,101.137l5.69,0.364l0,0c0.086-1.365-0.949-2.542-2.313-2.629
					l-0.747-0.048C112.614,98.737,111.438,99.772,111.35,101.137L111.35,101.137z"/>
			</g>
		</g>
		<g id="XMLID_56_" style="clip-path:url(#XMLID_62_);">
			<g id="XMLID_207_">
				<path id="XMLID_204_" style="fill:#F0BEA4;" d="M32.631,138.887l-1.917,8.861c-0.03-0.012-0.059-0.016-0.089-0.026
					c-0.692-0.231-1.148-0.932-1.064-1.681l0.833-7.033l0.066-0.589l2.052,0.445L32.631,138.887z"/>
			</g>
			<polygon id="XMLID_271_" style="fill:#F0BEA4;" points="74.475,148.529 73.553,152.814 68.197,152.182 68.164,152.454 
				68.157,152.445 67.985,152.156 66.498,151.979 64.593,151.759 64.058,151.692 64.235,150.879 64.485,149.722 65.173,146.526 
				65.68,146.636 65.703,146.639 68.801,147.306 			"/>
			<polygon id="XMLID_220_" style="fill:#D8AC95;" points="67.985,152.156 66.498,151.979 64.593,151.759 64.541,151.753 
				64.718,150.938 64.883,150.17 65.384,147.855 65.415,147.914 67.451,151.277 			"/>
			<path id="XMLID_465_" style="fill:#F0BEA4;" d="M61.819,150.273l-0.067,0.298l-0.179,0.829l-2.418-0.284l-6.331-0.745
				l-0.007-0.002l-1.79-0.213l-17.459-2.055l0.81-3.756l7.271,1.567c0.007,0.009,0.015,0.01,0.021,0.011l7.138,1.535
				c-0.008,0.006-0.008,0.006-0.001,0.007l1.755,0.379l0.829,0.179c0.045,0.006,0.082,0.019,0.128,0.024l7.815,1.688L61.819,150.273
				z"/>
			<path id="XMLID_203_" style="fill:#2B1714;" d="M66.614,61.566L66.614,61.566c-9.448-2.041-18.762,3.965-20.803,13.414
				l-2.39,11.07c-1.654,7.656,3.212,15.203,10.868,16.856l6.491,1.402c7.656,1.653,15.203-3.213,16.857-10.869l2.39-11.071
				C82.068,72.92,76.063,63.606,66.614,61.566z"/>
			<path id="XMLID_532_" style="fill:#EF7F7F;" d="M76.29,140.124l-6.428-1.386l-2.366-0.508l-1.808,8.407l-0.272,1.277
				l-0.492,2.299l-0.159,0.731l-0.17,0.814l-0.536-0.066l-2.485-0.292l-2.418-0.284l-6.331-0.745l-0.007-0.002l-1.79-0.213
				l-17.459-2.055l-2.621-0.31c-0.076-0.01-0.158-0.027-0.232-0.044c-0.03-0.012-0.059-0.016-0.089-0.026l1.762-8.282l0.125-0.575
				l0.059-0.292l1.608-7.542l-2.777-0.597l1.753-14.906c-0.042,0.034-0.086,0.074-0.137,0.114c0.043-0.041,0.094-0.081,0.139-0.128
				c0.086-0.074,0.165-0.156,0.258-0.229c0.146-0.135,0.301-0.269,0.447-0.397c0.344-0.294,0.702-0.587,1.066-0.864
				c0.356-0.278,0.728-0.546,1.104-0.806c0.352-0.24,0.703-0.48,1.066-0.696c0.068-0.045,0.135-0.09,0.208-0.127
				c0.283-0.18,0.572-0.352,0.868-0.506c0.042-0.026,0.083-0.052,0.124-0.069c0.016-0.013,0.034-0.026,0.057-0.031
				c3.332-1.833,7.071-2.941,10.976-3.155c0.007,0,0.007,0,0.007,0l0.009-0.006c0.694-0.037,1.393-0.049,2.097-0.039
				c1.612,0.046,3.252,0.233,4.886,0.589c1.643,0.357,3.198,0.856,4.691,1.486l0.008,0c4.303,1.829,7.929,4.738,10.619,8.329
				l0.02,0.025c0.855,1.141,1.616,2.354,2.279,3.632c0.092,0.18,0.186,0.353,0.264,0.53c0.067,0.132,0.135,0.271,0.194,0.408
				c0.031,0.058,0.056,0.107,0.08,0.164c0.168,0.366,0.33,0.738,0.483,1.11c-0.001,0.007,0.006,0.009,0.006,0.009
				c0.076,0.193,0.152,0.378,0.221,0.571c0.271,0.715,0.511,1.443,0.718,2.189c0.017,0.048,0.034,0.104,0.049,0.159
				c0,0-0.001,0.007-0.001,0.015c0.017,0.048,0.034,0.096,0.042,0.15c0.017,0.056,0.032,0.12,0.054,0.183
				c0.014,0.071,0.029,0.142,0.051,0.206c0.042,0.158,0.076,0.324,0.116,0.489c0.344,1.499,0.559,3.043,0.625,4.607
				c0.007,0.131,0.014,0.262,0.02,0.394c0.011,0.469,0.014,0.937,0.001,1.41l-0.008,0.252c0.004,0.031,0,0.061-0.004,0.099
				c-0.007,0.306-0.023,0.618-0.047,0.93C76.718,137.717,76.546,138.921,76.29,140.124z"/>
			<polygon id="XMLID_200_" style="fill:#8C8C8C;" points="49.343,108.63 49.335,108.636 49.342,108.636 			"/>
			
				<line id="XMLID_199_" style="fill:none;stroke:#8C8C8C;stroke-width:0;stroke-linecap:round;stroke-linejoin:round;" x1="49.335" y1="108.636" x2="49.342" y2="108.636"/>
			<path id="XMLID_198_" style="fill:#DADBDB;" d="M76.286,140.126l-7.91-5.868l3.291-15.238
				C76.028,124.846,77.943,132.455,76.286,140.126z"/>
			<path id="XMLID_190_" style="fill:#F7C2AA;" d="M54.727,116.608L54.727,116.608c2.646,0.572,5.254-1.11,5.826-3.756l1.444-6.691
				l-9.582-2.069l-1.444,6.69C50.399,113.429,52.081,116.037,54.727,116.608z"/>
			<path id="XMLID_189_" style="fill:#E89F82;" d="M61.607,107.969c-1.614,0.181-3.285,0.111-4.96-0.25l0,0
				c-1.675-0.362-3.226-0.988-4.622-1.819l0.39-1.807l9.582,2.069L61.607,107.969z"/>
			<g id="XMLID_186_">
				<circle id="XMLID_188_" style="fill:#E89F82;" cx="75.848" cy="91.6" r="3.634"/>
				<circle id="XMLID_187_" style="fill:#E89F82;" cx="45.808" cy="85.113" r="3.634"/>
			</g>
			<path id="XMLID_185_" style="fill:#F7C2AA;" d="M56.939,106.368L56.939,106.368c8.3,1.792,16.48-3.483,18.272-11.782
				l2.302-10.658c1.792-8.3-3.482-16.48-11.782-18.273l0,0c-8.3-1.792-16.48,3.483-18.273,11.783l-2.301,10.658
				C43.363,96.394,48.639,104.576,56.939,106.368z"/>
			<path id="XMLID_184_" style="fill:#E89F82;" d="M60.107,95.102L58.7,94.798c-1.07-0.231-1.753-1.291-1.522-2.361
				c0.061-0.279,0.337-0.458,0.617-0.397s0.458,0.336,0.397,0.616c-0.11,0.512,0.216,1.018,0.728,1.129l1.407,0.304
				c0.512,0.111,1.019-0.216,1.129-0.728c0.061-0.28,0.336-0.458,0.616-0.397c0.28,0.06,0.458,0.336,0.397,0.616
				C62.238,94.65,61.179,95.333,60.107,95.102z"/>
			<path id="XMLID_182_" style="fill:none;stroke:#743B19;stroke-width:2.2182;stroke-linecap:round;stroke-miterlimit:10;" d="
				M58.906,97.258"/>
			<path id="XMLID_181_" style="fill:#2B1714;" d="M66.368,84.191c-0.325-0.07-0.61-0.294-0.744-0.626
				c-0.214-0.531,0.043-1.135,0.574-1.349c3.832-1.543,6.817,0.467,7.86,1.747c0.362,0.443,0.295,1.096-0.148,1.459
				c-0.442,0.36-1.092,0.295-1.455-0.145c-0.094-0.111-2.142-2.484-5.482-1.138C66.773,84.219,66.564,84.234,66.368,84.191z"/>
			<path id="XMLID_180_" style="fill:#2B1714;" d="M50.992,80.871c-0.325-0.07-0.611-0.295-0.744-0.626
				c-0.213-0.531,0.044-1.135,0.574-1.349c3.833-1.543,6.817,0.467,7.86,1.747c0.361,0.443,0.295,1.097-0.149,1.458
				c-0.442,0.36-1.092,0.295-1.454-0.145c-0.094-0.111-2.143-2.484-5.482-1.138C51.397,80.899,51.188,80.913,50.992,80.871z"/>
			<path id="XMLID_179_" style="fill:#3C1D11;" d="M71.578,89.063c-0.09-0.272-0.383-0.419-0.654-0.329l-1.375,0.456
				c-0.193-0.265-0.476-0.465-0.82-0.54c-0.745-0.161-1.481,0.314-1.642,1.059c-0.162,0.745,0.313,1.481,1.059,1.642
				c0.745,0.161,1.481-0.314,1.642-1.059c0.007-0.031,0.006-0.062,0.011-0.093l1.451-0.481
				C71.521,89.627,71.668,89.334,71.578,89.063z"/>
			<path id="XMLID_178_" style="fill:#3C1D11;" d="M50.746,84.563c0.194-0.21,0.522-0.223,0.732-0.03l1.064,0.982
				c0.285-0.161,0.625-0.228,0.969-0.153c0.746,0.16,1.22,0.897,1.06,1.642c-0.161,0.745-0.898,1.22-1.643,1.059
				c-0.746-0.161-1.22-0.897-1.059-1.642c0.006-0.032,0.02-0.06,0.029-0.09l-1.123-1.037C50.564,85.102,50.551,84.774,50.746,84.563
				z"/>
			<path id="XMLID_177_" style="fill:#F0BEA4;" d="M75.216,125.483"/>
			<path id="XMLID_175_" style="fill:#8C8C8C;" d="M38.33,111.794"/>
			<g id="XMLID_168_">
				<path id="XMLID_170_" style="fill:#EF8080;" d="M70.463,95.563l5.572,1.203l0,0c0.289-1.336-0.561-2.654-1.898-2.942
					l-0.731-0.158C72.069,93.376,70.751,94.226,70.463,95.563L70.463,95.563z"/>
				<path id="XMLID_169_" style="fill:#EF8080;" d="M43.506,89.741l5.572,1.204l0,0c0.289-1.337-0.561-2.654-1.898-2.943
					l-0.731-0.158C45.112,87.555,43.795,88.404,43.506,89.741L43.506,89.741z"/>
			</g>
			<path id="XMLID_167_" style="fill:#2B1714;" d="M77.129,68.456c0,0-0.219-7.313-9.97-9.418c-7.62-1.646-12.464,0.321-17.84,3.788
				c-8.894,5.735-11.016,3.359-11.016,3.359s3.088,15.091,14.087,10.42C63.388,71.934,68.793,81.86,77.129,68.456z"/>
			<path id="XMLID_166_" style="fill:#2B1714;" d="M73.834,72.281c0,0-1.286,3.491,3.574,12.096l0.709,0.153
				C78.118,84.53,79.93,66.642,73.834,72.281z"/>
			<path id="XMLID_449_" style="fill:#D94D4C;" d="M26.947,124.264c0.462-1.07,0.987-2.093,1.584-3.077
				C27.941,122.172,27.409,123.194,26.947,124.264z"/>
			<path id="XMLID_450_" style="fill:#D94D4C;" d="M38.356,111.781l0,0.007l-5.785,26.784l-0.059,0.292l-0.125,0.575l-1.994-0.431
				l0.066-0.589l0.943-7.984l1.753-14.906c0.226-0.217,0.468-0.432,0.707-0.64c0.344-0.294,0.702-0.587,1.066-0.864
				c0.356-0.278,0.728-0.546,1.104-0.806c0.352-0.24,0.703-0.48,1.066-0.696c0.068-0.045,0.135-0.09,0.208-0.127
				c0.283-0.18,0.572-0.352,0.868-0.506C38.233,111.85,38.299,111.812,38.356,111.781z"/>
			<path id="XMLID_157_" style="fill:#D94D4C;" d="M71.646,118.994l-5.968,27.639l0.023,0.005l8.77,1.895l1.815-8.406
				C77.945,132.442,76.023,124.823,71.646,118.994z"/>
			<path id="XMLID_150_" style="fill:#303033;" d="M54.117,142.409l2.914-13.488c0.173-0.801-0.336-1.592-1.138-1.764l-9.715-2.098
				c-0.801-0.173-1.59,0.336-1.764,1.137l-3.879,17.963c-0.173,0.801,0.335,1.591,1.138,1.765l9.714,2.098
				c0.801,0.173,1.591-0.336,1.764-1.138L54.117,142.409z"/>
			<path id="XMLID_495_" style="fill:#F0BEA4;" d="M59.154,151.116l-6.331-0.745l-0.007-0.002l-2.255-2.524l-0.969-1.086
				c-0.586-0.655-1.095-1.309-1.528-1.96c-0.073-0.093-0.137-0.192-0.194-0.292l-0.007-0.001c-0.104-0.158-0.207-0.316-0.302-0.475
				l-0.097-0.149c-0.089-0.142-0.171-0.282-0.24-0.413c-0.046-0.066-0.083-0.141-0.12-0.206c-0.02-0.033-0.039-0.066-0.05-0.099
				c-0.051-0.083-0.095-0.165-0.146-0.248c-0.044-0.082-0.086-0.163-0.123-0.245c-0.018-0.04-0.037-0.073-0.063-0.115
				c-0.08-0.155-0.153-0.31-0.227-0.465c-0.043-0.074-0.08-0.155-0.109-0.228c-0.035-0.089-0.07-0.17-0.114-0.252
				c-0.012-0.032-0.031-0.058-0.035-0.089c-0.012-0.024-0.024-0.049-0.036-0.073c-0.037-0.081-0.072-0.162-0.101-0.243
				c-0.03-0.064-0.052-0.129-0.076-0.193c-0.065-0.146-0.125-0.291-0.169-0.419c-0.013-0.024-0.017-0.048-0.022-0.072
				c-0.064-0.16-0.114-0.313-0.165-0.457c-0.008-0.008-0.014-0.017-0.013-0.024c-0.394-1.152-0.517-1.888-0.517-1.888l0.008,0.001
				c-0.318-0.714-0.094-1.591,0.636-2.044c0.456-0.273,1.033-0.293,1.511-0.073c0.073,0.032,0.137,0.07,0.193,0.108
				c0.071,0.047,0.143,0.095,0.205,0.148c0.055,0.053,0.109,0.105,0.155,0.165c0.027,0.026,0.054,0.061,0.074,0.094
				c0.014,0.009,0.02,0.018,0.012,0.024c0.049,0.045,0.073,0.094,0.09,0.142c0.039,0.051,0.063,0.107,0.086,0.171
				c0.006,0.008,0.012,0.024,0.018,0.04l-0.001,0.008c0.007,0,0.007,0,0.007,0.008c0.051,0.144,0.079,0.286,0.092,0.433
				c0.07,0.299,0.142,0.584,0.222,0.871c0.237,0.803,0.537,1.545,0.867,2.223c0.084,0.187,0.178,0.359,0.264,0.531
				c0.237,0.442,0.477,0.849,0.723,1.216c0.02,0.033,0.039,0.066,0.064,0.101c0.02,0.025,0.04,0.051,0.051,0.083
				c0.098,0.142,0.195,0.284,0.287,0.411c0.027,0.026,0.039,0.051,0.06,0.076l-0.001,0.007c0.685,0.844,1.947,1.047,2.786,0.338
				c0,0,0.008,0.001,0.009-0.007l0.034-0.026l0.008-0.007c0.268-0.235,0.442-0.535,0.536-0.854c0-0.007,0-0.007,0-0.007
				c0.037-0.111,0.059-0.224,0.072-0.337l0.592-2.731l0.073-0.343l0.141-0.634l0.418-1.957c0,0,4.039,4.401,3.788,7.482l1.198,1.344
				l4.071,4.566l0.398,0.448l0.04,0.043l0.754,0.845l0.821,0.922l-1.904-0.221l-0.536-0.066l-2.485-0.292L59.154,151.116z"/>
			<path id="XMLID_137_" style="fill:#D8AC95;" d="M55.774,140.564c0.364,0.288-0.142-0.988-0.766-2.278l-0.211,0.974
				C55.143,139.814,55.521,140.365,55.774,140.564z"/>
			<path id="XMLID_83_" style="fill:#F0BEA4;" d="M48.223,137.386c-0.011-0.15-0.039-0.299-0.092-0.443
				c0-0.004-0.002-0.007-0.002-0.011l-0.002,0.001c-0.136-0.362-0.391-0.691-0.83-0.894c-0.481-0.223-1.059-0.203-1.511,0.073
				c-0.737,0.451-0.955,1.331-0.638,2.041l-0.007,0.003c0,0,0.492,2.978,2.724,6.353c1.988,1.258,3.358-0.896,2.896-1.612
				C49.86,141.647,48.748,139.738,48.223,137.386z"/>
			<path id="XMLID_75_" style="fill:#D8AC95;" d="M48.227,137.377c-0.011-0.15-0.039-0.299-0.092-0.443
				c-0.001-0.003-0.001-0.007-0.002-0.01l-0.002,0.001c-0.113-0.303-0.319-0.579-0.639-0.782c-0.224,0.454-0.223,0.989,0.006,1.442
				l-0.006,0.004c0,0,0.635,2.95,3.027,6.214c0.052,0.03,0.103,0.048,0.154,0.074c0.196-0.371,0.242-0.757,0.092-0.989
				C49.864,141.64,48.752,139.729,48.227,137.377z"/>
			<path id="XMLID_67_" style="fill:#F0BEA4;" d="M51.128,136.734c-0.011-0.15-0.039-0.298-0.091-0.443
				c0-0.003-0.002-0.007-0.002-0.011l-0.002,0.001c-0.135-0.362-0.39-0.691-0.831-0.894c-0.481-0.223-1.059-0.203-1.511,0.073
				c-0.736,0.451-0.953,1.331-0.637,2.041l-0.007,0.002c0,0,0.492,2.978,2.724,6.353c1.987,1.259,3.358-0.896,2.896-1.611
				C52.766,140.997,51.654,139.087,51.128,136.734z"/>
			<path id="XMLID_61_" style="fill:#D8AC95;" d="M51.128,136.734c-0.011-0.15-0.039-0.298-0.091-0.443
				c0-0.003-0.002-0.007-0.002-0.011l-0.002,0.001c-0.114-0.303-0.319-0.579-0.639-0.781c-0.223,0.453-0.223,0.988,0.005,1.442
				l-0.006,0.004c0,0,0.635,2.95,3.027,6.214c0.053,0.029,0.103,0.048,0.155,0.074c0.196-0.371,0.243-0.757,0.092-0.989
				C52.766,140.997,51.654,139.087,51.128,136.734z"/>
			<path id="XMLID_60_" style="fill:#F0BEA4;" d="M53.908,136.116c-0.01-0.151-0.039-0.3-0.091-0.443
				c0-0.003-0.001-0.007-0.002-0.01l-0.002,0c-0.135-0.361-0.39-0.69-0.83-0.894c-0.481-0.222-1.059-0.203-1.511,0.073
				c-0.737,0.451-0.955,1.331-0.638,2.041l-0.006,0.002c0,0,0.491,2.979,2.724,6.354c1.987,1.258,3.357-0.896,2.895-1.612
				C55.546,140.378,54.434,138.468,53.908,136.116z"/>
			<g id="XMLID_58_" style="opacity:0.2;">
				<path id="XMLID_440_" style="fill:#221F1F;" d="M50.562,147.845l2.255,2.524l-1.79-0.213l-0.788-0.88
					c-0.538-0.604-1.016-1.206-1.432-1.811c-0.007-0.001-0.007-0.001,0.001-0.007c-2.488-3.55-3.023-6.782-3.023-6.782l0.009-0.006
					c-0.09-0.203-0.133-0.415-0.137-0.63c0,0.007,0.005,0.016,0.013,0.024c0.055,0.168,0.118,0.345,0.188,0.529
					c0.075,0.193,0.149,0.402,0.245,0.612c0.029,0.081,0.064,0.162,0.101,0.243c0.012,0.024,0.017,0.048,0.036,0.073
					c0.004,0.031,0.023,0.057,0.035,0.089c0.036,0.081,0.072,0.17,0.114,0.252c0.03,0.072,0.066,0.153,0.109,0.228
					c0.066,0.154,0.139,0.309,0.227,0.465c0.055,0.115,0.117,0.237,0.186,0.36c0.063,0.107,0.125,0.223,0.195,0.347
					c0.029,0.064,0.066,0.138,0.12,0.206c0.068,0.131,0.15,0.271,0.24,0.413c0.018,0.04,0.037,0.073,0.064,0.107
					c0.1,0.174,0.211,0.34,0.334,0.517c0.056,0.099,0.121,0.191,0.201,0.293c0.433,0.651,0.941,1.305,1.528,1.96L50.562,147.845z"/>
			</g>
			<path id="XMLID_295_" style="fill:#EF8080;" d="M63.085,98.729c0.057-0.297-0.137-0.584-0.434-0.642
				c-0.297-0.057-0.585,0.138-0.642,0.435c-0.144,0.749-1.677,1.319-3.647,0.94c-1.97-0.379-3.182-1.477-3.038-2.226
				c0.057-0.296-0.138-0.584-0.434-0.641c-0.297-0.057-0.584,0.138-0.642,0.434c-0.236,1.228,0.888,2.488,2.675,3.161
				c0.031,0.749,0.317,1.868,1.729,2.034c1.455,0.17,1.922-0.928,2.073-1.655C61.991,100.321,62.905,99.662,63.085,98.729z"/>
		</g>
		<g id="XMLID_183_" style="clip-path:url(#XMLID_62_);">
			<path id="XMLID_323_" style="fill:#644243;" d="M74.771,106.875l32.253,3.994l3.652-11.221c2.282-7.007,0.434-14.785-4.96-19.806
				c-2.875-2.677-6.591-4.505-10.788-5.025l0,0c-0.22-0.027-0.441-0.05-0.661-0.07c-11.822-1.06-21.619,9.11-20.529,20.93
				L74.771,106.875z"/>
			<path id="XMLID_313_" style="fill:#F7C2AA;" d="M87.668,134.909L87.668,134.909c-2.712-0.336-4.638-2.807-4.302-5.519
				l0.849-6.857l9.819,1.216l-0.848,6.857C92.85,133.319,90.38,135.245,87.668,134.909z"/>
			<path id="XMLID_312_" style="fill:#E89F82;" d="M83.986,124.386c1.478,0.709,3.093,1.199,4.81,1.412l0,0
				c1.718,0.213,3.403,0.132,5.01-0.196l0.228-1.852l-9.819-1.216L83.986,124.386z"/>
			<path id="XMLID_529_" style="fill:#11486A;" d="M111.476,156.729l-9.036-1.119l-0.074,0.596l-7.155-0.84l-3.256-0.38
				l-5.318-0.628l-2.961-0.352l-10.123-1.192l-5.356-0.633l-0.033,0.272l-0.006-0.009l0.131-1.064l-9.027-1.118
				c0.02-0.174,0.043-0.354,0.072-0.527c0.022-0.181,0.053-0.361,0.082-0.541l0.015-0.121c0.064-0.33,0.122-0.667,0.193-0.996
				c0.002-0.022,0.012-0.036,0.015-0.059c0.077-0.374,0.16-0.739,0.258-1.095c0.062-0.254,0.132-0.505,0.2-0.75
				c0.025-0.073,0.041-0.141,0.064-0.206c0.067-0.237,0.142-0.466,0.215-0.687c0.013-0.044,0.026-0.089,0.039-0.126
				c0.059-0.169,0.111-0.338,0.178-0.506c0.122-0.36,0.265-0.719,0.409-1.077c0.077-0.189,0.155-0.379,0.24-0.567
				c0.149-0.342,0.307-0.683,0.471-1.022c0.094-0.203,0.196-0.405,0.305-0.606c0.223-0.439,0.468-0.869,0.72-1.298
				c0.106-0.179,0.212-0.357,0.327-0.534c0-0.008,0.009-0.015,0.019-0.029c0.247-0.391,0.502-0.773,0.762-1.147
				c0.131-0.19,0.269-0.373,0.407-0.563c0.266-0.357,0.54-0.707,0.819-1.048c0.027-0.027,0.053-0.055,0.072-0.083
				c0.135-0.16,0.278-0.326,0.413-0.485c0.285-0.325,0.585-0.641,0.877-0.957c0.051-0.04,0.095-0.088,0.131-0.129
				c0.14-0.144,0.28-0.28,0.419-0.416c0.167-0.163,0.34-0.326,0.504-0.481c0.172-0.155,0.337-0.311,0.517-0.457
				c0.175-0.17,0.354-0.325,0.566-0.482c0.001-0.008,0.001-0.008,0.001-0.008l0.025-0.02l0.001-0.008
				c0.161-0.125,0.313-0.245,0.468-0.371c0.178-0.139,0.365-0.285,0.55-0.422c0.364-0.277,0.742-0.537,1.125-0.796l-0.001,0.015
				c1.706-1.153,3.542-2.114,5.485-2.824c1.439-0.542,2.931-0.955,4.467-1.225c0.44-0.083,0.884-0.151,1.329-0.211l1.782,0.221
				c0.161,0.932,0.584,1.782,1.198,2.463c0.081,0.087,0.162,0.174,0.244,0.253c0.116,0.114,0.233,0.22,0.367,0.313
				c0.16,0.135,0.336,0.256,0.516,0.363c0.035,0.02,0.063,0.039,0.1,0.058c0.086,0.049,0.179,0.099,0.274,0.142
				c0.071,0.039,0.151,0.072,0.231,0.105c0.372,0.161,0.778,0.28,1.2,0.34l0.008,0.001c0.044,0.013,0.082,0.018,0.127,0.023
				c0.046,0.005,0.084,0.01,0.129,0.009l0.008,0c0.423,0.044,0.847,0.028,1.247-0.037c0.187-0.031,0.376-0.068,0.558-0.115
				c0.033-0.011,0.072-0.022,0.104-0.033c0.199-0.06,0.399-0.134,0.588-0.226c0.259-0.113,0.505-0.244,0.731-0.4
				c0.762-0.511,1.38-1.231,1.763-2.097l1.789,0.222c0.418,0.159,0.826,0.332,1.224,0.52c1.989,0.898,3.833,2.03,5.5,3.364
				c0.056,0.038,0.106,0.074,0.154,0.119c0.962,0.771,1.869,1.619,2.708,2.52c0.108,0.113,0.218,0.227,0.317,0.346
				c0.62,0.682,1.199,1.397,1.743,2.147c0.118,0.16,0.243,0.329,0.359,0.504c0.273,0.395,0.544,0.803,0.792,1.217
				c0.102,0.166,0.212,0.333,0.305,0.505c0.115,0.183,0.223,0.373,0.322,0.561c0,0.008,0.007,0.009,0.007,0.009
				c0.018,0.04,0.043,0.082,0.062,0.115c0.175,0.321,0.341,0.648,0.508,0.975c0.116,0.236,0.232,0.474,0.333,0.716
				c0.436,0.935,0.806,1.908,1.12,2.897c0.051,0.145,0.095,0.287,0.139,0.432c0.012,0.032,0.022,0.071,0.033,0.111
				c0.076,0.247,0.146,0.493,0.206,0.746c0.069,0.245,0.13,0.498,0.184,0.743c0.046,0.182,0.084,0.37,0.124,0.551
				c0.077,0.37,0.146,0.739,0.208,1.107c0.036,0.203,0.064,0.406,0.093,0.609c0.052,0.382,0.104,0.764,0.134,1.143
				c0.018,0.163,0.036,0.327,0.039,0.488c0.032,0.295,0.049,0.597,0.058,0.896c0.013,0.331,0.026,0.655,0.023,0.991
				c0.007,0.368,0,0.742-0.017,1.125c-0.002,0.022,0.003,0.038,0,0.061c-0.01,0.336-0.038,0.678-0.056,1.013l-0.015,0.121
				C111.557,156.011,111.52,156.374,111.476,156.729z"/>
			<path id="XMLID_470_" style="fill:#1B567A;" d="M89.706,129.575l-0.256,2.076c-0.002,0.007-0.002,0.007-0.002,0.015l-2.81,22.692
				l-2.961-0.352l3.07-24.798L89.706,129.575z"/>
			<g id="XMLID_307_">
				<circle id="XMLID_309_" style="fill:#E89F82;" cx="75.86" cy="104.05" r="3.668"/>
				<circle id="XMLID_308_" style="fill:#E89F82;" cx="106.647" cy="107.862" r="3.668"/>
			</g>
			<path id="XMLID_306_" style="fill:#F7C2AA;" d="M88.967,124.414L88.967,124.414c-8.506-1.053-14.547-8.802-13.494-17.308
				l1.352-10.922c1.053-8.506,8.802-14.547,17.309-13.494l0,0c8.506,1.053,14.547,8.802,13.494,17.308l-1.353,10.922
				C105.223,119.425,97.474,125.467,88.967,124.414z"/>
			<g id="XMLID_303_">
				<path id="XMLID_305_" style="fill:#644243;" d="M102.329,103.129l-4.644-0.575c-0.605-0.075-1.035-0.626-0.96-1.231l0,0
					c0.075-0.605,0.626-1.036,1.232-0.96l4.643,0.575c0.605,0.075,1.036,0.626,0.96,1.232l0,0
					C103.485,102.774,102.934,103.204,102.329,103.129z"/>
				<path id="XMLID_304_" style="fill:#644243;" d="M86.408,101.158l-4.643-0.575c-0.605-0.075-1.035-0.626-0.96-1.231l0,0
					c0.075-0.605,0.626-1.036,1.231-0.96l4.644,0.575c0.605,0.075,1.035,0.627,0.96,1.232l0,0
					C87.565,100.803,87.014,101.232,86.408,101.158z"/>
			</g>
			<path id="XMLID_296_" style="fill:#E89F82;" d="M91.138,112.802l-1.442-0.178c-1.098-0.136-1.879-1.14-1.744-2.237
				c0.036-0.287,0.296-0.49,0.583-0.455c0.286,0.035,0.491,0.297,0.455,0.583c-0.065,0.525,0.309,1.005,0.833,1.07l1.443,0.179
				c0.524,0.064,1.004-0.309,1.069-0.834c0.036-0.287,0.297-0.49,0.583-0.455c0.287,0.035,0.49,0.297,0.455,0.583
				C93.238,112.155,92.235,112.938,91.138,112.802z"/>
			<path id="XMLID_294_" style="fill:none;stroke:#743B19;stroke-width:2.2391;stroke-linecap:round;stroke-miterlimit:10;" d="
				M90.124,115.078"/>
			<path id="XMLID_293_" style="fill:#644243;" d="M113.831,80.669c-0.024,0.066-0.049,0.132-0.075,0.199
				c-1.318,3.326-5.624,4.111-8.12,1.548c-2.614-2.685-6.54-5.358-10.877-5.896c-4.129-0.511-7.752,0.696-10.185,1.89v-0.001
				c0,0-0.015,0.007-0.038,0.02c-1.98,0.977-5.743,5.394-6.769,7.672c-3.051,6.778-1.099,9-1.099,9l0,0
				c3.109-1.176,5.465-3.694,6.473-6.784c1.876,2.984,5.026,5.133,8.798,5.6l14.088,1.745c4.878,0.604,9.481-2.732,10.165-7.601
				C116.586,85.251,115.633,82.574,113.831,80.669z"/>
			<path id="XMLID_292_" style="fill:#083E5D;" d="M88.041,131.58l-2.47,1.864c-0.753,0.569-1.839,0.317-2.264-0.526l-2.664-5.272
				l3.244-2.456L88.041,131.58z"/>
			<path id="XMLID_291_" style="fill:#083E5D;" d="M88.115,131.589l1.94,2.411c0.593,0.735,1.707,0.755,2.325,0.042l3.87-4.463
				l-2.547-3.173L88.115,131.589z"/>
			<g id="XMLID_280_">
				<g id="XMLID_282_">
					<g id="XMLID_287_">
						<path id="XMLID_290_" style="fill:#EFA420;" d="M92.553,134.54l-3.255-1.68l0.411-3.319l3.568-0.826
							c0.887-0.146,1.666,0.602,1.555,1.494l-0.405,3.263C94.317,134.366,93.378,134.9,92.553,134.54z"/>
						<path id="XMLID_289_" style="fill:#ED9022;" d="M91.477,131.373l-1.723-0.213c-0.134-0.017-0.229-0.138-0.211-0.271l0,0
							c0.016-0.134,0.138-0.228,0.271-0.211l1.723,0.213c0.134,0.017,0.229,0.139,0.212,0.272l0,0
							C91.731,131.295,91.609,131.39,91.477,131.373z"/>
						<path id="XMLID_288_" style="fill:#ED9022;" d="M91.38,132.151l-1.722-0.214c-0.134-0.016-0.229-0.138-0.212-0.271l0,0
							c0.017-0.133,0.139-0.229,0.272-0.212l1.722,0.213c0.134,0.017,0.229,0.139,0.212,0.272l0,0
							C91.635,132.073,91.514,132.167,91.38,132.151z"/>
					</g>
					<g id="XMLID_283_">
						<path id="XMLID_286_" style="fill:#EFA420;" d="M83.017,133.359l3.567-0.834l0.411-3.319l-3.259-1.672
							c-0.824-0.358-1.761,0.177-1.872,1.069l-0.404,3.263C81.349,132.759,82.129,133.507,83.017,133.359z"/>
						<path id="XMLID_285_" style="fill:#ED9022;" d="M84.834,130.551l1.723,0.213c0.133,0.017,0.255-0.079,0.271-0.212l0,0
							c0.016-0.133-0.079-0.254-0.212-0.271l-1.723-0.213c-0.133-0.017-0.255,0.078-0.271,0.212l0,0
							C84.606,130.413,84.7,130.534,84.834,130.551z"/>
						<path id="XMLID_284_" style="fill:#ED9022;" d="M84.737,131.329l1.723,0.214c0.133,0.016,0.255-0.079,0.271-0.212l0,0
							c0.017-0.133-0.078-0.255-0.211-0.271l-1.722-0.213c-0.134-0.017-0.256,0.079-0.272,0.211l0,0
							C84.509,131.19,84.604,131.313,84.737,131.329z"/>
					</g>
				</g>
				<path id="XMLID_281_" style="fill:#EB8323;" d="M88.774,133.037l-1.726-0.213c-0.567-0.07-0.971-0.588-0.9-1.156l0.213-1.726
					c0.07-0.568,0.588-0.972,1.156-0.901l1.726,0.214c0.568,0.07,0.972,0.588,0.901,1.156l-0.213,1.726
					C89.86,132.704,89.343,133.107,88.774,133.037z"/>
			</g>
			<circle id="XMLID_279_" style="fill:#FFFFFF;" cx="86.961" cy="139.61" r="0.728"/>
			<circle id="XMLID_278_" style="fill:#FFFFFF;" cx="85.993" cy="147.433" r="0.728"/>
			<path id="XMLID_301_" style="fill:#083E5D;" d="M70.74,131.642l-2.577,20.813l-0.006-0.009l-0.172-0.289l-1.488-0.177
				l-1.904-0.221l-0.536-0.066l-2.485-0.292l-2.418-0.284l0.107-0.854c0.02-0.174,0.043-0.354,0.072-0.527
				c0.022-0.181,0.053-0.361,0.082-0.541l0.015-0.121c0.064-0.33,0.122-0.667,0.193-0.996c0.002-0.022,0.012-0.036,0.015-0.059
				c0.077-0.374,0.16-0.739,0.258-1.095c0.062-0.254,0.132-0.505,0.2-0.75c0.025-0.073,0.041-0.141,0.064-0.206
				c0.067-0.237,0.142-0.466,0.215-0.687c0.013-0.044,0.026-0.089,0.039-0.126c0.059-0.169,0.111-0.338,0.178-0.506
				c0.122-0.36,0.265-0.719,0.409-1.077c0.077-0.189,0.155-0.379,0.24-0.567c0.149-0.342,0.307-0.683,0.471-1.022
				c0.094-0.203,0.196-0.405,0.305-0.606c0.223-0.439,0.468-0.869,0.72-1.298c0.106-0.179,0.212-0.357,0.327-0.534
				c0-0.008,0.009-0.015,0.019-0.029c0.247-0.391,0.502-0.773,0.762-1.147c0.131-0.19,0.269-0.373,0.407-0.563
				c0.266-0.357,0.54-0.707,0.819-1.048c0.027-0.027,0.053-0.055,0.072-0.083c0.135-0.16,0.278-0.326,0.413-0.485
				c0.285-0.325,0.585-0.641,0.877-0.957c0.051-0.04,0.095-0.088,0.131-0.129c0.14-0.144,0.28-0.28,0.419-0.416
				c0.167-0.163,0.34-0.326,0.504-0.481c0.172-0.155,0.337-0.311,0.517-0.457c0.182-0.169,0.362-0.323,0.564-0.474l0.001-0.008
				c0.001-0.008,0.001-0.008,0.001-0.008l0.025-0.02l0.001-0.008c0.161-0.125,0.313-0.245,0.468-0.371
				c0.178-0.139,0.365-0.285,0.55-0.422C69.979,132.161,70.356,131.9,70.74,131.642z"/>
			<path id="XMLID_454_" style="fill:#083E5D;" d="M111.476,156.729l-0.068,0.543l-4.027-0.468l-1.246-0.146l-3.769-0.452
				l2.518-20.336c0.62,0.682,1.199,1.397,1.743,2.147c0.118,0.16,0.243,0.329,0.359,0.504c0.273,0.395,0.544,0.803,0.792,1.217
				c0.102,0.166,0.212,0.333,0.305,0.505c0.115,0.183,0.223,0.373,0.322,0.561c0,0.008,0.007,0.009,0.007,0.009
				c0.018,0.04,0.043,0.082,0.062,0.115c0.175,0.321,0.341,0.648,0.508,0.975c0.116,0.236,0.232,0.474,0.333,0.716
				c0.436,0.935,0.806,1.908,1.12,2.897c0.051,0.145,0.095,0.287,0.139,0.432c0.012,0.032,0.022,0.071,0.033,0.111
				c0.076,0.247,0.146,0.493,0.206,0.746c0.069,0.245,0.13,0.498,0.184,0.743c0.046,0.182,0.084,0.37,0.124,0.551
				c0.077,0.37,0.146,0.739,0.208,1.107c0.036,0.203,0.064,0.406,0.093,0.609c0.052,0.382,0.104,0.764,0.134,1.143
				c0.018,0.163,0.036,0.327,0.039,0.488c0.032,0.295,0.049,0.597,0.058,0.896c0.013,0.331,0.026,0.655,0.023,0.991
				c0.007,0.368,0,0.742-0.017,1.125c-0.002,0.022,0.003,0.038,0,0.061c-0.01,0.336-0.038,0.678-0.056,1.013l-0.015,0.121
				C111.557,156.011,111.52,156.374,111.476,156.729z"/>
			
				<rect id="XMLID_269_" x="94.612" y="140.444" transform="matrix(0.123 -0.9924 0.9924 0.123 -59.3577 222.3089)" style="fill:#1B567A;" width="2.978" height="8.589"/>
			<path id="XMLID_421_" style="fill:#1B3646;" d="M108.375,106.264c0.067-0.666-0.403-1.269-1.068-1.343l-0.287-0.036l-1.451-0.171
				l-0.673-0.076l-0.444-0.055l-1.036-0.121l-1.171-0.137l-0.007-0.001l-5.175-0.603l-0.03-0.004l-0.567-0.063
				c-0.786-0.089-1.56,0.22-2.08,0.823l-1.04,1.22c-0.08,0.09-0.155,0.196-0.212,0.296c-1.396-0.679-2.805-0.562-3.622-0.403
				c-0.031-0.119-0.085-0.24-0.14-0.354l-0.736-1.424c-0.356-0.712-1.049-1.188-1.833-1.285l-7.979-0.927l-0.861-0.106l-1.625-0.186
				l-0.144-0.018l-0.234-0.021c-0.658-0.082-1.268,0.395-1.336,1.061c-0.065,0.536,0.242,1.026,0.706,1.237
				c-0.042,0.156-0.084,0.312-0.105,0.478l-0.254,2.237c-0.025,0.204-0.043,0.409-0.038,0.617c-0.005,0.106-0.012,0.22,0.005,0.33
				c-0.009,0.067-0.009,0.129-0.001,0.192c0,0.061,0.007,0.123,0.015,0.186c0.005,0.077,0.012,0.155,0.025,0.225
				c0.003,0.101,0.021,0.203,0.04,0.296c0.052,0.321,0.128,0.637,0.229,0.94c0.033,0.104,0.068,0.2,0.108,0.305
				c0.007,0.001,0.006,0.008,0.006,0.008c0.021,0.072,0.058,0.153,0.087,0.226c0.017,0.048,0.034,0.096,0.06,0.138
				c0.919,2.045,2.861,3.573,5.248,3.854c2.849,0.33,5.521-0.888,7.175-2.982l0-0.008c0.181-0.215,0.346-0.44,0.491-0.683
				c0.18-0.276,0.348-0.578,0.493-0.882c0.062-0.13,0.116-0.261,0.171-0.393c0.232-0.577,0.4-1.192,0.495-1.832
				c0.616-0.139,1.949-0.326,3.191,0.349c-0.059,0.659-0.033,1.314,0.073,1.948c0.014,0.132,0.036,0.265,0.065,0.399
				c0.083,0.386,0.198,0.76,0.336,1.129c0,0-0.001,0.008,0.006,0.009l-0.001,0.007c0.032,0.111,0.075,0.201,0.122,0.314
				c0.011,0.032,0.03,0.065,0.042,0.097c0.036,0.088,0.079,0.171,0.114,0.252c0.724,1.523,1.923,2.791,3.433,3.598
				c0.854,0.465,1.813,0.776,2.84,0.896c2.389,0.273,4.633-0.768,5.995-2.545l0-0.007l0.009-0.007
				c0.027-0.035,0.054-0.062,0.081-0.097c0.072-0.091,0.13-0.183,0.195-0.274c0.036-0.049,0.066-0.107,0.104-0.156
				c0-0.007,0-0.007,0.008-0.006c0.166-0.286,0.317-0.582,0.439-0.888c0.051-0.101,0.094-0.203,0.13-0.306
				c0.022-0.058,0.045-0.117,0.061-0.176c0.01-0.022,0.014-0.052,0.024-0.074c0.013-0.044,0.026-0.089,0.04-0.141
				c0.027-0.088,0.054-0.185,0.073-0.275c0.073-0.274,0.129-0.551,0.157-0.831l0.26-2.229c0.02-0.167,0.026-0.334,0.007-0.498
				C107.896,107.216,108.308,106.8,108.375,106.264z M87.622,108.898c-1.272,2.357-3.899,3.825-6.726,3.498
				c-1.737-0.208-3.189-1.222-4.006-2.619c-0.109-0.174-0.202-0.354-0.278-0.541c-0.152-0.318-0.264-0.653-0.336-0.999
				c-0.047-0.175-0.08-0.354-0.096-0.533c-0.009-0.047-0.018-0.094-0.021-0.141c-0.011-0.093-0.015-0.194-0.018-0.286
				c-0.006-0.077-0.004-0.154-0.002-0.23c-0.011-0.101-0.006-0.2,0.007-0.306c-0.002-0.108,0.011-0.213,0.024-0.319l0.262-2.237
				c0.103-0.892,0.919-1.542,1.818-1.438l0.952,0.11l0.128,0.016l7.329,0.861c0.385,0.041,0.725,0.274,0.896,0.625l0.729,1.423
				c0.113,0.206,0.153,0.433,0.125,0.667c-0.082,0.726-0.283,1.414-0.583,2.043C87.762,108.632,87.691,108.769,87.622,108.898z
				 M104.444,112.99c-1.118,1.172-2.763,1.827-4.501,1.627c-0.801-0.091-1.546-0.322-2.225-0.666
				c-1.732-0.859-3.01-2.427-3.523-4.285c-0.039-0.127-0.068-0.261-0.097-0.395c-0.151-0.7-0.184-1.425-0.1-2.166
				c0.006-0.045,0.018-0.082,0.022-0.12c0.001-0.008,0.002-0.015,0.011-0.021c0.038-0.18,0.12-0.346,0.235-0.477l1.042-1.228
				c0.252-0.299,0.63-0.443,1.022-0.395l6.566,0.76l0.771,0.087l0.354,0.043l0.711,0.081c0.898,0.111,1.548,0.927,1.445,1.827
				l-0.261,2.229c-0.023,0.188-0.055,0.376-0.099,0.555c-0.018,0.082-0.036,0.157-0.061,0.238c0,0.007-0.002,0.022-0.011,0.029
				c-0.02,0.097-0.045,0.187-0.081,0.289c-0.045,0.117-0.091,0.234-0.135,0.351c-0.033,0.08-0.066,0.161-0.106,0.232
				c-0.196,0.405-0.435,0.79-0.729,1.128C104.613,112.811,104.532,112.901,104.444,112.99z"/>
			<g id="XMLID_297_">
				<path id="XMLID_299_" style="fill:#EF8080;" d="M79.674,109.617l-5.711-0.707l0,0c0.169-1.37,1.417-2.343,2.788-2.174
					l0.75,0.093C78.871,106.999,79.843,108.247,79.674,109.617L79.674,109.617z"/>
				<path id="XMLID_298_" style="fill:#EF8080;" d="M107.299,113.038l-5.71-0.707l0,0c0.17-1.37,1.418-2.343,2.788-2.173l0.75,0.093
					C106.497,110.419,107.47,111.668,107.299,113.038L107.299,113.038z"/>
			</g>
			<path id="XMLID_427_" style="fill:#644243;" d="M83.521,106.471c1.079,0.125,1.896,0.955,2.074,1.973
				c0.088-0.207,0.159-0.424,0.186-0.659c0.154-1.313-0.791-2.504-2.103-2.658c-1.313-0.153-2.504,0.79-2.658,2.103
				c-0.027,0.235-0.009,0.463,0.031,0.684C81.456,106.964,82.443,106.345,83.521,106.471z"/>
			<path id="XMLID_426_" style="fill:#644243;" d="M98.696,108.24c1.079,0.126,1.896,0.956,2.073,1.974
				c0.088-0.207,0.16-0.424,0.188-0.659c0.152-1.313-0.791-2.505-2.103-2.658c-1.313-0.153-2.505,0.79-2.658,2.103
				c-0.027,0.235-0.009,0.462,0.03,0.685C96.632,108.733,97.619,108.115,98.696,108.24z"/>
			<path id="XMLID_261_" style="fill:#EF8080;" d="M93.317,116.257l-6.519-0.76c-0.25-0.03-0.475,0.149-0.504,0.399
				c-0.146,1.252,1.37,2.422,3.451,2.666c2.081,0.242,3.825-0.548,3.97-1.8C93.744,116.512,93.566,116.286,93.317,116.257z"/>
		</g>
	</g>
	<g id="XMLID_2767_">
		<circle id="XMLID_2759_" style="fill:#3C5E7C;" cx="100.535" cy="31.829" r="10.793"/>
		<circle id="XMLID_2761_" style="fill:#80A7C4;" cx="97.122" cy="29.509" r="3.913"/>
	</g>
</g>
<g id="XMLID_72_">
	
		<linearGradient id="XMLID_63_" gradientUnits="userSpaceOnUse" x1="272.9502" y1="-111.9331" x2="82.9764" y2="-306.7642" gradientTransform="matrix(0.9961 -0.0878 0.0755 0.8565 19.0703 408.7637)">
		<stop  offset="0.0161" style="stop-color:#FFFFFF;stop-opacity:0"/>
		<stop  offset="0.3107" style="stop-color:#C2CFD9;stop-opacity:0.2994"/>
		<stop  offset="0.6357" style="stop-color:#859FB2;stop-opacity:0.6298"/>
		<stop  offset="0.8748" style="stop-color:#5F809A;stop-opacity:0.8728"/>
		<stop  offset="1" style="stop-color:#507591"/>
	</linearGradient>
	<polygon id="XMLID_153_" style="fill:url(#XMLID_63_);" points="223.181,251.192 93.723,262.601 82.542,135.71 211.999,124.303 	
		"/>
	
		<rect id="XMLID_152_" x="80.126" y="122.319" transform="matrix(0.9961 -0.0878 0.0878 0.9961 -15.7683 13.4559)" style="fill:#FFFFFF;" width="129.96" height="127.382"/>
	<path id="XMLID_151_" style="fill:#AE74CE;" d="M206.258,238.265l-112.223,9.89c-0.869,0.076-1.635-0.566-1.712-1.436
		l-9.768-110.846c-0.077-0.868,0.566-1.635,1.435-1.711l112.222-9.889c0.869-0.077,1.636,0.565,1.712,1.435l9.769,110.846
		C207.769,237.422,207.126,238.188,206.258,238.265z"/>
	<g id="XMLID_6_">
		<defs>
			<path id="XMLID_7_" d="M206.258,238.265l-112.223,9.89c-0.869,0.076-1.635-0.566-1.712-1.436l-9.768-110.846
				c-0.077-0.868,0.566-1.635,1.435-1.711l112.222-9.889c0.869-0.077,1.636,0.565,1.712,1.435l9.769,110.846
				C207.769,237.422,207.126,238.188,206.258,238.265z"/>
		</defs>
		<clipPath id="XMLID_65_">
			<use xlink:href="#XMLID_7_"  style="overflow:visible;"/>
		</clipPath>
		<path id="XMLID_134_" style="opacity:0.5;clip-path:url(#XMLID_65_);fill:#465363;" d="M195.337,207.581
			c0,0-3.471-13.626-6.264-17.268c-1.279-1.678-2.954-3.728-4.882-5.997c-3.933-4.656-9.312-10.574-14.586-16.271l3.351-3.805
			c1.625-1.846,1.447-4.657-0.397-6.283h-0.001c-1.796-1.581-4.521-1.46-6.17,0.275l-2.985,3.154
			c-0.528-0.565-1.047-1.118-1.557-1.663l0.729-0.914c1.64-2.062,1.374-5.044-0.602-6.784c-2.125-1.872-5.387-1.577-7.144,0.645
			l-26.486,33.523l10.407-17.429c1.768-2.961,1.173-6.762-1.414-9.04c-1.446-1.272-3.683-0.978-4.747,0.629l-4.633,6.987
			l-1.714,2.586l-0.004-0.002l-0.096,0.153l-1.055,1.591l-0.001-0.001l-0.09,0.137l-8.125,12.258
			c-1.591,2.398-2.872,4.988-3.814,7.707l-6.366,18.363l-0.199,0.184c-0.15-0.09-0.308-0.156-0.472-0.209
			c-0.069-0.023-0.14-0.04-0.211-0.055c-0.031-0.007-0.059-0.019-0.09-0.023l0,0c-0.115-0.02-0.231-0.027-0.348-0.027
			c-0.071-0.001-0.142,0.008-0.213,0.014c-0.04,0.004-0.081,0.007-0.122,0.013c-0.092,0.013-0.18,0.034-0.27,0.059
			c-0.016,0.004-0.03,0.009-0.045,0.013c-0.1,0.03-0.197,0.066-0.293,0.111l0,0l0,0c-0.097,0.045-0.191,0.094-0.283,0.154
			c-0.098,0.062-0.191,0.131-0.28,0.212l-2.922,2.671c-0.364,0.333-0.589,0.757-0.677,1.203c-0.086,0.445-0.035,0.913,0.154,1.333
			c0.014,0.031,0.037,0.058,0.053,0.088l-19.529,16.918l17.965,28.296l11.238-2.766l15.438-20.337l0.102,0.089
			c0.183,0.16,0.386,0.277,0.596,0.374c0.051,0.022,0.101,0.044,0.152,0.064c0.293,0.113,0.599,0.165,0.906,0.163
			c0.176,0,0.349-0.02,0.521-0.057c0.018-0.004,0.035-0.008,0.053-0.012c0.086-0.021,0.17-0.043,0.254-0.072
			c0.1-0.035,0.197-0.078,0.293-0.126c0.049-0.025,0.098-0.052,0.146-0.081c0.114-0.066,0.222-0.142,0.325-0.229
			c0.022-0.019,0.042-0.038,0.064-0.058c0.116-0.104,0.226-0.218,0.324-0.348l1.943-2.581c0.196-0.26,0.333-0.548,0.415-0.846
			c0.081-0.298,0.104-0.606,0.074-0.909c-0.062-0.607-0.345-1.19-0.835-1.621l-0.354-0.311l0.122-0.16
			c0,0,13.104-5.082,16.389-8.288c1.265-1.235,2.647-2.669,4.094-4.224c0.923,0.563,1.866,1.099,2.84,1.572l6.59,3.222l10.873,5.31
			l13.08,21.909h30.94v-21.909L195.337,207.581z M149.45,175.251l0.312-0.391l0.408,0.504l-0.309,0.327L149.45,175.251z
			 M157.172,167.97l-0.338,0.355l-0.998-1.071l0.372-0.467L157.172,167.97z"/>
		<g id="XMLID_50_" style="clip-path:url(#XMLID_65_);">
			<g id="XMLID_44_">
				<path id="XMLID_45_" style="fill:#F8B1A4;" d="M180.151,185.747c-1.417-1.247-5.772-1.104-7.181,0.151l-10.858,10.643
					l10.064-11.962c1.534-1.605,1.424-4.165-0.242-5.634c-1.528-1.345-3.833-1.293-5.298,0.12l-11.98,10.624l19.068-21.714
					c1.624-1.844,1.446-4.657-0.399-6.282l0,0c-1.796-1.582-4.521-1.46-6.17,0.276l-20.229,21.339l17.057-20.876
					c1.639-2.062,1.374-5.044-0.603-6.784c-2.125-1.872-5.386-1.578-7.143,0.646l-25.973,32.388l-9.441-5.196l-2.031,3.064
					c-1.59,2.397-2.872,4.988-3.814,7.707l-6.365,18.364l-25.748,22.655l17.965,28.296l11.238-2.766l20.538-27.056
					c0,0,18.22-4.994,21.505-8.201c10.63-10.377,29.255-34.316,29.255-34.316C184.729,189.688,181.696,187.107,180.151,185.747z"/>
			</g>
		</g>
		<g id="XMLID_8_" style="clip-path:url(#XMLID_65_);">
			<g id="XMLID_10_">
				<path id="XMLID_52_" style="fill:#E29674;" d="M211.941,229.112v21.908h-30.94l-13.081-21.908l-10.872-5.313l-6.591-3.221
					c-2.589-1.256-5.006-2.847-7.198-4.71l-21.643-18.454c-0.632-0.546-0.999-1.271-1.092-2.021
					c-0.125-0.998,0.218-2.043,1.037-2.769c0.671-0.602,1.427-1.054,2.23-1.357c2.278-0.85,4.898-0.515,6.918,1.038l16.051,12.433
					l-17.223-17.047c-1.781-1.764-1.951-4.584-0.396-6.549l0,0c1.815-2.294,5.218-2.506,7.304-0.456l6.985,6.86l-7.52-8.552
					c-1.545-1.759-1.614-4.368-0.162-6.205l0,0c1.84-2.327,5.323-2.47,7.346-0.299l7.598,8.153l-8.383-10.352
					c-1.357-1.676-1.37-4.066-0.033-5.758l0,0c1.75-2.211,5.061-2.345,6.982-0.28l9.131,9.808l-9.853-12.067
					c-1.262-1.547-1.278-3.763-0.041-5.328l0,0c1.613-2.041,4.658-2.172,6.437-0.276c7.422,7.918,18.798,19.999,25.708,28.178
					c1.926,2.269,3.603,4.321,4.883,5.998c2.792,3.643,6.264,17.268,6.264,17.268L211.941,229.112z"/>
				<g id="XMLID_94_">
					<path id="XMLID_95_" style="fill:#F2B9A5;" d="M127.996,202.852l3.208-4.151c0,0-5.504-5.021-9.587-1.288L127.996,202.852z"/>
				</g>
				<g id="XMLID_92_">
					
						<rect id="XMLID_93_" x="129.739" y="203.235" transform="matrix(-0.6297 0.7768 -0.7768 -0.6297 372.7425 229.1389)" style="fill:#D88260;" width="4.043" height="0.341"/>
				</g>
				<g id="XMLID_90_">
					
						<rect id="XMLID_91_" x="131.792" y="205.552" transform="matrix(-0.6404 0.7681 -0.7681 -0.6404 375.498 235.6265)" style="fill:#D88260;" width="1.587" height="0.342"/>
				</g>
				<path id="XMLID_43_" style="fill:#8B5580;" d="M191.728,207.02l-23.715,21.626c-0.965,0.88-1.088,2.354-0.283,3.382l1.988,2.545
					c0.893,1.142,2.566,1.285,3.641,0.313l24.306-21.983c0.977-0.884,0.966-2.42-0.021-3.291l-2.971-2.617
					C193.827,206.25,192.559,206.261,191.728,207.02z"/>
				<g id="XMLID_12_">
					<path id="XMLID_40_" style="fill:none;" d="M192.146,217.893l0.746-0.675l-0.481-5.883h-5.416l-1.252,1.143l0.443,5.415
						H192.146z M187.59,216.146v-2.957h3.02v2.957H187.59z"/>
					<polygon id="XMLID_39_" style="fill:none;" points="180.241,228.66 181.185,227.807 181.27,222.434 175.448,221.865 
						174.673,222.571 180.327,223.124 					"/>
					<path id="XMLID_38_" style="fill:none;" d="M195.641,214.73l2.023-1.828c0.977-0.884,0.966-2.42-0.021-3.291l-2.971-2.617
						c-0.845-0.744-2.113-0.733-2.944,0.025l-1.672,1.525h5.079L195.641,214.73z"/>
					<polygon id="XMLID_37_" style="fill:none;" points="182.206,226.884 183.678,225.553 183.678,222.284 187.289,222.285 
						189.061,220.683 183.462,220.683 182.994,214.983 181.489,216.356 181.609,220.023 177.709,219.803 176.45,220.952 
						182.29,221.522 					"/>
					<polygon id="XMLID_36_" style="fill:none;" points="190.174,219.677 191.034,218.898 185.259,218.898 184.803,213.335 
						183.934,214.127 184.389,219.677 					"/>
					<polygon id="XMLID_35_" style="fill:none;" points="176.401,232.134 177.183,231.427 171.454,230.867 171.539,225.431 
						170.595,226.291 170.514,231.558 					"/>
					<path id="XMLID_34_" style="fill:none;" d="M173.358,234.886l2.034-1.84l-5.9-0.576l0.082-5.248l-1.562,1.424
						c-0.965,0.88-1.088,2.354-0.283,3.382l1.988,2.545C170.61,235.714,172.284,235.857,173.358,234.886z"/>
					<polygon id="XMLID_33_" style="fill:none;" points="193.832,216.367 194.701,215.581 194.207,209.551 188.952,209.551 
						188.099,210.328 193.338,210.328 					"/>
					<path id="XMLID_30_" style="fill:none;" d="M178.192,230.515l1.028-0.931l0.086-5.548l-5.635-0.551l-1.111,1.014l-0.086,5.458
						L178.192,230.515z M174.044,228.356l0.287-2.942l3.004,0.293l-0.288,2.942L174.044,228.356z"/>
					<polygon id="XMLID_29_" style="fill:#F8CC22;" points="194.701,215.581 195.641,214.73 195.135,208.545 190.056,208.545 
						188.952,209.551 194.207,209.551 					"/>
					<polygon id="XMLID_28_" style="fill:#F8CC22;" points="189.061,220.683 190.174,219.677 184.389,219.677 183.934,214.127 
						182.994,214.983 183.462,220.683 					"/>
					<polygon id="XMLID_27_" style="fill:#7AD0CD;" points="191.034,218.898 192.146,217.893 186.186,217.893 185.742,212.478 
						184.803,213.335 185.259,218.898 					"/>
					<polygon id="XMLID_26_" style="fill:#7AD0CD;" points="192.892,217.218 193.832,216.367 193.338,210.328 188.099,210.328 
						186.994,211.335 192.41,211.335 					"/>
					<rect id="XMLID_25_" x="187.59" y="213.189" style="fill:#F34C74;" width="3.02" height="2.957"/>
					<polygon id="XMLID_24_" style="fill:#F8CC22;" points="181.185,227.807 182.206,226.884 182.29,221.522 176.45,220.952 
						175.448,221.865 181.27,222.434 					"/>
					<polygon id="XMLID_23_" style="fill:#F8CC22;" points="175.393,233.046 176.401,232.134 170.514,231.558 170.595,226.291 
						169.574,227.222 169.492,232.47 					"/>
					<polygon id="XMLID_22_" style="fill:#7AD0CD;" points="179.221,229.584 180.241,228.66 180.327,223.124 174.673,222.571 
						173.672,223.485 179.307,224.036 					"/>
					<polygon id="XMLID_21_" style="fill:#7AD0CD;" points="177.183,231.427 178.192,230.515 172.475,229.957 172.561,224.499 
						171.539,225.431 171.454,230.867 					"/>
					
						<rect id="XMLID_15_" x="174.211" y="225.523" transform="matrix(0.0971 -0.9953 0.9953 0.0971 -67.3318 379.8418)" style="fill:#F34C74;" width="2.956" height="3.017"/>
					<polygon id="XMLID_14_" style="fill:#FFFFFF;" points="183.678,225.553 187.289,222.285 183.678,222.284 					"/>
					<polygon id="XMLID_13_" style="fill:#FFFFFF;" points="181.489,216.356 177.709,219.803 181.609,220.023 					"/>
				</g>
			</g>
		</g>
		<path id="XMLID_48_" style="clip-path:url(#XMLID_65_);fill:#F8B1A4;" d="M139.698,172.616c1.768-2.959,1.173-6.761-1.414-9.039
			c-1.446-1.273-3.683-0.978-4.747,0.629l-13.688,20.645l9.441,5.194L139.698,172.616z"/>
		<g id="XMLID_99_" style="clip-path:url(#XMLID_65_);">
			<g id="XMLID_147_">
				<path id="XMLID_148_" style="fill:#F9CBC7;" d="M129.001,171.03l4.507,2.685c0,0,4.323-6.067,0.126-9.672L129.001,171.03z"/>
			</g>
			<g id="XMLID_145_">
				
					<rect id="XMLID_146_" x="128.735" y="172.811" transform="matrix(0.531 -0.8474 0.8474 0.531 -87.6924 191.2205)" style="fill:#DB9D93;" width="0.341" height="4.044"/>
			</g>
			<g id="XMLID_143_">
				
					<rect id="XMLID_144_" x="126.533" y="175.139" transform="matrix(0.5441 -0.839 0.839 0.5441 -89.8459 186.5186)" style="fill:#DB9D93;" width="0.341" height="1.586"/>
			</g>
			<path id="XMLID_120_" style="fill:#38BDBD;" d="M108.731,213.034l24.108,21.188c0.98,0.861,1.132,2.333,0.346,3.376l-1.942,2.581
				c-0.872,1.157-2.543,1.332-3.635,0.381l-24.704-21.536c-0.993-0.864-1.01-2.4-0.039-3.289l2.923-2.672
				C106.618,212.304,107.887,212.292,108.731,213.034z"/>
			<g id="XMLID_100_">
				<polygon id="XMLID_119_" style="fill:none;" points="117.994,232.178 118.319,221.462 119.445,222.451 119.114,233.155 				"/>
				<path id="XMLID_118_" style="fill:none;" d="M133.185,237.599l-1.942,2.581c-0.489,0.65-1.23,0.978-1.98,0.981l0.299-9.819
					l3.277,2.881C133.819,235.084,133.971,236.556,133.185,237.599z"/>
				<polygon id="XMLID_117_" style="fill:none;" points="109.127,224.449 109.455,213.67 110.582,214.66 110.249,225.426 				"/>
				<path id="XMLID_116_" style="fill:none;" d="M102.904,219.024c-0.993-0.864-1.01-2.4-0.039-3.289l2.923-2.672
					c0.17-0.156,0.363-0.273,0.563-0.365l-0.282,9.086L102.904,219.024z"/>
				<polygon id="XMLID_115_" style="fill:none;" points="120.372,234.252 120.697,223.552 124.131,226.569 123.801,237.241 				"/>
				<polygon id="XMLID_114_" style="fill:none;" points="116.193,230.608 116.519,219.879 117.067,220.36 116.736,231.081 				"/>
				<polygon id="XMLID_113_" style="fill:none;" points="125.06,238.338 125.383,227.67 125.931,228.151 125.601,238.811 				"/>
				<polygon id="XMLID_112_" style="fill:none;" points="111.505,226.522 111.833,215.76 115.267,218.778 114.936,229.512 				"/>
				<path id="XMLID_111_" style="fill:none;" d="M107.327,222.881l0.314-10.364c0.193,0.032,0.377,0.099,0.559,0.182l-0.331,10.655
					L107.327,222.881z"/>
				<path id="XMLID_110_" style="fill:none;" d="M127.608,240.561l-0.749-0.653l0.323-10.655l1.125,0.989l-0.327,10.58
					C127.852,240.745,127.726,240.662,127.608,240.561z"/>
				<path id="XMLID_109_" style="fill:#FFFFFF;" d="M127.981,240.821l0.327-10.58l1.253,1.101l-0.299,9.819
					C128.821,241.165,128.379,241.058,127.981,240.821z"/>
				<polygon id="XMLID_108_" style="fill:#3C5E7C;" points="125.601,238.811 125.931,228.151 127.183,229.252 126.86,239.907 				
					"/>
				<polygon id="XMLID_107_" style="fill:#F34C74;" points="123.801,237.241 124.131,226.569 125.383,227.67 125.06,238.338 				"/>
				<polygon id="XMLID_106_" style="fill:#FFFFFF;" points="119.114,233.155 119.445,222.451 120.697,223.552 120.372,234.252 				
					"/>
				<polygon id="XMLID_105_" style="fill:#3C5E7C;" points="116.736,231.081 117.067,220.36 118.319,221.462 117.994,232.178 				
					"/>
				<polygon id="XMLID_104_" style="fill:#F34C74;" points="114.936,229.512 115.267,218.778 116.519,219.879 116.193,230.608 				
					"/>
				<polygon id="XMLID_103_" style="fill:#FFFFFF;" points="110.249,225.426 110.582,214.66 111.833,215.76 111.505,226.522 				"/>
				<path id="XMLID_102_" style="fill:#3C5E7C;" d="M107.87,223.354l0.331-10.655c0.188,0.087,0.368,0.193,0.531,0.337l0.724,0.635
					l-0.327,10.779L107.87,223.354z"/>
				<path id="XMLID_101_" style="fill:#F34C74;" d="M106.069,221.784l0.282-9.086c0.407-0.189,0.855-0.255,1.291-0.182
					l-0.314,10.364L106.069,221.784z"/>
			</g>
		</g>
		<path id="XMLID_1_" style="clip-path:url(#XMLID_65_);fill:#F8B1A4;" d="M164.221,162.694l-5.802,9.54
			c-1.421,2.336-4.467,3.078-6.803,1.657l-0.246-0.149c-2.336-1.422-3.08-4.468-1.658-6.805l5.802-9.539
			c1.421-2.338,4.467-3.08,6.805-1.657l0.244,0.147C164.9,157.312,165.643,160.358,164.221,162.694z"/>
		<path id="XMLID_154_" style="clip-path:url(#XMLID_65_);fill:#F8B1A4;" d="M174.07,168.488l-6.991,8.704
			c-1.713,2.134-4.83,2.474-6.962,0.76l-0.225-0.18c-2.132-1.713-2.473-4.83-0.759-6.961l6.991-8.706
			c1.714-2.133,4.831-2.472,6.963-0.76l0.224,0.179C175.444,163.238,175.784,166.355,174.07,168.488z"/>
		<path id="XMLID_155_" style="clip-path:url(#XMLID_65_);fill:#F8B1A4;" d="M180.339,176.913l-7.229,8.511
			c-1.771,2.084-4.896,2.339-6.979,0.569l-0.219-0.188c-2.085-1.77-2.34-4.896-0.568-6.98l7.228-8.509
			c1.771-2.084,4.896-2.339,6.98-0.569l0.219,0.186C181.855,171.704,182.11,174.828,180.339,176.913z"/>
		<path id="XMLID_156_" style="clip-path:url(#XMLID_65_);fill:#F8B1A4;" d="M186.002,185.771l-4.941,5.855
			c-1.764,2.091-4.887,2.356-6.979,0.593l-0.219-0.187c-2.091-1.764-2.355-4.888-0.592-6.979l4.94-5.854
			c1.764-2.092,4.889-2.355,6.979-0.593l0.22,0.186C187.501,180.557,187.767,183.682,186.002,185.771z"/>
		<g id="XMLID_64_" style="clip-path:url(#XMLID_65_);">
			
				<rect id="XMLID_71_" x="158.495" y="161.619" transform="matrix(-0.5672 0.8236 -0.8236 -0.5672 382.9268 124.6525)" style="fill:#DB9D93;" width="0.43" height="2.647"/>
		</g>
		<g id="XMLID_55_" style="clip-path:url(#XMLID_65_);">
			
				<rect id="XMLID_57_" x="159.184" y="158.8" transform="matrix(-0.5638 0.8259 -0.8259 -0.5638 383.0534 121.6683)" style="fill:#DB9D93;" width="0.43" height="6.366"/>
		</g>
		<g id="XMLID_51_" style="clip-path:url(#XMLID_65_);">
			<path id="XMLID_53_" style="fill:#F9CBC7;" d="M159.549,166.409l-4.416-3.176c-0.422-0.304-1.011-0.206-1.312,0.217l-2.357,3.309
				c-1.203,1.69-0.779,4.043,0.941,5.205l0,0c1.684,1.138,3.971,0.702,5.119-0.974l2.251-3.289
				C160.063,167.28,159.962,166.706,159.549,166.409z"/>
		</g>
		<g id="XMLID_87_" style="clip-path:url(#XMLID_65_);">
			
				<rect id="XMLID_88_" x="167.85" y="166.629" transform="matrix(-0.6119 0.7909 -0.7909 -0.6119 403.7454 137.7941)" style="fill:#DB9D93;" width="0.431" height="2.648"/>
		</g>
		<g id="XMLID_85_" style="clip-path:url(#XMLID_65_);">
			
				<rect id="XMLID_86_" x="168.593" y="163.852" transform="matrix(-0.6069 0.7948 -0.7948 -0.6069 404.0132 134.2328)" style="fill:#DB9D93;" width="0.431" height="6.366"/>
		</g>
		<g id="XMLID_78_" style="clip-path:url(#XMLID_65_);">
			<path id="XMLID_79_" style="fill:#F9CBC7;" d="M168.702,171.462l-4.225-3.426c-0.403-0.328-0.996-0.265-1.322,0.142l-2.543,3.165
				c-1.301,1.619-1.013,3.99,0.637,5.252l0,0c1.614,1.232,3.923,0.931,5.165-0.676l2.439-3.155
				C169.165,172.361,169.099,171.782,168.702,171.462z"/>
		</g>
		<g id="XMLID_122_" style="clip-path:url(#XMLID_65_);">
			
				<rect id="XMLID_123_" x="173.882" y="174.963" transform="matrix(-0.6107 0.7919 -0.7919 -0.6107 419.893 145.9065)" style="fill:#DB9D93;" width="0.393" height="2.42"/>
		</g>
		<g id="XMLID_97_" style="clip-path:url(#XMLID_65_);">
			
				<rect id="XMLID_121_" x="174.561" y="172.427" transform="matrix(-0.6107 0.7919 -0.7919 -0.6107 420.3231 144.0202)" style="fill:#DB9D93;" width="0.393" height="5.817"/>
		</g>
		<g id="XMLID_89_" style="clip-path:url(#XMLID_65_);">
			<path id="XMLID_96_" style="fill:#F9CBC7;" d="M174.66,179.381l-3.859-3.131c-0.369-0.299-0.91-0.241-1.208,0.129l-2.324,2.893
				c-1.188,1.479-0.925,3.646,0.582,4.798l0,0c1.476,1.126,3.584,0.851,4.72-0.618l2.229-2.882
				C175.085,180.202,175.022,179.674,174.66,179.381z"/>
		</g>
		<g id="XMLID_128_" style="clip-path:url(#XMLID_65_);">
			
				<rect id="XMLID_129_" x="181.17" y="182.145" transform="matrix(-0.6105 0.792 -0.792 -0.6105 437.2379 151.5381)" style="fill:#DB9D93;" width="0.371" height="2.283"/>
		</g>
		<g id="XMLID_126_" style="clip-path:url(#XMLID_65_);">
			
				<rect id="XMLID_127_" x="181.81" y="179.751" transform="matrix(-0.6092 0.793 -0.793 -0.6092 437.5899 149.3481)" style="fill:#DB9D93;" width="0.372" height="5.489"/>
		</g>
		<g id="XMLID_124_" style="clip-path:url(#XMLID_65_);">
			<path id="XMLID_125_" style="fill:#F9CBC7;" d="M181.904,186.312l-3.643-2.952c-0.348-0.283-0.859-0.229-1.14,0.121l-2.194,2.729
				c-1.121,1.396-0.872,3.441,0.55,4.528l0,0c1.393,1.063,3.384,0.802,4.454-0.583l2.104-2.719
				C182.304,187.088,182.245,186.589,181.904,186.312z"/>
		</g>
	</g>
	<g id="XMLID_3_">
		<circle id="XMLID_5_" style="fill:#3C5E7C;" cx="138.621" cy="120.441" r="10.793"/>
		<circle id="XMLID_4_" style="fill:#80A7C4;" cx="134.81" cy="118.856" r="3.912"/>
	</g>
	<g id="XMLID_2_">
		<g>
			<path style="fill:#F8B1A4;" d="M135.008,223.445c3.224,0,3.224-5,0-5S131.784,223.445,135.008,223.445L135.008,223.445z"/>
		</g>
	</g>
	<g id="XMLID_46_">
		<g>
			<path style="fill:#F8B1A4;" d="M135.77,222.875c3.224,0,3.224-5,0-5S132.545,222.875,135.77,222.875L135.77,222.875z"/>
		</g>
	</g>
	<g id="XMLID_47_">
		<g>
			<path style="fill:#F8B1A4;" d="M136.911,220.974c3.224,0,3.224-5,0-5S133.687,220.974,136.911,220.974L136.911,220.974z"/>
		</g>
	</g>
	<g id="XMLID_49_">
		<g>
			<path style="fill:#F8B1A4;" d="M136.911,220.974c0.063,0,0.126,0,0.189,0c1.363,0,2.5-1.138,2.5-2.5s-1.137-2.5-2.5-2.5
				c-0.063,0-0.126,0-0.189,0c-1.363,0-2.5,1.138-2.5,2.5S135.548,220.974,136.911,220.974L136.911,220.974z"/>
		</g>
	</g>
</g>
<g id="XMLID_245_">
	
		<linearGradient id="XMLID_66_" gradientUnits="userSpaceOnUse" x1="358.7197" y1="-157.3159" x2="168.7488" y2="-352.144" gradientTransform="matrix(0.9982 -0.0596 0.0516 0.8645 0.0459 356.7637)">
		<stop  offset="0.0161" style="stop-color:#FFFFFF;stop-opacity:0"/>
		<stop  offset="0.3107" style="stop-color:#C2CFD9;stop-opacity:0.2994"/>
		<stop  offset="0.6357" style="stop-color:#859FB2;stop-opacity:0.6298"/>
		<stop  offset="0.8748" style="stop-color:#5F809A;stop-opacity:0.8728"/>
		<stop  offset="1" style="stop-color:#507591"/>
	</linearGradient>
	<polygon id="XMLID_982_" style="fill:url(#XMLID_66_);" points="291.756,159.673 162.027,167.425 154.376,39.354 284.103,31.602 	
		"/>
	
		<rect id="XMLID_981_" x="150.541" y="27.648" transform="matrix(0.9982 -0.0596 0.0596 0.9982 -5.0919 13.0191)" style="fill:#FFFFFF;" width="129.959" height="128.298"/>
	<path id="XMLID_978_" style="fill:#FFE08A;" d="M275.146,145.299l-112.457,6.72c-0.871,0.053-1.619-0.612-1.671-1.482
		l-6.638-111.077c-0.052-0.87,0.612-1.619,1.482-1.67l112.457-6.719c0.87-0.052,1.618,0.612,1.67,1.482l6.638,111.078
		C276.68,144.499,276.016,145.246,275.146,145.299z"/>
	<circle id="XMLID_968_" style="fill:#3C5E7C;" cx="210.859" cy="25.614" r="10.794"/>
	<circle id="XMLID_967_" style="fill:#80A7C4;" cx="207.095" cy="23.923" r="3.913"/>
	<g id="XMLID_1052_">
		<circle id="XMLID_2339_" style="fill:#2B3B4C;" cx="241.312" cy="94.214" r="20.4"/>
		
			<rect id="XMLID_2338_" x="223.672" y="95.495" transform="matrix(-0.2034 -0.9791 0.9791 -0.2034 182.3503 380.149)" style="fill:#303033;" width="44.29" height="40.801"/>
		
			<rect id="XMLID_2337_" x="223.672" y="95.495" transform="matrix(-0.2034 -0.9791 0.9791 -0.2034 182.3503 380.149)" style="fill:#2B3B4C;" width="44.29" height="40.801"/>
		<path id="XMLID_1049_" style="fill:#EF7F7F;" d="M269.035,145.559l0.019,0.101l-33.713,2.021l-0.42,0.022l-7.725,0.465
			c0.023-1.215,0.151-2.407,0.356-3.58c0.047-0.271,0.094-0.542,0.156-0.811c0.048-0.231,0.098-0.461,0.153-0.689
			c0.025-0.119,0.049-0.231,0.083-0.349l0.012-0.031c0.021-0.096,0.042-0.183,0.062-0.27c0.067-0.235,0.133-0.473,0.207-0.706
			c0.048-0.173,0.098-0.347,0.153-0.511c0.062-0.204,0.13-0.398,0.199-0.602c0.083-0.24,0.175-0.489,0.266-0.73l0.013-0.031
			l0.017-0.055c0.063-0.163,0.128-0.333,0.201-0.495c0.162-0.402,0.341-0.802,0.525-1.192c0.003-0.008,0.003-0.008,0.003-0.008
			c0.06-0.139,0.128-0.269,0.195-0.397c0.103-0.215,0.205-0.421,0.316-0.626c0.136-0.267,0.278-0.533,0.43-0.789
			c0.432-0.749,0.895-1.477,1.395-2.176c0.15-0.207,0.303-0.414,0.463-0.621c0.303-0.406,0.629-0.811,0.961-1.196
			c0.685-0.796,1.41-1.543,2.188-2.243c1.548-1.417,3.283-2.644,5.172-3.637c0.699-0.376,1.426-0.723,2.164-1.028l0.008,0.001
			c1.459-0.612,2.998-1.09,4.598-1.42c1.608-0.33,3.211-0.505,4.792-0.527l0.007,0.001c0.813-0.017,1.61,0.006,2.411,0.069
			c0,0,0,0,0.007,0.001c3.704,0.293,7.253,1.39,10.404,3.158l-0.001,0.007c0.068,0.034,0.137,0.069,0.205,0.111
			c0.318,0.176,0.635,0.368,0.949,0.567c0.241,0.148,0.474,0.304,0.704,0.459c0.247,0.166,0.486,0.33,0.715,0.501
			c0.083,0.053,0.164,0.113,0.237,0.173c0.208,0.151,0.406,0.311,0.605,0.461c0.251,0.199,0.499,0.405,0.739,0.611
			c0.095,0.087,0.19,0.165,0.277,0.243c0.182,0.156,0.355,0.319,0.537,0.477c0.008,0.001,0.014,0.018,0.014,0.018
			c0.34,0.318,0.67,0.643,0.991,0.974c2.245,2.344,4.062,5.126,5.297,8.251l0.248,4.098c0.007,0.123,0,0.237-0.018,0.357
			L269.035,145.559z"/>
		<path id="XMLID_2330_" style="fill:#E05A5A;" d="M251.994,122.076l0.979,4.713c0.538,2.59-1.126,5.127-3.716,5.665
			c-2.591,0.538-5.128-1.126-5.666-3.716l-0.974-4.692c-1.593,1.006-2.457,2.897-2.061,4.805l0.255,1.225
			c0.874,4.21,4.997,6.913,9.206,6.038l0,0c4.209-0.874,6.913-4.995,6.037-9.206l-0.254-1.227
			C255.405,123.776,253.86,122.336,251.994,122.076z"/>
		<path id="XMLID_977_" style="fill:#E05A5A;" d="M276.614,143.985c-0.116,0.711-0.719,1.271-1.468,1.313l-6.084,0.361l-0.009-0.001
			l-0.019-0.101l-2.362-11.378l-1.561-7.495l0.001-0.007c0.068,0.034,0.136,0.076,0.204,0.118c0.318,0.176,0.635,0.368,0.949,0.567
			c0.241,0.148,0.474,0.304,0.704,0.459c0.247,0.166,0.486,0.33,0.715,0.501c0.083,0.053,0.164,0.113,0.237,0.173
			c0.208,0.151,0.406,0.311,0.605,0.461c0.251,0.199,0.499,0.405,0.739,0.611c0.089,0.07,0.184,0.148,0.271,0.226
			c0.183,0.157,0.372,0.323,0.544,0.494c0.008,0.001,0.014,0.018,0.014,0.018c2.689,2.497,4.861,5.599,6.282,9.142l0.006,0.083
			l0.248,4.098C276.639,143.751,276.632,143.865,276.614,143.985z"/>
		<path id="XMLID_971_" style="fill:#E05A5A;" d="M235.341,147.681l-0.42,0.022l-7.725,0.465c0.023-1.215,0.151-2.407,0.356-3.58
			c0.047-0.271,0.094-0.542,0.156-0.811c0.048-0.231,0.098-0.461,0.153-0.689c0.025-0.119,0.049-0.231,0.083-0.349l0.012-0.031
			c0.021-0.096,0.042-0.183,0.062-0.27c0.067-0.235,0.133-0.473,0.207-0.706c0.048-0.173,0.098-0.347,0.153-0.511
			c0.062-0.204,0.13-0.398,0.199-0.602c0.083-0.24,0.175-0.489,0.266-0.73l0.013-0.031c0.003-0.016,0.012-0.03,0.022-0.046
			c0.058-0.172,0.121-0.334,0.195-0.504c0.162-0.402,0.341-0.802,0.525-1.192c0.003-0.008,0.003-0.008,0.003-0.008
			c0.06-0.139,0.128-0.269,0.195-0.397c0.103-0.215,0.205-0.421,0.316-0.626c0.136-0.267,0.278-0.533,0.43-0.789
			c0.432-0.749,0.895-1.477,1.395-2.176c0.15-0.207,0.303-0.414,0.463-0.621l1.554,7.479L235.341,147.681z"/>
		<path id="XMLID_2315_" style="fill:#F0BEA4;" d="M249.01,131.268L249.01,131.268c-2.596,0.539-5.137-1.128-5.678-3.725
			l-1.363-6.565l9.401-1.954l1.365,6.565C253.274,128.186,251.606,130.728,249.01,131.268z"/>
		<path id="XMLID_2314_" style="fill:#E89F82;" d="M242.337,122.75c1.581,0.19,3.217,0.135,4.861-0.207l0,0
			c1.645-0.342,3.167-0.943,4.541-1.747l-0.369-1.773l-9.401,1.954L242.337,122.75z"/>
		<g id="XMLID_2311_">
			<circle id="XMLID_2313_" style="fill:#E89F82;" cx="228.512" cy="106.608" r="3.56"/>
			<circle id="XMLID_2312_" style="fill:#E89F82;" cx="257.989" cy="100.483" r="3.56"/>
		</g>
		<path id="XMLID_2310_" style="fill:#F0BEA4;" d="M246.922,121.218L246.922,121.218c-8.143,1.692-16.117-3.538-17.81-11.682
			l-2.172-10.458c-1.692-8.144,3.538-16.117,11.681-17.81l0,0c8.146-1.692,16.118,3.538,17.811,11.682l2.172,10.458
			C260.297,111.553,255.065,119.527,246.922,121.218z"/>
		<path id="XMLID_2309_" style="fill:#E89F82;" d="M245.285,109.872l-1.381,0.287c-1.051,0.219-2.083-0.458-2.301-1.509
			c-0.058-0.274,0.119-0.543,0.394-0.601c0.274-0.057,0.544,0.119,0.601,0.394c0.104,0.503,0.598,0.827,1.101,0.722l1.381-0.287
			c0.503-0.104,0.827-0.598,0.722-1.1c-0.057-0.274,0.119-0.544,0.393-0.601c0.275-0.057,0.544,0.12,0.601,0.394
			C247.014,108.622,246.337,109.654,245.285,109.872z"/>
		<path id="XMLID_2307_" style="fill:none;stroke:#743B19;stroke-width:2.2391;stroke-linecap:round;stroke-miterlimit:10;" d="
			M245.064,112.28"/>
		<path id="XMLID_2306_" style="fill:#303033;" d="M238.315,101.633c-0.192,0.04-0.398,0.025-0.593-0.056
			c-3.268-1.347-5.296,0.975-5.379,1.073c-0.362,0.425-1.002,0.482-1.429,0.123c-0.428-0.359-0.489-0.993-0.132-1.423
			c1.03-1.245,3.971-3.192,7.713-1.651c0.519,0.214,0.767,0.807,0.552,1.326C238.915,101.349,238.633,101.566,238.315,101.633z"/>
		<path id="XMLID_2305_" style="fill:#303033;" d="M253.402,98.498c-0.191,0.04-0.396,0.025-0.592-0.055
			c-3.269-1.348-5.296,0.974-5.381,1.073c-0.361,0.425-1.001,0.482-1.428,0.123c-0.428-0.359-0.487-0.993-0.132-1.423
			c1.031-1.245,3.972-3.193,7.715-1.651c0.518,0.214,0.765,0.808,0.551,1.326C254.003,98.214,253.721,98.432,253.402,98.498z"/>
		<path id="XMLID_2304_" style="fill:#3C1D11;" d="M232.715,104.154c0.09-0.266,0.379-0.407,0.645-0.317l1.343,0.457
			c0.191-0.258,0.469-0.453,0.807-0.522c0.731-0.152,1.449,0.319,1.602,1.05c0.151,0.731-0.319,1.449-1.051,1.601
			c-0.73,0.152-1.449-0.319-1.601-1.05c-0.006-0.031-0.006-0.061-0.01-0.092l-1.417-0.482
			C232.767,104.708,232.625,104.419,232.715,104.154z"/>
		<path id="XMLID_2303_" style="fill:#3C1D11;" d="M253.156,99.907c-0.188-0.208-0.51-0.222-0.717-0.034l-1.049,0.954
			c-0.278-0.161-0.61-0.228-0.949-0.158c-0.731,0.152-1.202,0.87-1.05,1.601c0.151,0.731,0.869,1.202,1.601,1.05
			c0.731-0.152,1.201-0.87,1.05-1.601c-0.006-0.031-0.02-0.058-0.027-0.088l1.108-1.007
			C253.33,100.435,253.345,100.115,253.156,99.907z"/>
		<path id="XMLID_2302_" style="fill:#F0BEA4;" d="M228.871,139.803"/>
		<polygon id="XMLID_1016_" style="fill:#E05A5A;" points="230.351,141.729 234.921,147.703 227.196,148.168 226.207,148.225 
			227.945,142.739 227.957,142.708 228.844,139.89 228.856,139.858 228.873,139.804 228.879,139.813 		"/>
		<path id="XMLID_1061_" style="fill:#E05A5A;" d="M256.482,129.932c0.816,0.219,4.364,2.752,4.364,2.752s-4.341,0.422-5.157,0.204
			c-0.814-0.219-1.301-1.058-1.081-1.874C254.826,130.197,255.666,129.713,256.482,129.932z"/>
		<path id="XMLID_1060_" style="fill:#E05A5A;" d="M255.657,134.256c0.064,0.843-1.15,5.031-1.15,5.031s-1.836-3.955-1.9-4.798
			s0.565-1.578,1.409-1.643C254.858,132.783,255.593,133.414,255.657,134.256z"/>
		<circle id="XMLID_1059_" style="fill:#E05A5A;" cx="253.784" cy="131.73" r="2.37"/>
		<path id="XMLID_1058_" style="fill:#2B3B4C;" d="M245.771,81.517c0,0-0.668,7.479,11.524,15.476
			C257.296,96.992,257.72,82.362,245.771,81.517z"/>
		<path id="XMLID_1057_" style="fill:#2B3B4C;" d="M246.244,79.685c-15.543-3.586-21.049,10.959-21.049,10.959
			c-0.008-0.036-0.012-0.055-0.012-0.055c-0.867,2.787-1.01,5.75-0.417,8.608l3.604,17.347c0.608,2.927,1.753,9.545,4.56,15.011
			c2.806,5.467,9.387,5.77,9.387,5.77c-8.199-5.379-10.8-16.25-11.868-21.386c-0.478-2.302-1.585-7.633-2.661-12.816
			C251.089,92.632,246.244,79.685,246.244,79.685z"/>
		<g id="XMLID_1053_">
			<path id="XMLID_1056_" style="fill:#EF8080;" d="M233.757,110.53l-5.467,1.136l0,0c-0.273-1.311,0.569-2.596,1.882-2.868
				l0.717-0.149C232.2,108.376,233.485,109.219,233.757,110.53L233.757,110.53z"/>
			<path id="XMLID_1054_" style="fill:#EF8080;" d="M260.207,105.034l-5.467,1.137l0,0c-0.272-1.312,0.57-2.596,1.882-2.869
				l0.718-0.149C258.652,102.88,259.936,103.723,260.207,105.034L260.207,105.034z"/>
		</g>
		<path id="XMLID_965_" style="fill:#EF8080;" d="M249.723,112.975l-8.726,1.866c-0.334,0.071-0.547,0.4-0.476,0.734
			c0.358,1.676,2.821,2.522,5.606,1.926c2.785-0.596,4.687-2.375,4.328-4.051C250.385,113.117,250.057,112.904,249.723,112.975z"/>
	</g>
	<g id="XMLID_238_">
		<g id="XMLID_1002_">
			<g id="XMLID_1003_">
				<polygon id="XMLID_1005_" style="fill:#F0BEA4;" points="175.407,139.563 175.406,139.563 175.406,139.563 				"/>
				<path id="XMLID_1019_" style="fill:#F0BEA4;" d="M167.203,134.675l8.205,4.892l-4.838,8.131
					c-0.729,1.223-1.131,2.564-1.224,3.924l-6.653,0.396c-0.874,0.057-1.622-0.612-1.672-1.479l-0.114-1.863
					c0.353-2.909,1.303-5.768,2.85-8.388l3.327-5.694l0.003-0.008C167.121,134.623,167.157,134.652,167.203,134.675z"/>
			</g>
		</g>
		<path id="XMLID_1001_" style="fill:#11486A;" d="M202.734,80.987l-26.01-0.588l-4.798,8.63c-2.071,3.724,0.561,8.313,4.819,8.41
			l13.218,0.299c2.101,0.048,4.055-1.073,5.075-2.909L202.734,80.987z"/>
		<g id="XMLID_860_">
			<polygon id="XMLID_1011_" style="fill:#F0BEA4;" points="219.961,142.481 219.818,148.6 210.973,149.128 210.938,149.133 
				211.095,142.287 211.113,141.275 211.147,141.272 219.98,141.47 			"/>
		</g>
		<path id="XMLID_859_" style="fill:#663B41;" d="M179.741,94.304l31.533,0.713l2.435-11.19c1.519-6.989-1.023-14.319-6.721-18.642
			c-3.038-2.305-6.804-3.708-10.906-3.8l0,0c-0.216-0.005-0.432-0.006-0.645-0.004c-11.519,0.129-19.987,10.904-17.784,22.211
			L179.741,94.304z"/>
		<path id="XMLID_1028_" style="fill:#7ADDD8;" d="M220.041,138.896l-0.008-0.001l-8.826-0.197l-0.035,1.704l-0.024,0.871
			l-0.02,1.011l-0.155,6.845l-0.034,0.005l-33.413,1.998l0.359-15.728l0.005-0.221l-1.729,0.492l-2.801,0.8
			c-2.112,0.602-4.166-1.184-3.843-3.362l0.003-0.024c0.052-0.254,0.192-0.839,0.197-0.879c0.025-0.12,0.058-0.237,0.09-0.347
			l0.001-0.009c1.253-4.834,3.873-9.101,7.415-12.371c0.141-0.127,0.281-0.254,0.43-0.38c0.196-0.176,0.4-0.344,0.612-0.511
			c3.379-2.81,7.503-4.755,12.015-5.501c1.559-0.271,3.17-0.387,4.815-0.352c1.638,0.035,3.238,0.227,4.785,0.56
			c8.11,1.739,14.765,7.311,18.008,14.7c0.24,0.558,0.464,1.121,0.677,1.698c0.089,0.241,0.168,0.489,0.247,0.737
			c0.205,0.634,0.385,1.272,0.54,1.924c0.072,0.288,0.137,0.584,0.193,0.886c0.004,0.024,0.016,0.06,0.02,0.093
			c0.01,0.042,0.014,0.075,0.024,0.117c0.027,0.151,0.055,0.311,0.081,0.47c0.151,0.839,0.253,1.687,0.31,2.554
			c0.01,0.115,0.018,0.23,0.018,0.345c0.021,0.2,0.025,0.405,0.029,0.602c0.008,0.066,0.014,0.141,0.012,0.206
			c0.006,0.14,0.003,0.278-0.001,0.417c0.009,0.222,0.01,0.451,0.003,0.679c0.001,0.049-0.005,0.09-0.004,0.139l-0.002,0.016
			C220.034,138.886,220.034,138.886,220.041,138.896z"/>
		<path id="XMLID_855_" style="fill:#F0BEA4;" d="M194.928,120.117L194.928,120.117c-2.651-0.06-4.751-2.257-4.691-4.909
			l0.151-6.703l9.601,0.217l-0.151,6.704C199.776,118.076,197.579,120.177,194.928,120.117z"/>
		<path id="XMLID_854_" style="fill:#E89F82;" d="M190.348,110.314c1.496,0.542,3.103,0.857,4.781,0.895l0,0
			c1.679,0.038,3.299-0.205,4.818-0.678l0.041-1.811l-9.601-0.217L190.348,110.314z"/>
		<g id="XMLID_849_">
			<circle id="XMLID_853_" style="fill:#E89F82;" cx="180.518" cy="91.47" r="3.56"/>
			<circle id="XMLID_852_" style="fill:#E89F82;" cx="210.617" cy="92.15" r="3.56"/>
		</g>
		<path id="XMLID_848_" style="fill:#F0BEA4;" d="M195.16,109.856L195.16,109.856c-8.315-0.188-14.904-7.082-14.717-15.397
			l0.241-10.678c0.188-8.316,7.081-14.904,15.397-14.717l0,0c8.315,0.188,14.904,7.082,14.717,15.397l-0.241,10.679
			C210.369,103.455,203.476,110.044,195.16,109.856z"/>
		<path id="XMLID_847_" style="fill:#663B41;" d="M188.908,87.227l-4.536,0.211c-0.592,0.027-1.093-0.43-1.12-1.021l0,0
			c-0.028-0.592,0.43-1.093,1.021-1.121l4.535-0.211c0.592-0.028,1.094,0.429,1.121,1.02l0,0
			C189.957,86.697,189.5,87.199,188.908,87.227z"/>
		<path id="XMLID_846_" style="fill:#663B41;" d="M202.645,87.539l4.539,0.104c0.592,0.014,1.083-0.455,1.097-1.046l0,0
			c0.014-0.592-0.455-1.083-1.047-1.096l-4.539-0.105c-0.592-0.014-1.083,0.455-1.096,1.047l0,0
			C201.583,87.034,202.053,87.524,202.645,87.539z"/>
		<g id="XMLID_841_">
			<circle id="XMLID_845_" style="fill:#3C1D11;" cx="203.191" cy="91.982" r="1.354"/>
			<circle id="XMLID_842_" style="fill:#3C1D11;" cx="187.944" cy="91.638" r="1.354"/>
		</g>
		<g id="XMLID_838_">
			<path id="XMLID_840_" style="fill:#EF8080;" d="M184.743,96.474l-5.582-0.125l0,0c0.03-1.339,1.14-2.4,2.479-2.371l0.733,0.017
				C183.713,94.025,184.773,95.134,184.743,96.474L184.743,96.474z"/>
			<path id="XMLID_839_" style="fill:#EF8080;" d="M211.753,97.084l-5.583-0.126l0,0c0.03-1.339,1.141-2.4,2.479-2.37l0.732,0.017
				C210.723,94.635,211.783,95.746,211.753,97.084L211.753,97.084z"/>
		</g>
		<path id="XMLID_835_" style="fill:#E89F82;" d="M196.124,98.432l-1.411-0.032c-1.072-0.024-1.926-0.917-1.9-1.989
			c0.006-0.28,0.238-0.503,0.519-0.496c0.28,0.006,0.503,0.239,0.495,0.519c-0.011,0.514,0.397,0.94,0.91,0.952l1.41,0.032
			c0.513,0.012,0.939-0.396,0.951-0.909l1.016,0.023C198.088,97.604,197.195,98.457,196.124,98.432z"/>
		<path id="XMLID_834_" style="fill:#E89F82;" d="M195.266,105.186c-2.339-0.053-4.146-1.197-4.113-2.604
			c0.007-0.28,0.239-0.502,0.52-0.496c0.28,0.007,0.502,0.239,0.495,0.52c-0.016,0.707,1.262,1.523,3.121,1.565
			c1.86,0.042,3.173-0.716,3.188-1.423c0.007-0.28,0.239-0.502,0.52-0.496s0.502,0.238,0.496,0.519
			C199.46,104.177,197.604,105.238,195.266,105.186z"/>
		<path id="XMLID_833_" style="fill:none;stroke:#743B19;stroke-width:2.2391;stroke-linecap:round;stroke-miterlimit:10;" d="
			M195.366,100.729"/>
		<path id="XMLID_832_" style="fill:#53C9C0;" d="M220.041,138.867l-0.039,1.732l-8.831-0.198l0.476-21.036
			C216.947,124.167,220.215,131.154,220.041,138.867z"/>
		<path id="XMLID_831_" style="fill:#53C9C0;" d="M220.623,142.494l-9.557-0.216l0.085-3.76l9.557,0.216
			c0.587,0.014,1.051,0.499,1.037,1.086l-0.036,1.638C221.694,142.044,221.209,142.509,220.623,142.494z"/>
		<polygon id="XMLID_828_" style="fill:#53C9C0;" points="208.123,132.059 207.935,140.432 203.728,142.113 199.601,140.242 
			199.791,131.87 		"/>
		<path id="XMLID_243_" style="fill:#1B567A;" d="M197.433,59.117l-2.284-0.051c-9.903-0.224-18.113,7.624-18.338,17.527
			l-0.086,3.807l13.563,0.307l0.061-2.672c0.058-2.573,2.19-4.611,4.765-4.554l2.48,0.056c2.572,0.058,4.612,2.191,4.554,4.764
			l-0.061,2.672l12.788,0.289l0.087-3.806C215.185,67.551,207.336,59.341,197.433,59.117z"/>
		<path id="XMLID_242_" style="fill:#333333;" d="M201.824,77.581l-12.202-0.275l-0.077,3.383l12.203,0.276
			c0.934,0.021,1.708-0.719,1.729-1.653l0,0C203.498,78.377,202.759,77.603,201.824,77.581z"/>
		
			<rect id="XMLID_241_" x="198.562" y="77.2" transform="matrix(0.9997 0.0224 -0.0224 0.9997 1.8247 -4.4459)" style="fill:#585655;" width="1.482" height="4.005"/>
		<path id="XMLID_240_" style="fill:#53C9C0;" d="M175.406,139.563l-8.203-4.886c-0.502-0.302-0.664-0.955-0.362-1.457l0.843-1.403
			c0.303-0.503,0.955-0.665,1.458-0.363l8.172,4.913L175.406,139.563z"/>
		<path id="XMLID_239_" style="fill:#53C9C0;" d="M171.772,126.558l-2.81,4.812c0.062,0.022,0.121,0.049,0.179,0.084l8.168,4.911
			l0.572-0.964l0.382-16.809C174.385,121.703,172.229,125.673,171.772,126.558z"/>
	</g>
</g>
</svg>
