<?xml version="1.0" encoding="iso-8859-1"?>
<!-- Generator: Adobe Illustrator 16.0.0, SVG Export Plug-In . SVG Version: 6.00 Build 0)  -->
<!DOCTYPE svg PUBLIC "-//W3C//DTD SVG 1.1//EN" "http://www.w3.org/Graphics/SVG/1.1/DTD/svg11.dtd">
<svg version="1.1" id="Layer_1" xmlns="http://www.w3.org/2000/svg" xmlns:xlink="http://www.w3.org/1999/xlink" x="0px" y="0px"
	 width="900px" height="900px" viewBox="0 0 900 900" style="enable-background:new 0 0 900 900;" xml:space="preserve">
<rect style="fill:#00A5E4;" width="899.999" height="900"/>
<polygon style="opacity:0.36;" points="729.897,807.106 761.25,803.629 729.897,520.912 729.897,100.671 683.293,100.671 
	681.945,88.521 572.387,100.671 183.371,100.671 183.371,143.813 138.749,148.761 183.371,551.125 183.371,820.163 213.207,820.163 
	218.054,863.869 612.16,820.163 729.897,820.163 "/>
<path style="opacity:0.36;" d="M664.46,437.955l4.146,16.735l-32.408,8.359l2.469,9.571l-16.023,4.917
	c-7.65,2.348-15.942,1.265-22.732-2.971l-74.338-46.363c-10.036-6.26-22.367-7.639-33.538-3.75l-40.458,14.08l-28.326-6.07
	c-8.72-1.869-17.824,0.096-24.998,5.395l-65.145,48.118c-4.784,3.533-11.015,4.446-16.61,2.435l-25.822-9.284l2.142-8.302
	l-32.408-8.359l4.146-16.734L0,380.195v155.843v38.978v2.232l218.517,54.131l0.521-2.104l0.045,0.012l6.074-24.522l31.046,8.008
	l4.53-17.564l60.872,25.1c-0.011,0.011-0.021,0.021-0.032,0.031l2.81,1.159l0.031-0.032l0.078,0.032l0,0l0,0l0.011-0.012
	l27.126-27.975l-27.811,28.924c-15.281,15.894-2.168,42.796,19.654,39.646c3.72-0.537,7.84-1.765,12.397-3.868
	c0,0,4.016,33.494,39.268,30.854c0,0,4.798,33.881,43.825,25.591l0,0l0,0c0,0,0.375,0.692,1.167,1.745
	c0.088,0.117,0.182,0.238,0.28,0.364c2.757,3.512,9.606,10.154,21.859,9.928c0.017-0.001,0.036-0.002,0.054-0.003
	c1.667-0.033,3.437-0.196,5.307-0.51c0.171-0.028,0.342-0.06,0.514-0.09c5.801-1.047,12.574-3.55,20.42-8.236l7.385,7.43
	c10.043,10.103,25.641,10.633,34.838,1.186l0.337-0.347c9.195-9.445,8.515-25.287-1.522-35.39l1.85,1.86
	c9.018,9.07,23.558,8.996,32.477-0.164l4.037-4.148c5.338-5.482,7.427-12.976,6.332-20.055c7.432,0.645,15.079-1.938,20.734-7.746
	l0.371-0.38c8.218-8.442,9.701-21.087,4.488-31.053c7.409,1.624,15.448-0.49,21.174-6.371c4.881-5.014,7.047-11.71,6.549-18.232
	l41.696-13.026l3.502,13.577l31.046-8.008l6.075,24.522l0.045-0.012l0.521,2.103l189.503-46.943v-2.231V535.45V379.607
	L664.46,437.955z"/>
<rect x="174.86" y="96.449" transform="matrix(0.9939 -0.1102 0.1102 0.9939 -47.5531 52.1735)" style="fill:#EDE2D9;" width="546.526" height="719.492"/>
<polygon style="opacity:0.66;fill:#B7AC9A;" points="390.131,100.604 181.459,123.745 181.459,531.057 213.513,820.096 
	429.904,820.096 727.985,787.038 727.985,500.845 683.599,100.604 "/>
<rect x="181.494" y="80.671" style="fill:#FFFFFF;" width="546.526" height="719.492"/>
<line style="fill:none;stroke:#B9C9BC;stroke-width:7;stroke-miterlimit:10;" x1="274.637" y1="268" x2="634.281" y2="268"/>
<line style="fill:none;stroke:#B9C9BC;stroke-width:7;stroke-miterlimit:10;" x1="244.637" y1="328" x2="664.281" y2="328"/>
<line style="fill:none;stroke:#B9C9BC;stroke-width:7;stroke-miterlimit:10;" x1="244.637" y1="298" x2="664.281" y2="298"/>
<line style="fill:none;stroke:#B9C9BC;stroke-width:7;stroke-miterlimit:10;" x1="244.637" y1="384.891" x2="664.281" y2="384.891"/>
<line style="fill:none;stroke:#B9C9BC;stroke-width:7;stroke-miterlimit:10;" x1="244.637" y1="354.891" x2="664.281" y2="354.891"/>
<line style="fill:none;stroke:#B9C9BC;stroke-width:7;stroke-miterlimit:10;" x1="563.514" y1="708" x2="663.157" y2="708"/>
<line style="fill:none;stroke:#B9C9BC;stroke-width:7;stroke-miterlimit:10;" x1="563.514" y1="678" x2="663.157" y2="678"/>
<g>
	<path style="fill:#EF9CDA;" d="M387.302,701.72c-13.079,38.653-55.167,59.46-93.82,46.381
		c-38.654-13.079-59.46-55.167-46.381-93.821c13.08-38.653,55.167-59.46,93.821-46.38
		C379.575,620.979,400.381,663.066,387.302,701.72z M250.118,655.301c-12.516,36.99,7.395,77.266,44.384,89.781
		c36.989,12.517,77.266-7.394,89.782-44.384c12.516-36.989-7.394-77.265-44.384-89.781S262.634,618.312,250.118,655.301z"/>
</g>
<g>
	<path style="fill:#EF9CDA;" d="M377.832,698.516c-4.111,12.15-11.659,22.661-21.827,30.396l-2.087-2.744
		c9.618-7.316,16.758-17.261,20.648-28.758c4.059-11.993,4.283-24.719,0.649-36.801l3.302-0.993
		C382.358,672.389,382.122,685.84,377.832,698.516z"/>
</g>
<g>
	<path style="fill:#EF9CDA;" d="M259.186,695.391l-3.301,0.993c-3.841-12.772-3.604-26.224,0.685-38.9
		c4.111-12.149,11.659-22.66,21.827-30.396l2.087,2.744c-9.618,7.317-16.758,17.262-20.648,28.758
		C255.776,670.583,255.552,683.309,259.186,695.391z"/>
</g>
<g>
	<path style="fill:#EF9CDA;" d="M368.709,694.772c-9.427,27.859-39.761,42.854-67.619,33.428s-42.854-39.761-33.428-67.619
		c9.427-27.859,39.76-42.854,67.619-33.428C363.14,636.58,378.136,666.913,368.709,694.772z M270.927,661.686
		c-8.817,26.059,5.209,54.432,31.268,63.249s54.431-5.209,63.249-31.267c8.817-26.059-5.209-54.432-31.267-63.249
		S279.745,635.628,270.927,661.686z"/>
</g>
<line style="fill:none;stroke:#B9C9BC;stroke-width:7;stroke-miterlimit:10;" x1="244.936" y1="411.445" x2="664.579" y2="411.445"/>
<line style="fill:none;stroke:#B9C9BC;stroke-width:7;stroke-miterlimit:10;" x1="244.936" y1="468.337" x2="664.579" y2="468.337"/>
<line style="fill:none;stroke:#B9C9BC;stroke-width:7;stroke-miterlimit:10;" x1="244.936" y1="438.337" x2="664.579" y2="438.337"/>
<g>
	<path style="fill:#00A5E4;" d="M275.272,161.856c10.288,0,21.426,5.605,23.342,18.872c-4.328,0-8.16,0-12.487,0
		c-1.774-5.038-5.535-7.308-10.855-7.308c-7.45,0-12.345,5.604-12.345,13.834c0,7.308,4.824,13.693,12.345,13.764
		c5.392,0,9.72-2.696,11.068-8.017c4.257,0,8.159,0,12.486,0c-1.844,14.047-12.982,19.582-23.554,19.582
		c-12.629,0.071-25.399-8.443-25.47-25.329C249.873,170.37,262.643,161.856,275.272,161.856z"/>
	<path style="fill:#00A5E4;" d="M305.491,187.326c0-34.339,50.94-34.339,50.94,0C356.431,221.735,305.491,221.735,305.491,187.326z
		 M343.448,187.326c0-17.879-24.903-17.879-24.903,0C318.545,205.347,343.448,205.347,343.448,187.326z"/>
	<path style="fill:#00A5E4;" d="M379.128,187.681v24.406c-4.398,0-8.797,0-13.125,0V162.21h4.612l25.116,24.548v-24.335
		c4.328,0,8.656,0,12.982,0v49.734h-4.54L379.128,187.681z"/>
	<path style="fill:#00A5E4;" d="M416.442,173.775c0-3.831,0-7.591,0-11.352h36.894c0,3.76,0,7.521,0,11.352h-12.133v38.312
		c-4.186,0-8.372,0-12.558,0v-38.312H416.442z"/>
	<path style="fill:#00A5E4;" d="M503.137,210.242v1.845h-14.19l-8.513-14.615h-6.599v14.615c-4.257,0-8.585,0-12.699,0
		c0-16.531,0-33.062,0-49.664c7.166,0,14.544,0,21.78,0c19.512,0.071,23.059,23.555,10.501,32.068L503.137,210.242z
		 M482.916,173.775c-2.979-0.071-6.101,0-9.081,0c0,4.044,0,8.443,0,12.416h9.081C489.798,186.191,490.153,173.846,482.916,173.775z
		"/>
	<path style="fill:#00A5E4;" d="M541.727,205.843h-19.582l-2.908,6.244H506.82v-1.845l22.349-48.457h5.463l22.419,48.457v1.845
		h-12.416L541.727,205.843z M531.865,181.934l-5.605,13.054h11.352L531.865,181.934z"/>
	<path style="fill:#00A5E4;" d="M584.93,161.856c10.287,0,21.426,5.605,23.342,18.872c-4.328,0-8.159,0-12.486,0
		c-1.774-5.038-5.535-7.308-10.855-7.308c-7.449,0-12.346,5.604-12.346,13.834c0,7.308,4.824,13.693,12.346,13.764
		c5.392,0,9.72-2.696,11.068-8.017c4.256,0,8.158,0,12.486,0c-1.845,14.047-12.983,19.582-23.555,19.582
		c-12.629,0.071-25.399-8.443-25.47-25.329C559.53,170.37,572.301,161.856,584.93,161.856z"/>
	<path style="fill:#00A5E4;" d="M613.304,173.775c0-3.831,0-7.591,0-11.352h36.894c0,3.76,0,7.521,0,11.352h-12.133v38.312
		c-4.186,0-8.373,0-12.559,0v-38.312H613.304z"/>
</g>
<circle style="fill:#EF9CDA;" cx="317.201" cy="678" r="41.701"/>
<g>
	<path style="fill:#001D4F;" d="M682.613,685.257c-8.574,7.251-17.674,14.139-28.057,18.595c-2.371,1.018-4.809,1.937-7.364,2.353
		c-3.637,0.591-6.035,0.129-7.575-3.429c-1.66-3.832,0.035-7.625-0.486-11.756c-0.075-0.594-0.365-1.647-1.116-1.699
		c-3.016-0.205-5.829,3.056-7.98,4.928c-1.625,1.414-3.154,2.908-4.621,4.456c1.041-4.431,1.175-9.007-0.483-12.578
		c-0.184-0.397-0.646-0.881-1.126-0.596c-6.526,3.888-11.868,10.493-16.879,16.118c-1.205,1.353-2.384,2.727-3.558,4.106
		c-0.06-0.488-0.148-0.944-0.281-1.353c1.538-1.238,2.827-2.616,3.623-3.78c2.566-3.746,4.268-9.763,2.039-14.083
		c-3.301-6.398-10.265-2.221-14.045,1.428c-1.047,1.012-0.353,5.465,1.168,3.997c1.435-1.385,5.601-5.292,8.008-4.252
		c1.063,1.864,2.125,3.728,3.188,5.592c-0.327,0.794-0.655,1.589-0.981,2.384c-0.862,1.611-2.076,2.946-3.473,4.097
		c-0.944,0.777-2.303,1.757-3.705,2.42c-0.436,0.091-0.895,0.215-1.408,0.41c-0.104,0.04-0.195,0.107-0.279,0.188
		c-0.423,0.096-0.839,0.159-1.232,0.138c-4.301-0.232-3.104-6.5-2.02-9.679c0.242-0.71-0.376-4.866-1.583-3.167
		c-1.474,2.077-2.754,4.148-4.524,6.028c-2.116,2.246-5.878,6.68-9.075,7.396c-1.361,0.304-3.037,0.323-3.439-1.898
		c-0.112-0.616,0.871-2.564,1.103-3.151c1.141-2.89,2.463-5.453,3.18-8.496c0.215-0.912,0.389-3.312-1-3.482
		c-3.64-0.448-8.402,2.228-11.8,3.312c-2.81,0.897-5.564,1.878-8.276,2.973c0.103-1.16,0.168-2.313,0.188-3.449
		c0.163-9.286-2.516-19.915,0.59-28.895c1.696-4.909,5.51-7.354,10.203-8.873c2.442-0.792,9.874-2.782,13.085-0.786
		c0.166,0.771,0.535,1.344,1.076,1.252c0.152-0.026,0.307-0.053,0.459-0.079c1.668-0.284,1.251-3.359,0.584-4.313
		c-2.596-3.711-10.449-1.985-13.893-1.088c-5.035,1.311-9.859,3.701-12.282,8.507c-5.994,11.885-1.108,25.895-2.491,38.758
		c-1.057,0.467-2.108,0.95-3.15,1.469c-7.873,3.915-15.656,8.722-22.164,14.671c-3.779,3.456-8.204,9.045-6.585,14.643
		c1.702,5.881,8.049,4.481,12.429,2.735c11.898-4.741,18.919-17.143,21.263-29.558c2.79-1.188,5.626-2.233,8.539-3.17
		c2.55-0.82,6.638-2.778,9.887-3.354c-2.298,5.316-6.142,13.124-2.604,16.907c3.819,4.084,11.194-3.248,15.925-8.942
		c-0.427,3.026-0.071,5.956,2.341,7.643c2.129,1.487,4.797,1.132,7.324-0.04c1.066-0.042,1.563,0.679,1.681,1.848
		c-3.521,4.288-6.899,8.69-10.088,13.235c-4.267,6.08-8.548,12.242-11.237,19.215c-1.016,2.631-3.053,7.148-1.527,9.927
		c3.811,6.938,19.227-22.032,20.611-25.286c0.786-1.843,3.289-8.429,4.306-14.191c2.095-2.518,4.227-5.002,6.433-7.424
		c3.622-3.975,7.347-8.073,11.41-11.604c4.29-3.728,2.695,2.273,1.951,5.101c-0.726,2.76-1.804,6.102-3.397,8.554
		c-0.772,1.188,0.108,5.612,1.167,3.997c2.221-3.387,4.791-6.438,7.696-9.261c1.894-1.839,5.529-6.188,8.696-6.875
		c-0.113,4.065-1.957,8.142-0.137,12.128c2.18,4.776,7.359,5.399,11.98,4.332c13.185-3.044,24.879-12.726,34.961-21.253
		C684.889,688.317,684.254,683.869,682.613,685.257z M554.936,699.637c-2.446,8.196-7.123,16.106-14.409,20.854
		c-2.728,1.776-7.163,4.251-10.519,3.81c-7.331-0.965-0.142-8.474,1.919-10.355c6.302-5.756,13.995-10.418,21.61-14.204
		c0.521-0.259,1.047-0.492,1.572-0.739C555.05,699.213,554.998,699.426,554.936,699.637z M596.673,723.404
		c-2.389,5.456-5.348,10.624-8.731,15.521c-1.76,2.547-3.635,5.081-5.805,7.295c-1.849,1.885-2.269,2.534-1.47-0.109
		c1.649-5.458,4.784-10.523,7.921-15.223c3.466-5.192,7.155-10.231,11.029-15.126C598.522,719.147,597.103,722.424,596.673,723.404z
		"/>
	<path style="fill:#001D4F;" d="M578.689,675.473c-1.52,2.746-0.394,5.533,1.721,7.525c1.314,1.239,1.92-2.559,1.002-3.424
		c-0.271-0.255-1.14-0.92-1.377-1.399c0.119,0.043,0.367-0.327,0.436-0.365c0.424-0.233,0.788-0.751,1.176-1.053
		c1.194-0.929,2.592-1.996,4.09-2.335c1.433-0.325,1.194-4.237,0-3.967C583.203,671.029,579.973,673.154,578.689,675.473z"/>
</g>
<path style="opacity:0.4;fill:#6D645B;" d="M728.021,424.185L664.46,439.93l4.146,16.735l-32.408,8.359l2.469,9.571l-16.023,4.917
	c-7.65,2.349-15.942,1.265-22.732-2.971l-74.338-46.363c-10.036-6.26-22.367-7.639-33.538-3.75l-40.458,14.081l-28.326-6.07
	c-8.72-1.869-17.824,0.096-24.998,5.395l-65.145,48.118c-4.784,3.533-11.015,4.446-16.61,2.435l-25.822-9.284l2.142-8.302
	l-32.408-8.359l4.146-16.734l-83.06-20.575v197.052l37.023,9.171l0.521-2.103l0.045,0.012l6.074-24.522l31.046,8.008l4.53-17.564
	l60.872,25.1c-0.011,0.011-0.021,0.021-0.032,0.031l2.81,1.159l0.031-0.032l0.078,0.032l0.011-0.012l27.126-27.975l-27.811,28.924
	c-15.281,15.894-2.168,42.796,19.654,39.646c3.72-0.537,7.84-1.765,12.397-3.868c0,0,4.016,33.494,39.268,30.854
	c0,0,4.798,33.881,43.825,25.591l0,0c0,0,0.375,0.692,1.167,1.745c0.088,0.117,0.182,0.238,0.28,0.364
	c2.757,3.512,9.606,10.154,21.859,9.927c0.017,0,0.036-0.001,0.054-0.002c1.667-0.033,3.437-0.197,5.307-0.51
	c0.171-0.028,0.342-0.06,0.514-0.09c5.801-1.047,12.574-3.55,20.42-8.236l7.385,7.43c10.043,10.103,25.641,10.633,34.838,1.186
	l0.337-0.347c9.195-9.445,8.515-25.287-1.522-35.39l1.85,1.86c9.018,9.07,23.558,8.996,32.477-0.164l4.037-4.148
	c5.338-5.482,7.427-12.976,6.332-20.055c7.432,0.645,15.079-1.938,20.734-7.746l0.371-0.38c8.218-8.442,9.701-21.087,4.488-31.053
	c7.409,1.624,15.448-0.49,21.174-6.371c4.881-5.014,7.047-11.709,6.549-18.232l41.696-13.026l3.502,13.577l31.046-8.008
	l6.075,24.521l0.045-0.011l0.521,2.103l30.299-9.48L728.021,424.185z"/>
<path style="fill:#E67E4B;" d="M446.204,470.544l-128.85,134.011c-15.281,15.894-2.168,42.796,19.653,39.646
	c3.72-0.537,7.84-1.764,12.397-3.868c0,0,4.016,33.494,39.268,30.854c0,0,4.798,33.881,43.826,25.591
	c0,0,18.938,35.017,72.466-14.372c26.41-24.368,113.775-95.087,113.775-95.087L446.204,470.544z"/>
<path style="fill:#FFA97D;" d="M815.661,393l-193.019,59.234c-7.65,2.348-15.942,1.264-22.732-2.971l-74.338-46.364
	c-10.036-6.26-22.367-7.639-33.538-3.75l-83.07,28.912l43.705,35.06l-128.85,134.011c-15.281,15.894-2.168,42.796,19.653,39.646
	c3.72-0.537,7.839-1.764,12.397-3.867c0,0,4.016,33.493,39.268,30.853c0,0,4.798,33.882,43.825,25.591
	c0,0,18.939,35.017,72.466-14.371c26.41-24.369,113.774-95.088,113.774-95.088l224.229-70.055L815.661,393z"/>
<path style="fill:#EA8F68;" d="M552.377,512.699c17.688-8.242,14.68-23.48,7.508-29.056l-54.003-42.997
	c-5.795-4.614-12.581-7.823-19.823-9.375l-53.904-11.55l-21.858,7.607l43.705,35.06l-35.449,36.87
	c5.229-0.283,31.35-2.161,52.877-12.207C471.43,487.051,514.354,530.417,552.377,512.699z"/>
<path style="fill:#FFC692;" d="M569.135,474.973l-54.002-42.997c-5.796-4.614-12.581-7.823-19.824-9.375l-72.059-15.441
	c-8.721-1.869-17.824,0.096-24.997,5.395l-65.146,48.118c-4.783,3.532-11.015,4.445-16.61,2.434l-98.028-35.246l-9.616,120.652
	l115.64,47.682L426.85,490.633c0,0,29.789-1.034,53.83-12.253c0,0,42.925,43.366,80.947,25.648
	C579.316,495.786,576.307,480.548,569.135,474.973z"/>
<path style="fill:#DE7540;" d="M550.51,502.39c-30.48,0.305-66.674-36.238-67.553-36.451c0,0-26.317,24.851-74.116,13.42
	c0,0-7.766,28.179-52.214,78.901c-8.325,9.5-21.74,12.719-33.495,8.092c-4.417-1.739-9.368-3.535-14.665-5.391
	c-12.653-4.432-20.96-16.575-20.492-29.974l2.698-77.166c-34.063-11.836-79.855,71.6-78.714,55.685l-3.108,39.006l112.753,46.491
	c-0.011,0.011-0.021,0.021-0.032,0.031l2.81,1.159l0.031-0.032l0.078,0.032l18.651-19.348l83.597-86.213
	c0,0,29.79-1.034,53.83-12.253c-0.197-0.056,42.396,43.218,80.948,25.648c6.726-3.064,10.456-7.181,12.105-11.411
	C571.264,497.116,563.172,502.263,550.51,502.39z"/>
<path style="fill:#E67E4B;" d="M473.736,689.354c-32.502-31.628-25.414-51.443-25.414-51.443l172.113-81.494l0.237-0.053
	c13.573-3.006,22.982-15.387,22.243-29.27l-4.25-79.778l209.644,58.641l1.122,3.883l-224.229,70.055
	c0,0-87.364,70.72-113.774,95.088c-53.527,49.388-72.466,14.371-72.466,14.371S453.879,705.35,473.736,689.354z"/>
<g>
	<path style="fill:#E67E4B;" d="M354.638,639.678c27.235-25.498,54.471-50.996,81.706-76.494c2.358-2.208-1.185-5.736-3.535-3.536
		c-27.235,25.498-54.471,50.997-81.707,76.495C348.743,638.35,352.287,641.878,354.638,639.678L354.638,639.678z"/>
</g>
<g>
	<path style="fill:#E67E4B;" d="M393.905,670.53c26.2-25.36,52.4-50.721,78.599-76.081c2.32-2.246-1.219-5.777-3.535-3.535
		c-26.2,25.36-52.399,50.721-78.6,76.081C388.049,669.241,391.588,672.772,393.905,670.53L393.905,670.53z"/>
</g>
<g>
	<path style="fill:#E67E4B;" d="M437.73,696.121c23.183-22.398,46.365-44.797,69.549-67.196c2.322-2.243-1.218-5.775-3.536-3.535
		c-23.183,22.398-46.366,44.798-69.548,67.196C431.872,694.83,435.412,698.361,437.73,696.121L437.73,696.121z"/>
</g>
<path style="fill:#DE7540;" d="M454.598,624.525l0.336-0.347c9.197-9.446,24.792-8.917,34.835,1.184l-1.854-1.866
	c-9.017-9.07-9.096-23.85-0.178-33.011l4.038-4.147c5.339-5.483,12.687-7.685,19.663-6.646c-0.712-7.548,1.748-15.348,7.404-21.156
	l0.371-0.38c10.117-10.394,26.609-10.478,36.839-0.188l4.864,4.895c-0.92-6.93,1.196-14.196,6.406-19.55
	c8.919-9.16,23.459-9.234,32.475-0.164l21.089,21.213c9.017,9.07,9.096,23.851,0.177,33.013c-5.726,5.881-13.765,7.994-21.174,6.37
	c5.212,9.966,3.729,22.611-4.488,31.053l-0.371,0.38c-5.655,5.809-13.303,8.391-20.734,7.746c1.095,7.08-0.994,14.572-6.332,20.056
	l-4.037,4.147c-8.919,9.161-23.459,9.234-32.477,0.164l-21.768-21.897l19.912,20.03c10.042,10.102,10.726,25.949,1.528,35.396
	l-0.337,0.347c-9.197,9.447-24.795,8.917-34.837-1.186l-39.821-40.059C446.084,649.82,445.399,633.973,454.598,624.525z"/>
<polygon style="fill:#FFFFFF;" points="861.335,531.066 672.81,579.692 636.197,437.744 876.511,375.76 "/>
<rect x="30.264" y="412.205" transform="matrix(-0.9683 -0.2498 0.2498 -0.9683 182.5589 994.1687)" style="fill:#FFFFFF;" width="248.179" height="146.594"/>
<g>
	<path style="fill:#DE7540;" d="M533.217,664.523c-14.512-14.598-29.023-29.196-43.535-43.795c-2.271-2.285-5.808,1.25-3.535,3.535
		c14.512,14.599,29.023,29.197,43.535,43.796C531.953,670.345,535.489,666.81,533.217,664.523L533.217,664.523z"/>
</g>
<polygon style="opacity:0.4;fill:#869E9A;" points="67.545,539.018 256.07,587.645 260.505,437.337 23.37,493.712 "/>
<polygon style="fill:#5E6E94;" points="0,354.891 0,549.711 219.083,603.982 264.554,420.426 "/>
<polygon style="opacity:0.4;fill:#869E9A;" points="861.565,531.066 673.04,579.692 668.605,429.385 832.451,468.337 "/>
<polygon style="fill:#2D3951;" points="0,510.734 0,551.943 218.517,606.074 228.134,567.248 "/>
<polygon style="fill:#5E6E94;" points="899.999,354.303 664.46,412.65 709.931,596.207 899.999,549.123 "/>
<polygon style="fill:#2D3951;" points="899.999,510.146 700.879,559.472 710.496,598.298 899.999,551.354 "/>
<g>
	<path style="fill:#FFC692;" d="M455.826,654.283c12.101,11.745,24.201,23.49,36.301,35.234c8.453,8.205,23.516,9.046,31.82,0
		c8.144-8.871,9.022-23.062,0-31.819c-12.101-11.745-24.2-23.49-36.301-35.235c-8.453-8.205-23.516-9.045-31.82,0
		C447.683,631.335,446.804,645.525,455.826,654.283L455.826,654.283z"/>
</g>
<g>
	<path style="fill:#FFC692;" d="M487.138,616.856c12.499,11.32,24.997,22.64,37.496,33.96c8.432,7.637,22.544,8.948,30.759,0
		c7.646-8.329,9.007-22.603,0-30.759c-12.498-11.32-24.997-22.64-37.495-33.96c-8.433-7.637-22.545-8.948-30.76,0
		C479.492,594.427,478.132,608.7,487.138,616.856L487.138,616.856z"/>
</g>
<g>
	<path style="fill:#FFC692;" d="M523.002,585.611c12.498,11.32,24.997,22.64,37.495,33.96c8.723,7.9,23.322,9.257,31.82,0
		c7.909-8.616,9.316-23.382,0-31.819c-12.499-11.32-24.997-22.641-37.496-33.96c-8.723-7.9-23.321-9.257-31.819,0
		C515.092,562.408,513.685,577.174,523.002,585.611L523.002,585.611z"/>
</g>
<g>
	<path style="fill:#FFC692;" d="M571.74,562.171c9.191,8.271,18.384,16.54,27.576,24.811c6.415,5.771,17.09,6.803,23.335,0
		c5.783-6.301,6.853-17.169,0-23.335c-9.192-8.27-18.385-16.54-27.577-24.811c-6.415-5.771-17.089-6.803-23.334,0
		C565.956,545.137,564.887,556.005,571.74,562.171L571.74,562.171z"/>
</g>
<g>
	<path style="fill:#FFFFFF;" d="M304.323,703.108c-5.794-3.081-10.164-7.628-13.06-13.513c-2.01-4.084-8.113-0.504-6.107,3.57
		c3.385,6.875,8.835,12.454,15.598,16.05C304.77,711.353,308.348,705.249,304.323,703.108L304.323,703.108z"/>
</g>
<g>
	<path style="fill:#FFFFFF;" d="M326.133,704.694c-2.959,0.93-5.896,1.412-8.998,1.447c-4.548,0.052-4.561,7.125,0,7.073
		c3.693-0.042,7.354-0.593,10.879-1.7C332.341,710.155,330.493,703.324,326.133,704.694L326.133,704.694z"/>
</g>
<g>
	<path style="fill:#FFFFFF;" d="M331.889,653.333c10.156,6.453,15.308,17.972,13.186,29.854c-0.795,4.45,6.02,6.36,6.82,1.88
		c2.699-15.116-3.428-29.576-16.437-37.842C331.605,644.777,328.053,650.896,331.889,653.333L331.889,653.333z"/>
</g>
<g>
	<path style="fill:#FFFFFF;" d="M305.665,651.584c3.71-1.505,7.462-2.314,11.47-2.368c4.548-0.062,4.561-7.135,0-7.073
		c-4.595,0.062-9.089,0.893-13.35,2.621c-1.783,0.724-2.998,2.349-2.47,4.351C301.759,650.798,303.897,652.302,305.665,651.584
		L305.665,651.584z"/>
</g>
<g>
	<path style="fill:#FFFFFF;" d="M288.804,674.749c0.601-5.555,2.796-10.519,6.141-14.953c2.741-3.635-3.397-7.163-6.107-3.57
		c-4.13,5.476-6.372,11.735-7.106,18.523C281.242,679.268,288.319,679.233,288.804,674.749L288.804,674.749z"/>
</g>
</svg>
