<?xml version="1.0" encoding="iso-8859-1"?>
<!-- Generator: Adobe Illustrator 16.0.0, SVG Export Plug-In . SVG Version: 6.00 Build 0)  -->
<!DOCTYPE svg PUBLIC "-//W3C//DTD SVG 1.1//EN" "http://www.w3.org/Graphics/SVG/1.1/DTD/svg11.dtd">
<svg version="1.1" id="Layer_1" xmlns="http://www.w3.org/2000/svg" xmlns:xlink="http://www.w3.org/1999/xlink" x="0px" y="0px"
	 width="320px" height="280px" viewBox="0 0 320 280" style="enable-background:new 0 0 320 280;" xml:space="preserve">
<g>
	<g>
		<g>
			<path style="fill:#3D7BD2;" d="M283.646,106.784c-1.016-20.348-7.944-39.138-19.104-54.695c-2.627-3.667-5.494-7.144-8.57-10.433
				c-1.244-1.325-2.534-2.604-3.849-3.864C238.287,24.5,220.753,15.03,201.205,11.108c-2.832-0.572-5.703-1.016-8.613-1.345
				c-3.852-0.44-7.755-0.668-11.73-0.668c-6.526,0-12.917,0.614-19.107,1.781c-8.029,1.499-15.723,3.934-22.971,7.191
				c-35.452,15.9-60.259,51.279-60.823,92.511c-0.008,0.475-0.02,0.954-0.02,1.43c0,14.536,3.029,28.377,8.466,40.915
				c15.823,36.48,52.156,62.002,94.455,62.002c1.391,0,2.767-0.035,4.135-0.085c5.32-0.217,10.537-0.827,15.614-1.813
				c47.392-9.212,83.168-50.938,83.168-101.02C283.778,110.253,283.735,108.519,283.646,106.784z"/>
			<g>
				<path style="fill:#E0E0A9;" d="M283.743,106.784c-3.354,2.458-8.435,4.447-11.229,5.224c-2.133,0.603-6.851,0.904-8.884,0
					c-2.098-0.932-4.459-4.479-6.395-6.959c-4.722,17.848-14.119,33.81-26.805,46.464c-0.154,4.745-0.285,11.337-1.843,14.552
					c-1.669,3.424-9.39,7.188-10.861,10.711c-1.635,3.906-1.275,12.198-3.27,15.939c-2.376,4.466-11.136,7.854-13.512,12.321
					c-0.792,1.488-0.503,5.557-0.239,7.991c47.391-9.212,83.164-50.938,83.164-101.02
					C283.871,110.253,283.824,108.519,283.743,106.784z"/>
				<path style="fill:#E0E0A9;" d="M260.05,67.398c1.711-0.815,3.296-1.874,3.581-3.018c0.418-1.634-2.303-4.772-1.971-6.426
					c0.29-1.457,1.496-3.895,2.968-5.866c-2.619-3.667-5.49-7.144-8.563-10.433c-0.618,0.761-1.124,1.492-1.464,2.145
					C257.298,51.297,259.149,59.199,260.05,67.398z"/>
				<path style="fill:#E0E0A9;" d="M183.674,205.036c0.422-3.103,5.12-8.18,5.426-11.306c0.332-3.431-0.904-11.039-3.459-13.357
					c-0.881-0.804-2.148-1.325-3.655-1.681c-7.774,1.878-15.889,2.882-24.242,2.882c-27.65,0-52.751-10.907-71.244-28.651
					c15.823,36.48,52.156,62.002,94.455,62.002c1.387,0,2.767-0.035,4.142-0.085C184.3,211.532,183.393,207.092,183.674,205.036z"/>
				<path style="fill:#23A38F;" d="M200.946,205.036c2.376-4.467,11.136-7.855,13.512-12.321c1.994-3.741,1.635-12.033,3.27-15.939
					c1.472-3.523,9.192-7.287,10.861-10.711c1.558-3.215,1.688-9.807,1.843-14.552c-13.141,13.11-29.807,22.682-48.446,27.18
					c1.507,0.355,2.774,0.877,3.655,1.681c2.555,2.318,3.791,9.927,3.459,13.357c-0.306,3.126-5.004,8.203-5.426,11.306
					c-0.281,2.056,0.626,6.496,1.422,9.804c5.313-0.217,10.529-0.827,15.611-1.813C200.443,210.593,200.154,206.524,200.946,205.036
					z"/>
				<path style="fill:#23A38F;" d="M256.065,41.656c-1.248-1.325-2.538-2.604-3.849-3.864c0.858,1.971,1.65,3.972,2.385,6.008
					C254.941,43.148,255.447,42.417,256.065,41.656z"/>
				<path style="fill:#23A38F;" d="M263.631,64.38c-0.285,1.144-1.87,2.203-3.581,3.018c0.394,3.702,0.614,7.45,0.614,11.252
					c0,9.131-1.198,17.971-3.428,26.399c1.936,2.48,4.297,6.027,6.395,6.959c2.033,0.904,6.751,0.603,8.884,0
					c2.794-0.777,7.875-2.767,11.229-5.224c-1.017-20.348-7.948-39.138-19.115-54.695c-1.472,1.971-2.678,4.409-2.968,5.866
					C261.328,59.608,264.049,62.746,263.631,64.38z"/>
				<path style="fill:#EFF1C2;" d="M251.788,99.917c-1.313-1.639-3.794-5.309-3.953-7.407c-0.127-1.832,2.393-5.078,2.47-6.909
					c0.108-2.422-2.547-6.955-2.47-9.377c0.063-1.952,0.886-6.264,2.47-7.403c1.201-0.866,4.493,0.39,5.923,0
					c0.932-0.259,2.423-0.761,3.822-1.422c-0.9-8.199-2.752-16.101-5.448-23.597c-0.155,0.294-0.271,0.576-0.345,0.834
					c-0.711,2.535,3.485,8.208,1.971,10.363c-1.793,2.558-10.309-0.402-12.337,1.971c-1.206,1.414,1.302,6.101,0,7.411
					c-0.959,0.958-4.15,0.452-5.434,0c-2.392-0.858-6.004-4.722-7.89-6.426c-2.206-1.986-6.909-5.815-8.396-8.385
					c-1.414-2.435-4.224-8.346-2.968-10.862c1.376-2.72,10.525-1.511,11.364-4.439c0.668-2.38-3.628-7.005-5.936-7.902
					c-3.04-1.175-9.748,3.57-12.828,2.469c-1.813-0.649-3.902-4.289-4.942-5.924c-1.476-2.337-4.188-8.57-5.563-11.804
					c-2.828-0.572-5.707-1.016-8.613-1.345c0.302,4.308,0.414,9.625-0.626,11.917c-1.959,4.343-9.602,13.3-14.312,12.589
					c-4.437-0.676-6.789-11.642-9.378-15.301c-1.26-1.785-4.571-5.773-6.522-8.091c-8.025,1.499-15.723,3.934-22.975,7.191
					c1.259,1.402,2.249,2.805,2.349,3.86c0.24,2.423-6.275,6.36-4.938,8.393c1.093,1.658,6.36,0.274,7.902-0.989
					c1.507-1.232,0.776-6.426,2.469-7.403c4.347-2.527,16.353,0.224,19.741,3.949c2.423,2.658,2.956,11.036,1.479,14.312
					c-1.306,2.902-7.187,7.28-10.371,7.411c-2.152,0.081-5.243-4.532-7.403-4.451c-2.963,0.124-7.419,5.317-8.879,7.906
					c-0.993,1.739-0.993,5.946-1.484,7.89c-0.893,3.52-3.126,10.444-4.443,13.825c-1.175,3.029-4.88,8.632-5.425,11.843
					c-0.459,2.693,2.543,8.628,0.989,10.861c-0.808,1.159-4.208,2.175-5.429,1.484c-2.79-1.581-0.908-10.402-3.458-12.345
					c-1.77-1.333-6.728-0.522-8.887,0c-4.722,1.144-14.324,5.031-17.272,8.887c-2.029,2.643-2.357,10.97,0,13.327
					c1.132,1.136,4.811,0,6.418,0c2.828,0,9.837-2.399,11.349,0c1.82,2.894-6.241,8.934-5.92,12.341
					c0.189,2.079,2.855,6.569,4.931,6.743c2.407,0.201,4.679-5.834,6.913-6.743c2.863-1.159,10.154-2.183,12.341,0
					c1.19,1.19-0.146,5.062,0,6.743c0.248,2.855-0.228,9.455,1.971,11.302c2.079,1.739,8.211,0.595,10.862,0
					c3.199-0.727,8.632-4.992,11.851-5.657c3.261-0.669,10.011,0.371,13.319,0c3.396-0.379,9.919-2.964,13.331-3.014
					c3.902-0.05,11.561,1.92,15.309,3.014c3.683,1.089,10.46,5.715,14.313,5.657c3.687-0.054,10.885-4.668,14.648-1.909
					c3.42,2.496,3.357,9.826,3.122,13.207c-0.065,0.85-0.104,1.874-0.136,3.002c12.686-12.654,22.083-28.616,26.805-46.464
					c-0.537-0.692-1.043-1.306-1.499-1.75C254.802,102.39,252.604,100.926,251.788,99.917z M135.788,114.604
					c-3.377-0.298-10.499-2.798-12.334-5.657c-0.495-0.757-0.784-3.145,0-3.601c2.624-1.519,8.594,3.149,11.596,3.601
					c1.65,0.259,5.054-0.421,6.669,0c1.372,0.367,5.116,1.418,4.934,2.829C146.283,114.554,138.585,114.848,135.788,114.604z
					 M168.369,114.604c-1.113,3.86-13.149,3.902-16.047,1.109c-1.028-0.997-1.039-4.765,0-5.734c1.986-1.843,8.265-0.135,10.8,0.796
					C164.652,111.339,168.817,113.039,168.369,114.604z M219.706,57.955c-0.939,1.306-5.004,0.761-6.419,0
					c-1.766-0.935-4.211-4.667-4.443-6.658c-0.363-3.068,2.361-11.472,5.426-11.109c1.136,0.139,1.055,6.677,1.363,7.778
					C216.568,51.347,221.754,55.107,219.706,57.955z"/>
				<path style="fill:#EFF1C2;" d="M181.985,178.692c-5.733-1.345-14.853-0.151-19.045-1.917
					c-6.53-2.755-19.788-10.506-22.705-16.955c-1.171-2.577-1.206-8.748,0-11.31c1.024-2.172,8.219-3.88,7.403-6.14
					c-1.132-3.138-10.112,0.861-13.327,0c-2.481-0.669-6.832-3.617-8.883-5.159c-1.642-1.229-3.953-5.116-5.927-5.657
					c-2.57-0.696-7.724,2.739-10.367,2.422c-6.464-0.796-18.389-7.454-23.199-11.851c-2.171-1.986-5.355-7.133-7.878-11.549
					c-0.008,0.475-0.02,0.954-0.02,1.43c0,14.536,3.018,28.377,8.462,40.915c18.493,17.744,43.594,28.651,71.244,28.651
					C166.097,181.574,174.211,180.57,181.985,178.692z"/>
				<path style="fill:#B7C11E;" d="M227.445,135.304c-3.764-2.759-10.962,1.854-14.648,1.909c-3.853,0.058-10.63-4.567-14.313-5.657
					c-3.748-1.094-11.406-3.064-15.309-3.014c-3.412,0.05-9.935,2.635-13.331,3.014c-3.308,0.371-10.058-0.669-13.319,0
					c-3.219,0.665-8.651,4.93-11.851,5.657c-2.651,0.595-8.783,1.739-10.862,0c-2.199-1.847-1.723-8.447-1.971-11.302
					c-0.146-1.681,1.19-5.553,0-6.743c-2.187-2.183-9.478-1.159-12.341,0c-2.233,0.908-4.505,6.944-6.913,6.743
					c-2.075-0.174-4.741-4.664-4.931-6.743c-0.321-3.408,7.74-9.447,5.92-12.341c-1.511-2.399-8.521,0-11.349,0
					c-1.607,0-5.286,1.136-6.418,0c-2.357-2.357-2.029-10.684,0-13.327c2.948-3.856,12.55-7.743,17.272-8.887
					c2.16-0.522,7.117-1.333,8.887,0c2.55,1.943,0.668,10.765,3.458,12.345c1.221,0.691,4.621-0.325,5.429-1.484
					c1.554-2.233-1.449-8.168-0.989-10.861c0.545-3.211,4.25-8.814,5.425-11.843c1.317-3.381,3.551-10.305,4.443-13.825
					c0.491-1.944,0.491-6.151,1.484-7.89c1.46-2.589,5.916-7.782,8.879-7.906c2.16-0.081,5.251,4.532,7.403,4.451
					c3.184-0.131,9.065-4.509,10.371-7.411c1.477-3.276,0.943-11.654-1.479-14.312c-3.389-3.725-15.394-6.476-19.741-3.949
					c-1.692,0.978-0.962,6.171-2.469,7.403c-1.542,1.264-6.809,2.647-7.902,0.989c-1.337-2.032,5.178-5.97,4.938-8.393
					c-0.101-1.055-1.09-2.458-2.349-3.86c-35.452,15.9-60.255,51.279-60.815,92.511c2.523,4.417,5.707,9.563,7.878,11.549
					c4.811,4.397,16.735,11.055,23.199,11.851c2.643,0.317,7.797-3.118,10.367-2.422c1.975,0.541,4.285,4.428,5.927,5.657
					c2.052,1.542,6.402,4.49,8.883,5.159c3.215,0.861,12.195-3.138,13.327,0c0.815,2.26-6.379,3.968-7.403,6.14
					c-1.206,2.562-1.171,8.732,0,11.31c2.917,6.449,16.175,14.2,22.705,16.955c4.192,1.766,13.312,0.572,19.045,1.917
					c18.64-4.498,35.306-14.069,48.446-27.18c0.031-1.128,0.07-2.152,0.136-3.002C230.803,145.13,230.865,137.8,227.445,135.304z"/>
				<path style="fill:#B7C11E;" d="M141.719,108.947c-1.615-0.421-5.02,0.259-6.669,0c-3.002-0.452-8.972-5.12-11.596-3.601
					c-0.784,0.456-0.495,2.844,0,3.601c1.835,2.859,8.957,5.359,12.334,5.657c2.797,0.243,10.495-0.05,10.865-2.829
					C146.835,110.365,143.091,109.314,141.719,108.947z"/>
				<path style="fill:#B7C11E;" d="M163.122,110.775c-2.535-0.931-8.814-2.639-10.8-0.796c-1.039,0.97-1.028,4.737,0,5.734
					c2.898,2.793,14.934,2.751,16.047-1.109C168.817,113.039,164.652,111.339,163.122,110.775z"/>
				<path style="fill:#B7C11E;" d="M177.747,34.269c4.71,0.711,12.353-8.246,14.312-12.589c1.04-2.292,0.928-7.608,0.626-11.917
					c-3.849-0.44-7.763-0.668-11.73-0.668c-6.526,0-12.917,0.614-19.107,1.781c1.951,2.318,5.263,6.306,6.522,8.091
					C170.958,22.626,173.311,33.592,177.747,34.269z"/>
				<path style="fill:#B7C11E;" d="M206.861,22.912c1.04,1.635,3.13,5.274,4.942,5.924c3.08,1.101,9.788-3.644,12.828-2.469
					c2.308,0.896,6.604,5.521,5.936,7.902c-0.839,2.929-9.988,1.719-11.364,4.439c-1.256,2.516,1.554,8.427,2.968,10.862
					c1.487,2.569,6.19,6.399,8.396,8.385c1.886,1.704,5.498,5.568,7.89,6.426c1.283,0.452,4.475,0.958,5.434,0
					c1.302-1.31-1.206-5.997,0-7.411c2.028-2.373,10.544,0.587,12.337-1.971c1.515-2.156-2.682-7.828-1.971-10.363
					c0.074-0.259,0.189-0.541,0.345-0.834c-0.734-2.036-1.526-4.038-2.385-6.008C238.38,24.5,220.854,15.03,201.298,11.108
					C202.673,14.342,205.386,20.575,206.861,22.912z"/>
				<path style="fill:#B7C11E;" d="M214.27,40.188c-3.064-0.363-5.789,8.041-5.426,11.109c0.232,1.99,2.678,5.723,4.443,6.658
					c1.415,0.761,5.479,1.306,6.419,0c2.048-2.848-3.138-6.607-4.073-9.988C215.324,46.865,215.405,40.327,214.27,40.188z"/>
				<path style="fill:#B7C11E;" d="M260.05,67.398c-1.399,0.661-2.891,1.163-3.822,1.422c-1.43,0.39-4.722-0.866-5.923,0
					c-1.584,1.14-2.407,5.452-2.47,7.403c-0.077,2.422,2.578,6.955,2.47,9.377c-0.077,1.832-2.597,5.078-2.47,6.909
					c0.159,2.098,2.64,5.769,3.953,7.407c0.815,1.008,3.014,2.473,3.949,3.381c0.456,0.444,0.962,1.059,1.499,1.75
					c2.229-8.428,3.428-17.268,3.428-26.399C260.664,74.848,260.443,71.1,260.05,67.398z"/>
			</g>
		</g>
	</g>
	<g>
		<polygon style="fill:#FFFFFF;" points="137.589,227.536 119.919,209.858 129.837,246.327 		"/>
		<polygon style="fill:#DEDEE0;" points="102.079,227.695 109.799,247.046 119.919,209.858 		"/>
		<path style="fill:#FFCAB3;" d="M109.899,202.954l-12.488-12.488v12.488h0.201c5.502,3.774,12.025,6.186,19.057,6.766
			L109.899,202.954z"/>
		<path style="fill:#F9B59D;" d="M97.411,182.243v8.223l12.488,12.488l6.77,6.766c1.074,0.085,2.156,0.139,3.25,0.139
			c0.699,0,1.395-0.046,2.09-0.077c7.458-0.401,14.366-2.84,20.166-6.808l0.081-0.02v-20.711H97.411z"/>
		<g>
			<path style="fill:#F9B59D;" d="M140.946,120.284c-8.674,0-18.979,7.624-24.177,13.76l3.149,65.301
				c22.967-0.204,41.843-28.497,44.524-52.426c0.216-1.921,0.344-3.825,0.344-5.681v-9.845
				C162.396,125.176,147.531,120.284,140.946,120.284z"/>
			<path style="fill:#FFCAB3;" d="M155.417,97.893c-20.34,14.115-45.039,22.392-71.677,22.392c-3.083,0-6.128-0.143-9.154-0.367
				c-0.216,1.801-0.363,3.625-0.363,5.487v15.834c0,1.855,0.12,3.76,0.336,5.681c2.701,24.053,21.789,52.434,44.942,52.434
				c0.143,0,0.274,0,0.417-0.008v-29.641c2.878,0,4.787-2.751,4.787-5.336v-29.242c0,0,0.61-0.777,1.677-1.909
				c3.014-3.23,9.741-9.409,16.924-9.409c14.865,0,21.48,7.585,21.48,7.585v-5.989C164.787,115.037,161.267,105.52,155.417,97.893z"
				/>
			<path style="fill:#2E313D;" d="M168.504,87.468c-10.707-15.329-28.469-25.363-48.585-25.363c-31.65,0-57.5,24.818-59.162,56.055
				c-0.062,1.051-0.089,2.117-0.089,3.191v11.866c0,7.542,6.09,13.647,13.617,13.702h0.274c-0.216-1.921-0.336-3.825-0.336-5.681
				v-15.834c0-1.862,0.146-3.686,0.363-5.487c3.026,0.224,6.07,0.367,9.154,0.367c26.646,0,51.349-8.284,71.696-22.403
				c-0.012,0.004-0.012,0.004-0.02,0.012c5.85,7.627,9.37,17.145,9.37,27.511v5.989v9.845c0,1.855-0.128,3.76-0.344,5.681h1.098
				c7.534-0.055,13.62-6.16,13.62-13.702v-11.866C179.161,108.75,175.216,97.077,168.504,87.468z"/>
		</g>
		<path style="fill:#F8F8F9;" d="M97.612,202.954h-0.201v13.033l4.667,11.708l17.84-17.837
			C111.638,209.858,103.96,207.305,97.612,202.954z"/>
		<path style="fill:#DEDEE0;" d="M142.349,215.987h-0.093v-13.033h-0.039c-6.345,4.351-14.026,6.904-22.299,6.904l17.67,17.678
			L142.349,215.987z"/>
		<path style="fill:#2E313D;" d="M166.519,202.954h-24.262l0.093,13.033l-12.512,30.34l-9.918-36.469l-10.12,37.188l-12.388-31.059
			l-18.385,18.389l37.009,37.009h3.466h35.375h51.163v-28.898v-0.023C206.039,220.644,188.342,202.954,166.519,202.954z"/>
		<g>
			<polygon style="fill:#2E313D;" points="97.411,202.954 84.374,202.954 97.411,215.987 			"/>
			<path style="fill:#585A64;" d="M79.026,234.376l18.385-18.389l-13.037-13.033h-11.19h-0.016
				c-21.824,0-39.517,17.689-39.517,39.509v28.922h51.132h31.251L79.026,234.376z"/>
		</g>
		<polygon style="fill:#585A64;" points="130.073,220.014 119.919,230.172 109.756,220.014 119.919,209.858 		"/>
	</g>
	<g>
		<path style="fill:#F0563D;" d="M203.813,124.075c-3.258,0-5.893-2.639-5.893-5.889c0-3.253,2.635-5.885,5.893-5.885
			c0.042,0,0.089,0,0.135,0.004v-5.85c-0.012,0-0.02-0.004-0.02-0.004c-6.557,0-11.878,5.313-11.878,11.882
			c0,6.557,11.878,25.251,11.878,25.251s0.008-0.016,0.02-0.023v-19.494C203.902,124.071,203.855,124.075,203.813,124.075z"/>
		<path style="fill:#B4412E;" d="M203.948,106.455v5.85c3.191,0.069,5.758,2.678,5.758,5.881c0,3.207-2.566,5.815-5.758,5.881
			v19.494c0.302-0.482,11.854-18.759,11.854-25.228C215.803,111.776,210.494,106.459,203.948,106.455z"/>
	</g>
	<g>
		<path style="fill:#F0563D;" d="M264.516,48.519c-3.257,0-5.893-2.635-5.893-5.893c0-3.25,2.636-5.889,5.893-5.889
			c0.043,0,0.09,0.004,0.128,0.008v-5.846c-0.004,0-0.008-0.004-0.008-0.004c-6.564,0-11.882,5.317-11.882,11.874
			c0,6.561,11.874,25.255,11.874,25.255s0.012-0.011,0.016-0.019V48.511C264.605,48.511,264.559,48.519,264.516,48.519z"/>
		<path style="fill:#B4412E;" d="M264.644,30.899v5.846c3.195,0.074,5.761,2.674,5.761,5.881c0,3.211-2.565,5.815-5.761,5.885
			v19.494c0.31-0.491,11.862-18.764,11.862-25.236C276.506,36.22,271.197,30.903,264.644,30.899z"/>
	</g>
	<g>
		<path style="fill:#F0563D;" d="M122.855,26.714c-3.257,0-5.893-2.635-5.893-5.893c0-3.25,2.635-5.889,5.893-5.889
			c0.042,0,0.081,0.008,0.131,0.008V9.095c0,0-0.012,0-0.016,0c-6.557,0-11.874,5.317-11.874,11.878
			c0,6.553,11.874,25.255,11.874,25.255s0.012-0.02,0.016-0.023V26.703C122.937,26.707,122.898,26.714,122.855,26.714z"/>
		<path style="fill:#B4412E;" d="M122.987,9.095v5.846c3.188,0.073,5.753,2.678,5.753,5.881c0,3.211-2.566,5.815-5.753,5.881v19.501
			c0.305-0.491,11.858-18.767,11.858-25.231C134.845,14.419,129.536,9.099,122.987,9.095z"/>
	</g>
</g>
</svg>
