<?xml version="1.0" encoding="iso-8859-1"?>
<!-- Generator: Adobe Illustrator 16.0.0, SVG Export Plug-In . SVG Version: 6.00 Build 0)  -->
<!DOCTYPE svg PUBLIC "-//W3C//DTD SVG 1.1//EN" "http://www.w3.org/Graphics/SVG/1.1/DTD/svg11.dtd">
<svg version="1.1" id="Layer_1" xmlns="http://www.w3.org/2000/svg" xmlns:xlink="http://www.w3.org/1999/xlink" x="0px" y="0px"
	 width="320px" height="280px" viewBox="0 0 320 280" style="enable-background:new 0 0 320 280;" xml:space="preserve">
<g>
	<polygon style="fill:#FFFFFF;" points="182.116,218.382 159.301,195.559 172.111,242.647 	"/>
	<polygon style="fill:#DEDEE0;" points="136.268,218.592 146.234,243.573 159.301,195.559 	"/>
	<path style="fill:#FFCAB3;" d="M146.372,186.642l-16.125-16.121v16.121h0.257c7.115,4.875,15.522,7.999,24.602,8.739
		L146.372,186.642z"/>
	<path style="fill:#F9B59D;" d="M130.247,159.905v10.615l16.125,16.121l8.733,8.739c1.385,0.113,2.783,0.178,4.196,0.178
		c0.91,0,1.801-0.053,2.704-0.102c9.625-0.509,18.547-3.658,26.037-8.779l0.101-0.036v-26.736H130.247z"/>
	<g>
		<path style="fill:#F9B59D;" d="M186.457,79.916c-11.197,0-24.508,9.835-31.223,17.764l4.066,84.305
			c29.654-0.267,54.03-36.793,57.49-67.685c0.279-2.486,0.437-4.942,0.437-7.333V94.256
			C214.147,86.226,194.95,79.916,186.457,79.916z"/>
		<path style="fill:#FFCAB3;" d="M205.141,50.999c-26.263,18.225-58.152,28.917-92.542,28.917c-3.986,0-7.915-0.196-11.82-0.485
			c-0.285,2.324-0.475,4.681-0.475,7.086v20.45c0,2.391,0.162,4.847,0.437,7.333c3.489,31.057,28.133,67.701,58.03,67.701
			c0.18,0,0.355-0.009,0.531-0.017v-38.263c3.729,0,6.179-3.555,6.179-6.896V99.072c0,0,0.792-1,2.173-2.468
			c3.889-4.164,12.58-12.146,21.853-12.146c19.186,0,27.723,9.797,27.723,9.797v-7.739C217.228,73.137,212.692,60.85,205.141,50.999
			z"/>
		<path style="fill:#2E313D;" d="M222.038,37.544c-13.833-19.792-36.765-32.751-62.737-32.751c-40.86,0-74.233,32.04-76.38,72.37
			c-0.072,1.362-0.119,2.741-0.119,4.124v15.318c0,9.74,7.862,17.628,17.592,17.695h0.346c-0.275-2.486-0.437-4.942-0.437-7.333
			v-20.45c0-2.405,0.19-4.762,0.475-7.086c3.905,0.289,7.834,0.485,11.82,0.485c34.402,0,66.296-10.698,92.559-28.933
			c-0.004,0.006-0.008,0.012-0.017,0.017c7.552,9.851,12.087,22.138,12.087,35.518v7.739v12.711c0,2.391-0.157,4.847-0.437,7.333
			h1.415c9.729-0.067,17.588-7.956,17.588-17.695V81.286C235.794,65.016,230.696,49.942,222.038,37.544z"/>
	</g>
	<path style="fill:#F8F8F9;" d="M130.503,186.642h-0.257v16.84l6.021,15.11l23.033-23.033
		C148.609,195.559,138.703,192.26,130.503,186.642z"/>
	<path style="fill:#DEDEE0;" d="M188.26,203.481h-0.117v-16.84h-0.052c-8.194,5.618-18.098,8.917-28.79,8.917l22.815,22.823
		L188.26,203.481z"/>
	<path style="fill:#2E313D;" d="M219.475,186.642h-31.332l0.117,16.84l-16.148,39.166l-12.811-47.089l-13.066,48.015l-15.988-40.092
		l-23.743,23.736l47.783,47.78h4.483h45.676h66.044v-37.311v-0.024C270.489,209.48,247.65,186.642,219.475,186.642z"/>
	<g>
		<polygon style="fill:#2E313D;" points="130.247,186.642 113.413,186.642 130.247,203.481 		"/>
		<path style="fill:#585A64;" d="M106.504,227.218l23.743-23.736l-16.834-16.84H98.973h-0.034
			c-28.175,0-51.014,22.839-51.014,51.021v37.335h66.015h40.347L106.504,227.218z"/>
	</g>
	
		<rect x="150.027" y="199.403" transform="matrix(0.7071 -0.7071 0.7071 0.7071 -100.8982 173.7617)" style="fill:#585A64;" width="18.545" height="18.546"/>
</g>
</svg>
