<?xml version="1.0" encoding="iso-8859-1"?>
<!-- Generator: Adobe Illustrator 16.0.0, SVG Export Plug-In . SVG Version: 6.00 Build 0)  -->
<!DOCTYPE svg PUBLIC "-//W3C//DTD SVG 1.1//EN" "http://www.w3.org/Graphics/SVG/1.1/DTD/svg11.dtd">
<svg version="1.1" id="Layer_1" xmlns="http://www.w3.org/2000/svg" xmlns:xlink="http://www.w3.org/1999/xlink" x="0px" y="0px"
	 width="400px" height="370px" viewBox="0 0 400 370" style="enable-background:new 0 0 400 370;" xml:space="preserve">
<g>
	<path style="opacity:0.4;fill:#5E6E94;" d="M336.106,42H68.281C47.167,42,29,58.203,29,79.318v196.399
		C29,296.831,47.167,314,68.281,314h170.885L308,362.634V314h28.106C357.222,314,374,296.831,374,275.717V79.318
		C374,58.203,357.222,42,336.106,42z"/>
	<path style="fill:#5E6E94;" d="M331.703,36H63.877C42.763,36,25,53.192,25,74.307v196.399C25,291.82,42.763,309,63.877,309h170.884
		L304,357.623V309h27.703C352.817,309,370,291.82,370,270.706V74.307C370,53.192,352.817,36,331.703,36z"/>
	<g>
		<polygon style="fill:#EDA8B0;" points="104.776,270.196 290.804,270.196 290.824,150.105 104.798,150.105 		"/>
		<path style="fill:#DEDEDE;" d="M296.862,157h-0.007l-84.422-76.732c0,0-11.783-12.125-24.436,0.469L110.866,157h-0.01L111,275.942
			v-0.161v0.032L110.879,276h185.936l0.037,0.229L296.862,157z"/>
		<polygon style="fill:#F2B8E6;" points="104.798,150 104.776,271 290.804,271 290.824,150 		"/>
		<path style="fill:#EF9CDA;" d="M206.376,74.075c0,0-11.784-12.423-24.437,0.171L104.798,150h186.026L206.376,74.075z"/>
		<path style="fill:#F4B0E6;" d="M205.354,82.896c0,0-10.377-11.047-21.52,0.044l-67.937,66.803l163.827,0.031L205.354,82.896z"/>
		<rect x="121.271" y="99.906" style="fill:#DEDEDE;" width="153.375" height="130.475"/>
		<rect x="118.188" y="95.942" style="fill:#D2EBFF;" width="153.375" height="130.475"/>
		<rect x="130.613" y="117.082" style="fill:#B6D8EF;" width="128.525" height="5.66"/>
		<rect x="130.613" y="134.257" style="fill:#B6D8EF;" width="128.525" height="5.66"/>
		<rect x="130.613" y="151.434" style="fill:#B6D8EF;" width="128.525" height="5.658"/>
		<rect x="130.613" y="168.608" style="fill:#B6D8EF;" width="128.525" height="5.659"/>
		<rect x="130.613" y="185.784" style="fill:#B6D8EF;" width="128.525" height="5.659"/>
		<path style="fill:#EF9CDA;" d="M206.949,184.589c0,0-4.313,1.661-5.431,2.915c-2.524,2.849-6.643,15.208-6.643,15.208l8.588,8.146
			l87.34,59.339l0.021-120.091L206.949,184.589z"/>
		<g>
			<path style="fill:#F56C71;" d="M193.302,203.668L193.302,203.668C193.307,203.683,193.309,203.686,193.302,203.668z"/>
			<path style="fill:#EF9CDA;" d="M186.501,188.564c-1.129-1.246-5.469-2.839-5.469-2.839l-76.234-35.62l-0.021,120.091
				l80.029-58.259l8.495-8.27C193.154,203.27,188.791,191.096,186.501,188.564z"/>
		</g>
		<path style="fill:#F2B8E6;" d="M229.095,195.707c-2.395-4.241-6.615-4.217-6.615-4.217l-28.161-0.148l-0.23,0.002l-28.104,0.205
			c0,0-3.91-0.123-6.046,4.875l-55.162,73.772l90.11-0.328l95.917,0.328L229.095,195.707z"/>
	</g>
	<g>
		<circle style="fill:#DEDEDE;" cx="299.947" cy="55.271" r="43.168"/>
		<circle style="fill:#EF9CDA;" cx="296.698" cy="50.534" r="43.168"/>
		<g>
			<path style="fill:#FFFFFF;" d="M304.105,23.557v54.398c0,2.858-2.397,5.071-5.163,5.071c-2.859,0-5.072-2.213-5.072-5.071V32.592
				l-3.688,2.121c-0.83,0.553-1.752,0.738-2.582,0.738c-1.751,0-3.411-0.922-4.333-2.582c-1.567-2.305-0.738-5.532,1.659-6.916
				l11.341-6.73c0.092-0.092,0.277-0.092,0.369-0.185c0.185,0,0.276-0.184,0.461-0.276c0.185,0,0.368-0.093,0.553-0.093
				c0.093-0.092,0.277-0.092,0.369-0.092c0.186-0.092,0.461-0.092,0.646-0.092c0.092,0,0.184,0,0.277,0h0.092
				c0.276,0,0.46,0,0.646,0c0.092,0.092,0.276,0.092,0.368,0.092c0.277,0,0.369,0.092,0.553,0.185c0.093,0,0.276,0,0.369,0.092
				c0.276,0.184,0.369,0.277,0.554,0.277c0.092,0.092,0.185,0.184,0.368,0.276c0.092,0.093,0.277,0.185,0.369,0.277
				c0.185,0.092,0.276,0.276,0.368,0.369c0.094,0.092,0.186,0.184,0.277,0.369c0.092,0.092,0.276,0.277,0.368,0.369l0.093,0.184
				c0,0.093,0.093,0.185,0.093,0.277c0.092,0.184,0.184,0.276,0.184,0.461c0.092,0.185,0.092,0.369,0.185,0.46
				c0,0.185,0.092,0.37,0.092,0.461c0,0.277,0,0.461,0.186,0.646C304.105,23.372,304.105,23.465,304.105,23.557z"/>
		</g>
	</g>
</g>
</svg>
