<?xml version="1.0" encoding="iso-8859-1"?>
<!-- Generator: Adobe Illustrator 16.0.0, SVG Export Plug-In . SVG Version: 6.00 Build 0)  -->
<!DOCTYPE svg PUBLIC "-//W3C//DTD SVG 1.1//EN" "http://www.w3.org/Graphics/SVG/1.1/DTD/svg11.dtd">
<svg version="1.1" id="Layer_1" xmlns="http://www.w3.org/2000/svg" xmlns:xlink="http://www.w3.org/1999/xlink" x="0px" y="0px"
	 width="80px" height="80px" viewBox="0 0 80 80" style="enable-background:new 0 0 80 80;" xml:space="preserve">
<g>
	<path style="fill-rule:evenodd;clip-rule:evenodd;fill:none;stroke:#383838;stroke-width:1.8686;stroke-miterlimit:10;" d="
		M34.928,12.704c0-1.949-0.046-3.818,0.012-5.684c0.089-3.041,2.113-5.216,4.848-5.295c2.848-0.087,5.035,2.12,5.157,5.298
		c0.07,1.868,0.016,3.737,0.016,5.704c5.837,1.671,10.811,4.466,14.362,9.402c2.775,3.846,4.346,8.061,4.686,12.845
		c0.374,5.308,1.075,10.59,1.802,15.864c0.129,0.925,1.21,1.685,1.55,2.634c0.691,1.942,1.781,4.027,1.576,5.929
		c-0.244,2.255-2.716,2.162-4.6,2.162c-16.282,0.013-32.563,0.062-48.843-0.076c-1.546-0.009-4.25-1.011-4.382-1.872
		c-0.294-1.883,0.619-3.999,1.231-5.959c0.468-1.491,1.614-2.836,1.819-4.33c0.759-5.567,0.94-11.216,1.917-16.736
		c1.636-9.282,7.167-15.563,15.965-18.936C32.949,13.308,33.886,13.042,34.928,12.704z"/>
	<path style="fill-rule:evenodd;clip-rule:evenodd;fill:none;stroke:#383838;stroke-width:1.8686;stroke-miterlimit:10;" d="
		M31.442,69.923c5.8,0,11.396,0,16.97,0c0.432,4.955-4.248,8.582-8.285,8.677C35.387,78.7,31.589,75.028,31.442,69.923z"/>
</g>
</svg>
