<?xml version="1.0" encoding="iso-8859-1"?>
<!-- Generator: Adobe Illustrator 16.0.0, SVG Export Plug-In . SVG Version: 6.00 Build 0)  -->
<!DOCTYPE svg PUBLIC "-//W3C//DTD SVG 1.1//EN" "http://www.w3.org/Graphics/SVG/1.1/DTD/svg11.dtd">
<svg version="1.1" id="Layer_1" xmlns="http://www.w3.org/2000/svg" xmlns:xlink="http://www.w3.org/1999/xlink" x="0px" y="0px"
	 width="150px" height="150px" viewBox="0 0 150 150" style="enable-background:new 0 0 150 150;" xml:space="preserve">
<g id="XMLID_139_">
	<circle id="XMLID_125_" style="fill:#9C161C;" cx="75" cy="75" r="73.999"/>
	<linearGradient id="XMLID_2_" gradientUnits="userSpaceOnUse" x1="75.001" y1="76.8203" x2="122.7937" y2="124.6131">
		<stop  offset="0" style="stop-color:#461719"/>
		<stop  offset="0.8957" style="stop-color:#461719;stop-opacity:0"/>
	</linearGradient>
	<path id="XMLID_143_" style="fill:url(#XMLID_2_);" d="M39.763,112.059l36.92,36.92c38.365-0.857,69.522-30.91,72.135-68.816
		l-38.579-38.58L39.763,112.059z"/>
	<g id="XMLID_136_">
		<path id="XMLID_138_" style="fill:#FFFFFF;" d="M39.763,112.059L39.763,112.059c-4.102-4.102-4.102-10.813,0-14.914l55.562-55.563
			c4.102-4.101,10.813-4.101,14.914,0l0,0c4.101,4.101,4.101,10.812,0,14.914l-55.563,55.563
			C50.575,116.158,43.863,116.158,39.763,112.059z"/>
		<path id="XMLID_137_" style="fill:#FFFFFF;" d="M39.763,41.582L39.763,41.582c4.101-4.101,10.813-4.101,14.913,0l55.563,55.563
			c4.101,4.102,4.101,10.813,0,14.914l0,0c-4.102,4.1-10.813,4.1-14.914,0L39.763,56.496C35.661,52.394,35.661,45.683,39.763,41.582
			z"/>
	</g>
</g>
</svg>
