<?xml version="1.0" encoding="iso-8859-1"?>
<!-- Generator: Adobe Illustrator 16.0.0, SVG Export Plug-In . SVG Version: 6.00 Build 0)  -->
<!DOCTYPE svg PUBLIC "-//W3C//DTD SVG 1.1//EN" "http://www.w3.org/Graphics/SVG/1.1/DTD/svg11.dtd">
<svg version="1.1" id="Layer_1" xmlns="http://www.w3.org/2000/svg" xmlns:xlink="http://www.w3.org/1999/xlink" x="0px" y="0px"
	 width="100px" height="100px" viewBox="0 0 100 100" style="enable-background:new 0 0 100 100;" xml:space="preserve">
<path style="fill-rule:evenodd;clip-rule:evenodd;fill:#383838;" d="M50.361,13.728c12.252,0,24.509,0.048,36.762-0.029
	c4.563-0.026,8.283,3.824,8.219,8.291c-0.107,7.563-0.023,15.125-0.023,22.695c0,7.563,0,15.125-0.003,22.695
	c0,3.025,0.02,6.051-0.004,9.076c-0.038,4.376-3.629,7.901-8.019,7.908c-9.382,0-18.762,0-28.145,0c-15.213,0-30.436,0-45.646,0
	c-4.521,0-8.077-3.562-8.077-8.09c0-12.729,0-25.455,0-38.18c0-5.562-0.013-11.134,0.006-16.693c0.016-3.591,3.006-7.02,6.554-7.55
	c0.595-0.09,1.203-0.12,1.807-0.12C25.979,13.728,38.173,13.728,50.361,13.728z M50.286,20.121v0.006c-0.61,0-1.209,0-1.816,0
	c-9.062,0-18.128,0-27.194,0c-2.553,0-5.104-0.013-7.654-0.006c-1.105,0.006-1.781,0.659-1.765,1.752
	c0.016,0.817,0.035,1.648,0.162,2.459c0.649,4.279,2.734,7.78,5.97,10.598c1.658,1.442,3.413,2.773,5.139,4.137
	c3.193,2.534,6.412,5.049,9.596,7.589c3,2.389,5.937,4.835,8.953,7.194c1.707,1.325,3.465,2.602,5.284,3.769
	c2.017,1.286,4.185,1.441,6.342,0.249c0.933-0.523,1.89-1.038,2.73-1.69c2.848-2.218,5.649-4.499,8.475-6.742
	c5.146-4.073,10.285-8.168,15.459-12.205c2.243-1.745,4.275-3.655,5.904-5.998c2.002-2.867,3.427-5.902,2.972-9.509
	c-0.063-0.465-0.356-0.905-0.557-1.351c-0.023-0.052-0.104-0.097-0.165-0.103c-0.423-0.052-0.85-0.129-1.27-0.129
	c-1.698-0.02-3.395-0.013-5.092-0.013c-5.739,0-11.479-0.006-17.22-0.006C59.793,20.115,55.041,20.121,50.286,20.121z M11.851,37.79
	c0,0.304,0,0.469,0,0.63c0,12.528,0,25.048,0,37.573c0,1.367,0.566,1.93,1.93,1.93c24.393,0,48.784,0,73.177,0
	c1.349,0,1.931-0.588,1.931-1.93c0-12.508,0-25.016,0-37.524c0-0.171,0-0.353,0-0.553c-1.015,0.95-1.918,1.926-2.948,2.741
	c-3.029,2.424-6.125,4.764-9.157,7.182c-4.452,3.548-8.881,7.123-13.289,10.723c-2.509,2.056-5.02,4.085-8.055,5.362
	c-2.343,0.985-4.734,1.509-7.26,0.94c-2.41-0.543-4.646-1.573-6.657-2.993c-1.849-1.302-3.565-2.799-5.337-4.208
	c-5.988-4.768-11.977-9.541-17.982-14.305C16.037,41.643,13.761,40.043,11.851,37.79z"/>
</svg>
