<?xml version="1.0" encoding="iso-8859-1"?>
<!-- Generator: Adobe Illustrator 16.0.0, SVG Export Plug-In . SVG Version: 6.00 Build 0)  -->
<!DOCTYPE svg PUBLIC "-//W3C//DTD SVG 1.1//EN" "http://www.w3.org/Graphics/SVG/1.1/DTD/svg11.dtd">
<svg version="1.1" id="Layer_1" xmlns="http://www.w3.org/2000/svg" xmlns:xlink="http://www.w3.org/1999/xlink" x="0px" y="0px"
	 width="220px" height="280px" viewBox="0 0 220 280" style="enable-background:new 0 0 220 280;" xml:space="preserve">
<g>
	<path style="fill:#99FFF7;" d="M183.792,68.336c-2.133-4.372-7.864-7.95-12.731-7.95H118.42c-4.867,0-12.834,0-17.701,0H48.082
		c-4.867,0-10.599,3.578-12.731,7.95l-22.818,46.756c-2.136,4.376-1.043,10.745,2.422,14.16l88.31,86.964
		c3.468,3.416,9.144,3.416,12.611,0l88.313-86.964c3.469-3.415,4.559-9.784,2.422-14.16L183.792,68.336z"/>
	<g style="opacity:0.3;">
		<path style="fill:#FFFFFF;" d="M161.137,83.716c-5.472-5.157-10.957-10.293-16.578-15.27c-0.235-0.209-0.476-0.418-0.715-0.625
			l-88.639,64.086l13.479,18.647L161.137,83.716z"/>
	</g>
	<g style="opacity:0.3;">
		<path style="fill:#FFFFFF;" d="M176.016,97.643c-2.037-1.867-4.055-3.757-6.074-5.648l-103.128,74.56l5.186,7.17l104.546-75.585
			C176.366,97.976,176.189,97.809,176.016,97.643z"/>
	</g>
	<path style="fill:#4BA6EB;" d="M207.082,124.256c0.928-3.047,0.841-6.479-0.473-9.164l-22.817-46.756
		c-1.046-2.146-2.967-4.096-5.224-5.532l-20.691,59.957L207.082,124.256z"/>
	<path style="fill:#4BA6EB;" d="M61.262,122.761l48.308-62.375c-3.206,0-6.416,0-8.851,0H48.082c-2.622,0-5.476,1.056-7.897,2.698
		L61.262,122.761z"/>
	<path style="fill:#6CD9FF;" d="M178.958,63.083c-2.425-1.645-5.274-2.698-7.897-2.698H118.42c-2.436,0-5.641,0-8.851,0
		l48.308,62.375L178.958,63.083z"/>
	<path style="fill:#DC4B7F;" d="M40.443,62.894c-2.196,1.429-4.067,3.335-5.093,5.442l-22.818,46.756
		c-1.153,2.359-1.339,5.29-0.748,8.037l50.089,1.319L40.443,62.894z"/>
	<path style="fill:#328CC4;" d="M40.443,62.894c-2.196,1.429-4.067,3.335-5.093,5.442l-22.818,46.756
		c-1.153,2.359-1.339,5.29-0.748,8.037l50.089,1.319L40.443,62.894z"/>
	<path style="fill:#4BA6EB;" d="M14.954,129.252l88.31,86.964c1.259,1.236,2.811,2.011,4.438,2.353l-46.44-95.809H11.698
		C12.166,125.243,13.272,127.598,14.954,129.252z"/>
	<path style="fill:#DC4B7F;" d="M111.439,218.568c1.629-0.342,3.177-1.115,4.436-2.353l88.313-86.964
		c1.683-1.654,2.791-4.01,3.256-6.492h-49.566L111.439,218.568z"/>
	<path style="fill:#328CC4;" d="M111.439,218.568c1.629-0.342,3.177-1.115,4.436-2.353l88.313-86.964
		c1.683-1.654,2.791-4.01,3.256-6.492h-49.566L111.439,218.568z"/>
	<path style="fill:#6CD9FF;" d="M61.262,122.761l46.44,95.81c1.233,0.256,2.505,0.256,3.737,0l46.438-95.809L61.262,122.761
		L61.262,122.761z"/>
	<path style="fill:#FFFFFF;" d="M64.547,94.696c-8.595,2.791-10.848,5.05-13.635,13.648c-2.788-8.592-5.05-10.851-13.648-13.639
		c8.595-2.788,10.857-5.04,13.639-13.635C53.696,89.666,55.952,91.916,64.547,94.696z"/>
	<path style="fill:#FFFFFF;" d="M87.917,75.217c-4.668,1.515-5.891,2.744-7.402,7.406c-1.515-4.662-2.745-5.887-7.409-7.399
		c4.665-1.515,5.891-2.738,7.402-7.402C82.023,72.486,83.249,73.708,87.917,75.217z"/>
	<path style="fill:#FFFFFF;" d="M91.439,161.536c-4.668,1.516-5.891,2.741-7.402,7.409c-1.515-4.661-2.744-5.891-7.409-7.405
		c4.665-1.509,5.891-2.733,7.402-7.399C85.545,158.807,86.771,160.027,91.439,161.536z"/>
</g>
</svg>
