<?xml version="1.0" encoding="iso-8859-1"?>
<!-- Generator: Adobe Illustrator 16.0.0, SVG Export Plug-In . SVG Version: 6.00 Build 0)  -->
<!DOCTYPE svg PUBLIC "-//W3C//DTD SVG 1.1//EN" "http://www.w3.org/Graphics/SVG/1.1/DTD/svg11.dtd">
<svg version="1.1" id="Layer_1" xmlns="http://www.w3.org/2000/svg" xmlns:xlink="http://www.w3.org/1999/xlink" x="0px" y="0px"
	 width="220px" height="280px" viewBox="0 0 220 280" style="enable-background:new 0 0 220 280;" xml:space="preserve">
<g>
	<path style="fill:#8CC63F;" d="M115.285,24.403c-3.167-3.501-8.349-3.501-11.515,0L44.147,90.345
		c-3.17,3.504-5.76,10.231-5.76,14.953v68.396c0,4.72,2.589,11.448,5.76,14.952l59.623,65.942c3.166,3.504,8.348,3.504,11.515,0
		l59.623-65.942c3.166-3.504,5.755-10.232,5.755-14.952v-68.396c0-4.722-2.589-11.449-5.755-14.953L115.285,24.403z"/>
	<path style="fill:#62C765;" d="M42.495,92.572c-2.36,3.683-4.107,8.864-4.107,12.726v68.396c0,4.72,2.589,11.448,5.76,14.952
		l2.399,2.652c16.531-7.063,34.794-15.092,36.656-15.798c3.462-1.313,0-63.957,0-63.957L42.495,92.572z"/>
	<path style="fill:#55B034;" d="M44.147,90.345c-1.668,1.845-3.167,4.586-4.218,7.456l41.257,15.333l28.343-35.643V21.777
		c-2.087,0-4.178,0.876-5.759,2.625L44.147,90.345z"/>
	<path style="fill:#C2E070;" d="M138.291,113.133L179.122,97.8c-1.052-2.869-2.546-5.61-4.214-7.456l-59.623-65.942
		c-1.581-1.749-3.669-2.625-5.756-2.625V77.49L138.291,113.133z"/>
	<path style="fill:#269468;" d="M80.629,165.914l-40.455,15.938c1.036,2.623,2.431,5.092,3.973,6.793l59.623,65.942
		c1.581,1.751,3.672,2.629,5.759,2.629v-54.961L80.629,165.914z"/>
	<path style="fill:#69C97D;" d="M174.908,188.646c1.537-1.701,2.933-4.17,3.969-6.797l-40.451-15.935l-28.896,36.342v54.961
		c2.087,0,4.175-0.878,5.756-2.629L174.908,188.646z"/>
	<polygon style="fill:#E2ED7A;" points="72.727,169.053 72.727,109.938 109.529,69.237 146.328,109.938 146.328,169.053 
		109.529,209.757 	"/>
	<path style="fill:#FFFFFF;" d="M72.727,147.308l64.94-46.949l8.661,9.579v11.703l-70.431,50.918l-3.17-3.506V147.308z
		 M146.328,146.441V135.85l-62.663,45.304l5.791,6.403L146.328,146.441z"/>
	<path style="fill:#FFFFFF;" d="M92.247,84.188c-9.432,3.064-11.907,5.544-14.962,14.977c-3.063-9.427-5.546-11.907-14.978-14.967
		c9.432-3.058,11.91-5.531,14.966-14.961C80.336,78.667,82.815,81.138,92.247,84.188z"/>
	<path style="fill:#FFFFFF;" d="M62.307,103.019c-5.119,1.664-6.463,3.011-8.124,8.131c-1.66-5.118-3.008-6.463-8.131-8.125
		c5.119-1.659,6.467-3.002,8.127-8.121C55.84,100.022,57.184,101.364,62.307,103.019z"/>
</g>
</svg>
