<?xml version="1.0" encoding="iso-8859-1"?>
<!-- Generator: Adobe Illustrator 16.0.0, SVG Export Plug-In . SVG Version: 6.00 Build 0)  -->
<!DOCTYPE svg PUBLIC "-//W3C//DTD SVG 1.1//EN" "http://www.w3.org/Graphics/SVG/1.1/DTD/svg11.dtd">
<svg version="1.1" id="Layer_1" xmlns="http://www.w3.org/2000/svg" xmlns:xlink="http://www.w3.org/1999/xlink" x="0px" y="0px"
	 width="220px" height="280px" viewBox="0 0 220 280" style="enable-background:new 0 0 220 280;" xml:space="preserve">
<g>
	<path style="fill:#FFC551;" d="M13.398,229.112c-4.863,0-6.855-3.446-4.422-7.658L104.956,55.21c2.434-4.212,6.41-4.212,8.843,0
		l95.979,166.244c2.43,4.212,0.441,7.658-4.422,7.658H13.398z"/>
	<path style="opacity:0.5;fill:#ED861F;" d="M109.378,131.593V52.05c-1.603,0-3.207,1.052-4.422,3.16l-47.99,83.122L8.977,221.454
		c-1.215,2.104-1.328,4.02-0.524,5.407l51.239-29.582L109.378,131.593z"/>
	<path style="opacity:0.5;fill:#C62100;" d="M159.066,197.276l-81.731-10.188L8.452,226.861c0.8,1.388,2.513,2.251,4.943,2.251
		l191.998-0.003c2.414-0.007,4.113-0.867,4.913-2.251L159.066,197.276z"/>
	<polygon style="fill:#FCE221;" points="59.691,197.279 109.378,111.217 159.063,197.279 	"/>
	<g>
		<polygon style="fill:#FFFFFF;" points="138.022,160.836 126.467,140.822 67.798,183.237 59.691,197.279 87.613,197.279 		"/>
		<polygon style="fill:#FFFFFF;" points="148.43,178.858 143.985,171.16 107.857,197.279 122.948,197.279 		"/>
	</g>
	<path style="fill:#FFFFFF;" d="M63.688,144.938c-7.917,2.576-9.999,4.657-12.565,12.578c-2.569-7.918-4.654-9.996-12.578-12.568
		c7.921-2.569,10.005-4.645,12.572-12.565C53.686,140.304,55.768,142.379,63.688,144.938z"/>
	<path style="fill:#FFFFFF;" d="M73.339,167.074c-4.299,1.397-5.428,2.526-6.822,6.828c-1.394-4.299-2.526-5.428-6.825-6.825
		c4.296-1.395,5.428-2.52,6.822-6.818C67.908,164.558,69.04,165.683,73.339,167.074z"/>
	<path style="fill:#FFFFFF;" d="M98.857,212.036c-4.299,1.394-5.427,2.526-6.822,6.825c-1.394-4.299-2.526-5.428-6.825-6.822
		c4.299-1.395,5.428-2.522,6.822-6.822C93.426,209.517,94.558,210.642,98.857,212.036z"/>
</g>
</svg>
