<?xml version="1.0" encoding="utf-8"?>
<!-- Generator: Adobe Illustrator 16.0.0, SVG Export Plug-In . SVG Version: 6.00 Build 0)  -->
<!DOCTYPE svg PUBLIC "-//W3C//DTD SVG 1.1//EN" "http://www.w3.org/Graphics/SVG/1.1/DTD/svg11.dtd">
<svg version="1.1" xmlns="http://www.w3.org/2000/svg" xmlns:xlink="http://www.w3.org/1999/xlink" x="0px" y="0px" width="4000px"
	 height="2500px" viewBox="0 0 4000 2500" enable-background="new 0 0 4000 2500" xml:space="preserve">
<g id="gear">
	<g>
		<path opacity="0.5" fill="#9EC8FF" enable-background="new    " d="M3016.879,451.521c1.02-9.122,1.563-18.389,1.563-27.782
			c0-4.957-0.164-9.875-0.45-14.759l-45.906-14.854c-2.825-19.354-8.375-37.821-16.254-55.002l30.438-37.456
			c-7.041-12.389-15.112-24.114-24.111-35.05l-45.911,14.981c-13.382-13.671-28.674-25.46-45.45-34.936l2.611-48.236
			c-12.813-5.833-26.208-10.605-40.078-14.204l-28.35,39.123c-11.051-1.86-22.397-2.843-33.978-2.843
			c-7.894,0-15.677,0.466-23.336,1.341l-26.247-40.57c-14.063,2.861-27.69,6.915-40.777,12.05l0.061,48.308
			c-17.285,8.587-33.175,19.559-47.235,32.492l-45.042-17.379c-9.57,10.458-18.261,21.736-25.938,33.725l28.424,39.021
			c-8.798,16.777-15.325,34.931-19.162,54.061l-46.621,12.406c-1.02,9.122-1.563,18.388-1.563,27.781
			c0,4.957,0.164,9.875,0.45,14.76l45.905,14.852c2.826,19.354,8.376,37.822,16.254,55.003l-30.438,37.456
			c7.041,12.389,15.112,24.114,24.111,35.051l45.911-14.981c13.381,13.671,28.674,25.46,45.45,34.937l-2.612,48.235
			c12.813,5.833,26.209,10.605,40.078,14.205l28.351-39.123c11.051,1.86,22.397,2.844,33.978,2.844
			c7.894,0,15.677-0.467,23.335-1.343l26.248,40.57c14.063-2.86,27.69-6.915,40.777-12.05l-0.062-48.308
			c17.286-8.589,33.176-19.56,47.236-32.492l45.042,17.379c9.57-10.458,18.26-21.736,25.938-33.727l-28.424-39.021
			c8.798-16.778,15.325-34.933,19.162-54.062L3016.879,451.521z M2771.003,520.789c-53.601,0-97.05-43.451-97.05-97.05
			c0-53.599,43.449-97.05,97.05-97.05c53.599,0,97.05,43.451,97.05,97.05C2868.053,477.338,2824.602,520.789,2771.003,520.789z"/>
		<g>
			<path fill="#FFFFFF" d="M2903.369,535.797c-1.127,0-2.26-0.379-3.194-1.156c-2.123-1.766-2.413-4.918-0.647-7.042
				c24.188-29.083,37.508-65.969,37.508-103.86c0-18.146-2.969-35.963-8.821-52.957c-0.899-2.611,0.488-5.457,3.101-6.356
				c2.608-0.899,5.455,0.488,6.354,3.099c6.215,18.043,9.366,36.957,9.366,56.213c0,40.224-14.142,79.38-39.817,110.256
				C2906.229,535.184,2904.804,535.797,2903.369,535.797z"/>
		</g>
		<g>
			<path fill="#FFFFFF" d="M2889.318,306.736c-1.229,0-2.461-0.451-3.428-1.36c-16.254-15.303-35.08-26.903-55.955-34.478
				c-2.596-0.942-3.937-3.81-2.994-6.406c0.941-2.596,3.812-3.936,6.404-2.995c22.164,8.042,42.148,20.354,59.4,36.598
				c2.011,1.893,2.104,5.057,0.213,7.068C2891.977,306.208,2890.648,306.736,2889.318,306.736z"/>
		</g>
		<g>
			<path fill="#FFFFFF" d="M2733.357,266.287c-2.235,0-4.271-1.51-4.845-3.777c-0.676-2.677,0.946-5.396,3.624-6.072
				c13.771-3.476,28.022-5.239,42.356-5.239c2.762,0,5,2.239,5,5c0,2.761-2.238,5-5,5c-13.511,0-26.938,1.66-39.909,4.935
				C2734.175,266.238,2733.763,266.287,2733.357,266.287z"/>
		</g>
	</g>
</g>
<g id="Слой_1">
	<path opacity="0.4" fill="#E7F3FE" enable-background="new    " d="M674.233,345.98
		c515.624-191.422,1039.693-22.187,1395.124,346.413c355.429,368.601,1101.357-254.412,1496.961,113.588
		c269.979,251.141,146.315,896.834-223.873,1176.5c-503.172,380.129-2377.707,391.545-2688.729,261.102
		c-531.482-222.904-3.392-635.68-251.482-1031.37C109.545,745.393,446.369,430.573,674.233,345.98z"/>
	<rect x="1074.893" y="181.98" opacity="0.5" fill="#9EC8FF" enable-background="new    " width="1546.455" height="928.877"/>
	<rect x="1150.233" y="204.647" fill="#FFFFFF" width="1454.917" height="852.731"/>
	<g>
		<path fill="#F5DC95" d="M2005.896,448.563c0-91.514-73.601-165.836-164.837-167.003c-91.655-1.173-167.722,72.638-169.177,164.29
			c-0.71,44.738,16.175,85.525,44.186,115.899c12.902,13.993,20.066,32.328,20.066,51.361v74.867
			c0,48.437,39.629,88.065,88.065,88.065h29.358c48.437,0,88.065-39.629,88.065-88.065v-74.86c0-19.192,7.4-37.559,20.373-51.702
			C1989.258,531.692,2005.896,492.071,2005.896,448.563z"/>
		<path opacity="0.5" fill="#FFFFFF" enable-background="new    " d="M1982.564,459.77c0-78.729-63.317-142.668-141.809-143.672
			c-78.852-1.009-144.292,62.491-145.543,141.338c-0.611,38.488,13.916,73.578,38.012,99.708
			c11.102,12.038,17.265,27.813,17.265,44.187v64.409c0,41.669,34.093,75.763,75.762,75.763h25.258
			c41.669,0,75.763-34.093,75.763-75.763v-64.403c0-16.511,6.367-32.311,17.527-44.479
			C1968.25,531.288,1982.564,497.201,1982.564,459.77z"/>
		<g>
			<path fill="#94BDF2" d="M1863.564,643.135h-55c-2.584,0-4.742-1.97-4.979-4.544c-0.098-1.068-10.363-107.244-57.841-136.976
				c-2.341-1.466-3.05-4.551-1.584-6.893c1.465-2.34,4.552-3.051,6.891-1.584c46.314,29.004,59.476,118.467,62.006,139.996h45.221
				c-0.181-7.385,0.245-21.644,4.502-40.094c5.688-24.662,19.639-61.864,53.793-99.046c1.868-2.034,5.03-2.168,7.064-0.3
				c2.033,1.868,2.168,5.03,0.3,7.063c-62.424,67.958-55.48,136.13-55.403,136.812c0.161,1.415-0.289,2.832-1.238,3.895
				S1864.99,643.135,1863.564,643.135z"/>
		</g>
		<g>
			<path fill="#94BDF2" d="M1904.738,508.454c-18.567,0-43.885-13.192-70.547-27.492c-34.438,18.342-66.599,34.787-84.602,23.874
				c-8.461-5.128-12.506-15.166-12.367-30.688c0.132-14.612,4.32-24.463,12.452-29.276c18.036-10.68,50.266,6.355,84.531,24.75
				c34.945-18.636,67.849-35.99,85.822-25.047c8.069,4.913,12.063,14.898,11.875,29.683c-0.198,15.382-4.62,25.729-13.145,30.752
				C1914.71,507.396,1909.993,508.454,1904.738,508.454z M1844.818,475.302c27.456,14.595,56.185,28.565,68.864,21.092
				c5.307-3.127,8.071-10.618,8.222-22.266c0.142-10.998-2.238-18.068-7.075-21.012
				C1902.572,445.653,1872.8,460.46,1844.818,475.302z M1763.188,451.523c-3.3,0-6.143,0.604-8.416,1.951
				c-4.911,2.907-7.45,9.893-7.548,20.762c-0.104,11.529,2.438,18.947,7.551,22.047c12.336,7.478,41.156-6.421,68.804-21.012
				C1801.229,463.349,1777.77,451.523,1763.188,451.523z"/>
		</g>
		<path fill="#94BDF2" d="M1856.564,799.801h-32c-11.274,0-20.5-9.225-20.5-20.5v-3c0-11.274,9.226-20.5,20.5-20.5h32
			c11.275,0,20.5,9.226,20.5,20.5v3C1877.064,790.576,1867.84,799.801,1856.564,799.801z"/>
		<path fill="#94BDF2" d="M1731.28,634.135v52.957c0,50.726,41.502,92.227,92.227,92.227h30.747
			c50.725,0,92.227-41.501,92.227-92.227v-52.957H1731.28z"/>
		<path fill="#9EC8FF" d="M1945.564,650.801h-210.666c-6.601,0-12-5.399-12-12v-1.333c0-6.6,5.399-12,12-12h210.666
			c6.601,0,12,5.4,12,12v1.333C1957.564,645.401,1952.166,650.801,1945.564,650.801z"/>
		<path fill="#9EC8FF" d="M1946.324,669.793l-209.078,25.826c-6.55,0.809-12.571-3.888-13.38-10.438l-0.164-1.322
			c-0.81-6.551,3.888-12.571,10.438-13.38l209.078-25.826c6.55-0.81,12.571,3.888,13.38,10.438l0.164,1.323
			C1957.571,662.962,1952.874,668.984,1946.324,669.793z"/>
		<path fill="#9EC8FF" d="M1946.324,706.384l-209.078,25.826c-6.55,0.81-12.571-3.888-13.38-10.438l-0.164-1.322
			c-0.81-6.55,3.888-12.572,10.438-13.381l209.078-25.826c6.55-0.81,12.571,3.888,13.38,10.438l0.164,1.323
			C1957.571,699.554,1952.874,705.575,1946.324,706.384z"/>
		<path fill="#9EC8FF" d="M1933.422,745.542l-174.133,21.509c-6.012,0.743-11.538-3.567-12.28-9.58l-0.405-3.281
			c-0.742-6.013,3.568-11.538,9.58-12.28l174.133-21.509c6.012-0.743,11.537,3.567,12.279,9.58l0.405,3.281
			C1943.744,739.274,1939.433,744.8,1933.422,745.542z"/>
	</g>
	<g>
		<path fill="#9EC8FF" d="M3441.063,793.015h112.236c0,61.571-50.665,112.236-112.236,112.236
			c-61.57,0-112.235-50.666-112.235-112.236s50.665-112.235,112.235-112.235V793.015z"/>
		<g>
			<path fill="#F39892" d="M3572.096,777.3c0-61.985-50.25-112.235-112.236-112.235V777.3H3572.096z"/>
			<path fill="#F39892" d="M3347.623,777.3c0,61.986,50.25,112.236,112.236,112.236
				C3398.289,889.536,3347.623,838.871,3347.623,777.3z"/>
			<path fill="#F39892" d="M3459.859,665.063c-61.986,0-112.236,50.25-112.236,112.236
				C3347.623,715.729,3398.289,665.063,3459.859,665.063z"/>
			<path fill="#F39892" d="M3459.859,889.536c61.985,0,112.235-50.25,112.235-112.236
				C3572.096,838.871,3521.431,889.536,3459.859,889.536z"/>
		</g>
	</g>
	<g>
		<path fill="#FFB8B3" d="M2345.232,408.98h-184V301.736h138.379c17.815,17.816,27.806,27.805,45.621,45.622V408.98z"/>
		<polygon fill="#F39892" points="2296.232,301.736 2296.232,358.98 2345.232,358.98 2345.232,347.98 2299.3,302.047 		"/>
		<polygon fill="#FFB8B3" points="2299.611,301.736 2299.611,347.98 2345.232,347.98 		"/>
		<path fill="#FFFFFF" d="M2263.982,341.98h-82c-1.787,0-3.25-1.463-3.25-3.25c0-1.788,1.463-3.25,3.25-3.25h82
			c1.787,0,3.25,1.462,3.25,3.25C2267.232,340.517,2265.771,341.98,2263.982,341.98z"/>
		<path fill="#FFFFFF" d="M2263.982,358.608h-82c-1.787,0-3.25-1.463-3.25-3.25c0-1.788,1.463-3.25,3.25-3.25h82
			c1.787,0,3.25,1.462,3.25,3.25C2267.232,357.145,2265.771,358.608,2263.982,358.608z"/>
		<path fill="#FFFFFF" d="M2263.982,376.108h-82c-1.787,0-3.25-1.463-3.25-3.25c0-1.788,1.463-3.25,3.25-3.25h82
			c1.787,0,3.25,1.462,3.25,3.25C2267.232,374.645,2265.771,376.108,2263.982,376.108z"/>
	</g>
	<circle fill="#3E6BAB" cx="2247.732" cy="309.98" r="5.5"/>
	
		<rect x="1424.73" y="294.593" transform="matrix(-0.9818 -0.1897 0.1897 -0.9818 2870.2056 1004.9261)" fill="#FAE8B6" width="116.939" height="140.998"/>
	<path fill="#9EC8FF" d="M1529.751,366.83l-60.874-11.761c-1.62-0.313-2.689-1.895-2.376-3.515c0.313-1.62,1.896-2.689,3.515-2.376
		l60.874,11.762c1.62,0.313,2.689,1.895,2.376,3.514C1532.953,366.074,1531.371,367.143,1529.751,366.83z"/>
	<path fill="#9EC8FF" d="M1526.811,382.049l-60.873-11.762c-1.62-0.313-2.689-1.895-2.377-3.515c0.313-1.62,1.896-2.689,3.516-2.376
		l60.874,11.762c1.62,0.313,2.688,1.895,2.376,3.515C1530.013,381.293,1528.431,382.362,1526.811,382.049z"/>
	<path fill="#9EC8FF" d="M1523.79,397.686l-60.875-11.762c-1.62-0.313-2.688-1.895-2.376-3.515c0.313-1.62,1.895-2.689,3.515-2.376
		l60.875,11.762c1.62,0.313,2.689,1.895,2.376,3.515C1526.992,396.93,1525.409,397.999,1523.79,397.686z"/>
	<circle fill="#3E6BAB" cx="1483.634" cy="302.412" r="5"/>
	<path fill="#9EC8FF" d="M2430.154,559.031l-177.698-18.719l11.733-111.385l140.895,14.842
		c12.857,15.888,20.066,24.795,32.927,40.682L2430.154,559.031z"/>
	<polygon fill="#FFFFFF" points="2402.563,451.718 2270.295,437.785 2260.396,531.764 2424.834,549.086 2430.631,494.057 
		2398.461,490.668 	"/>
	<path fill="#9EC8FF" d="M2384.632,485.859l-85.681-9.025c-1.963-0.207-3.4-1.982-3.193-3.946s1.982-3.399,3.945-3.192l85.681,9.025
		c1.964,0.207,3.4,1.982,3.194,3.945C2388.371,484.629,2386.596,486.066,2384.632,485.859z"/>
	<path fill="#9EC8FF" d="M2382.643,504.742l-85.68-9.026c-1.964-0.207-3.399-1.981-3.193-3.944c0.207-1.964,1.981-3.4,3.945-3.194
		l85.682,9.025c1.963,0.207,3.398,1.982,3.192,3.946C2386.382,503.511,2384.605,504.949,2382.643,504.742z"/>
	<path fill="#9EC8FF" d="M2380.566,524.455l-85.682-9.026c-1.963-0.207-3.399-1.981-3.193-3.944c0.207-1.963,1.982-3.4,3.945-3.194
		l85.682,9.026c1.963,0.207,3.399,1.981,3.192,3.945C2384.305,523.226,2382.529,524.662,2380.566,524.455z"/>
	<circle fill="#3E6BAB" cx="2330.684" cy="454.646" r="5.5"/>
</g>
<g id="updown">
	<g>
		<rect x="1244.448" y="718.775" fill="#9EC8FF" width="24.513" height="70.928"/>
		<rect x="1558.643" y="741.849" fill="#9EC8FF" width="24.514" height="47.854"/>
		<rect x="1348.333" y="623.75" fill="#9EC8FF" width="24.513" height="165.953"/>
		<rect x="1400.276" y="715.11" fill="#9EC8FF" width="24.513" height="74.593"/>
		<rect x="1452.219" y="693.996" fill="#9EC8FF" width="24.514" height="95.707"/>
		<rect x="1296.391" y="671.944" fill="#9EC8FF" width="24.514" height="117.758"/>
		<rect x="1504.336" y="644.664" fill="#9EC8FF" width="24.514" height="145.039"/>
	</g>
	<g>
		<circle fill="#9CD499" cx="3251.708" cy="367.768" r="61.348"/>
		<g>
			<path fill="#FFFFFF" d="M3245.619,388.766c-0.037,0-0.074,0-0.111-0.002c-0.823-0.031-1.597-0.398-2.141-1.016l-16.664-18.936
				c-1.095-1.244-0.974-3.14,0.271-4.234c1.243-1.095,3.14-0.974,4.232,0.27l14.573,16.561l33.339-32.629
				c1.185-1.159,3.084-1.139,4.242,0.046c1.159,1.184,1.139,3.083-0.045,4.242l-35.6,34.841
				C3247.156,388.46,3246.402,388.766,3245.619,388.766z"/>
		</g>
	</g>
	<g>
		<path fill="#9EC8FF" d="M3103.494,825.942h18.537c3.915,0,7.088-3.173,7.088-7.089v-15.266c0-3.915-3.174-7.088-7.088-7.088
			h-18.537c-3.915,0-7.088,3.173-7.088,7.088v15.266C3096.406,822.769,3099.579,825.942,3103.494,825.942z"/>
		<path fill="#9EC8FF" d="M3044.015,825.942h18.537c3.915,0,7.088-3.173,7.088-7.089v-15.266c0-3.915-3.173-7.088-7.088-7.088
			h-18.537c-3.915,0-7.089,3.173-7.089,7.088v15.266C3036.926,822.769,3040.1,825.942,3044.015,825.942z"/>
		<path fill="#9EC8FF" d="M2984.534,825.942h18.538c3.915,0,7.088-3.173,7.088-7.089v-15.266c0-3.915-3.174-7.088-7.088-7.088
			h-18.538c-3.914,0-7.088,3.173-7.088,7.088v15.266C2977.446,822.769,2980.62,825.942,2984.534,825.942z"/>
	</g>
</g>
<g id="translateX">
	<g id="object1">
		<g>
			<path fill="#9EC8FF" d="M487.521,937.268h353.699c9.066,0,16.483-7.417,16.483-16.482v-126.37
				c0-9.066-7.417-16.483-16.483-16.483H487.521c-9.065,0-16.483,7.417-16.483,16.483v126.37
				C471.039,929.851,478.456,937.268,487.521,937.268z"/>
			<path fill="#9EC8FF" d="M811.002,913.23v87.909L709.7,899.838C709.7,899.838,808.942,913.23,811.002,913.23z"/>
			<path fill="#FFFFFF" d="M505.013,921.472H823.73c7.686,0,13.975-6.289,13.975-13.975v-99.795c0-7.687-6.289-13.976-13.975-13.976
				H505.013c-7.686,0-13.975,6.289-13.975,13.976v99.795C491.039,915.184,497.327,921.472,505.013,921.472z"/>
			<path fill="#9EC8FF" d="M648.918,825.321h156.589c3.777,0,6.868-3.091,6.868-6.868s-3.091-6.868-6.868-6.868H648.918
				c-3.777,0-6.868,3.091-6.868,6.868S645.141,825.321,648.918,825.321z"/>
			<path fill="#9EC8FF" d="M518.125,851.58h290.433c2.101,0,3.818-1.718,3.818-3.818v-0.079c0-2.1-1.718-3.817-3.818-3.817H518.125
				c-2.1,0-3.818,1.718-3.818,3.817v0.079C514.307,849.861,516.025,851.58,518.125,851.58z"/>
			<path fill="#9EC8FF" d="M518.125,866.528h290.433c2.101,0,3.818-1.719,3.818-3.818v-0.079c0-2.1-1.718-3.817-3.818-3.817H518.125
				c-2.1,0-3.818,1.718-3.818,3.817v0.079C514.307,864.81,516.025,866.528,518.125,866.528z"/>
		</g>
	</g>
	<g id="object2">
		<g>
			<path fill="#9EC8FF" d="M1286.93,532.979H872.367c-4.512,0-8.17-3.657-8.17-8.169V346.414c0-4.512,3.658-8.17,8.17-8.17h414.563
				c4.512,0,8.169,3.658,8.169,8.17v178.395C1295.099,529.321,1291.441,532.979,1286.93,532.979z"/>
			<path fill="#FFFFFF" d="M1276.718,523.839H882.579c-3.646,0-6.601-2.955-6.601-6.6V396.006c0-3.645,2.955-6.6,6.601-6.6h394.139
				c3.646,0,6.601,2.955,6.601,6.6V517.24C1283.318,520.885,1280.363,523.839,1276.718,523.839z"/>
			<g>
				<path fill="#FFFFFF" d="M895.185,367.768h-9.564c-2.021,0-3.658-1.637-3.658-3.657v-7.878c0-2.02,1.638-3.657,3.658-3.657h9.564
					c2.021,0,3.658,1.637,3.658,3.657v7.878C898.842,366.13,897.205,367.768,895.185,367.768z"/>
				<path fill="#FFFFFF" d="M925.877,367.768h-9.566c-2.02,0-3.657-1.637-3.657-3.657v-7.878c0-2.02,1.638-3.657,3.657-3.657h9.566
					c2.021,0,3.657,1.637,3.657,3.657v7.878C929.535,366.13,927.896,367.768,925.877,367.768z"/>
				<path fill="#FFFFFF" d="M956.57,367.768h-9.566c-2.02,0-3.657-1.637-3.657-3.657v-7.878c0-2.02,1.638-3.657,3.657-3.657h9.566
					c2.02,0,3.658,1.637,3.658,3.657v7.878C960.229,366.13,958.59,367.768,956.57,367.768z"/>
			</g>
			<path fill="#9EC8FF" d="M1266.744,418.871h-215.461c-3.545,0-6.446-2.9-6.446-6.446c0-3.545,2.901-6.444,6.446-6.444h215.461
				c3.545,0,6.445,2.899,6.445,6.444C1273.189,415.971,1270.289,418.871,1266.744,418.871z"/>
			<path fill="#9EC8FF" d="M1104.688,518.315H889.226c-3.545,0-6.445-2.9-6.445-6.446c0-3.545,2.899-6.445,6.445-6.445h215.462
				c3.545,0,6.444,2.9,6.444,6.445C1111.132,515.415,1108.232,518.315,1104.688,518.315z"/>
			<path fill="#9EC8FF" d="M1144.378,518.315h-22.294c-1.212,0-2.204-0.992-2.204-2.204v-8.483c0-1.212,0.992-2.204,2.204-2.204
				h22.294c1.212,0,2.204,0.992,2.204,2.204v8.483C1146.583,517.323,1145.591,518.315,1144.378,518.315z"/>
			<path fill="#9EC8FF" d="M1177.987,518.315h-22.294c-1.212,0-2.204-0.992-2.204-2.204v-8.483c0-1.212,0.992-2.204,2.204-2.204
				h22.294c1.212,0,2.204,0.992,2.204,2.204v8.483C1180.191,517.323,1179.199,518.315,1177.987,518.315z"/>
			<path fill="#9EC8FF" d="M1268.814,446.955h-356.8c-2.405,0-4.374-1.968-4.374-4.374s1.969-4.374,4.374-4.374h356.802
				c2.405,0,4.374,1.968,4.374,4.374C1273.189,444.986,1271.221,446.955,1268.814,446.955z"/>
			<path fill="#9EC8FF" d="M1268.814,465.831h-356.8c-2.405,0-4.374-1.968-4.374-4.374s1.969-4.374,4.374-4.374h356.802
				c2.405,0,4.374,1.968,4.374,4.374C1273.189,463.862,1271.221,465.831,1268.814,465.831z"/>
		</g>
	</g>
</g>
<g id="rotate1">
	<g>
		<g>
			<defs>
				<path id="SVGID_1_" d="M462.563,363.188c-78.555,0-142.235,63.681-142.235,142.236s63.681,142.237,142.235,142.237
					c78.556,0,142.237-63.683,142.237-142.237S541.119,363.188,462.563,363.188z M462.563,580.773
					c-41.613,0-75.349-33.735-75.349-75.35s33.735-75.349,75.349-75.349c41.614,0,75.35,33.734,75.35,75.349
					S504.178,580.773,462.563,580.773z"/>
			</defs>
			<clipPath id="SVGID_2_">
				<use xlink:href="#SVGID_1_"  overflow="visible"/>
			</clipPath>
			<path clip-path="url(#SVGID_2_)" fill="#A2DFF2" d="M591.118,584.036l-128.554-78.612L439.31,654.307
				C499.702,663.826,559.596,635.53,591.118,584.036z"/>
		</g>
		<g>
			<defs>
				<path id="SVGID_3_" d="M462.563,363.188c-78.555,0-142.235,63.681-142.235,142.236s63.681,142.237,142.235,142.237
					c78.556,0,142.237-63.683,142.237-142.237S541.119,363.188,462.563,363.188z M462.563,580.773
					c-41.613,0-75.349-33.735-75.349-75.35s33.735-75.349,75.349-75.349c41.614,0,75.35,33.734,75.35,75.349
					S504.178,580.773,462.563,580.773z"/>
			</defs>
			<clipPath id="SVGID_4_">
				<use xlink:href="#SVGID_3_"  overflow="visible"/>
			</clipPath>
			<path clip-path="url(#SVGID_4_)" fill="#9CD499" d="M591.253,583.859c0.346-0.567,0.799-1.349,0.781-1.318
				c27.15-45.481,28.248-101.968,3.337-148.335c-45.492,23.834-18.401,9.354-132.809,71.218
				C591.33,584.166,571.332,572.023,591.253,583.859z"/>
		</g>
		<g>
			<defs>
				<path id="SVGID_5_" d="M462.563,363.188c-78.555,0-142.235,63.681-142.235,142.236s63.681,142.237,142.235,142.237
					c78.556,0,142.237-63.683,142.237-142.237S541.119,363.188,462.563,363.188z M462.563,580.773
					c-41.613,0-75.349-33.735-75.349-75.35s33.735-75.349,75.349-75.349c41.614,0,75.35,33.734,75.35,75.349
					S504.178,580.773,462.563,580.773z"/>
			</defs>
			<clipPath id="SVGID_6_">
				<use xlink:href="#SVGID_5_"  overflow="visible"/>
			</clipPath>
			<path clip-path="url(#SVGID_6_)" fill="#9EC8FF" d="M321.248,453.353l141.314,52.071l132.566-71.683
				C533.12,319.065,366.208,332.818,321.248,453.353z"/>
		</g>
		<g>
			<defs>
				<path id="SVGID_7_" d="M462.563,363.188c-78.555,0-142.235,63.681-142.235,142.236s63.681,142.237,142.235,142.237
					c78.556,0,142.237-63.683,142.237-142.237S541.119,363.188,462.563,363.188z M462.563,580.773
					c-41.613,0-75.349-33.735-75.349-75.35s33.735-75.349,75.349-75.349c41.614,0,75.35,33.734,75.35,75.349
					S504.178,580.773,462.563,580.773z"/>
			</defs>
			<clipPath id="SVGID_8_">
				<use xlink:href="#SVGID_7_"  overflow="visible"/>
			</clipPath>
			<path clip-path="url(#SVGID_8_)" fill="#F39892" d="M439.31,654.307l23.253-148.883l-141.314-52.07
				C287.644,543.445,347.288,639.8,439.31,654.307z"/>
		</g>
		<g>
			<defs>
				<path id="SVGID_9_" d="M462.563,363.188c-78.555,0-142.235,63.681-142.235,142.236s63.681,142.237,142.235,142.237
					c78.556,0,142.237-63.683,142.237-142.237S541.119,363.188,462.563,363.188z M462.563,580.773
					c-41.613,0-75.349-33.735-75.349-75.35s33.735-75.349,75.349-75.349c41.614,0,75.35,33.734,75.35,75.349
					S504.178,580.773,462.563,580.773z"/>
			</defs>
			<clipPath id="SVGID_10_">
				<use xlink:href="#SVGID_9_"  overflow="visible"/>
			</clipPath>
			<path clip-path="url(#SVGID_10_)" fill="#FFFFFF" d="M312,478c2.632,0,5.05,0.674,7.142,1.848
				c1.223-6.751,2.924-13.451,5.132-20.052l76.732,28.274c-0.001-0.024-0.005-0.047-0.006-0.07c-0.157-3.499,1.161-6.77,3.335-9.36
				l-7.683-2.831l-68.888-25.383c5.652-13.758,13.169-26.271,22.195-37.326c-3.249-1.189-5.907-3.492-7.66-6.432
				c-9.744,11.924-17.845,25.436-23.912,40.302l-0.083-0.03l-1.739,4.666l-1.755,4.703l0.083,0.031
				c-2.431,7.22-4.294,14.554-5.621,21.943C310.168,478.103,311.081,478,312,478z"/>
		</g>
		<g>
			<defs>
				<path id="SVGID_11_" d="M462.563,363.188c-78.555,0-142.235,63.681-142.235,142.236s63.681,142.237,142.235,142.237
					c78.556,0,142.237-63.683,142.237-142.237S541.119,363.188,462.563,363.188z M462.563,580.773
					c-41.613,0-75.349-33.735-75.349-75.35s33.735-75.349,75.349-75.349c41.614,0,75.35,33.734,75.35,75.349
					S504.178,580.773,462.563,580.773z"/>
			</defs>
			<clipPath id="SVGID_12_">
				<use xlink:href="#SVGID_11_"  overflow="visible"/>
			</clipPath>
			<path clip-path="url(#SVGID_12_)" fill="#E7F3FE" d="M601.823,435.806l0.083-0.044l-2.378-4.397
				c-0.048-0.089-0.102-0.175-0.149-0.265l-1.943-3.618l-0.075,0.038c-15-26.063-36.39-46.848-62.114-60.25
				c-25.192-13.125-53.832-18.999-82.834-16.983c-34.1,2.368-65.166,15.151-89.843,35.83c2.898,1.764,5.122,4.504,6.354,7.742
				c23.115-19.389,52.226-31.377,84.182-33.597c55.772-3.877,107.108,23.423,135.177,71.499l-39.152,21.171
				c-8.083,4.35-19.383,10.463-38.301,20.7c-12.12,6.559-27.371,14.811-46.904,25.373l-1.208,0.653l-3.937-2.408l-0.214,1.373
				l-27.572-10.16c0.027,3.507-1.403,6.76-3.688,9.299l29.686,10.938l-21.835,139.804c-41.238-7.958-76.921-33.318-98.452-70.176
				c-12.869-22.029-19.542-46.535-19.844-71.216c-1.561,0.563-3.2,0.889-4.86,0.889c-1.832,0-3.551-0.343-5.138-0.937
				c0.29,26.446,7.421,52.709,21.208,76.309c23.054,39.464,61.324,66.583,105.543,75.011l-0.014,0.086l4.927,0.776
				c0.005,0.001,4.952,0.78,4.952,0.78l0.013-0.086c6.396,0.799,12.804,1.202,19.197,1.202c22.483,0,44.754-4.916,65.462-14.558
				c26.513-12.344,48.785-31.643,64.696-55.963l0.102,0.06l0.979-1.604c0.025,0.013,1.596-2.614,1.596-2.614
				c0.243-0.399,0.538-0.897,0.703-1.183l0.105-0.176c0.027-0.046,0.051-0.092,0.078-0.137l1.585-2.59l-0.072-0.044
				C623.468,537.431,624.924,481.984,601.823,435.806z M445.034,650.063L466.347,513.6l55.466,33.924
				c22.362,13.679,35.155,21.503,43.209,26.416l19.148,11.709C553.626,631.973,499.958,656.816,445.034,650.063z M589.48,576.989
				c-0.003,0.004-0.953-0.561-0.953-0.561c-5.252-3.11-7.535-4.463-18.002-10.847l-97.942-59.893l81.305-43.965
				c11.939-6.424,16.833-8.982,28.959-15.322c2.962-1.549,6.355-3.323,10.386-5.434C614.422,483.901,613.036,535.269,589.48,576.989
				z"/>
		</g>
	</g>
</g>
<g id="main">
	<g>
		<path opacity="0.8" fill="#CCE2FF" enable-background="new    " d="M3576.66,2133.686
			c-258.106-12.616-1136.143,8.759-1403.18,17.094c-267.037,8.334-577.008-10.996-738.021-39.421
			c-161.013-28.425-1091.726,2.42-1049.491,78.842c42.235,76.422,414.674,34.187,837.028,64.903
			c422.354,30.716,1372.236-3.84,1586.5,0c214.264,3.839,410.741-7.68,686.861-23.038S3726.271,2140.999,3576.66,2133.686z"/>
		<g>
			<g>
				<path fill="#303C60" d="M2390.871,645.345c69.334-66,187.834-64.5,185.334,36s5.801,109.945,34.333,162.667
					c99,182.934-118,172.167-208.5,178.167s-83-164.5-67-259S2370.584,664.657,2390.871,645.345z"/>
				<path fill="#4476BD" d="M2423.191,1221.577c-22.229,186.672-62.618,324.665-67.118,413.161
					c-4.499,88.495-22.499,436.938-22.499,436.938s49.498-3.461,53.998-10.961s92.995-203.989,88.495-325.483
					c-4.499-121.493,88.388-306.226,88.388-306.226l-22.391-181.25L2423.191,1221.577z"/>
				<path fill="#3E6BAB" d="M2444.538,1302.845l-34.763,14.546c-9.449,59.193-19.934,112.414-29.139,159.617
					c55.321,35.767,83.896,154.92,96.143,227.769c6.237-81.515,44.698-180.013,68.563-234.48L2444.538,1302.845z"/>
				<path fill="#4476BD" d="M2605.063,1202.759c0,0,74.922,95.566,72.571,203.99c-3.575,165.05-21.575,212.171,9.742,385.231
					c12.231,67.593-26.996,288.696-26.996,288.696s-33.514,2.627-51.513-6.335c1.5-16.245-21.656-280.52-66.762-402.007
					c-21.843-58.828-52.539-223.589-69.039-318.084c-16.498-94.495-19.498-113.994-13.498-113.994
					S2605.063,1202.759,2605.063,1202.759z"/>
				<path fill="#F09959" d="M2178.205,937.345c0,0,3.333-49.452-2-64.726c-5.334-15.274-51.334-28.607-51.334-28.607
					s-2,70.667,2.667,79.333s32,33.333,32,33.333L2178.205,937.345z"/>
				<path fill="#A2DFF2" d="M2436.864,901.313c-105.326,113.365-139.7,161.068-147.7,161.068
					c-25-44.13-108.039-137.465-108.039-137.465l-35.406,22.762c0,0,81.819,213.774,133.819,215.981s157.694-73.719,159.035-82.439
					C2439.914,1072.5,2436.864,901.313,2436.864,901.313z"/>
				<path fill="#96CFE0" d="M2327.015,1152.575c51.522-20.977,110.56-64.853,111.56-71.355c1.341-8.72-1.709-179.907-1.709-179.907
					c-22.963,24.716-43.008,46.635-60.403,65.805C2357.594,1037.383,2358.825,1113.892,2327.015,1152.575z"/>
				<path fill="#A2DFF2" d="M2543.871,826.678c0,0,100.786,50.521,122.786,139.948s-43.097,199.91-51.097,258.871
					s-191.99,69.332-191.99,6.219c0-60.504-46.101-188.938-43.498-221.651c6.104-76.761,118.313-170.793,118.313-170.793
					L2543.871,826.678z"/>
				<path fill="#F09959" d="M2514.582,710.826l43.271,133.429c0,0-46.2,35.654-125.271,121.423
					c3.07-57.075,50.886-119.291,50.886-119.291l-32.73-126L2514.582,710.826z"/>
				<path fill="#E38540" d="M2534.765,773.063l-20.183-62.235l-63.846,9.561l32.73,126c0,0-3.194,5.094-7.905,13.102
					C2506.395,836.601,2525.311,808.118,2534.765,773.063z"/>
				<path fill="#F09959" d="M2490.74,740.942c-11.67,42.461-56.863,65.836-88.977,57.01s-38.983-46.511-27.313-88.972
					s47.164-69.729,79.275-60.901C2485.84,656.904,2502.411,698.48,2490.74,740.942z"/>
				<path fill="#A2DFF2" d="M2415.525,1171.893c14.013,88.785-38.013,278.738-38.013,278.738s31.024,7.047,124.024-1.953
					s134-101.816,148-104.408s21.19,86.379,28.096,93.408c6.904,7.031,7.956-112.353-10.096-159.283
					c-32-83.194-25.734-118.482-13.773-168.889C2675.031,1019.881,2415.525,1171.893,2415.525,1171.893z"/>
				<path fill="#4476BD" d="M2335.831,2027.979c8.374,34.033-8.159,61.024-30.293,80.699c-18,16-73.333,22.799-70.667,30.799
					c2.667,8,68,10.535,90,7.201c22-3.333,28-14,55.384-13.986c17.95,0.011,21.283-14.592,13.283-32.636
					s-10.798-28.021-3.568-44.196C2397.199,2039.686,2335.831,2027.979,2335.831,2027.979z"/>
				<path fill="#4476BD" d="M2662.307,2027.979c-1.334,35.332-5.436,61.655,3.231,78.033c33.473,28,61.295,59.805,50.667,62
					c-50.667,10.465-70-19.904-98.667-28.535c-35.181-10.592,3.333-54.799-10.45-111.498c-7.663-31.523,53.117-23.967,53.117-23.967
					L2662.307,2027.979z"/>
				<path fill="#96CFE0" d="M2675.1,1307.355c-2.021-11.076-4.519-21.052-7.562-28.963c-32-83.193-25.733-118.481-13.772-168.888
					c0.941-3.974,1.322-7.463,1.209-10.521c2.699-8.988,5.215-18.099,7.425-27.264l-10.86-98.043l-78.311-93
					c-58.689,86-19.082,193-27.887,252c-8.804,59-107.145,134.229-107.145,134.229l3.199,20.933
					c4.39,28.716,31.01,48.66,59.782,44.668c40.53-5.624,93.698-16.927,117.358-38.882
					C2641.436,1272.379,2661.708,1288.818,2675.1,1307.355z"/>
				<path fill="#F09959" d="M2461.194,1263.53c0,0-43.414,12.146-48.604,14.862c-5.189,2.718-8.06,17.065-8.06,17.065
					s-24.85,21.577-15.33,29.219c9.52,7.643,26.52,26.985,48.996,17.985c13.796-5.524,24.487-56.214,33.534-56.62
					S2461.194,1263.53,2461.194,1263.53z"/>
				<path fill="#A2DFF2" d="M2584.138,869.345c46.464,1.316,88.588,84.998,103.271,157.601
					c14.682,72.601,30.131,175.814,30.131,175.814s-77,60.771-153.083,78.532c-66.37,15.494-100.254,21.554-100.254,21.554
					l-13.465-37.892l158.802-93.275c0,0-58.393-110-64.196-193C2539.538,895.678,2548.827,868.345,2584.138,869.345z"/>
				
					<rect x="2027.65" y="838.346" transform="matrix(-0.9805 0.1967 -0.1967 -0.9805 4304.9473 1324.1616)" fill="#F5DC95" width="118.134" height="75.025"/>
				<path fill="#F09959" d="M2150.346,931.345c1.6-30.423-13.475-71.916-22.141-71.855c-8.667,0.06,2.666,27.189-2,45.189
					C2123.676,914.432,2150.346,931.345,2150.346,931.345z"/>
				<path fill="#303C60" d="M2382.965,661.345c2.573,83.333,99.906,76.945,126.573,71.807
					c26.667-5.14-32.464,175.809,18.333,186.249c37.302,7.667,28.898-50.683,70.334-46.781
					c18.333,1.726,36.758,30.063,36.758,30.063s-2.758-17.458-16.758-30.063c-14-12.607-50.704-89.94-60.354-145.274
					c-9.646-55.333-74.98-91.123-94.313-92.228c-19.333-1.105-66.667,20.895-66.667,20.895L2382.965,661.345z"/>
				<g>
					<path fill="#303C60" d="M2527.01,938.261c-1.314,0-2.649-0.139-4.013-0.429c-16.258-3.461-24.142-20.547-24.812-53.771
						c-0.573-28.479,4.135-65.026,9.117-103.722c2.016-15.635,4.098-31.802,5.813-47.455c0.146-1.337,1.338-2.306,2.688-2.156
						c1.337,0.146,2.304,1.351,2.156,2.688c-1.721,15.699-3.807,31.889-5.823,47.546c-9.644,74.868-18.753,145.583,11.874,152.104
						c0.953,0.202,1.903,0.301,2.847,0.302c17.591,0.002,33.432-34.282,42.666-67.673c0.357-1.297,1.698-2.059,2.998-1.699
						c1.297,0.359,2.058,1.701,1.697,2.998C2568.124,889.032,2551.729,938.255,2527.01,938.261z"/>
				</g>
				<g>
					<path fill="#303C60" d="M2520.502,957.63c-5.54,0-10.372-2.146-14.398-6.401c-33.18-35.074-0.371-211.057,1.041-218.53
						c0.25-1.322,1.53-2.189,2.847-1.941c1.321,0.25,2.19,1.524,1.94,2.847c-0.341,1.807-33.771,180.997-2.289,214.276
						c3.659,3.868,7.994,5.412,13.243,4.716c17.231-2.274,27.179-25.652,35.954-46.278c8.514-20.009,16.518-38.905,30.784-38.407
						c1.345,0.047,2.396,1.175,2.349,2.52c-0.046,1.346-1.176,2.427-2.521,2.35c-0.117-0.004-0.235-0.006-0.353-0.006
						c-10.693,0-18.021,17.226-25.777,35.45c-9.285,21.825-19.811,46.563-39.799,49.202
						C2522.495,957.563,2521.487,957.63,2520.502,957.63z"/>
				</g>
				
					<ellipse transform="matrix(0.613 -0.7901 0.7901 0.613 383.3843 2262.9536)" fill="#F09959" cx="2501.683" cy="740.124" rx="20.259" ry="14.665"/>
			</g>
			<g>
				<path fill="#303C60" d="M1756.877,1057.744c23.763,47.518,4.093,102.236-42.645,121.568
					c-47.043,19.461-98.481,8.407-122.244-39.109c-23.764-47.518-6.115-104.497,39.418-127.268
					C1676.938,990.166,1733.115,1010.227,1756.877,1057.744z"/>
				<g>
					<path fill="#303C60" d="M1628.783,1185.02c-5.246,0.002-15.583-1.854-28.727-13.516c-10.782-9.566-18.524-24.236-21.801-41.305
						c-4.134-21.545-1.441-46.313,8.002-73.616c0.439-1.272,1.824-1.946,3.1-1.507c1.271,0.439,1.945,1.827,1.507,3.099
						c-9.161,26.487-11.793,50.41-7.821,71.106c3.073,16.02,10.265,29.72,20.249,38.578c16.665,14.787,27.842,12.096,27.955,12.066
						c1.291-0.338,2.628,0.428,2.979,1.714c0.352,1.288-0.388,2.615-1.672,2.98
						C1632.388,1184.668,1631.067,1185.02,1628.783,1185.02z"/>
				</g>
				<g>
					<path fill="#A8CEFF" d="M1701.45,1242.649c27.045,6.061,61.188,81.213,77.909,129.355
						c16.864,48.563,45.453,108.802,64.17,127.52c18.716,18.716,141.709,62.108,141.709,62.108s-303.892,0.587-297.665-0.013
						C1693.798,1561.021,1701.45,1242.649,1701.45,1242.649z"/>
					<path fill="#93BBF0" d="M1862.784,1537.49c-16.638-2.377-76.651,5.348-51.101-5.349c25.551-10.694,21.984-24.361,21.984-24.361
						s-36.246,30.304-42.782,3.805c-5.636-22.849-7.792-103.52-29.183-184.376c-17.673-40.091-40.799-80.2-60.253-84.56
						c0,0-0.685,28.467-1.811,68.386c7.462,88.338,20.13,218.119,23.343,250.83c40.278,0.063,107.691,0.001,164.089-0.074
						l37.508-1.788C1924.58,1560.003,1879.421,1539.867,1862.784,1537.49z"/>
					<path fill="#A8CEFF" d="M1602.021,1225.996c0,0-86.027,48.068-106.082,58.292c-20.053,10.223,56.184,310.271,73.137,323.13
						c16.954,12.858,166.221,2.214,183.215-13.988s-13.04-65.922,1.666-165.474c14.706-99.551-44.856-185.499-52.508-185.306
						c-7.652,0.193-57.592-16.654-57.592-16.654H1602.021L1602.021,1225.996z"/>
					<path fill="#93BBF0" d="M1569.076,1607.417c16.954,12.858,123.767,13.147,169.232-1c5.132-1.597,28.431-10.881,28.976-19.608
						c-5.486-1.03-27.272,1.588-36.116-0.444c-30.75-7.066-47.685-45.158-47.685-45.158s-16.936-6.092-54.814-22.135
						c-37.88-16.044-22.282-64.619-23.174-86.011c-0.891-21.392-37.435-91.357-106.063-144.391l-6.296,2.819
						C1488.24,1340.253,1553.391,1595.521,1569.076,1607.417z"/>
					<g>
						<path fill="#75A1DE" d="M2160.112,1372.006h-207.146l-94.343,200.768h228.171l85.4-181.735
							C2176.357,1382.182,2169.896,1372.006,2160.112,1372.006z"/>
						<g>
							<path fill="#3E6BAB" d="M1870.968,1575.621h-124.646c-7.732,0-14-6.268-14-14s6.268-14,14-14h115.714l78.235-168.376
								c3.259-7.012,11.584-10.052,18.596-6.797c7.012,3.258,10.055,11.584,6.797,18.596l-81.999,176.478
								C1881.368,1572.461,1876.416,1575.621,1870.968,1575.621z"/>
						</g>
					</g>
					<path fill="#F09959" d="M1654.814,1532.736c54.071,10.102,67.369,22.516,96.845,27.267
						c33.415,5.386,29.439,12.771,4.624,12.771c-24.817,0-87.181,0.964-108.585-3.791
						C1626.293,1564.229,1654.814,1532.736,1654.814,1532.736z"/>
					<path fill="#A8CEFF" d="M1489.182,1289.918c-41.442,132.502-100.191,282.854-90.834,282.854
						c9.358,0,247.319,9.619,256.68,1.607c9.359-8.012,6.686-38.76,5.349-42.771c-1.337-4.012-135.285-27.782-135.285-27.782
						s17.64-34.375,24.324-101.557S1497.042,1264.79,1489.182,1289.918z"/>
				</g>
				<path fill="#F09959" d="M1633.528,1110.857l-33.384,121.989c0,0,56.409,88.051,71.918,80.229
					c15.51-7.822-8.669-71.567-8.669-80.229s24.179-98.036,24.179-98.036L1633.528,1110.857z"/>
				<path fill="#E38540" d="M1664.553,1239.064c-0.719-2.886-1.159-5.053-1.159-6.218c0-8.661,24.179-98.036,24.179-98.036
					l-54.044-23.953l-11.048,40.367C1632.13,1192.927,1649.539,1220.701,1664.553,1239.064z"/>
				<path fill="#F09959" d="M1758.439,1108.84c6.358,35.375,2.17,82.357-29.243,94.302c-31.413,11.945-69.251-10.907-84.515-51.044
					c-15.263-40.137-2.17-82.356,29.243-94.303C1705.338,1045.85,1750.842,1066.577,1758.439,1108.84z"/>
				
					<ellipse transform="matrix(-0.3354 -0.9421 0.9421 -0.3354 1115.3553 3056.1211)" fill="#F09959" cx="1635.657" cy="1134.644" rx="23.768" ry="17.529"/>
				<path fill="#303C60" d="M1758.806,1064.399c-10.694,83.011-111.549,72.315-111.549,72.315s-20.801-27.345-30.16-13.004
					c-9.357,14.341,12.982-84.158,70.854-87.262C1706.966,1035.429,1758.806,1064.399,1758.806,1064.399z"/>
				<ellipse fill="#303C60" cx="1601.675" cy="1029.303" rx="54.625" ry="51.25"/>
			</g>
			<g>
				<g>
					<polygon fill="#2E5B9A" points="1492.874,2175.938 1505.365,2175.938 1586.021,1802.233 1558.542,1802.233 					"/>
					<polygon fill="#2E5B9A" points="1881.218,2175.938 1868.729,2175.938 1774.858,1789.021 1802.338,1789.021 					"/>
					<g>
						<path fill="#2E5B9A" d="M1635.39,1816.232c-50.036,0-81.735-8.987-101.966-28.693c-25.077-24.43-30.266-62.27-30.341-111.571
							c-0.06-38.802-0.981-64.071-3.086-84.498c-0.792-7.689,4.802-14.567,12.493-15.359c7.691-0.794,14.568,4.802,15.359,12.493
							c2.204,21.412,3.172,47.527,3.232,87.321c0.076,49.968,6.415,76.493,21.879,91.559c15.863,15.452,44.548,21.829,92.979,20.614
							c46.771-1.153,78.965-7.696,104.833-12.955c34.022-6.913,58.605-11.911,87.758,2.02c6.977,3.334,9.93,11.691,6.596,18.668
							s-11.691,9.931-18.668,6.596c-20.692-9.887-38.244-6.317-70.108,0.156c-26.945,5.477-60.479,12.293-109.719,13.509
							C1642.787,1816.186,1639.037,1816.232,1635.39,1816.232z"/>
					</g>
				</g>
				<path fill="#2E5B9A" d="M1521.714,1574.38l76.591,3.188l-20.39,211.467c0,0-57.092-36.443-56.201-75.66
					C1522.605,1674.155,1521.714,1574.38,1521.714,1574.38z"/>
				<path fill="#F09959" d="M1899.807,1594.079c64.767-9.825,86.775-6.729,126.41,67.036
					c39.635,73.765,92.396,206.578,122.737,223.731c45.688,25.831,60.829,89.167,79.587,86.32
					c18.76-2.846,30.834,5.444,10.422,22.411c-20.414,16.966-53.379,31.412-64.652,28.399
					c-11.274-3.013-20.016-51.717-49.459-67.531c-29.441-15.816-20.596-28.808-18.662-42.796
					c1.936-13.989-85.942-78.396-152.185-158.494c-40.476-48.944-61.321-81.25-64.41-110.529
					C1886.504,1613.35,1899.807,1594.079,1899.807,1594.079z"/>
				<path fill="#E38540" d="M2060.361,1861.557c-15.042-38.157-30.127-101.139-44.31-158.879
					c-20.169-82.113-41.308-101.607-54.7-110.368c-16.191-4.058-35.377-2.199-61.545,1.771c0,0-13.303,19.271-10.213,48.549
					c3.09,29.279,23.935,61.585,64.41,110.529C1988.883,1795.332,2029.754,1833.151,2060.361,1861.557L2060.361,1861.557z"/>
				<path fill="#2E5B9A" d="M1919.532,1659.004c0,0-17.234,130.02-33.277,143.232c-11.476,9.453-19.608,10.082-27.63-28.695
					s12.479-183.507,12.479-183.507L1919.532,1659.004z"/>
				<polygon fill="#F09959" points="1905.801,1729.358 1746.321,1756.155 1836.357,1627.055 1904.881,1613.102 1945.971,1622.551 
									"/>
				<path fill="#2E5B9A" d="M2106.189,1911.651c-5.17,20.837-4.548,36.237,4.437,43.954c8.983,7.718,42.927,65.071,42.927,65.071
					l10.574-1.604l-24.482-52.479L2106.189,1911.651z"/>
				<path fill="#2E5B9A" d="M2174.311,2021.979c11.273,3.013,44.238-11.435,64.652-28.399c20.412-16.966,8.338-25.257-10.421-22.411
					c-1.057,0.161-2.104,0.095-3.145-0.155c-9.37,20.931-40.187,36.63-50.132,14.52c-9.854-21.908-52.08-65.52-69.09-74.854
					c0.04,0.345,0.055,0.674,0.014,0.974c-1.935,13.987-10.78,26.979,18.662,42.796
					C2154.295,1970.263,2163.035,2018.967,2174.311,2021.979z"/>
				<path fill="#E38540" d="M1574.301,1599.287c-56.583,101.54-17.932,166.077,50.838,172.652
					c68.771,6.574,177.334-5.98,240.616-58.566c63.282-52.587,115.229-108.19,107.974-116.486
					C1966.472,1588.591,1574.301,1599.287,1574.301,1599.287z"/>
				<path fill="#F09959" d="M1895.167,1675.047c11.587-34.761,24.943-61.429,50.804-61.913c27.188-0.509,43.914,13.64,45.076,58.121
					c1.383,52.966,3.249,228.39,0.803,306.388c-1.852,59.043,15.356,77.95,13.903,139.502c-1.095,46.355,48.327,22.939,29.237,46.98
					c-13.128,16.533-52.208,11.127-76.213,8.074c-21.389-2.721,11.071-66.818-18.531-83.957
					c-25.401-14.705-25.899-38.582-9.856-56.655c16.043-18.074,1.783-71.552-8.913-108.986
					c-10.694-37.435-27.284-77.935-38.18-166.444C1880.189,1730.922,1888.091,1696.277,1895.167,1675.047z"/>
				<path fill="#2E5B9A" d="M2018.076,2145.204c-8.188,2.499-18.282,5.251-27.078,5.545c-17.826,0.594-23.174-19.015-24.362-45.652
					c-1.038-23.259-17.931-59.885-35.253-74.735c-0.318,0.423-0.646,0.836-0.993,1.227c-16.043,18.073-15.545,41.95,9.856,56.655
					c29.603,17.139-2.856,81.237,18.531,83.957c24.005,3.053,63.084,8.459,76.213-8.074
					C2047.396,2148.502,2031.998,2147.26,2018.076,2145.204z"/>
				<path fill="#2E5B9A" d="M1934.4,2024.963c0,0-25.995,27.148-23.618,38.438c2.376,11.29,10.393,39.812,11.731,61.797
					c1.34,21.985,2.528,47.222,2.528,47.222s9.357,0,10.101-2.656c0.744-2.656,5.942-89.361,5.942-89.361L1934.4,2024.963z"/>
				<path fill="#75A1DE" d="M1547.05,1590.034c0,0-33.562,142.43,8.841,181.905c42.403,39.475,218.479,3.967,259.951,1.602
					c28.076-1.602,55.26,32.666,55.26,32.666s-19.607-79.465-6.238-143.639c13.37-64.173,34.943-68.489,34.943-68.489l-28.705-4.045
					H1547.05z"/>
				<path fill="#A8CEFF" d="M1539.448,1552.795c14.353,30.448-15.448,83.035-5.004,98.188c10.443,15.15,70.233,2.122,109.415-29.413
					c39.18-31.535,113.336-38.469,113.336-38.469L1539.448,1552.795z"/>
				<path fill="#2E5B9A" d="M1600.146,1812.307c118.545,4.456,243.326,2.353,243.326-15.313c0-17.664-5.348-30.143-97.15-23.014
					c-91.805,7.132-154.194,16.937-181.825,10.696C1536.866,1778.438,1600.146,1812.307,1600.146,1812.307z"/>
			</g>
			<path fill="#2E5B9A" d="M2864.287,1605.045H1194.074c-7.13,0-12.91-5.78-12.91-12.91v-6.453c0-7.129,5.78-12.908,12.91-12.908
				h1670.213c7.13,0,12.91,5.779,12.91,12.908v6.453C2877.197,1599.265,2871.417,1605.045,2864.287,1605.045z"/>
			<g>
				<path fill="#F09959" d="M3086.216,1140.271c11.485,40.487-16.563,82.209-47.462,90.976
					c-30.897,8.765-52.945-18.747-64.432-59.235c-11.484-40.488,4.253-80.415,35.15-89.18
					C3040.371,1074.066,3074.73,1099.784,3086.216,1140.271z"/>
				<path fill="#F09959" d="M2912.979,1924.823c0,0,79.188,122.991,89.885,128.34c10.695,5.349,37.433,6.685,27.406,26.737
					c-10.027,20.054-14.037,98.93-23.396,102.939s-89.571,13.368-77.539,0c12.032-13.369,19.434-6.685,25.503-30.749
					c6.07-24.063,14.603-69.518,3.239-78.875c-11.362-9.357-80.88-93.582-80.88-93.582L2912.979,1924.823z"/>
				<path fill="#F09959" d="M2514.421,1977.643c0,0-96.26,158.65-114.086,172.911s-76.651,35.651-28.521,39.218
					c48.129,3.565,71.304-16.043,101.606-24.957c30.303-8.912,67.739-14.261,53.479-37.435
					c-14.261-23.174-8.338-73.764,22.404-105.851C2580.047,1989.443,2514.421,1977.643,2514.421,1977.643z"/>
				<path fill="#6791C9" d="M3005.648,1609.751c0,0-238.291-6.231-332.77,71.304c-55.26,83.781-188.945,330.983-199.336,358.226
					c7.131,7.131,47.239,19.995,65.064,18.214c52.586-62.702,122.094-116.91,149.737-166.094
					c34.066-60.607,44.564-90.911,99.825-96.26c55.261-5.348,180.042-23.174,217.477-23.174
					C3043.082,1771.967,3005.648,1609.751,3005.648,1609.751z"/>
				<polygon fill="#2E5B9A" points="3213.448,2190.199 3200.957,2190.199 3111.387,1816.494 3138.866,1816.494 				"/>
				<polygon fill="#2E5B9A" points="2839.273,2190.199 2851.766,2190.199 2954.548,1803.283 2927.068,1803.283 				"/>
				<path fill="#75A1DE" d="M3141.404,1593.429l-138.541,23.912c0,0-184.104,1.691-268.258,17.366
					c-76.563,14.261-87.846,101.253,0,221.042c49.899,68.047,92.093,122.327,178.373,183.53
					c21.946-16.114,30.346-22.21,36.409-60.981c-6.245-8.562-22.409-62.149-27.426-72.637
					c-47.724-99.76-111.423-136.037-112.307-145.854c10.694-17.379,283.3,90.593,337.502,27.078
					C3198.906,1726.249,3141.404,1593.429,3141.404,1593.429z"/>
				<path fill="#F37168" d="M3147.158,1279.785c-36.488-5.122-73.649,1.813-108.404,26.976
					c-30.37,30.957-64.732,82.009-62.628,166.223c2.674,106.949-16.55,113.817,3.503,143.229
					c83.637,34.538,226.684,182.933,192.997,23.843c-24.392-115.192,53.496-201.057-9.337-328.835
					C3158.175,1300.821,3151.784,1290.734,3147.158,1279.785z"/>
				<path fill="#D54A41" d="M2976.104,1513.23c-1.627,55.756-9.5,72.183-3.479,89.661c34.097,3.481,96.468,17.125,112.054,38.945
					c17.825,24.956,35.651,28.521,27.333,10.101c-8.317-18.42-30.304-44.563,3.565-134.287
					c33.869-89.726,49.913-150.332,16.638-212.724L2976.104,1513.23z"/>
				<path fill="#F09959" d="M3147.158,1279.785c-22.469-53.188-27.986-112.948-27.986-112.948l-58.822,17.379
					c0,0,33.422,74.865,1.336,101.604c-6.82,5.685-14.73,12.583-22.932,20.94C3073.509,1281.6,3110.67,1274.663,3147.158,1279.785z"
					/>
				<path fill="#E38540" d="M3120.944,1181.001c-3.484-3.1-7.845-6.97-12.425-11.017l-47.979,14.176
					c-0.034,0.086-0.067,0.173-0.103,0.26c1.159,2.652,13.379,31.167,14.989,58.6c14.3-8.676,29.953-22.819,47.853-47.526
					C3122.309,1190.011,3121.541,1185.122,3120.944,1181.001z"/>
				<path fill="#F09959" d="M3105.803,1296.514c-60.586,21.189-53.865,85.015-109.623,179.144
					c-28.856,48.713-55.656,47.987-55.656,47.987s-67.678,0.543-149.532-9.467c-51.257-6.268-54.513,8.992-18.861,21.737
					c71.897,25.706,146.512,53.375,206.671,46.691c60.159-6.686,163.054-160.182,168.357-200.138
					C3154.495,1327.21,3136.314,1285.844,3105.803,1296.514z"/>
				<g>
					<path fill="#2E5B9A" d="M3074.615,1830.497c-3.758,0-7.604-0.05-11.557-0.146c-49.237-1.216-82.771-8.031-109.719-13.509
						c-31.863-6.477-49.417-10.043-70.106-0.156c-6.977,3.333-15.334,0.381-18.668-6.596s-0.382-15.334,6.596-18.668
						c29.149-13.931,53.733-8.935,87.757-2.019c25.868,5.258,58.063,11.801,104.833,12.954
						c52.667,1.305,84.888-6.594,101.349-24.847c14.7-16.302,19.029-43.476,13.623-85.52c-1.83-14.241-3.66-26.08-5.275-36.526
						c-4.533-29.311-7.527-48.674-3.829-78.524c3.447-27.827,12.68-64.952,34.065-136.978c2.201-7.411,9.994-11.634,17.406-9.437
						c7.412,2.201,11.637,9.994,9.437,17.406c-40.005,134.728-37.972,147.883-29.408,203.253c1.642,10.611,3.5,22.64,5.377,37.234
						c6.524,50.752-0.021,85.02-20.603,107.841C3164.684,1819.782,3130.102,1830.497,3074.615,1830.497z"/>
				</g>
				<path fill="#D54A41" d="M2520.965,2111.357c-63.871,31.235-98.249,49.139-118.725,47.432c-4.833-0.402-8.84-0.896-12.2-1.42
					c-22.777,13.463-59.136,29.371-18.228,32.4c48.131,3.565,71.305-16.043,101.607-24.955
					c30.305-8.914,67.739-14.262,53.479-37.436C2524.167,2122.939,2522.184,2117.487,2520.965,2111.357z"/>
				<path fill="#D54A41" d="M3009.826,2055.773c-1.563,50.568-8.512,100.681-39.441,110.146c-8.199,2.509-15.672,2.868-22.283,1.987
					c-4.864,6.015-10.8,6.082-18.767,14.934c-12.032,13.368,68.181,4.01,77.539,0c9.358-4.011,13.369-82.887,23.396-102.939
					C3038.506,2063.428,3021.936,2059.585,3009.826,2055.773z"/>
				<g>
					<path fill="#75A1DE" d="M2763.803,1575.621h-202.91c-5.447,0-10.4-3.16-12.696-8.102l-81.999-176.477
						c-3.258-7.012-0.215-15.338,6.797-18.596c7.014-3.257,15.338-0.215,18.596,6.797l78.235,168.376h193.979
						c7.731,0,14,6.268,14,14C2777.805,1569.352,2771.535,1575.621,2763.803,1575.621z"/>
				</g>
				<path fill="#F09959" d="M2806.254,1515.943c-40.999-0.595-81.661-25.032-101.863-21.468
					c-20.203,3.565-86.158,49.318-77.84,51.102c8.318,1.782,60.607-25.32,62.391-25.732c1.782-0.412,13.072,18.771,41,25.817
					s0.197-20.931,86.767,5.215C2872.995,1567.877,2806.254,1515.943,2806.254,1515.943z"/>
				<path fill="#F2E5DE" d="M3141.125,1231.247l6.033,48.538c0,0-53.055,3.156-79.456,18.012s-65.363,57.774-65.363,57.774
					l31.831-54.805l4.584-35.058L3141.125,1231.247z"/>
				<path fill="#F2E5DE" d="M3118.546,1290.667c-39.408-7.385-57.638,27.927-83.188,85.563
					c-25.551,57.638-69.166,127.641-77.84,136.666c-8.673,9.024-146.173,0-146.173,0s-4.159,39.812,0,44.563
					c4.159,4.754,27.929,4.16,27.929,4.16s9.506,7.591,18.419,13.6s84.376,17.299,119.435,15.517
					c35.058-1.782,67.145-4.754,71.896-10.103c4.754-5.348,100.42-152.709,106.362-205.592S3138.658,1294.436,3118.546,1290.667z"/>
				<path fill="#303C60" d="M3002.339,1048.234c-74.53,3.564-62.841,115.686-62.841,115.686s19.357,5.977,59.911-0.708
					c-3.119-12.033-1.782-42.782-1.782-42.782s4.712,24.956,10.695,40.108c8.572,3.931,18.271,0.446,34.761-3.539
					c8.467,35.625,32.396,50.679,48.776,55.828c18.102,5.691,37.262,12.478,58.651,1.783c21.393-10.696,9.628-120.028-1.729-142.013
					c-17.05-33.002-45.388-62.54-94.409-46.942C3029.789,1033.477,3002.339,1048.234,3002.339,1048.234z"/>
				<path fill="#303C60" d="M3131.946,1181.395l30.471,44.505c0,0-33.771,84.376,64.447,122.604
					c76.92,29.938,67.858,82.689,33.101,135.739c-34.759,53.051,20.797,99.376,20.797,99.376s8.474-58.767,83.209-69.858
					c101.904-15.124,130.76-151.939,54.646-220.351c-62.983-56.61-82.146-9.729-124.781-60.53
					c-42.635-50.801-123.118-16.486-123.118-16.486l-29.498-43.021L3131.946,1181.395z"/>
				<g>
					<path fill="#303C60" d="M3453.672,1430.957c-0.396,0-0.796-0.096-1.168-0.299c-1.18-0.646-1.613-2.127-0.968-3.309
						c25.685-46.938,4.726-103.809-5.815-119.214c-1.111-1.627-2.168-3.274-3.287-5.021c-10.36-16.173-23.257-36.301-91.987-48.674
						c-16.463-2.964-29.818-12.769-43.957-23.146c-29.319-21.525-62.554-45.92-134.754-12.689c-1.224,0.563-2.67,0.027-3.231-1.194
						c-0.563-1.223-0.027-2.669,1.194-3.23c74.81-34.43,109.271-9.132,139.675,13.188c13.671,10.036,26.584,19.517,41.938,22.279
						c70.824,12.749,84.354,33.87,95.228,50.841c1.099,1.714,2.136,3.332,3.206,4.896c6.353,9.283,14.197,28.512,17.409,50.541
						c2.785,19.105,3.079,47.412-11.34,73.766C3455.368,1430.499,3454.533,1430.957,3453.672,1430.957z"/>
				</g>
				<g>
					<path fill="#303C60" d="M3115.671,1226.724c-4.861,0-10.121-0.423-15.785-1.271c-25.978-3.893-60.83-18.665-63.565-101.675
						c-0.045-1.346,1.01-2.472,2.354-2.516c1.385-0.061,2.471,1.011,2.516,2.354c1.133,34.358,7.957,59.791,20.281,75.588
						c9.383,12.025,21.819,18.834,39.139,21.429c24.256,3.632,40.34-0.866,47.812-13.373c0.692-1.154,2.188-1.529,3.342-0.842
						c1.154,0.689,1.531,2.187,0.843,3.342C3145.861,1221.045,3133.469,1226.724,3115.671,1226.724z"/>
				</g>
			</g>
			<g>
				<path fill="#96CFE0" d="M789.673,1285.624c-86.504,49.464-206.823,255.077-181.422,288.632
					c25.401,33.557,161.762-54.679,161.762-54.679L789.673,1285.624z"/>
				<path fill="#303C60" d="M951.285,1047.177c-33.032-0.896-20.774-25.45-58.76-15.646c-19.971,5.154-5.229,13.369-31.172,10.694
					c-25.943-2.674-38.71-5.348-41.98,11.587c-3.271,16.936-4.852,22.282-17.329,24.957c-12.478,2.674-18.113,24.957,0,40.107
					c18.113,15.151,9.308,21.391,5.297,33.869s9.661,13.37,17.085,24.957c7.425,11.587-6.835,13.779,3.86,23.824
					c10.696,10.045,25.698,9.154,25.698,9.154l45.024-86.329L951.285,1047.177z"/>
				<path fill="#2E5B9A" d="M1624.261,2083.389c0,0,48.127,1.337,85.561-13.369c37.433-14.705,62.833-37.433,56.148-10.694
					c-6.685,26.737-37.433,72.608-64.17,77.08c-26.737,4.47-36.096,33.881-50.801,33.881s-36.096-33.881-73.528-50.815
					C1543.354,2104.035,1624.261,2083.389,1624.261,2083.389z"/>
				<path fill="#2E5B9A" d="M1244.985,2078.877c0,0,20.243,27.914,55.466,47.328c36.381,20.053,78.355,29.709,52.331,38.777
					c-26.025,9.067-64.077,16.118-101.195,5.34c-26.033-7.562-56.554-9.146-64.616-21.443c-8.062-12.299,9.49-43.188,2.188-89.354
					C1183.307,2022.542,1244.985,2078.877,1244.985,2078.877z"/>
				<path fill="#3E6BAB" d="M1019.618,1630.224c0,0,278.796,104.392,301.258,133.573c22.462,29.184,315.519,295.02,315.519,314.628
					s-49.911,55.261-49.911,55.261s-251.347-154.193-313.737-232.629c-62.391-78.434-214.661-116.246-295.613-123.511
					C896.181,1770.282,1019.618,1630.224,1019.618,1630.224z"/>
				<path fill="#4476BD" d="M1030.313,1630.224c0,0,190.738-7.131,231.737,0c41,7.13,130.931,7.048,72.108,173.061
					c-46.105,130.119-61.323,294.858-61.323,294.858l-91.671,22.521c0,0,3.637-296.229,47.38-375.105
					c-31.855,5.25-90.328,15.495-171.363,38.67c-150.331,42.989-232.756,21.462-232.756,21.462l-22.382-78.436L1030.313,1630.224z"
					/>
				<polygon fill="#A86B48" points="871.031,1137.762 824.426,1275.46 883.304,1314.229 916.67,1195.247 				"/>
				<path fill="#7A4E34" d="M888.57,1295.454l28.101-100.207l-45.639-57.485l-17.048,50.368
					C859.867,1233.619,874.081,1271.249,888.57,1295.454z"/>
				<path fill="#A86B48" d="M989.912,1161.069c1.512,41.88-19.061,78.127-51.758,81.352c-32.697,3.224-62.538-27.971-66.65-69.676
					c-4.113-41.705,19.061-78.127,51.757-81.353C955.959,1088.168,987.525,1094.98,989.912,1161.069z"/>
				<path fill="#A2DFF2" d="M802.043,1271.449c-143.056,96.611-54.079,252.733-22.667,366.82
					c26.756,97.175,25.884,155.898,29.896,155.898c4.011,0,102.396-14.706,158.545-65.507
					c56.148-50.802,94.108-100.008,94.108-100.008s-71.936-12.813-95.445-105.872c-11.937-47.245-6.51-72.896-33.719-147.762
					C905.553,1300.156,802.043,1271.449,802.043,1271.449z"/>
				<path fill="#A2DFF2" d="M802.043,1271.449l15.322-37.49c0,0,48.577,32.087,67.962,47.238s31.343,18.718,31.343,18.718
					s7.006,53.741,2.456,48.864C861.792,1287.333,802.043,1271.449,802.043,1271.449z"/>
				<g>
					<polygon fill="#2E5B9A" points="738.642,2190.199 751.133,2190.199 840.704,1816.494 813.224,1816.494 					"/>
					<polygon fill="#2E5B9A" points="1112.814,2190.199 1100.324,2190.199 997.542,1803.283 1025.021,1803.283 					"/>
					<g>
						<path fill="#2E5B9A" d="M877.788,1830.493c-50.037,0-81.737-8.987-101.966-28.693c-25.078-24.429-30.267-62.27-30.341-111.571
							c-0.158-103.646-5.891-125.076-35.07-188.369c-3.237-7.021-0.169-15.338,6.853-18.575c7.022-3.236,15.34-0.17,18.575,6.853
							c30.843,66.901,37.478,91.493,37.643,200.051c0.075,49.968,6.415,76.492,21.879,91.558
							c15.862,15.453,44.539,21.822,92.979,20.615c46.771-1.154,78.964-7.697,104.833-12.955
							c34.023-6.916,58.607-11.912,87.758,2.019c6.978,3.334,9.93,11.691,6.597,18.668s-11.691,9.93-18.668,6.597
							c-20.69-9.887-38.243-6.319-70.109,0.155c-26.946,5.478-60.479,12.293-109.718,13.51
							C885.186,1830.445,881.435,1830.493,877.788,1830.493z"/>
					</g>
				</g>
				<g>
					<path fill="#3E6BAB" d="M1495.916,1574.003h-202.911c-7.731,0-14-6.268-14-14c0-7.731,6.269-14,14-14h193.979l78.234-168.376
						c3.26-7.012,11.585-10.053,18.596-6.797c7.013,3.258,10.056,11.584,6.798,18.596l-81.999,176.478
						C1506.316,1570.843,1501.363,1574.003,1495.916,1574.003z"/>
				</g>
				<path fill="#96CFE0" d="M807.34,1412.114c0,0,35.652,108.737,79.771,153.749c44.119,45.011,132.906,60.132,160.708,58.363
					c-22.164-8.908-64.368-34.265-81.341-101.444c-11.936-47.245-6.509-72.896-33.718-147.761
					c-20.198-55.574-82.431-85.707-113.167-97.551c38.363,27.556,86.328,72.932,101.068,107.458
					C937.024,1423.256,807.34,1412.114,807.34,1412.114z"/>
				<path fill="#A86B48" d="M1299.417,1507.545c0,0,61.496-28.074,68.181-25.4c6.686,2.675,74.865,43.844,74.865,50.664
					c0,6.822-60.16-25.422-60.16-25.422s6.686,17.822,2.674,26.37c-4.011,8.548-50.255,8.548-91.972,5.874
					S1299.417,1507.545,1299.417,1507.545z"/>
				<path fill="#A2DFF2" d="M809.306,1328.104c-56.688,116.188,137.771,233.971,253.136,244.44
					c115.364,10.471,252.431-27.282,252.431-27.282l-15.455-37.718c0,0-231.125-30.165-236.976-34.391
					C1056.589,1468.93,830.068,1285.551,809.306,1328.104z"/>
				
					<ellipse transform="matrix(-0.3554 -0.9347 0.9347 -0.3554 98.6324 2365.2068)" fill="#A86B48" cx="864.855" cy="1148.594" rx="26.767" ry="19.385"/>
				<path fill="#303C60" d="M989.99,1053.219c15.664-6.536,33.304-13.539,27.845,13.072c-2.376,11.587,0,8.319,4.16,19.014
					c4.159,10.696-10.484,19.096-15.238,25.037c-4.754,5.942,6.919,12.397-2.588,19.528c-9.507,7.13-22.041-2.644-30.898,0
					c-26.441,7.891-23.174-12.906-38.028-17.232c-14.855-4.326-22.137-3.657-24.956,5.851c-2.82,9.507,10.397,40.795-0.893,37.823
					c-11.29-2.971-13.832,22.282-16.868,36.543c-3.037,14.262-10.783-9.844-10.282-26.154c0.768-25.02-5.443-35.529-14.659-42.53
					s-13.14-70.654,31.425-73.03c44.565-2.377,44.849-6.676,63.863-10.696C981.886,1036.424,982.852,1056.197,989.99,1053.219z"/>
			</g>
			<g>
				<path fill="#74B570" d="M3488.485,1780.1c28.415,25.944,16.062,51.89-4.941,100.07
					c-21.003,48.183-24.709,226.086-24.709,226.086l17.296-2.471c0,0-2.471-182.846,21.003-232.264
					c23.475-49.418,33.356-74.127,54.359-58.064C3572.496,1829.518,3488.485,1780.1,3488.485,1780.1z"/>
				<path fill="#9CD499" d="M3472.875,1746.51c3.453-15.377,23.945-32.013,51.35-46.125c-4.073,22.678-17.138,59.756-3.616,67.36
					c18.233,10.257,1.775-41.511,8.813-69.966c25.733-12.565,56.688-22.837,85.195-27.946c-0.041,0.106-0.072,0.205-0.115,0.313
					c-16.061,40.77-37.063,56.829-28.414,63.008c6.507,4.646,27.697-42.447,55.683-66.588c21.004-1.119,38.773,1.729,49.287,10.051
					c16.248,12.863,27.153,24.275,10.813,63.445c-9.337,6.671-21.428,11.452-35.479,12.857
					c-37.063,3.706-54.359,4.942-28.416,17.297c12.705,6.051,34-0.342,51.267-4.234c-5.603,10.32-12.485,22.003-20.853,35.309
					c-5.307,8.438-11.153,15.765-17.364,22.099c-11.946,2.288-22.359,2.314-27.874-0.049c-17.296-7.412-61.771-30.886-72.892-21.002
					c-10.883,9.674,82.369,15.8,75.907,40.384c-45.2,26.041-96.922,13.649-106.064-10.263
					C3507.822,1800.346,3462.486,1792.79,3472.875,1746.51z"/>
				<path fill="#74B570" d="M3566.318,1922.176c-49.418-37.063-100.07-2.472-126.017,37.063
					c-25.942,39.534-7.412,128.485-7.412,128.485s9.884,0,9.884-3.707c0-3.705-27.18-105.012,37.063-150.723
					c40.188-28.597,69.185-14.826,72.892-1.236c3.705,13.591-16.062,38.3-16.062,38.3L3566.318,1922.176z"/>
				<path fill="#9CD499" d="M3452.657,1845.989c49.418,0,65.479,76.597,51.889,121.073c-13.59,44.476-32.121,127.25-32.121,127.25
					l-12.354-12.354c0,0,46.947-116.132,35.828-168.021s-38.299-60.536-43.24-60.536
					C3447.716,1853.401,3452.657,1845.989,3452.657,1845.989z"/>
				<path fill="#74B570" d="M3494.105,1967.406c3.476-4.604,7.77-8.408,13.009-10.933c-0.688,3.682-1.542,7.228-2.568,10.589
					c-6.19,20.264-13.409,48.477-19.432,73.188c-0.548-3.165-1.393-8.039-2.694-15.565c-0.309-1.775-0.548-3.705-0.717-5.748
					C3486.542,2002.477,3491.115,1984.545,3494.105,1967.406z"/>
				<path fill="#9CD499" d="M3507.616,1967.778c93.894-39.534,44.426-93.785,127.2-57.957c5.83,2.522,12.937,8.888,20.051,17.661
					c-7.373,2.091-16.301,3.595-26.229,2.104c-24.709-3.706-16.062,16.062,24.709,21.003c7.686,0.932,13.919,2.215,19.104,4.03
					c19.422,37.305,28.176,86.391-12.929,103.453c-8.1,3.36-18.108,5.284-29.252,6.003c-12.685-10.082,3.095-68.414-16.459-60.362
					c-18.773,7.729,5.884,50.006,2.504,60.657c-18.53-0.337-39.047-3.362-58.651-8.221c-7.759-4.35-13.684-10.181-15.509-17.846
					c-6.177-25.943,34.594-42.005,35.828-64.243c1.137-20.441-14.941,44.979-57.541,54.604
					C3481.928,2010.676,3463.727,1986.258,3507.616,1967.778z"/>
				<path fill="#9CD499" d="M3440.715,1897.878c9.883-21.003-16.061-25.944-14.826-9.884c1.097,14.23,1.218,48.826-13.379,58.244
					c-25.172-2.728-59.418-12.869-85.311-28.331c-0.325-2.089-0.01-4.239,1.09-6.439c11.119-22.237,82.775-40.77,60.537-48.183
					c-17.711-5.903-48.744,28.943-73.752,46.495c-15.021-11.396-25.084-24.98-25.084-40.146c0-20.523,24.939-43.758,57.191-54.863
					c14.515,1.464,27.997,9.399,49.057,21.334c31.111,17.63,23.916-10.873-5.499-27.791c25.394,1.313,50.712,12.164,69.384,38.084
					c0,0-1.766,11.079,9.959,28.217c31.989,46.753-4.928,74.046-49.059,72.272C3423.52,1934.566,3433.886,1912.39,3440.715,1897.878
					z"/>
				<path fill="#74B570" d="M3563.346,1920.081c24.16,18.669,50.998,40.497,83.945,55.322
					c32.946,14.826,26.357,63.147,26.357,63.147s4.94-41.731-22.515-56.01c-27.456-14.276-45.575-31.299-66.442-34.594
					c-20.866-3.295-32.396-6.59-32.396-6.59s6.589-13.18,2.745-18.12C3551.196,1918.296,3563.346,1920.081,3563.346,1920.081z"/>
				<path fill="#74B570" d="M3682.434,1700.848c-88.406,23.611-153.201,80.17-165.281,93.898
					c-12.081,13.728-12.081,17.571-12.081,17.571l9.335,17.57l4.394-2.195c0,0-7.139-14.826,11.531-34.046
					c32.196-33.144,71.385-59.304,98.291-70.834C3655.528,1711.281,3682.434,1700.848,3682.434,1700.848z"/>
				<path fill="#75A1DE" d="M3438.4,2190.199h33.776c24.019,0,43.487-19.471,43.487-43.488v-77.604h-120.751v77.604
					C3394.914,2170.729,3414.384,2190.199,3438.4,2190.199z"/>
				<rect x="3394.914" y="2082.979" fill="#FFFFFF" width="120.751" height="8.5"/>
				<rect x="3394.914" y="2098.479" fill="#FFFFFF" width="120.751" height="5"/>
			</g>
		</g>
	</g>
</g>
</svg>
