<?xml version="1.0" encoding="iso-8859-1"?>
<!-- Generator: Adobe Illustrator 16.0.0, SVG Export Plug-In . SVG Version: 6.00 Build 0)  -->
<!DOCTYPE svg PUBLIC "-//W3C//DTD SVG 1.1//EN" "http://www.w3.org/Graphics/SVG/1.1/DTD/svg11.dtd">
<svg version="1.1" xmlns="http://www.w3.org/2000/svg" xmlns:xlink="http://www.w3.org/1999/xlink" x="0px" y="0px" width="200px"
	 height="190px" viewBox="0 0 200 190" style="enable-background:new 0 0 200 190;" xml:space="preserve">
<g id="background">
	<ellipse style="opacity:0.56;fill:#D2EBFF;" cx="99.642" cy="172.836" rx="87.362" ry="14.945"/>
	<path style="opacity:0.2;fill:#00A5E4;" d="M91.721,163.95c-30.639-6.45-53.986-29.121-67.52-65.56
		C14.561,72.436,13.252,48.417,13.2,47.407l-0.525-10.389l81.92-28.955l81.92,28.955l-0.525,10.389
		c-0.052,1.009-1.36,25.028-11.001,50.983c-13.533,36.438-36.881,59.109-67.52,65.56l-2.874,0.606L91.721,163.95z"/>
	<path style="opacity:0.7;fill:#EBFDFF;" d="M159.481,48.226L94.595,25.291l0,0l0,0h0l0,0L29.708,48.226
		c0,0,4.395,86.904,64.887,99.644l0,0c0,0,0,0,0,0l0,0l0,0C155.087,135.13,159.481,48.226,159.481,48.226z"/>
	<path style="fill:#D2EBFF;" d="M42.068,134.824c-4.168-2.865-8.945-10.588-11.769-16.33c-0.038-0.078-0.006-0.172,0.072-0.21
		c0.078-0.039,0.172-0.006,0.21,0.072c2.808,5.707,7.547,13.378,11.665,16.211c0.071,0.048,0.09,0.146,0.041,0.217
		C42.238,134.856,42.14,134.875,42.068,134.824z"/>
</g>
<g id="tanaman">
	<g>
		<path style="fill:#516DBC;" d="M37.494,139.398c0,0-13.944-22.263-9.629-25.489c4.315-3.226,8.547,9.88,10.755,7.777
			c2.208-2.102-7.692-20.822-3.017-24.849c4.675-4.027,4.326,9.645,8.296,12.184c3.971,2.541-2.149-18.629,2.603-21.936
			c4.752-3.308,7.039,7.223,7.039,7.223s5.268-20.962,12.352-16.853c7.084,4.109-10.861,25.216-6.647,24.492
			S67.787,94.1,71.442,98.9c3.655,4.801-20.281,17.021-16.444,16.707c3.838-0.314,10.636-5.074,11.816-0.832
			c1.181,4.241-19.423,11.894-17.289,13.362c2.135,1.468,12.905-6.848,14.603-0.726C65.825,133.534,41.771,143.292,37.494,139.398z"
			/>
		<path style="fill:#D2EBFF;" d="M35.801,148.091c2.599-4.338,4.77-9.047,6.45-13.998c0.882-2.598,1.635-5.286,2.365-7.887
			c0.332-1.184,0.664-2.368,1.009-3.549c3.845-13.168,9.274-25.871,16.137-37.752l0.272,0.157
			c-6.85,11.86-12.27,24.539-16.108,37.684c-0.344,1.179-0.676,2.361-1.007,3.545c-0.73,2.604-1.486,5.297-2.37,7.903
			c-1.688,4.972-3.868,9.701-6.478,14.058L35.801,148.091z"/>
		<path style="fill:#D2EBFF;" d="M51.015,106.896c-0.027-0.02-0.049-0.047-0.061-0.081c-1.569-4.79-2.63-9.76-3.152-14.774
			c-0.009-0.086,0.054-0.163,0.14-0.172s0.164,0.054,0.173,0.14c0.52,4.99,1.576,9.939,3.138,14.708
			c0.026,0.082-0.018,0.171-0.101,0.198C51.104,106.932,51.054,106.923,51.015,106.896z"/>
		<path style="fill:#D2EBFF;" d="M49.055,112.678c-0.014-0.009-0.027-0.021-0.038-0.036c-0.051-0.07-0.036-0.169,0.034-0.219
			c4.323-3.158,8.793-6.424,13.584-9.033c0.879-0.479,1.824-0.967,2.854-1.216c0.084-0.02,0.169,0.031,0.189,0.115
			s-0.031,0.169-0.116,0.189c-0.993,0.241-1.916,0.719-2.777,1.187c-4.773,2.602-9.235,5.859-13.549,9.011
			C49.181,112.717,49.108,112.715,49.055,112.678z"/>
		<path style="fill:#D2EBFF;" d="M45.932,122.166c-0.016-0.011-0.03-0.025-0.042-0.042c-1.824-2.743-4.13-6.401-5.792-10.372
			c-1.132-2.707-1.975-5.565-2.789-8.33c-0.024-0.084,0.023-0.171,0.106-0.196c0.083-0.022,0.171,0.022,0.195,0.107
			c0.812,2.755,1.652,5.606,2.777,8.297c1.652,3.946,3.948,7.588,5.763,10.32c0.048,0.071,0.028,0.169-0.044,0.217
			C46.053,122.203,45.983,122.201,45.932,122.166z"/>
		<path style="fill:#D2EBFF;" d="M45.886,122.309c-0.058-0.039-0.083-0.114-0.059-0.183c0.03-0.081,0.12-0.123,0.202-0.094
			c0.442,0.16,0.938,0.099,1.409,0.01c1.273-0.245,2.52-0.709,3.724-1.156c0.225-0.084,0.449-0.166,0.674-0.248
			c3.563-1.302,7.281-2.293,10.877-3.253c0.083-0.022,0.169,0.027,0.192,0.112c0.022,0.083-0.027,0.168-0.111,0.191
			c-3.589,0.957-7.301,1.948-10.85,3.243c-0.224,0.082-0.448,0.165-0.672,0.248c-1.217,0.453-2.476,0.921-3.775,1.17
			c-0.489,0.094-1.059,0.164-1.574-0.021C45.908,122.322,45.896,122.316,45.886,122.309z"/>
		<path style="fill:#D2EBFF;" d="M42.338,134.945c-0.038-0.025-0.073-0.054-0.109-0.082c-0.067-0.056-0.077-0.155-0.021-0.221
			c0.055-0.067,0.161-0.075,0.22-0.023c0.59,0.478,1.473,0.328,2.343,0.09l15.21-4.165c0.083-0.022,0.17,0.027,0.192,0.109
			c0.023,0.084-0.026,0.171-0.11,0.193l-15.21,4.166C43.951,135.26,43.026,135.418,42.338,134.945z"/>
	</g>
	<g>
		<path style="fill:#32CBFF;" d="M36.064,138.927c0,0-24.266-10.153-22.601-15.285c1.666-5.132,12.699,3.145,13.29,0.148
			c0.592-2.996-18.321-12.586-16.824-18.581c1.498-5.994,9.11,5.391,13.825,5.174c4.715-0.216-12.52-13.996-10.544-19.447
			c1.976-5.45,9.93,1.841,9.93,1.841s-7.802-20.188,0.367-20.919c8.168-0.731,5.684,26.898,8.713,23.872
			c3.028-3.026,2.452-11.353,8.215-9.538c5.763,1.814-6.755,25.639-3.798,23.164c2.957-2.474,5.768-10.294,9.185-7.506
			c3.416,2.788-9.016,20.949-6.42,20.917c2.593-0.032,6.598-13.058,11.523-9.029C55.849,117.764,41.813,139.641,36.064,138.927z"/>
		<path style="fill:#D2EBFF;" d="M39.178,147.123c-0.316-5.054-1.198-10.171-2.62-15.209c-0.747-2.645-1.65-5.291-2.524-7.85
			c-0.398-1.166-0.796-2.33-1.181-3.5c-4.3-13.047-7.027-26.609-8.107-40.306l0.313-0.024c1.078,13.672,3.8,27.208,8.092,40.233
			c0.385,1.167,0.783,2.332,1.18,3.496c0.875,2.563,1.78,5.213,2.529,7.865c1.428,5.061,2.313,10.199,2.631,15.275L39.178,147.123z"
			/>
		<path style="fill:#D2EBFF;" d="M28.357,104.502c-0.033,0-0.067-0.012-0.095-0.033c-4.013-3.063-7.708-6.562-10.984-10.401
			c-0.056-0.066-0.048-0.165,0.018-0.222c0.066-0.056,0.166-0.048,0.222,0.018c3.261,3.822,6.94,7.307,10.936,10.355
			c0.069,0.052,0.083,0.15,0.03,0.221C28.451,104.48,28.404,104.502,28.357,104.502z"/>
		<path style="fill:#D2EBFF;" d="M30.021,110.385c-0.017,0-0.035-0.003-0.053-0.009c-0.082-0.029-0.125-0.118-0.096-0.2
			c1.775-5.059,3.61-10.29,6.083-15.161c0.454-0.894,0.957-1.832,1.665-2.623c0.058-0.064,0.158-0.07,0.222-0.012
			c0.064,0.057,0.07,0.157,0.012,0.222c-0.683,0.762-1.173,1.68-1.617,2.554c-2.464,4.854-4.296,10.075-6.068,15.124
			C30.146,110.344,30.085,110.385,30.021,110.385z"/>
		<path style="fill:#D2EBFF;" d="M32.827,119.984c-0.019,0-0.039-0.003-0.059-0.01c-3.061-1.229-7.039-2.94-10.664-5.273
			c-2.47-1.591-4.787-3.472-7.028-5.292c-0.067-0.054-0.078-0.152-0.023-0.221c0.055-0.066,0.154-0.078,0.221-0.021
			c2.234,1.813,4.544,3.688,7,5.27c3.602,2.319,7.563,4.021,10.61,5.245c0.081,0.033,0.12,0.124,0.087,0.204
			C32.949,119.947,32.89,119.984,32.827,119.984z"/>
		<path style="fill:#D2EBFF;" d="M32.87,120.129c-0.07,0-0.133-0.048-0.152-0.117c-0.021-0.084,0.029-0.17,0.113-0.192
			c0.456-0.118,0.831-0.451,1.167-0.791c0.913-0.926,1.678-2.015,2.418-3.066c0.138-0.197,0.276-0.394,0.415-0.589
			c2.201-3.094,4.706-6.022,7.128-8.854c0.057-0.066,0.156-0.074,0.222-0.019c0.066,0.057,0.074,0.156,0.017,0.223
			c-2.417,2.827-4.918,5.749-7.111,8.831c-0.139,0.196-0.276,0.392-0.414,0.588c-0.747,1.063-1.52,2.163-2.451,3.107
			c-0.351,0.354-0.781,0.735-1.312,0.875C32.896,120.127,32.883,120.129,32.87,120.129z"/>
		<path style="fill:#D2EBFF;" d="M36.822,132.623c-5.064,0-13.388-3.663-18.977-6.798c-0.075-0.043-0.103-0.139-0.06-0.214
			c0.042-0.076,0.138-0.103,0.214-0.061c5.555,3.117,13.818,6.758,18.822,6.758c0.087,0,0.157,0.07,0.157,0.157
			C36.979,132.552,36.909,132.623,36.822,132.623z"/>
		<path style="fill:#D2EBFF;" d="M37.112,132.568c-0.045,0-0.09-0.003-0.137-0.007c-0.086-0.007-0.151-0.084-0.144-0.17
			s0.091-0.153,0.17-0.143c0.757,0.06,1.401-0.565,1.983-1.256l10.187-12.067c0.056-0.066,0.156-0.074,0.222-0.019
			c0.066,0.058,0.074,0.155,0.019,0.222l-10.187,12.066C38.622,131.911,37.949,132.568,37.112,132.568z"/>
	</g>
	<g>
		<path style="fill:#D2EBFF;" d="M24.96,142.715l3.854,23.854c0.546,3.382,3.467,5.868,6.893,5.868h11.744
			c3.426,0,6.346-2.486,6.893-5.868l3.854-23.854H24.96z"/>
		<path style="fill:#ACCFE5;" d="M58.198,142.715h-6.545H24.96l0.535,3.305h25.624l-3.32,20.549
			c-0.547,3.383-3.466,5.868-6.893,5.868h6.546c3.426,0,6.346-2.485,6.893-5.868l3.32-20.549l0,0L58.198,142.715z"/>
		<path style="fill:#D2EBFF;" d="M58.569,135.853H24.589c-1.91,0-3.473,1.563-3.473,3.474l0,0c0,1.91,1.563,3.473,3.473,3.473
			h33.979c1.91,0,3.473-1.563,3.473-3.473l0,0C62.042,137.416,60.479,135.853,58.569,135.853z"/>
	</g>
</g>
<g id="Card">
	<g id="lock">
		<path style="fill:#32CBFF;" d="M188.157,36.386h-68.422c-1.938,0-3.523,1.585-3.523,3.524v16.262c0,1.938,1.585,3.524,3.523,3.524
			h68.422c1.938,0,3.523-1.586,3.523-3.524V39.911C191.681,37.972,190.095,36.386,188.157,36.386z"/>
		<g>
			<path style="fill:#516DBC;" d="M132.549,56.194h-9.402c-0.809,0-1.464-0.656-1.464-1.465v-6.434c0-0.809,0.655-1.465,1.464-1.465
				h9.402c0.809,0,1.465,0.656,1.465,1.465v6.434C134.014,55.539,133.357,56.194,132.549,56.194z"/>
			<path style="fill:#516DBC;" d="M132.112,45.771h-1.162V43.93c0-1.711-1.392-3.103-3.103-3.103s-3.104,1.392-3.104,3.103v1.842
				h-1.162V43.93c0-2.352,1.913-4.265,4.266-4.265c2.352,0,4.265,1.913,4.265,4.265V45.771z"/>
			<path style="fill:#516DBC;" d="M129.148,50.278c0-0.719-0.583-1.301-1.301-1.301c-0.719,0-1.302,0.583-1.302,1.301
				c0,0.484,0.269,0.901,0.66,1.125l-0.449,2.563h2.182l-0.449-2.563C128.882,51.179,129.148,50.762,129.148,50.278z"/>
		</g>
		<g>
			<circle style="fill:#516DBC;" cx="147.677" cy="48.74" r="2.134"/>
			<circle style="fill:#516DBC;" cx="155.821" cy="48.74" r="2.134"/>
			<circle style="fill:#516DBC;" cx="163.965" cy="48.74" r="2.134"/>
			<circle style="fill:#516DBC;" cx="172.11" cy="48.74" r="2.133"/>
			<circle style="fill:#516DBC;" cx="180.254" cy="48.74" r="2.133"/>
		</g>
	</g>
	<g id="payment">
		<path style="fill:#5E6E94;" d="M79.45,5.677v28.409c0,1.998-1.641,3.639-3.639,3.639H23.895c-2.009,0-3.65-1.642-3.65-3.639V5.677
			c0-1.998,1.642-3.639,3.65-3.639h51.916C77.809,2.039,79.45,3.68,79.45,5.677z"/>
		<rect x="20.244" y="11.99" style="fill:#2D3951;" width="59.206" height="8.035"/>
		<g>
			<path style="fill:#2D3951;" d="M74.862,24.692H60.131c-0.74,0-1.339,0.599-1.339,1.339l0,0c0,0.74,0.599,1.339,1.339,1.339
				h14.731c0.739,0,1.339-0.6,1.339-1.339l0,0C76.201,25.292,75.602,24.692,74.862,24.692z"/>
			<path style="fill:#2D3951;" d="M74.862,29.929h-6.696c-0.739,0-1.339,0.6-1.339,1.339l0,0c0,0.74,0.6,1.339,1.339,1.339h6.696
				c0.739,0,1.339-0.6,1.339-1.339l0,0C76.201,30.529,75.602,29.929,74.862,29.929z"/>
		</g>
	</g>
</g>
<g id="person">
	<g id="badan">
		<g id="XMLID_30_">
			<path style="fill:#F49290;" d="M140.798,93.138v4.936c0,0-1.14,5.512-6.509,6.429c-5.596-1.25-6.461-6.429-6.461-6.429v-4.936
				H140.798z"/>
		</g>
		<polygon style="fill:#2D3951;" points="95.434,139.03 125.185,134.78 151.341,134.78 174.717,139.358 134.503,159.628 		"/>
		<path style="fill:#5E6E94;" d="M169.12,121.341c-0.81-2.779-4.838-7.49-8.419-17.146c-3.725-10.041-19.592-11.122-19.592-11.122
			l-6.158,3.296l-6.16-3.296c0,0-15.867,1.081-19.59,11.122c-3.582,9.656-7.61,14.367-8.419,17.146
			c-0.81,2.781,3.562,20.776,16.109,23.326h17.582h0.957h17.581C165.559,142.117,169.929,124.122,169.12,121.341z"/>
	</g>
	<g id="laptop">
		<g>
			<path style="fill:#FECEF1;" d="M150.869,121.648h-33.197c-1.848,0-3.346,1.496-3.346,3.345v19.901
				c0,1.848,1.498,3.346,3.346,3.346h33.197c1.847,0,3.345-1.498,3.345-3.346v-19.901
				C154.214,123.145,152.716,121.648,150.869,121.648z"/>
			<circle style="fill:#EF9CDA;" cx="134.148" cy="134.672" r="4.141"/>
		</g>
	</g>
	<g id="kepala">
		<g>
			<path id="XMLID_29_" style="fill:#2D3951;" d="M121.978,85.443c0,0-1.836-11.534,2.552-12.936
				c1.195-0.382,0.321-4.191,7.001-4.237c9.118-0.064,16.305-1.291,15.107,17.332L121.978,85.443z"/>
			<circle style="fill:#FFB5B1;" cx="124.606" cy="85.717" r="3.151"/>
			<circle style="fill:#FFB5B1;" cx="143.799" cy="85.717" r="3.151"/>
			<path style="fill:#FFB5B1;" d="M144.792,80.38l-0.018-0.006v-0.002c-0.002,0-0.005,0-0.006,0
				c-0.129-0.041-2.643-0.876-3.124-4.183l-1.379,0.388c-3.815,1.063-7.876,1.024-11.669-0.111l-1.1-0.276
				c-0.481,3.301-3.118,4.139-3.262,4.183c-0.004,0-0.026,0-0.026,0l-0.087,5.106c0,2.971,1.254,6.583,3.262,9.361
				c1.634,2.262,4.277,3.569,7.066,3.569s5.433-1.308,7.067-3.569c2.007-2.778,3.262-6.39,3.262-9.361l-0.005-5.084L144.792,80.38z"
				/>
		</g>
	</g>
	<g id="kaki">
		<g>
			<path style="fill:#2D3951;" d="M149.05,160.444c0,0-52.637-28.934-58.849-19.452c-8.974,13.697,4.74,20.597,53.618,33.675
				L149.05,160.444z"/>
			<g>
				<path style="fill:#1858B5;" d="M163.558,174.905L163.558,174.905c1.304-3.149-0.191-6.757-3.339-8.06l-12.155-5.033
					l-4.72,11.399l12.155,5.032C158.646,179.547,162.255,178.052,163.558,174.905z"/>
				<path style="fill:#489BFF;" d="M147.297,163.649l9.196,3.809c2.131,0.883,3.153,3.326,2.27,5.458
					c-0.882,2.132-3.337,3.148-5.468,2.266l-9.196-3.808L147.297,163.649z"/>
				<path style="opacity:0.45;fill:#063272;" d="M144.14,171.289l12.155,5.033c2.818,1.167,5.993,0.078,7.564-2.419
					c-0.076,0.336-0.165,0.673-0.302,1.002c-1.303,3.147-4.911,4.642-8.059,3.339l-12.155-5.032L144.14,171.289z"/>
				<path style="fill:#E6E6E6;" d="M148.164,171.479l1.943-4.692c0.097-0.236,0.37-0.349,0.606-0.252l0,0
					c0.235,0.098,0.35,0.372,0.252,0.607l-1.943,4.692c-0.099,0.235-0.371,0.35-0.607,0.252l0,0
					C148.179,171.988,148.066,171.715,148.164,171.479z"/>
				<path style="fill:#E6E6E6;" d="M151.024,172.664l1.943-4.691c0.098-0.236,0.371-0.35,0.607-0.252l0,0
					c0.236,0.098,0.349,0.37,0.251,0.606l-1.943,4.693c-0.097,0.235-0.37,0.349-0.606,0.25l0,0
					C151.041,173.174,150.927,172.9,151.024,172.664z"/>
				<path style="fill:#E6E6E6;" d="M154.173,173.967l1.942-4.691c0.098-0.236,0.371-0.349,0.606-0.252l0,0
					c0.236,0.098,0.351,0.371,0.252,0.607l-1.943,4.692c-0.098,0.235-0.37,0.35-0.607,0.251l0,0
					C154.188,174.477,154.074,174.203,154.173,173.967z"/>
			</g>
		</g>
		<g>
			<path style="fill:#2D3951;" d="M117.811,160.444c0,0,52.637-28.934,58.85-19.452c8.974,13.697-4.741,20.597-53.619,33.675
				L117.811,160.444z"/>
			<g>
				<path style="fill:#1858B5;" d="M103.303,174.905L103.303,174.905c-1.305-3.149,0.191-6.757,3.339-8.06l12.155-5.033
					l4.719,11.399l-12.154,5.032C108.213,179.547,104.605,178.052,103.303,174.905z"/>
				<path style="fill:#489BFF;" d="M122.762,171.374l-9.196,3.808c-2.132,0.883-4.586-0.134-5.469-2.266s0.14-4.575,2.271-5.458
					l9.196-3.809L122.762,171.374z"/>
				<path style="opacity:0.45;fill:#063272;" d="M122.721,171.289l-12.155,5.033c-2.818,1.167-5.993,0.078-7.565-2.419
					c0.077,0.336,0.166,0.673,0.303,1.002c1.303,3.147,4.91,4.642,8.059,3.339l12.154-5.032L122.721,171.289z"/>
				<path style="fill:#E6E6E6;" d="M118.696,171.479l-1.943-4.692c-0.097-0.236-0.37-0.349-0.606-0.252l0,0
					c-0.235,0.098-0.35,0.372-0.252,0.607l1.943,4.692c0.098,0.235,0.372,0.35,0.607,0.252l0,0
					C118.682,171.988,118.794,171.715,118.696,171.479z"/>
				<path style="fill:#E6E6E6;" d="M115.836,172.664l-1.943-4.691c-0.099-0.236-0.372-0.35-0.607-0.252l0,0
					c-0.236,0.098-0.349,0.37-0.251,0.606l1.943,4.693c0.097,0.235,0.37,0.349,0.606,0.25l0,0
					C115.819,173.174,115.934,172.9,115.836,172.664z"/>
				<path style="fill:#E6E6E6;" d="M112.688,173.967l-1.943-4.691c-0.098-0.236-0.37-0.349-0.605-0.252l0,0
					c-0.236,0.098-0.351,0.371-0.252,0.607l1.942,4.692c0.099,0.235,0.371,0.35,0.606,0.251l0,0
					C112.673,174.477,112.786,174.203,112.688,173.967z"/>
			</g>
		</g>
	</g>
</g>
</svg>
