<?xml version="1.0" encoding="iso-8859-1"?>
<!-- Generator: Adobe Illustrator 16.0.0, SVG Export Plug-In . SVG Version: 6.00 Build 0)  -->
<!DOCTYPE svg PUBLIC "-//W3C//DTD SVG 1.1//EN" "http://www.w3.org/Graphics/SVG/1.1/DTD/svg11.dtd">
<svg version="1.1" id="Layer_1" xmlns="http://www.w3.org/2000/svg" xmlns:xlink="http://www.w3.org/1999/xlink" x="0px" y="0px"
	 width="100px" height="100px" viewBox="0 0 100 100" style="enable-background:new 0 0 100 100;" xml:space="preserve">
<g>
	<path id="XMLID_108_" style="fill:#3D83D9;" d="M473.593,461.302c0-39.662-32.15-71.81-71.806-71.81
		c-39.666,0-71.814,32.147-71.814,71.81c0,39.655,32.148,71.81,71.814,71.81C441.442,533.111,473.593,500.957,473.593,461.302z"/>
	<g>
		<rect x="367.592" y="443.776" style="fill:#FFFFFF;" width="16.623" height="47.507"/>
		<path style="fill:#FFFFFF;" d="M375.904,420.023c-5.207,0-9.283,4.785-8.109,10.174c0.683,3.132,3.236,5.648,6.378,6.279
			c5.357,1.076,10.042-2.979,10.042-8.143C384.215,423.752,380.5,420.023,375.904,420.023z"/>
		<path style="fill:#FFFFFF;" d="M438.849,458.37c-1.118-8.954-5.597-14.594-17.702-14.594c-8.591,0-12.006,1.341-13.977,5.09l0,0
			v-5.09h-13.457v47.507h13.849v-24.868c0-6.208,1.177-10.897,8.852-10.897c7.566,0,8.174,5.771,8.174,11.3v24.466h14.262
			C438.849,491.283,439.112,460.463,438.849,458.37z"/>
	</g>
</g>
<g>
	<rect x="15.592" y="39.776" style="fill:#FFFFFF;" width="16.623" height="47.507"/>
	<path style="fill:#FFFFFF;" d="M23.904,16.023c-5.207,0-9.283,4.785-8.109,10.174c0.682,3.132,3.235,5.648,6.377,6.279
		c5.357,1.076,10.042-2.979,10.042-8.143C32.215,19.752,28.5,16.023,23.904,16.023z"/>
	<path style="fill:#FFFFFF;" d="M86.849,54.37c-1.118-8.954-5.597-14.594-17.702-14.594c-8.591,0-12.006,1.341-13.977,5.09l0,0
		v-5.09H41.713v47.507h13.849V62.415c0-6.208,1.177-10.897,8.852-10.897c7.566,0,8.174,5.771,8.174,11.3v24.466h14.262
		C86.849,87.283,87.112,56.463,86.849,54.37z"/>
</g>
</svg>
