<?xml version="1.0" encoding="iso-8859-1"?>
<!-- Generator: Adobe Illustrator 16.0.0, SVG Export Plug-In . SVG Version: 6.00 Build 0)  -->
<!DOCTYPE svg PUBLIC "-//W3C//DTD SVG 1.1//EN" "http://www.w3.org/Graphics/SVG/1.1/DTD/svg11.dtd">
<svg version="1.1" id="Layer_1" xmlns="http://www.w3.org/2000/svg" xmlns:xlink="http://www.w3.org/1999/xlink" x="0px" y="0px"
	 width="100px" height="100px" viewBox="0 0 100 100" style="enable-background:new 0 0 100 100;" xml:space="preserve">
<g>
	<path id="XMLID_36_" style="fill:#00B456;" d="M99.926,50.41c0-27.507-22.3-49.809-49.807-49.809
		c-27.514,0-49.812,22.302-49.812,49.809c0,27.51,22.298,49.808,49.812,49.808C77.626,100.218,99.926,77.92,99.926,50.41z"/>
	<g>
		<path style="fill:#FFFFFF;" d="M80.058,46.292c-0.405-15.958-13.322-28.458-29.408-28.458c-15.795,0-28.704,12.259-29.386,27.907
			c-0.021,0.428-0.034,0.857-0.034,1.289c0,5.193,1.385,10.276,4.01,14.726c0.063,0.106,0.077,0.234,0.037,0.351l-5.211,15.396
			c-0.071,0.21,0.126,0.411,0.337,0.345l16.032-5.101c0.109-0.033,0.227-0.022,0.328,0.032c4.258,2.262,9.051,3.456,13.888,3.456
			c16.224,0,29.422-13.102,29.422-29.204C80.071,46.818,80.058,46.292,80.058,46.292z M30.791,60.184
			c-2.638-3.902-4.027-8.43-4.027-13.153c0-0.755,0.037-1.507,0.114-2.297c1.187-12.205,11.406-21.408,23.771-21.408
			c12.396,0,22.855,9.598,23.813,21.851c0.055,0.722,0.081,1.31,0.081,1.852c0,13.071-10.718,23.706-23.894,23.706
			c-3.513,0-6.946-0.763-10.091-2.226c-0.877-0.409-2.542-1.403-3.068-1.722c-0.107-0.064-0.232-0.077-0.351-0.039l-8.069,2.566
			c-0.185,0.06-0.358-0.117-0.296-0.301l2.607-7.686c0.045-0.132,0.024-0.277-0.058-0.392
			C31.165,60.715,30.904,60.351,30.791,60.184z"/>
	</g>
	<path style="fill:#FFFFFF;" d="M64.639,53.527c-0.184-0.293-1.453-0.903-1.453-0.903c-0.501-0.248-4.185-2.053-4.878-2.302
		c-0.593-0.212-1.264-0.454-1.865,0.442c-0.458,0.676-1.797,2.24-2.233,2.733c-0.305,0.347-0.585,0.461-1.263,0.122
		c-0.114-0.056-3.396-1.458-5.66-3.46c-2.008-1.774-3.398-3.965-3.903-4.826c-0.312-0.525-0.109-0.769,0.274-1.153
		c0.236-0.23,1.275-1.488,1.358-1.609c0.166-0.252,0.461-0.858,0.461-0.858c0.3-0.591,0.113-1.106-0.054-1.446
		c-0.12-0.234-2.009-4.784-2.189-5.212c-0.539-1.286-1.114-1.352-1.664-1.321c-0.267,0.019-2.767,0.039-3.564,0.903l-0.14,0.148
		c-0.782,0.827-2.409,2.548-2.409,5.878c0,0.765,0.123,1.571,0.375,2.464c0.464,1.605,1.373,3.361,2.573,4.967
		c0.026,0.034,1.855,2.574,2.771,3.628c2.893,3.331,6.161,5.791,9.458,7.079c4.212,1.646,6.011,2.023,7.032,2.023
		c0.447,0,1.387-0.228,1.591-0.247c1.287-0.114,4.348-1.708,4.988-3.499C64.854,55.387,64.865,53.907,64.639,53.527z"/>
</g>
</svg>
