<?xml version="1.0" encoding="iso-8859-1"?>
<!-- Generator: Adobe Illustrator 16.0.0, SVG Export Plug-In . SVG Version: 6.00 Build 0)  -->
<!DOCTYPE svg PUBLIC "-//W3C//DTD SVG 1.1//EN" "http://www.w3.org/Graphics/SVG/1.1/DTD/svg11.dtd">
<svg version="1.1" id="Layer_1" xmlns="http://www.w3.org/2000/svg" xmlns:xlink="http://www.w3.org/1999/xlink" x="0px" y="0px"
	 width="100px" height="100px" viewBox="0 0 100 100" style="enable-background:new 0 0 100 100;" xml:space="preserve">
<path style="fill:none;stroke:#FFFFFF;stroke-width:5;stroke-miterlimit:10;" d="M83.668,96.5c-17.084,0-51.251,0-68.334,0
	C0,96.5,2.5,82.334,2.5,82.334v-69C2.5,13.334,0,2.5,14,2.5c17.167,0,51.5,0,68.667,0C100,2.5,97.5,16.334,97.5,16.334V82
	C97.5,82,100,96.5,83.668,96.5z"/>
<g>
	<rect x="20.549" y="41.426" style="fill:#FFFFFF;" width="14.314" height="40.908"/>
	<path style="fill:#FFFFFF;" d="M27.707,20.973c-4.484,0-7.994,4.121-6.982,8.761c0.587,2.697,2.786,4.864,5.491,5.407
		c4.613,0.927,8.647-2.565,8.647-7.011C34.863,24.184,31.665,20.973,27.707,20.973z"/>
	<path style="fill:#FFFFFF;" d="M81.908,53.993c-0.963-7.71-4.819-12.567-15.244-12.567c-7.397,0-10.337,1.155-12.035,4.383l0,0
		v-4.383H43.042v40.908h11.925V60.921c0-5.347,1.013-9.385,7.622-9.385c6.515,0,7.039,4.97,7.039,9.73v21.067h12.28
		C81.908,82.334,82.135,55.795,81.908,53.993z"/>
</g>
</svg>
