<?xml version="1.0" encoding="iso-8859-1"?>
<!-- Generator: Adobe Illustrator 16.0.0, SVG Export Plug-In . SVG Version: 6.00 Build 0)  -->
<!DOCTYPE svg PUBLIC "-//W3C//DTD SVG 1.1//EN" "http://www.w3.org/Graphics/SVG/1.1/DTD/svg11.dtd">
<svg version="1.1" id="Layer_1" xmlns="http://www.w3.org/2000/svg" xmlns:xlink="http://www.w3.org/1999/xlink" x="0px" y="0px"
	 width="100px" height="100px" viewBox="0 0 100 100" style="enable-background:new 0 0 100 100;" xml:space="preserve">
<g>
	<path style="fill:#FFFFFF;" d="M96.333,47.596C95.704,22.919,75.73,3.59,50.856,3.59C26.43,3.59,6.471,22.546,5.414,46.745
		c-0.032,0.661-0.053,1.326-0.053,1.993c0,8.031,2.142,15.891,6.201,22.772c0.097,0.162,0.12,0.361,0.058,0.541L3.56,95.858
		c-0.108,0.324,0.197,0.636,0.523,0.53l24.79-7.884c0.168-0.053,0.351-0.035,0.508,0.048c6.585,3.498,13.995,5.345,21.475,5.345
		c25.085,0,45.497-20.258,45.497-45.16C96.353,48.41,96.333,47.596,96.333,47.596z M20.146,69.075
		c-4.079-6.031-6.226-13.034-6.226-20.337c0-1.167,0.056-2.33,0.176-3.553c1.834-18.873,17.638-33.104,36.759-33.104
		c19.169,0,35.342,14.842,36.821,33.789c0.086,1.115,0.126,2.024,0.126,2.863c0,20.212-16.574,36.658-36.947,36.658
		c-5.434,0-10.742-1.18-15.604-3.44c-1.357-0.634-3.931-2.17-4.744-2.663c-0.167-0.101-0.36-0.119-0.543-0.061l-12.478,3.969
		c-0.287,0.092-0.555-0.183-0.457-0.468l4.03-11.883c0.069-0.203,0.037-0.428-0.088-0.605
		C20.726,69.899,20.322,69.336,20.146,69.075z"/>
</g>
<path style="fill:#FFFFFF;" d="M72.073,59.665c-0.285-0.453-2.247-1.397-2.247-1.397c-0.776-0.384-6.474-3.174-7.543-3.558
	c-0.917-0.329-1.957-0.703-2.885,0.683c-0.711,1.047-2.78,3.463-3.455,4.227c-0.472,0.537-0.905,0.712-1.953,0.189
	c-0.176-0.087-5.25-2.255-8.75-5.352c-3.105-2.743-5.256-6.132-6.038-7.463c-0.48-0.812-0.167-1.189,0.426-1.784
	c0.366-0.356,1.973-2.301,2.101-2.487c0.255-0.391,0.712-1.327,0.712-1.327c0.464-0.915,0.175-1.711-0.083-2.235
	c-0.186-0.363-3.107-7.398-3.386-8.061c-0.832-1.987-1.722-2.09-2.571-2.042c-0.413,0.03-4.28,0.06-5.513,1.396l-0.215,0.229
	c-1.209,1.279-3.726,3.94-3.726,9.089c0,1.183,0.19,2.429,0.581,3.809c0.719,2.482,2.122,5.198,3.979,7.682
	c0.041,0.052,2.87,3.98,4.284,5.609c4.474,5.153,9.527,8.957,14.626,10.947c6.514,2.548,9.295,3.129,10.873,3.129
	c0.691,0,2.146-0.352,2.461-0.381c1.989-0.179,6.721-2.643,7.713-5.412C72.404,62.542,72.423,60.252,72.073,59.665z"/>
</svg>
