<?xml version="1.0" encoding="iso-8859-1"?>
<!-- Generator: Adobe Illustrator 16.0.0, SVG Export Plug-In . SVG Version: 6.00 Build 0)  -->
<!DOCTYPE svg PUBLIC "-//W3C//DTD SVG 1.1//EN" "http://www.w3.org/Graphics/SVG/1.1/DTD/svg11.dtd">
<svg version="1.1" id="Layer_1" xmlns="http://www.w3.org/2000/svg" xmlns:xlink="http://www.w3.org/1999/xlink" x="0px" y="0px"
	 width="100px" height="100px" viewBox="0 0 100 100" style="enable-background:new 0 0 100 100;" xml:space="preserve">
<path id="XMLID_19_" style="fill:#FFFFFF;" d="M55.868,35.381v-5.876c0-2.862,1.91-3.531,3.248-3.531c1.342,0,8.247,0,8.247,0
	V13.389l-11.355-0.05c-12.605,0-15.467,9.391-15.467,15.403v6.639h-7.287v14.7h7.35c0,16.657,0,36.742,0,36.742h14.696
	c0,0,0-20.289,0-36.742h10.907l1.342-14.7H55.868z"/>
<path style="fill:none;stroke:#FFFFFF;stroke-width:5;stroke-miterlimit:10;" d="M83.668,96.5c-17.084,0-51.251,0-68.334,0
	C0,96.5,2.5,82.334,2.5,82.334v-69C2.5,13.334,0,2.5,14,2.5c17.167,0,51.5,0,68.667,0C100,2.5,97.5,16.334,97.5,16.334V82
	C97.5,82,100,96.5,83.668,96.5z"/>
</svg>
