<?xml version="1.0" encoding="iso-8859-1"?>
<!-- Generator: Adobe Illustrator 16.0.0, SVG Export Plug-In . SVG Version: 6.00 Build 0)  -->
<!DOCTYPE svg PUBLIC "-//W3C//DTD SVG 1.1//EN" "http://www.w3.org/Graphics/SVG/1.1/DTD/svg11.dtd">
<svg version="1.1" id="Layer_1" xmlns="http://www.w3.org/2000/svg" xmlns:xlink="http://www.w3.org/1999/xlink" x="0px" y="0px"
	 width="100px" height="100px" viewBox="0 0 100 100" style="enable-background:new 0 0 100 100;" xml:space="preserve">
<g>
	<path id="XMLID_108_" style="fill:#3D83D9;" d="M473.593,461.302c0-39.662-32.15-71.81-71.806-71.81
		c-39.666,0-71.814,32.147-71.814,71.81c0,39.655,32.148,71.81,71.814,71.81C441.442,533.111,473.593,500.957,473.593,461.302z"/>
	<g>
		<rect x="367.592" y="443.776" style="fill:#FFFFFF;" width="16.623" height="47.507"/>
		<path style="fill:#FFFFFF;" d="M375.904,420.023c-5.207,0-9.283,4.785-8.109,10.174c0.683,3.132,3.236,5.648,6.378,6.279
			c5.357,1.076,10.042-2.979,10.042-8.143C384.215,423.752,380.5,420.023,375.904,420.023z"/>
		<path style="fill:#FFFFFF;" d="M438.849,458.37c-1.118-8.954-5.597-14.594-17.702-14.594c-8.591,0-12.006,1.341-13.977,5.09l0,0
			v-5.09h-13.457v47.507h13.849v-24.868c0-6.208,1.177-10.897,8.852-10.897c7.566,0,8.174,5.771,8.174,11.3v24.466h14.262
			C438.849,491.283,439.112,460.463,438.849,458.37z"/>
	</g>
</g>
<g>
	<path style="fill:#FFFFFF;" d="M28.386,86.635L28.386,86.635h-0.001H28.386z M71.615,10.084L71.615,10.084L71.615,10.084
		L71.615,10.084z"/>
	<g>
		<path style="fill:#FFFFFF;" d="M49.999,76.967c14.873,0,26.971-12.095,26.971-26.959c0-14.875-12.098-26.977-26.971-26.977
			c-14.871,0-26.97,12.102-26.97,26.977C23.029,64.872,35.128,76.967,49.999,76.967z M29.571,50.007
			c0-11.273,9.164-20.444,20.428-20.444c11.265,0,20.431,9.17,20.431,20.444c0,11.264-9.166,20.429-20.431,20.429
			C38.735,70.437,29.571,61.271,29.571,50.007z"/>
	</g>
	<path style="fill:#FFFFFF;" d="M76.898,94.798H23.103c-10.096,0-18.31-8.214-18.31-18.311V23.512c0-10.097,8.214-18.31,18.31-18.31
		h53.796c10.095,0,18.309,8.213,18.309,18.31v52.975C95.207,86.584,86.993,94.798,76.898,94.798z M23.103,11.884
		c-6.412,0-11.63,5.216-11.63,11.628v52.975c0,6.413,5.218,11.629,11.63,11.629h53.796c6.411,0,11.628-5.216,11.628-11.629V23.512
		c0-6.412-5.217-11.628-11.628-11.628H23.103z"/>
</g>
</svg>
