<?xml version="1.0" encoding="iso-8859-1"?>
<!-- Generator: Adobe Illustrator 16.0.0, SVG Export Plug-In . SVG Version: 6.00 Build 0)  -->
<!DOCTYPE svg PUBLIC "-//W3C//DTD SVG 1.1//EN" "http://www.w3.org/Graphics/SVG/1.1/DTD/svg11.dtd">
<svg version="1.1" id="Layer_1" xmlns="http://www.w3.org/2000/svg" xmlns:xlink="http://www.w3.org/1999/xlink" x="0px" y="0px"
	 width="100px" height="100px" viewBox="0 0 100 100" style="enable-background:new 0 0 100 100;" xml:space="preserve">
<g>
	<path id="XMLID_108_" style="fill:#3D83D9;" d="M473.593,461.302c0-39.662-32.15-71.81-71.806-71.81
		c-39.666,0-71.814,32.147-71.814,71.81c0,39.655,32.148,71.81,71.814,71.81C441.442,533.111,473.593,500.957,473.593,461.302z"/>
	<g>
		<rect x="367.592" y="443.776" style="fill:#FFFFFF;" width="16.623" height="47.507"/>
		<path style="fill:#FFFFFF;" d="M375.904,420.023c-5.207,0-9.283,4.785-8.109,10.174c0.683,3.132,3.236,5.648,6.378,6.279
			c5.357,1.076,10.042-2.979,10.042-8.143C384.215,423.752,380.5,420.023,375.904,420.023z"/>
		<path style="fill:#FFFFFF;" d="M438.849,458.37c-1.118-8.954-5.597-14.594-17.702-14.594c-8.591,0-12.006,1.341-13.977,5.09l0,0
			v-5.09h-13.457v47.507h13.849v-24.868c0-6.208,1.177-10.897,8.852-10.897c7.566,0,8.174,5.771,8.174,11.3v24.466h14.262
			C438.849,491.283,439.112,460.463,438.849,458.37z"/>
	</g>
</g>
<linearGradient id="SVGID_1_" gradientUnits="userSpaceOnUse" x1="-14.1465" y1="-13.478" x2="120.0004" y2="119.2715">
	<stop  offset="0" style="stop-color:#5D3FD2"/>
	<stop  offset="0.4244" style="stop-color:#B829A9"/>
	<stop  offset="0.5009" style="stop-color:#BE289D"/>
	<stop  offset="0.6383" style="stop-color:#D0257E"/>
	<stop  offset="0.7849" style="stop-color:#E62256"/>
	<stop  offset="0.8147" style="stop-color:#E83156"/>
	<stop  offset="0.8718" style="stop-color:#EE5755"/>
	<stop  offset="0.9495" style="stop-color:#F89554"/>
	<stop  offset="1" style="stop-color:#FFC153"/>
</linearGradient>
<path style="fill:url(#SVGID_1_);" d="M50-0.239c-27.74,0-50.233,22.493-50.233,50.244c0,27.742,22.493,50.233,50.233,50.233
	c27.742,0,50.235-22.491,50.235-50.233C100.234,22.254,77.741-0.239,50-0.239z"/>
<g>
	<path style="fill:none;stroke:#FFFFFF;stroke-miterlimit:10;" d="M35.623,74.368L35.623,74.368L35.623,74.368L35.623,74.368z
		 M64.378,23.45L64.378,23.45L64.378,23.45L64.378,23.45z"/>
	<g>
		<path style="fill:#FFFFFF;" d="M50,67.938c9.893,0,17.94-8.045,17.94-17.933c0-9.894-8.047-17.944-17.94-17.944
			c-9.892,0-17.939,8.05-17.939,17.944C32.06,59.893,40.108,67.938,50,67.938z M36.412,50.005c0-7.499,6.095-13.599,13.588-13.599
			s13.589,6.1,13.589,13.599c0,7.492-6.097,13.589-13.589,13.589S36.412,57.497,36.412,50.005z"/>
	</g>
	<path style="fill:#FFFFFF;" d="M67.892,79.798H32.109c-6.716,0-12.179-5.464-12.179-12.18V32.381
		c0-6.716,5.463-12.179,12.179-12.179h35.783c6.715,0,12.179,5.463,12.179,12.179v35.237C80.07,74.334,74.606,79.798,67.892,79.798z
		 M32.109,24.646c-4.265,0-7.736,3.47-7.736,7.735v35.237c0,4.266,3.471,7.735,7.736,7.735h35.783c4.265,0,7.734-3.47,7.734-7.735
		V32.381c0-4.265-3.47-7.735-7.734-7.735H32.109z"/>
</g>
</svg>
