<?xml version="1.0" encoding="iso-8859-1"?>
<!-- Generator: Adobe Illustrator 16.0.0, SVG Export Plug-In . SVG Version: 6.00 Build 0)  -->
<!DOCTYPE svg PUBLIC "-//W3C//DTD SVG 1.1//EN" "http://www.w3.org/Graphics/SVG/1.1/DTD/svg11.dtd">
<svg version="1.1" id="Layer_1" xmlns="http://www.w3.org/2000/svg" xmlns:xlink="http://www.w3.org/1999/xlink" x="0px" y="0px"
	 width="113px" height="108px" viewBox="0 0 113 108" style="enable-background:new 0 0 113 108;" xml:space="preserve">
<path style="fill-rule:evenodd;clip-rule:evenodd;fill:#00A5E4;" d="M58.498,38.157c11.384,0,38.105,0.572,36.52,20.053
	l-3.11,38.195c-0.455,5.597-4.598,10.212-10.213,10.212H34.809c-5.616,0-9.757-4.613-10.212-10.212l-3.11-38.195
	C19.897,38.688,47.093,38.157,58.498,38.157z"/>
<path style="fill-rule:evenodd;clip-rule:evenodd;fill:#00A5E4;" d="M58.498,38.157c11.384,0,38.105,0.572,36.52,20.053
	l-3.11,38.195c-0.455,5.597-4.598,10.212-10.213,10.212H59.176L58.498,38.157z"/>
<path style="fill-rule:evenodd;clip-rule:evenodd;fill:#F2E5D6;" d="M67.542,44.792c0.594,1.578,3.022,3.507,5.82,4.526
	c10.26,3.738,14.658,3.462,17.926,13.021c-4.437,4.715-9.867,8.481-15.961,10.959H41.188c-5.584-2.272-10.612-5.623-14.828-9.797
	c0.264-16.521,18.478-6.919,22.771-18.709c0.807-2.217,0.842-5.692,0.331-7.983l8.875,0.171l8.875-0.171
	C66.699,39.1,66.708,42.584,67.542,44.792z"/>
<path style="fill-rule:evenodd;clip-rule:evenodd;fill:#E5D0BD;" d="M67.542,44.792c0.479,1.27,2.112,2.816,4.27,3.756
	c10.635,4.63,18.343,4.358,19.477,13.791c-4.437,4.715-9.867,8.481-15.961,10.959H58.243V36.978l0.094,0.002l8.875-0.171
	C66.699,39.1,66.708,42.584,67.542,44.792z"/>
<polygon style="fill-rule:evenodd;clip-rule:evenodd;fill:#67DAF9;" points="47.648,46.419 58.309,47.561 69.103,46.35 68.106,80 
	48.756,80 "/>
<path style="fill-rule:evenodd;clip-rule:evenodd;fill:#FFF0DC;" d="M58.475,42.135c-0.051,0.004-0.101,0.004-0.15,0.004
	c-1.845,0.012-2.761-0.018-3.764-0.441c-0.968-0.412-1.437-1.363-2.771-2.646c-1.134-1.091-3.167-2.204-3.664-3.392
	c-0.602-1.447-0.46-3.023-0.716-5.126c-1.052,0.578-2.177-2.432-2.401-3.419c-0.328-1.457-1.377-3.934-1.706-5.596
	c-0.188-0.951-0.074-1.708,0.246-1.946c0.701-0.522,1.423-0.217,2.484,1.266c-0.063-2.102-0.091-3.876,0.176-5.402
	c1.452-8.325,21.799-12.993,24.076-0.039c0.268,1.529,0.245,3.304,0.187,5.413c1.05-1.458,1.767-1.757,2.465-1.238
	c0.321,0.238,0.433,0.995,0.245,1.946c-0.327,1.663-1.376,4.14-1.704,5.596c-0.222,0.976-1.324,3.927-2.365,3.436
	c-0.231,2.039-0.105,3.575-0.691,5c-0.492,1.194-2.511,2.32-3.637,3.423c-1.328,1.3-1.796,2.251-2.759,2.678
	C61.063,42.07,60.178,42.128,58.475,42.135z"/>
<path style="fill-rule:evenodd;clip-rule:evenodd;fill:#FCE9D4;" d="M58.475,42.135c-0.051,0.004-0.101,0.004-0.15,0.004
	l-0.081,0.001V7.408c5.453-0.479,10.924,1.631,12.043,7.988c0.268,1.529,0.245,3.304,0.187,5.413
	c1.05-1.458,1.767-1.757,2.465-1.238c0.321,0.238,0.433,0.995,0.245,1.946c-0.327,1.663-1.376,4.14-1.704,5.596
	c-0.222,0.976-1.324,3.927-2.365,3.436c-0.231,2.039-0.105,3.575-0.691,5c-0.492,1.194-2.511,2.32-3.637,3.423
	c-1.328,1.3-1.796,2.251-2.759,2.678C61.063,42.07,60.178,42.128,58.475,42.135z"/>
<g>
	<path style="fill-rule:evenodd;clip-rule:evenodd;fill:#DEF8FC;" d="M67.032,42.547c0.263,1.868,0.832,2.724,2.075,3.668
		l-5.329,9.101l-5.641-7.89C60.943,45.882,65.938,43.957,67.032,42.547z"/>
	<path style="fill-rule:evenodd;clip-rule:evenodd;fill:#DEF8FC;" d="M49.487,42.547c-0.265,1.868-0.834,2.724-2.075,3.668
		l5.329,9.101l5.64-7.89C55.576,45.882,50.58,43.957,49.487,42.547z"/>
</g>
<path style="fill-rule:evenodd;clip-rule:evenodd;fill:#1E2F51;" d="M47.65,46.227c-5.544,4.946-16.674,2.536-22.078,10.465
	c-2.941,4.313,1.912,37.17,1.749,47.567h27.875C52.841,95.469,49.68,52.244,47.65,46.227z"/>
<polygon style="fill-rule:evenodd;clip-rule:evenodd;fill:#1E2F51;" points="58.512,47.804 61.28,51.888 61.211,52.925 
	58.928,55.244 61.489,59.364 60.631,80 55.993,80 55.03,59.342 57.59,55.226 55.306,52.906 55.236,51.868 57.998,47.788 "/>
<polygon style="fill-rule:evenodd;clip-rule:evenodd;fill:#122247;" points="58.512,47.804 61.28,51.888 61.211,52.925 
	58.928,55.244 61.489,59.364 60.631,80 58.26,80 58.26,47.796 "/>
<path style="fill-rule:evenodd;clip-rule:evenodd;fill:#5D73A5;" d="M47.65,46.227c-1.172,0.989-3.253,2.021-5.457,2.802
	l0.112,0.083l-0.278,11.627l4.983-0.554l-2.906,3.876L48.497,80h6.651C52.81,71.222,49.685,52.26,47.65,46.227z"/>
<path style="fill-rule:evenodd;clip-rule:evenodd;fill:#703100;" d="M49.007,13.352c-1.725,2.064-2.14,10.121-2.02,12.917
	c-2.916-10.581-4.483-18.137,1.848-22.896c8.31-6.245,17.645-2.382,19.157,0.166c6.106,3.373,3.983,12.865,2.149,21.248
	c-0.044-3.226-1.576-10.936-2.771-14.195C62.72,7.668,53.488,16.343,49.007,13.352z"/>
<path style="fill-rule:evenodd;clip-rule:evenodd;fill:#4F2200;" d="M58.243,0.007c4.854-0.139,8.81,1.95,9.749,3.531
	c6.106,3.373,3.983,12.865,2.149,21.248c-0.044-3.226-1.576-10.936-2.771-14.195c-2.299-1.445-5.717-0.056-9.127,1.355V0.007z"/>
<path style="fill-rule:evenodd;clip-rule:evenodd;fill:#122247;" d="M68.854,46.227c5.543,4.946,16.675,2.536,22.078,10.465
	c2.94,4.313-1.915,37.17-1.749,47.567H61.309C63.663,95.469,66.826,52.244,68.854,46.227z"/>
<path style="fill-rule:evenodd;clip-rule:evenodd;fill:#485E9B;" d="M68.869,46.227c0.709,0.601,5.383,2.857,5.345,2.885
	l0.276,11.627l-4.982-0.554l2.906,3.876L68.369,80h-6.986C63.708,71.271,66.818,52.305,68.869,46.227z"/>
<path style="fill-rule:evenodd;clip-rule:evenodd;fill:#134861;" d="M59.324,24.06c0.472,0.871,1.063,2.553,1.613,3.169
	c0.569,0.641,1.822,0.862,3.572,0.828c1.678-0.033,3.608-0.415,4.354-1.207c0.718-0.765,1.031-2.033,1.644-3.597l0.509-0.248
	c0.126-0.664,0.177-1.141,0.219-1.814c-0.141-0.089-0.618-0.337-1.208-0.471c-1.522-0.345-3.991-0.165-4.789-0.108
	c-1.703,0.122-3.748,0.532-5.553,1.205c-0.907,0.337-1.975,0.337-2.881,0c-1.807-0.673-3.849-1.083-5.553-1.205
	c-0.798-0.056-3.267-0.236-4.79,0.108c-0.589,0.134-1.067,0.382-1.207,0.471c0.041,0.673,0.092,1.151,0.218,1.814l0.508,0.248
	c0.612,1.564,0.926,2.832,1.643,3.597c0.744,0.792,2.675,1.174,4.353,1.207c1.752,0.035,3.004-0.187,3.575-0.828
	c0.549-0.616,1.14-2.298,1.612-3.169C57.61,23.235,58.878,23.235,59.324,24.06L59.324,24.06z M60.279,24.255
	c-0.447-1.231-0.477-1.757,0.072-1.997c1.49-0.65,3.335-0.916,4.773-1.017c0.729-0.051,4.179-0.155,4.617,0.348
	c0.26,0.298-0.331,2.25-0.513,2.75c-0.322,0.896-0.585,1.623-1.043,2.11c-0.627,0.668-2.257,0.992-3.673,1.02
	c-1.481,0.028-2.538-0.159-3.019-0.7C61.031,26.25,60.564,25.041,60.279,24.255L60.279,24.255z M56.208,24.255
	c-0.284,0.786-0.752,1.996-1.215,2.515c-0.482,0.541-1.54,0.728-3.018,0.7c-1.417-0.028-3.047-0.351-3.674-1.02
	c-0.458-0.487-0.72-1.214-1.044-2.11c-0.182-0.501-0.773-2.452-0.514-2.75c0.439-0.503,3.891-0.399,4.617-0.348
	c1.438,0.101,3.286,0.366,4.776,1.017C56.685,22.498,56.655,23.023,56.208,24.255z"/>
<rect x="20.926" y="100.53" style="fill-rule:evenodd;clip-rule:evenodd;fill:#00A5E4;" width="74.651" height="7.47"/>
<rect x="58.252" y="100.53" style="fill-rule:evenodd;clip-rule:evenodd;fill:#00A5E4;" width="37.325" height="7.47"/>
<path style="fill-rule:evenodd;clip-rule:evenodd;fill:#DEF8FC;" d="M31.659,56.26h53.187c1.28,0,2.328,1.047,2.328,2.33v37.805
	c0,1.281-1.048,2.328-2.328,2.328H31.659c-1.281,0-2.328-1.047-2.328-2.328V58.59C29.331,57.307,30.377,56.26,31.659,56.26z"/>
<path style="fill-rule:evenodd;clip-rule:evenodd;fill:#B8F2FF;" d="M50.926,75.129h14.651c0.694,0,1.167,0.576,1.263,1.265
	l4.097,29.252c0.097,0.687-0.569,1.263-1.264,1.263H46.831c-0.693,0-1.36-0.576-1.262-1.263l4.094-29.252
	C49.759,75.705,50.231,75.129,50.926,75.129z"/>
<path style="fill-rule:evenodd;clip-rule:evenodd;fill:#B8F2FF;" d="M58.252,56.26h26.594c1.28,0,2.328,1.047,2.328,2.33v37.805
	c0,1.281-1.048,2.328-2.328,2.328H58.252V56.26z"/>
<path style="fill-rule:evenodd;clip-rule:evenodd;fill:#67DAF9;" d="M58.252,75.129h7.325c0.694,0,1.167,0.576,1.263,1.265
	l4.097,29.252c0.097,0.687-0.569,1.263-1.264,1.263H58.252V75.129z"/>
</svg>
