<?xml version="1.0" encoding="iso-8859-1"?>
<!-- Generator: Adobe Illustrator 16.0.0, SVG Export Plug-In . SVG Version: 6.00 Build 0)  -->
<!DOCTYPE svg PUBLIC "-//W3C//DTD SVG 1.1//EN" "http://www.w3.org/Graphics/SVG/1.1/DTD/svg11.dtd">
<svg version="1.1" xmlns="http://www.w3.org/2000/svg" xmlns:xlink="http://www.w3.org/1999/xlink" x="0px" y="0px" width="200px"
	 height="190px" viewBox="0 0 200 190" style="enable-background:new 0 0 200 190;" xml:space="preserve">
<g id="tanaman">
	<g>
		<g>
			<path style="fill:#67B8EF;" d="M164.271,120.26c0-10.321-7.289-20.666-16.281-20.666c-8.993,0-16.282,10.345-16.282,20.666
				c0,10.322,7.289,18.69,16.282,18.69C156.981,138.95,164.271,130.582,164.271,120.26z"/>
			<path style="opacity:0.25;fill:#34648C;" d="M147.989,99.594c-1.449,0-2.844,0.294-4.181,0.786
				c6.964,2.568,12.104,11.22,12.104,19.88c0,8.661-5.14,15.925-12.104,18.045c1.337,0.407,2.731,0.646,4.181,0.646
				c8.992,0,16.281-8.368,16.281-18.69C164.271,109.938,156.981,99.594,147.989,99.594z"/>
		</g>
	</g>
	<g>
		<g>
			<path style="fill:#67B8EF;" d="M69.168,120.26c0-10.321-7.29-20.666-16.282-20.666c-8.993,0-16.282,10.345-16.282,20.666
				c0,10.322,7.29,18.69,16.282,18.69C61.878,138.95,69.168,130.582,69.168,120.26z"/>
			<path style="opacity:0.25;fill:#34648C;" d="M52.886,99.594c-1.448,0-2.844,0.294-4.18,0.786
				c6.963,2.568,12.103,11.22,12.103,19.88c0,8.661-5.139,15.925-12.103,18.045c1.335,0.407,2.732,0.646,4.18,0.646
				c8.992,0,16.282-8.368,16.282-18.69C69.168,109.938,61.878,99.594,52.886,99.594z"/>
		</g>
	</g>
	<g>
		<path style="fill:#D2EBFF;" d="M38.242,138.061l3.545,21.941c0.502,3.111,3.188,5.397,6.34,5.397h10.802
			c3.151,0,5.837-2.286,6.34-5.397l3.545-21.941H38.242z"/>
		<path style="fill:#ACCFE5;" d="M68.814,138.061h-6.021H38.242l0.491,3.041h23.568l-3.054,18.9
			c-0.503,3.111-3.188,5.397-6.34,5.397h6.021c3.151,0,5.837-2.286,6.34-5.397l3.054-18.9l0,0L68.814,138.061z"/>
		<path style="fill:#D2EBFF;" d="M69.155,131.749H37.9c-1.757,0-3.195,1.438-3.195,3.195l0,0c0,1.757,1.438,3.194,3.195,3.194
			h31.255c1.757,0,3.194-1.438,3.194-3.194l0,0C72.349,133.188,70.912,131.749,69.155,131.749z"/>
	</g>
	<g>
		<path style="fill:#D2EBFF;" d="M131.989,138.061l3.545,21.941c0.503,3.111,3.189,5.397,6.341,5.397h10.802
			c3.151,0,5.837-2.286,6.341-5.397l3.545-21.941H131.989z"/>
		<path style="fill:#ACCFE5;" d="M162.563,138.061h-6.021h-24.552l0.491,3.041h23.569l-3.054,18.9
			c-0.503,3.111-3.189,5.397-6.34,5.397h6.021c3.151,0,5.837-2.286,6.341-5.397l3.053-18.9l0,0L162.563,138.061z"/>
		<path style="fill:#D2EBFF;" d="M162.902,131.749h-31.254c-1.757,0-3.195,1.438-3.195,3.195l0,0c0,1.757,1.438,3.194,3.195,3.194
			h31.254c1.757,0,3.195-1.438,3.195-3.194l0,0C166.098,133.188,164.659,131.749,162.902,131.749z"/>
	</g>
</g>
<g id="background">
	<ellipse style="opacity:0.56;fill:#D2EBFF;" cx="100.135" cy="173.679" rx="80.355" ry="13.746"/>
	<path style="fill:#2D3951;" d="M138.415,94.795h19.686c2.573,0,4.714-2.039,4.776-4.612c0.002-0.059,0.002-0.119,0.002-0.179
		c0.002-3.974-3.188-7.255-7.162-7.359c-0.688-0.019-1.356,0.059-1.992,0.219c-0.622-2.813-3.132-4.917-6.132-4.917
		c-3.129,0-5.724,2.288-6.201,5.283c-0.61-0.167-1.256-0.244-1.925-0.217c-3.409,0.14-6.06,2.942-6.018,6.354
		c0.015,1.13,0.327,2.188,0.863,3.1C135.164,93.916,136.732,94.795,138.415,94.795z"/>
	<g>
		<path style="fill:#89CAF7;" d="M131.331,24.485l-70.504-0.147c-5.481-0.011-9.976,4.464-9.987,9.945L50.605,154.51
			c-0.011,5.481,4.464,9.976,9.946,9.987l70.504,0.146c5.482,0.012,9.976-4.464,9.987-9.945l0.234-120.227
			C141.288,28.99,136.813,24.496,131.331,24.485z"/>
		<path style="fill:#D2EBFF;" d="M130.696,32.723l-7.734-0.016c-0.652-0.001-1.263,0.326-1.624,0.87l-1.825,2.753
			c-1.893,2.852-5.089,4.563-8.511,4.556l-29.915-0.063c-3.422-0.007-6.611-1.731-8.491-4.591l-1.814-2.761
			c-0.359-0.545-0.968-0.875-1.621-0.876l-7.734-0.016c-1.074-0.002-1.946,0.866-1.948,1.94l-0.233,119.792
			c-0.002,1.073,0.866,1.945,1.94,1.948l69.27,0.144c1.074,0.003,1.946-0.865,1.948-1.94l0.233-119.791
			C132.639,33.598,131.771,32.725,130.696,32.723z"/>
	</g>
	<path style="fill:#00A5E4;" d="M33.568,61.786h25.329c3.312,0,6.066-2.622,6.147-5.933c0.001-0.076,0.002-0.153,0.002-0.23
		c0.003-5.113-4.104-9.335-9.214-9.469c-0.887-0.023-1.747,0.077-2.565,0.282c-0.801-3.62-4.029-6.328-7.89-6.328
		c-4.027,0-7.365,2.945-7.98,6.798c-0.785-0.215-1.616-0.315-2.477-0.28c-4.386,0.18-7.796,3.786-7.742,8.176
		c0.018,1.454,0.42,2.816,1.11,3.988C29.385,60.656,31.404,61.786,33.568,61.786z"/>
	<path style="fill:#00A5E4;" d="M102.991,18.848h19.686c2.573,0,4.714-2.038,4.776-4.611c0.002-0.06,0.002-0.119,0.002-0.179
		c0.002-3.974-3.188-7.255-7.162-7.359c-0.688-0.018-1.356,0.06-1.992,0.219C117.679,4.104,115.169,2,112.169,2
		c-3.129,0-5.724,2.289-6.201,5.283c-0.61-0.167-1.256-0.244-1.925-0.217c-3.409,0.14-6.059,2.942-6.017,6.354
		c0.013,1.13,0.326,2.188,0.862,3.1C99.741,17.97,101.309,18.848,102.991,18.848z"/>
</g>
<g id="Card">
	<path style="fill:#2D3951;" d="M122.453,132.808l-55.414-0.115c-1.57-0.003-2.857,1.279-2.86,2.849l-0.065,31.396
		c-0.003,1.568,1.278,2.856,2.848,2.859l55.413,0.115c1.569,0.003,2.856-1.278,2.86-2.849l0.064-31.396
		C125.305,134.099,124.022,132.812,122.453,132.808z"/>
	<path style="fill:#489BFF;" d="M118.233,164.813l-46.026-0.026c-0.352,0-0.641,0.287-0.642,0.64l-0.015,0.058
		c-0.001,0.352,0.287,0.642,0.64,0.642l46.026,0.025c0.354,0.001,0.642-0.287,0.643-0.639l0.016-0.057
		C118.874,165.102,118.587,164.813,118.233,164.813z"/>
	<path style="fill:#89CAF7;" d="M118.233,164.813l-32.576-0.02v1.339l32.558,0.019c0.354,0.001,0.642-0.287,0.643-0.639l0.015-0.057
		C118.874,165.102,118.587,164.813,118.233,164.813z"/>
	<circle style="fill:#FFFFFF;" cx="85.493" cy="165.475" r="1.487"/>
	<ellipse style="fill:#FFFFFF;" cx="94.731" cy="148.435" rx="9.027" ry="8.813"/>
	<path style="fill:#2D3951;" d="M93.278,145.553l4.312,2.128c0.802,0.396,0.802,1.538,0,1.934l-4.312,2.128
		c-0.716,0.354-1.555-0.168-1.555-0.967v-4.256C91.723,145.721,92.562,145.199,93.278,145.553z"/>
	<path style="fill:#5E6E94;" d="M162.267,41.865l-51.875-0.108c-1.47-0.003-2.674,1.197-2.678,2.667l-0.061,29.392
		c-0.003,1.47,1.197,2.674,2.667,2.677l51.875,0.108c1.469,0.003,2.674-1.197,2.678-2.667l0.061-29.392
		C164.937,43.073,163.736,41.868,162.267,41.865z"/>
	<g>
		<path style="fill:#2D3951;" d="M149.665,50.1h-26.743c-0.997,0-1.814,0.816-1.814,1.813l0,0c0,0.997,0.817,1.813,1.814,1.813
			h26.743c0.997,0,1.813-0.816,1.813-1.813l0,0C151.479,50.916,150.662,50.1,149.665,50.1z"/>
		<path style="fill:#2D3951;" d="M143.32,58.486h-14.054c-0.996,0-1.813,0.815-1.813,1.813l0,0c0,0.997,0.816,1.813,1.813,1.813
			h14.054c0.996,0,1.813-0.816,1.813-1.813l0,0C145.133,59.302,144.316,58.486,143.32,58.486z"/>
		<path style="fill:#2D3951;" d="M147.702,66.755h-22.817c-0.996,0-1.813,0.816-1.813,1.813l0,0c0,0.998,0.816,1.814,1.813,1.814
			h22.817c0.996,0,1.813-0.816,1.813-1.814l0,0C149.515,67.572,148.698,66.755,147.702,66.755z"/>
	</g>
	<g>
		<path style="fill:#EF9CDA;" d="M88.548,72.712l-62.491-0.13c-1.77-0.004-3.221,1.441-3.225,3.212L22.759,111.2
			c-0.003,1.771,1.441,3.223,3.212,3.226l62.49,0.13c1.771,0.004,3.222-1.441,3.226-3.212l0.074-35.406
			C91.764,74.167,90.318,72.716,88.548,72.712z"/>
		<g>
			<path style="fill:#FECEF1;" d="M85.027,86.386H56.676c-0.663,0-1.205,0.542-1.205,1.205l0,0c0,0.663,0.542,1.205,1.205,1.205
				h28.351c0.663,0,1.205-0.542,1.205-1.205l0,0C86.231,86.928,85.689,86.386,85.027,86.386z"/>
			<path style="fill:#FECEF1;" d="M78.642,92.33H56.676c-0.663,0-1.205,0.542-1.205,1.205l0,0c0,0.663,0.542,1.205,1.205,1.205
				h21.966c0.663,0,1.205-0.542,1.205-1.205l0,0C79.846,92.872,79.304,92.33,78.642,92.33z"/>
			<path style="fill:#FECEF1;" d="M75.63,97.992H56.676c-0.663,0-1.205,0.542-1.205,1.204l0,0c0,0.663,0.542,1.205,1.205,1.205
				H75.63c0.663,0,1.205-0.542,1.205-1.205l0,0C76.834,98.534,76.292,97.992,75.63,97.992z"/>
		</g>
		<g>
			<g>
				<ellipse style="fill:#FECEF1;" cx="39.167" cy="87.39" rx="4.545" ry="4.701"/>
			</g>
			<path style="fill:#FECEF1;" d="M44.954,95.478l-2.74-0.892c-1.974-0.642-4.1-0.643-6.074-0.003l-2.759,0.895
				c-1.699,0.55-2.85,2.133-2.85,3.918v4.432h6.865h3.543h6.864v-4.432C47.803,97.61,46.652,96.027,44.954,95.478z"/>
		</g>
	</g>
</g>
</svg>
