<?xml version="1.0" encoding="iso-8859-1"?>
<!-- Generator: Adobe Illustrator 16.0.0, SVG Export Plug-In . SVG Version: 6.00 Build 0)  -->
<!DOCTYPE svg PUBLIC "-//W3C//DTD SVG 1.1//EN" "http://www.w3.org/Graphics/SVG/1.1/DTD/svg11.dtd">
<svg version="1.1" id="Layer_1" xmlns="http://www.w3.org/2000/svg" xmlns:xlink="http://www.w3.org/1999/xlink" x="0px" y="0px"
	 width="113px" height="108px" viewBox="0 0 113 108" style="enable-background:new 0 0 113 108;" xml:space="preserve">
<path style="fill-rule:evenodd;clip-rule:evenodd;fill:#F2E5D6;" d="M53.33,62.408c0.694,1.836,3.52,4.082,6.773,5.266
	c11.937,4.349,17.055,4.028,20.854,15.149c-5.158,5.484-11.479,9.866-18.566,12.75H22.672c-6.496-2.644-12.346-6.543-17.25-11.397
	c0.306-19.221,21.498-8.053,26.491-21.768c0.939-2.579,0.98-6.621,0.385-9.289l10.324,0.2l10.324-0.2
	C52.352,55.787,52.363,59.841,53.33,62.408z"/>
<path style="fill-rule:evenodd;clip-rule:evenodd;fill:#E5D0BD;" d="M53.33,62.408c0.558,1.478,2.458,3.276,4.969,4.37
	c12.371,5.388,21.34,5.071,22.658,16.045c-5.158,5.484-11.479,9.866-18.566,12.75H42.515V53.317l0.108,0.002l10.324-0.2
	C52.352,55.787,52.363,59.841,53.33,62.408z"/>
<polygon style="fill-rule:evenodd;clip-rule:evenodd;fill:#67DAF9;" points="30.189,64.301 42.591,65.63 55.148,64.221 
	53.989,103.369 31.477,103.369 "/>
<path style="fill-rule:evenodd;clip-rule:evenodd;fill:#FFF0DC;" d="M42.783,59.316c-0.059,0.007-0.117,0.007-0.174,0.007
	c-2.147,0.014-3.214-0.022-4.379-0.516c-1.125-0.479-1.672-1.586-3.223-3.077c-1.318-1.269-3.687-2.564-4.262-3.947
	c-0.702-1.684-0.536-3.517-0.834-5.964c-1.223,0.672-2.532-2.828-2.793-3.978c-0.383-1.693-1.602-4.576-1.984-6.51
	c-0.217-1.107-0.086-1.988,0.286-2.265c0.816-0.606,1.656-0.252,2.89,1.473c-0.072-2.446-0.106-4.508,0.205-6.284
	c1.688-9.685,25.358-15.115,28.009-0.045c0.313,1.777,0.284,3.843,0.217,6.297c1.221-1.697,2.055-2.044,2.867-1.441
	c0.372,0.277,0.505,1.158,0.286,2.265c-0.382,1.934-1.603,4.817-1.984,6.51c-0.257,1.136-1.541,4.57-2.751,3.998
	c-0.27,2.373-0.123,4.159-0.804,5.816c-0.573,1.389-2.922,2.7-4.231,3.982c-1.545,1.513-2.088,2.62-3.208,3.116
	C45.795,59.241,44.767,59.308,42.783,59.316z"/>
<path style="fill-rule:evenodd;clip-rule:evenodd;fill:#FCE9D4;" d="M42.783,59.316c-0.059,0.007-0.117,0.007-0.174,0.007h-0.094
	V18.917c6.345-0.559,12.709,1.897,14.01,9.294c0.313,1.777,0.284,3.843,0.217,6.297c1.221-1.697,2.055-2.044,2.867-1.441
	c0.372,0.277,0.505,1.158,0.286,2.265c-0.382,1.934-1.603,4.817-1.984,6.51c-0.257,1.136-1.541,4.57-2.751,3.998
	c-0.27,2.373-0.123,4.159-0.804,5.816c-0.573,1.389-2.922,2.7-4.231,3.982c-1.545,1.513-2.088,2.62-3.208,3.116
	C45.795,59.241,44.767,59.308,42.783,59.316z"/>
<g>
	<path style="fill-rule:evenodd;clip-rule:evenodd;fill:#DEF8FC;" d="M52.737,59.797c0.309,2.173,0.969,3.169,2.417,4.268
		l-6.201,10.587l-6.562-9.179C45.655,63.676,51.467,61.438,52.737,59.797z"/>
	<path style="fill-rule:evenodd;clip-rule:evenodd;fill:#DEF8FC;" d="M32.328,59.797c-0.308,2.173-0.969,3.169-2.416,4.268
		l6.199,10.587l6.562-9.179C39.411,63.676,33.599,61.438,32.328,59.797z"/>
</g>
<path style="fill-rule:evenodd;clip-rule:evenodd;fill:#1E2F51;" d="M30.189,64.077c-6.447,5.755-19.396,2.949-25.684,12.175
	c-3.42,5.021-2.479,15.017-2.671,27.117h37.134C36.23,93.139,32.551,71.076,30.189,64.077z"/>
<polygon style="fill-rule:evenodd;clip-rule:evenodd;fill:#1E2F51;" points="42.828,65.911 46.049,70.662 45.968,71.87 
	43.31,74.567 46.29,79.359 45.29,103.369 39.897,103.369 38.776,79.336 41.754,74.545 39.098,71.848 39.017,70.642 42.228,65.894 
	"/>
<polygon style="fill-rule:evenodd;clip-rule:evenodd;fill:#122247;" points="42.828,65.911 46.049,70.662 45.968,71.87 
	43.31,74.567 46.29,79.359 45.29,103.369 42.533,103.369 42.533,65.903 "/>
<path style="fill-rule:evenodd;clip-rule:evenodd;fill:#5D73A5;" d="M30.191,64.077c-1.363,1.151-3.787,2.353-6.348,3.259
	l0.129,0.098L23.65,80.96l5.796-0.644l-3.381,4.509l5.111,18.544h7.737C36.194,93.156,32.558,71.095,30.191,64.077z"/>
<path style="fill-rule:evenodd;clip-rule:evenodd;fill:#703100;" d="M31.77,25.831c-2.007,2.402-2.491,11.775-2.351,15.027
	c-3.393-12.31-5.217-21.101,2.149-26.636c9.668-7.266,20.527-2.771,22.289,0.193c7.102,3.924,4.632,14.967,2.5,24.719
	c-0.052-3.752-1.834-12.721-3.227-16.514C47.721,19.219,36.981,29.311,31.77,25.831z"/>
<path style="fill-rule:evenodd;clip-rule:evenodd;fill:#4F2200;" d="M42.515,10.307c5.646-0.162,10.249,2.269,11.342,4.108
	c7.102,3.924,4.632,14.967,2.5,24.719c-0.052-3.752-1.834-12.721-3.227-16.514c-2.672-1.68-6.648-0.065-10.616,1.578V10.307z"/>
<path style="fill-rule:evenodd;clip-rule:evenodd;fill:#122247;" d="M54.859,64.077c6.449,5.755,19.397,2.949,25.684,12.175
	c3.42,5.021,2.478,15.017,2.671,27.117H46.08C48.818,93.139,52.498,71.076,54.859,64.077z"/>
<path style="fill-rule:evenodd;clip-rule:evenodd;fill:#485E9B;" d="M54.875,64.077c0.825,0.698,6.262,3.324,6.219,3.356
	l0.321,13.526l-5.796-0.644L59,84.825l-4.708,18.544h-8.125C48.87,93.21,52.491,71.148,54.875,64.077z"/>
<g>
	<path style="fill-rule:evenodd;clip-rule:evenodd;fill:#1E2F51;" d="M77.971,73.113l-3.884,19.141L72.7,96.381l10.1,1.868
		l1.493-6.693l2.546-11.279c2.404-1.622,3.091-4.64,5.138-6.929c1.658-1.854,3.135-2.723,3.593-4.815
		c0.233-1.072,0.117-2.494-0.836-3.004c0.98-0.527,0.656-1.509,0.508-2.119c-0.17-0.682-0.308-1.443-1.399-1.305
		c0.678-0.577,0.821-1.012,0.659-1.701c-0.138-0.59-0.49-1.527-1.02-1.769c-0.376-0.171-0.832-0.118-1.553-0.105l-0.15-0.66
		c0.743-0.719,2.141-1.37,2.407-2.246c0.349-1.149-0.645-3.615-3.178-2.778l-4.786,1.577l-6.051,1.35
		c-1.188,1.781-1.843,3.475-3.138,5.515c-1.206,1.899-0.273,3.343-0.13,5.646C77.074,69.627,77.229,71.764,77.971,73.113z"/>
	<path style="fill-rule:evenodd;clip-rule:evenodd;fill:#1E2F51;" d="M92.504,71.87c1.953-1.578,2.609-1.245,3.065-3.34
		c0.233-1.069,0.117-2.492-0.836-3.002c0.98-0.527,0.656-1.509,0.508-2.119c-0.17-0.682-0.308-1.443-1.399-1.305
		c0.678-0.577,0.821-1.012,0.659-1.701c-0.138-0.59-0.49-1.524-1.02-1.769c-0.376-0.171-0.83-0.118-1.553-0.105l-0.15-0.66
		c0.743-0.719,2.141-1.37,2.407-2.246c0.349-1.149-0.645-3.614-3.178-2.778l-4.786,1.577l-3.247,0.823
		c-4.692,5.533-1.099,4.341-0.878,9.805c0.196,4.85-1.111,8.331,3.122,8.297C88.524,73.316,90.551,73.448,92.504,71.87z"/>
	<polygon style="fill-rule:evenodd;clip-rule:evenodd;fill:#1E2F51;" points="71.995,103.369 73.388,79.556 88.799,82.222 
		87.841,103.369 	"/>
</g>
<path style="fill-rule:evenodd;clip-rule:evenodd;fill:#FDB813;" d="M101.148,29.701c0.213,10.849-1.915,28.279-14.29,28.435
	c-12.374,0.157-14.649-17.537-14.436-28.435h14.362H101.148z"/>
<path style="fill-rule:evenodd;clip-rule:evenodd;fill:#FDB813;" d="M72.619,28.695h28.333c0.927,0,1.684,0.758,1.684,1.684l0,0
	c0,0.926-0.757,1.684-1.684,1.684H72.619c-0.926,0-1.683-0.758-1.683-1.684l0,0C70.937,29.453,71.693,28.695,72.619,28.695z"/>
<rect x="83.42" y="55.61" style="fill-rule:evenodd;clip-rule:evenodd;fill:#FDB813;" width="6.733" height="14.867"/>
<path style="fill-rule:evenodd;clip-rule:evenodd;fill:#5D73A5;" d="M74.591,69.853h24.391c0.697,0,1.268,0.569,1.268,1.268v12.87
	c0,0.698-0.57,1.269-1.268,1.269H74.591c-0.698,0-1.267-0.57-1.267-1.269V71.12C73.324,70.422,73.893,69.853,74.591,69.853z"/>
<rect x="72.533" y="82.935" style="fill-rule:evenodd;clip-rule:evenodd;fill:#D43726;" width="28.507" height="2.947"/>
<rect x="79.195" y="72.543" style="fill-rule:evenodd;clip-rule:evenodd;fill:#D43726;" width="15.182" height="8.179"/>
<path style="fill-rule:evenodd;clip-rule:evenodd;fill:#FC9E0A;" d="M101.148,29.701c0.213,10.849-1.915,28.279-14.29,28.435h-0.071
	V29.701H101.148z"/>
<path style="fill-rule:evenodd;clip-rule:evenodd;fill:#FC9E0A;" d="M86.787,28.695h14.165c0.927,0,1.684,0.758,1.684,1.684l0,0
	c0,0.926-0.757,1.684-1.684,1.684H86.787V28.695z"/>
<rect x="86.787" y="55.61" style="fill-rule:evenodd;clip-rule:evenodd;fill:#FC9E0A;" width="3.366" height="14.867"/>
<path style="fill-rule:evenodd;clip-rule:evenodd;fill:#485E9B;" d="M86.787,69.853h12.428c0.568,0,1.034,0.569,1.034,1.268v12.87
	c0,0.696-0.466,1.269-1.034,1.269H86.787V81.27l2.776-4.075l-2.776-4.129V69.853z"/>
<rect x="86.787" y="82.935" style="fill-rule:evenodd;clip-rule:evenodd;fill:#BD3222;" width="14.253" height="2.947"/>
<rect x="86.787" y="72.543" style="fill-rule:evenodd;clip-rule:evenodd;fill:#BD3222;" width="7.59" height="8.179"/>
<g>
	<path style="fill-rule:evenodd;clip-rule:evenodd;fill:#FC9E0A;" d="M101.266,37.394c-0.527-1.118-0.454-2.449,0.011-3.576
		c3.566-6.68,12.842-2.759,10.751,6.822c-0.852,3.905-3.821,7.118-7.075,9.269c-2.893,1.909-4.838,1.763-6.172,2.99
		c-1.028,0.947-0.81,2.479,0.904,2.018c0.56-0.149,1.135,0.183,1.286,0.743c0.148,0.559-0.184,1.135-0.743,1.286
		c-1.053,0.282-1.946,0.167-2.635-0.196c-2.111-1.112-1.847-3.91-0.233-5.393c1.149-1.057,3.705-1.069,6.905-3.317
		c2.683-1.883,4.898-4.725,5.567-7.922C111.77,30.828,102.062,30.716,101.266,37.394z"/>
	<path style="fill-rule:evenodd;clip-rule:evenodd;fill:#FDB813;" d="M72.247,37.394c0.527-1.118,0.453-2.449-0.011-3.576
		c-3.566-6.68-12.842-2.759-10.753,6.822c0.851,3.905,3.82,7.118,7.077,9.269c2.892,1.909,4.838,1.763,6.172,2.99
		c1.028,0.947,0.81,2.479-0.904,2.018c-0.562-0.149-1.137,0.183-1.286,0.743c-0.149,0.559,0.184,1.135,0.743,1.286
		c1.051,0.282,1.944,0.167,2.634-0.196c2.111-1.112,1.846-3.91,0.234-5.393c-1.149-1.057-3.705-1.069-6.908-3.317
		c-2.682-1.883-4.896-4.725-5.565-7.922C61.743,30.828,71.45,30.716,72.247,37.394z"/>
</g>
<path style="fill-rule:evenodd;clip-rule:evenodd;fill:#FFDBA7;" d="M95.569,68.53c0.459-0.957,0.123-2.406-0.752-2.953
	c-1.917,0.683-3.814,1.398-5.718,2.114c-0.752,0.282-1.07,1.511-0.414,2.164c0.573,0.567,2.613,0.231,3.986-0.078
	C94.674,69.326,95.246,69.206,95.569,68.53L95.569,68.53z M94.872,65.443l-0.38,0.084l-0.631,0.208l-4.086,1.521
	c-1.306,0.563-3.114,1.393-4.041,1.04c-0.539-0.203-0.973-0.511-0.99-1.469c-0.014-0.737,0.191-1.266,0.888-1.473
	c3.027-0.905,5.626-2.019,8.514-3.266c0.816,0.032,0.943,0.707,1.096,1.32C95.383,63.991,95.682,64.904,94.872,65.443L94.872,65.443
	z M93.977,61.984c-2.762,1.179-5.256,2.168-8.428,3.283c-1.712,0.319-2.233-1.885-0.939-2.928c0.816-0.656,3.199-1.757,5.185-2.643
	c1.123-0.501,2.021-0.937,2.697-1.183c0.415-0.009,0.723-0.001,0.99,0.12c0.529,0.244,0.882,1.179,1.02,1.769
	C94.653,61.045,94.537,61.464,93.977,61.984L93.977,61.984z M92.151,57.55c0.765-0.602,1.809-1.182,2.034-1.927
	c0.324-1.073-0.805-3.407-2.067-2.748c-0.895,0.467-2.114,1.159-3.264,1.803c-1.733,0.973-3.271,1.955-2.768,3.473
	c0.224,0.675,0.862,1.384,2.058,0.939C89.812,58.471,90.688,58.222,92.151,57.55z"/>
<path style="fill-rule:evenodd;clip-rule:evenodd;fill:#FFDBA7;" d="M80.225,55.76l-0.054,0.012
	c-1.188,1.781-1.843,3.475-3.138,5.515c-1.206,1.899-0.273,3.343-0.128,5.646c0.03,0.494,0.061,0.971,0.095,1.427
	c0.351-0.324,0.689-0.641,1.009-0.948c2.337-2.244,3.721-3.877,3.23-6.984c1.593,1.143,5.117,1.347,5.84,0.041
	c0.72-1.297-1.213-2.106-2.159-2.607c-1.471-0.78-3.577-1.761-4.542-2.055C80.327,55.789,80.275,55.774,80.225,55.76z"/>
</svg>
