<?xml version="1.0" encoding="iso-8859-1"?>
<!-- Generator: Adobe Illustrator 16.0.0, SVG Export Plug-In . SVG Version: 6.00 Build 0)  -->
<!DOCTYPE svg PUBLIC "-//W3C//DTD SVG 1.1//EN" "http://www.w3.org/Graphics/SVG/1.1/DTD/svg11.dtd">
<svg version="1.1" id="Layer_1" xmlns="http://www.w3.org/2000/svg" xmlns:xlink="http://www.w3.org/1999/xlink" x="0px" y="0px"
	 width="113px" height="108px" viewBox="0 0 113 108" style="enable-background:new 0 0 113 108;" xml:space="preserve">
<rect x="10.748" y="3.566" style="fill-rule:evenodd;clip-rule:evenodd;fill:#DEF8FC;" width="93.504" height="103.867"/>
<rect x="17.241" y="13.3" style="fill-rule:evenodd;clip-rule:evenodd;fill:#5D73A5;" width="31.188" height="31.188"/>
<g>
	<rect x="55.83" y="13.502" style="fill-rule:evenodd;clip-rule:evenodd;fill:#67DAF9;" width="40.151" height="4.545"/>
	<rect x="55.83" y="22.592" style="fill-rule:evenodd;clip-rule:evenodd;fill:#67DAF9;" width="40.151" height="4.545"/>
	<rect x="55.83" y="31.684" style="fill-rule:evenodd;clip-rule:evenodd;fill:#67DAF9;" width="40.151" height="4.545"/>
	<rect x="55.83" y="40.774" style="fill-rule:evenodd;clip-rule:evenodd;fill:#67DAF9;" width="40.151" height="4.545"/>
	<rect x="17.241" y="49.865" style="fill-rule:evenodd;clip-rule:evenodd;fill:#67DAF9;" width="80.518" height="4.545"/>
	<rect x="31.661" y="58.956" style="fill-rule:evenodd;clip-rule:evenodd;fill:#67DAF9;" width="58.825" height="4.546"/>
	<rect x="31.661" y="68.047" style="fill-rule:evenodd;clip-rule:evenodd;fill:#67DAF9;" width="58.825" height="4.545"/>
	<rect x="31.661" y="95.317" style="fill-rule:evenodd;clip-rule:evenodd;fill:#67DAF9;" width="58.825" height="4.547"/>
	<rect x="31.661" y="77.136" style="fill-rule:evenodd;clip-rule:evenodd;fill:#67DAF9;" width="58.825" height="4.547"/>
	<rect x="17.241" y="86.229" style="fill-rule:evenodd;clip-rule:evenodd;fill:#67DAF9;" width="80.518" height="4.545"/>
	<rect x="20.939" y="58.956" style="fill-rule:evenodd;clip-rule:evenodd;fill:#67DAF9;" width="4.398" height="4.546"/>
	<rect x="20.939" y="68.047" style="fill-rule:evenodd;clip-rule:evenodd;fill:#67DAF9;" width="4.398" height="4.545"/>
	<rect x="20.939" y="95.317" style="fill-rule:evenodd;clip-rule:evenodd;fill:#67DAF9;" width="4.398" height="4.547"/>
	<rect x="20.939" y="77.136" style="fill-rule:evenodd;clip-rule:evenodd;fill:#67DAF9;" width="4.398" height="4.547"/>
</g>
<g>
	<path style="fill-rule:evenodd;clip-rule:evenodd;fill:#F0C17D;" d="M37.37,38.292c0.29,0.77,1.475,1.712,2.841,2.209
		c3.956,1.44,6.126,1.66,7.649,3.986H17.912c2.1-3.917,8.704-1.342,10.471-6.196c0.395-1.082,0.412-2.778,0.162-3.897l4.333,0.083
		l4.332-0.083C36.958,35.514,36.963,37.214,37.37,38.292z"/>
	<polygon style="fill-rule:evenodd;clip-rule:evenodd;fill:#A0E8E8;" points="27.659,39.086 32.862,39.644 38.132,39.053 
		37.97,44.488 27.837,44.488 	"/>
	<path style="fill-rule:evenodd;clip-rule:evenodd;fill:#FFDBA7;" d="M32.943,36.995c-0.025,0.002-0.049,0.002-0.074,0.002
		c-0.9,0.006-1.347-0.009-1.837-0.216c-0.473-0.201-0.702-0.665-1.352-1.292c-0.553-0.532-1.547-1.076-1.789-1.656
		c-0.293-0.707-0.225-1.476-0.349-2.502c-0.514,0.283-1.063-1.187-1.173-1.669c-0.16-0.71-0.672-1.92-0.832-2.731
		c-0.092-0.465-0.037-0.834,0.12-0.951c0.342-0.254,0.694-0.105,1.212,0.618c-0.031-1.026-0.044-1.891,0.086-2.637
		c0.708-4.063,10.64-6.342,11.752-0.019c0.131,0.745,0.119,1.613,0.09,2.642c0.513-0.712,0.863-0.858,1.204-0.605
		c0.156,0.117,0.211,0.486,0.12,0.951c-0.16,0.811-0.672,2.021-0.833,2.731c-0.108,0.477-0.646,1.917-1.154,1.677
		c-0.113,0.995-0.051,1.745-0.336,2.44c-0.242,0.583-1.227,1.133-1.777,1.671c-0.647,0.635-0.875,1.1-1.345,1.308
		C34.208,36.963,33.775,36.992,32.943,36.995z"/>
	<g>
		<path style="fill-rule:evenodd;clip-rule:evenodd;fill:#DBFBF6;" d="M37.12,37.196c0.129,0.913,0.407,1.329,1.014,1.791
			l-2.602,4.442l-2.753-3.852C34.147,38.824,36.587,37.884,37.12,37.196z"/>
		<path style="fill-rule:evenodd;clip-rule:evenodd;fill:#DBFBF6;" d="M28.556,37.196c-0.129,0.913-0.407,1.329-1.013,1.791
			l2.601,4.442l2.754-3.852C31.529,38.824,29.09,37.884,28.556,37.196z"/>
	</g>
	<path style="fill-rule:evenodd;clip-rule:evenodd;fill:#0EA8B3;" d="M27.66,38.993c-2.589,2.31-7.674,1.333-10.418,4.634v0.861
		h11.741C28.496,42.154,28.038,40.113,27.66,38.993z"/>
	<polygon style="fill-rule:evenodd;clip-rule:evenodd;fill:#14BAC6;" points="32.962,39.762 34.313,41.756 34.28,42.262 
		33.165,43.394 33.845,44.488 31.826,44.488 32.512,43.384 31.397,42.253 31.363,41.747 32.71,39.754 	"/>
	<polygon style="fill-rule:evenodd;clip-rule:evenodd;fill:#0EA8B3;" points="32.962,39.762 34.313,41.756 34.28,42.262 
		33.165,43.394 33.845,44.488 32.839,44.488 32.839,39.759 	"/>
	<path style="fill-rule:evenodd;clip-rule:evenodd;fill:#14BAC6;" d="M27.66,38.993c-0.572,0.482-1.589,0.986-2.664,1.367
		l0.055,0.041l-0.098,4.087h4.024C28.494,42.155,28.039,40.116,27.66,38.993z"/>
	<path style="fill-rule:evenodd;clip-rule:evenodd;fill:#703100;" d="M28.322,22.945c-0.842,1.007-1.044,4.941-0.986,6.306
		c-1.423-5.165-2.188-8.854,0.903-11.177c4.056-3.049,8.613-1.163,9.352,0.081c2.98,1.646,1.944,6.28,1.048,10.372
		c-0.021-1.574-0.769-5.338-1.353-6.929C35.016,20.17,30.509,24.405,28.322,22.945z"/>
	<path style="fill-rule:evenodd;clip-rule:evenodd;fill:#06929C;" d="M38.01,38.993c2.588,2.31,7.673,1.333,10.418,4.634v0.861
		H36.688C37.174,42.154,37.632,40.113,38.01,38.993z"/>
	<path style="fill-rule:evenodd;clip-rule:evenodd;fill:#0EA8B3;" d="M38.017,38.993c0.346,0.292,2.627,1.395,2.609,1.408
		l0.098,4.087H36.7C37.181,42.16,37.637,40.122,38.017,38.993z"/>
</g>
</svg>
