<?xml version="1.0" encoding="iso-8859-1"?>
<!-- Generator: Adobe Illustrator 16.0.0, SVG Export Plug-In . SVG Version: 6.00 Build 0)  -->
<!DOCTYPE svg PUBLIC "-//W3C//DTD SVG 1.1//EN" "http://www.w3.org/Graphics/SVG/1.1/DTD/svg11.dtd">
<svg version="1.1" id="Layer_1" xmlns="http://www.w3.org/2000/svg" xmlns:xlink="http://www.w3.org/1999/xlink" x="0px" y="0px"
	 width="320px" height="280px" viewBox="0 0 320 280" style="enable-background:new 0 0 320 280;" xml:space="preserve">
<g>
	<path id="XMLID_6_" style="fill:#AAD0E2;" d="M243.453,93.566c-1.194,0-2.378,0.044-3.552,0.124
		c-3.966-23.045-24.045-40.579-48.223-40.579c-11.057,0-21.256,3.668-29.45,9.853C153.372,47.342,136.597,36.8,117.356,36.8
		c-28.469,0-51.547,23.078-51.547,51.547c0,1.804,0.093,3.586,0.274,5.342c-1.169-0.079-2.348-0.123-3.537-0.123
		C34.079,93.566,11,116.645,11,145.113c0,28.469,23.079,51.548,51.547,51.548h180.906c28.469,0,51.547-23.079,51.547-51.548
		C295,116.645,271.922,93.566,243.453,93.566z"/>
	<path id="XMLID_3_" style="fill:#B3D5E3;" d="M243.453,93.566c-1.194,0-2.378,0.044-3.552,0.124
		c-3.966-23.045-24.045-40.579-48.223-40.579c-11.057,0-21.256,3.668-29.45,9.853C153.372,47.342,136.597,36.8,117.356,36.8
		c-28.469,0-51.547,23.078-51.547,51.547c0,1.804,0.093,3.586,0.274,5.342c-1.169-0.079-2.348-0.123-3.537-0.123
		C34.079,93.566,11,116.645,11,145.113c0,28.469,23.079,51.548,51.547,51.548h180.906c28.469,0,51.547-23.079,51.547-51.548
		C295,116.645,271.922,93.566,243.453,93.566z"/>
	<path style="fill:#C3DEE8;" d="M138.274,48.227c-4.773-1.525-9.861-2.351-15.143-2.351c-27.471,0-49.741,22.27-49.741,49.741
		c0,1.741,0.09,3.461,0.265,5.156c-1.128-0.077-2.266-0.119-3.413-0.119c-27.472,0-49.742,22.27-49.742,49.741
		c0,9.022,2.405,17.481,6.606,24.775c-1.897-22.442,1.499-65.292,55.292-64.243C81.85,96.275,84.447,50.339,138.274,48.227z"/>
	<path style="fill:#A5C7DD;" d="M87.473,196.661h155.98c28.469,0,51.547-23.079,51.547-51.548c0-6.079-1.061-11.909-2.993-17.325
		C258.112,194.542,143.48,188.633,87.473,196.661z"/>
	<polygon id="XMLID_2_" style="fill:#33854C;" points="182.261,218.827 182.261,153.793 123.738,153.793 123.738,218.827 
		98.627,218.827 153,273.2 207.372,218.827 	"/>
	<path style="fill:#379050;" d="M123.738,193.084v3.577h58.522v-9.679C162.152,190.041,141.927,191.629,123.738,193.084z"/>
	<polygon style="fill:#49A054;" points="182.261,196.661 123.738,196.661 123.738,218.827 98.627,218.827 153,273.2 
		207.373,218.827 182.261,218.827 	"/>
	<polygon style="fill:#379050;" points="153,273.2 144.556,264.755 207.373,218.827 	"/>
</g>
</svg>
